G04 #@! TF.GenerationSoftware,KiCad,Pcbnew,5.0.2-bee76a0~70~ubuntu16.04.1*
G04 #@! TF.CreationDate,2019-01-02T19:21:14+00:00*
G04 #@! TF.ProjectId,stm32l053c,73746d33-326c-4303-9533-632e6b696361,rev?*
G04 #@! TF.SameCoordinates,Original*
G04 #@! TF.FileFunction,Soldermask,Bot*
G04 #@! TF.FilePolarity,Negative*
%FSLAX46Y46*%
G04 Gerber Fmt 4.6, Leading zero omitted, Abs format (unit mm)*
G04 Created by KiCad (PCBNEW 5.0.2-bee76a0~70~ubuntu16.04.1) date Wed 02 Jan 2019 19:21:14 GMT*
%MOMM*%
%LPD*%
G01*
G04 APERTURE LIST*
%ADD10C,0.101600*%
G04 APERTURE END LIST*
D10*
G36*
X170991743Y-114230660D02*
X171610504Y-114486959D01*
X172167374Y-114859048D01*
X172640952Y-115332626D01*
X173013041Y-115889496D01*
X173269340Y-116508257D01*
X173400000Y-117165129D01*
X173400000Y-117834871D01*
X173269340Y-118491743D01*
X173013041Y-119110504D01*
X172640952Y-119667374D01*
X172167374Y-120140952D01*
X171610504Y-120513041D01*
X170991743Y-120769340D01*
X170334871Y-120900000D01*
X169665129Y-120900000D01*
X169008257Y-120769340D01*
X168389496Y-120513041D01*
X167832626Y-120140952D01*
X167359048Y-119667374D01*
X166986959Y-119110504D01*
X166730660Y-118491743D01*
X166600000Y-117834871D01*
X166600000Y-117165129D01*
X166730660Y-116508257D01*
X166986959Y-115889496D01*
X167359048Y-115332626D01*
X167832626Y-114859048D01*
X168389496Y-114486959D01*
X169008257Y-114230660D01*
X169665129Y-114100000D01*
X170334871Y-114100000D01*
X170991743Y-114230660D01*
X170991743Y-114230660D01*
G37*
G36*
X90991743Y-114230660D02*
X91610504Y-114486959D01*
X92167374Y-114859048D01*
X92640952Y-115332626D01*
X93013041Y-115889496D01*
X93269340Y-116508257D01*
X93400000Y-117165129D01*
X93400000Y-117834871D01*
X93269340Y-118491743D01*
X93013041Y-119110504D01*
X92640952Y-119667374D01*
X92167374Y-120140952D01*
X91610504Y-120513041D01*
X90991743Y-120769340D01*
X90334871Y-120900000D01*
X89665129Y-120900000D01*
X89008257Y-120769340D01*
X88389496Y-120513041D01*
X87832626Y-120140952D01*
X87359048Y-119667374D01*
X86986959Y-119110504D01*
X86730660Y-118491743D01*
X86600000Y-117834871D01*
X86600000Y-117165129D01*
X86730660Y-116508257D01*
X86986959Y-115889496D01*
X87359048Y-115332626D01*
X87832626Y-114859048D01*
X88389496Y-114486959D01*
X89008257Y-114230660D01*
X89665129Y-114100000D01*
X90334871Y-114100000D01*
X90991743Y-114230660D01*
X90991743Y-114230660D01*
G37*
G36*
X150065836Y-117945193D02*
X150263762Y-118005233D01*
X150446171Y-118102733D01*
X150606054Y-118233946D01*
X150737267Y-118393829D01*
X150834767Y-118576238D01*
X150894807Y-118774164D01*
X150915080Y-118980000D01*
X150894807Y-119185836D01*
X150834767Y-119383762D01*
X150737267Y-119566171D01*
X150606054Y-119726054D01*
X150446171Y-119857267D01*
X150263762Y-119954767D01*
X150065836Y-120014807D01*
X149911578Y-120030000D01*
X149808422Y-120030000D01*
X149654164Y-120014807D01*
X149456238Y-119954767D01*
X149273829Y-119857267D01*
X149113946Y-119726054D01*
X148982733Y-119566171D01*
X148885233Y-119383762D01*
X148825193Y-119185836D01*
X148804920Y-118980000D01*
X148825193Y-118774164D01*
X148885233Y-118576238D01*
X148982733Y-118393829D01*
X149113946Y-118233946D01*
X149273829Y-118102733D01*
X149456238Y-118005233D01*
X149654164Y-117945193D01*
X149808422Y-117930000D01*
X149911578Y-117930000D01*
X150065836Y-117945193D01*
X150065836Y-117945193D01*
G37*
G36*
X152605836Y-117945193D02*
X152803762Y-118005233D01*
X152986171Y-118102733D01*
X153146054Y-118233946D01*
X153277267Y-118393829D01*
X153374767Y-118576238D01*
X153434807Y-118774164D01*
X153455080Y-118980000D01*
X153434807Y-119185836D01*
X153374767Y-119383762D01*
X153277267Y-119566171D01*
X153146054Y-119726054D01*
X152986171Y-119857267D01*
X152803762Y-119954767D01*
X152605836Y-120014807D01*
X152451578Y-120030000D01*
X152348422Y-120030000D01*
X152194164Y-120014807D01*
X151996238Y-119954767D01*
X151813829Y-119857267D01*
X151653946Y-119726054D01*
X151522733Y-119566171D01*
X151425233Y-119383762D01*
X151365193Y-119185836D01*
X151344920Y-118980000D01*
X151365193Y-118774164D01*
X151425233Y-118576238D01*
X151522733Y-118393829D01*
X151653946Y-118233946D01*
X151813829Y-118102733D01*
X151996238Y-118005233D01*
X152194164Y-117945193D01*
X152348422Y-117930000D01*
X152451578Y-117930000D01*
X152605836Y-117945193D01*
X152605836Y-117945193D01*
G37*
G36*
X155145836Y-117945193D02*
X155343762Y-118005233D01*
X155526171Y-118102733D01*
X155686054Y-118233946D01*
X155817267Y-118393829D01*
X155914767Y-118576238D01*
X155974807Y-118774164D01*
X155995080Y-118980000D01*
X155974807Y-119185836D01*
X155914767Y-119383762D01*
X155817267Y-119566171D01*
X155686054Y-119726054D01*
X155526171Y-119857267D01*
X155343762Y-119954767D01*
X155145836Y-120014807D01*
X154991578Y-120030000D01*
X154888422Y-120030000D01*
X154734164Y-120014807D01*
X154536238Y-119954767D01*
X154353829Y-119857267D01*
X154193946Y-119726054D01*
X154062733Y-119566171D01*
X153965233Y-119383762D01*
X153905193Y-119185836D01*
X153884920Y-118980000D01*
X153905193Y-118774164D01*
X153965233Y-118576238D01*
X154062733Y-118393829D01*
X154193946Y-118233946D01*
X154353829Y-118102733D01*
X154536238Y-118005233D01*
X154734164Y-117945193D01*
X154888422Y-117930000D01*
X154991578Y-117930000D01*
X155145836Y-117945193D01*
X155145836Y-117945193D01*
G37*
G36*
X144985836Y-117945193D02*
X145183762Y-118005233D01*
X145366171Y-118102733D01*
X145526054Y-118233946D01*
X145657267Y-118393829D01*
X145754767Y-118576238D01*
X145814807Y-118774164D01*
X145835080Y-118980000D01*
X145814807Y-119185836D01*
X145754767Y-119383762D01*
X145657267Y-119566171D01*
X145526054Y-119726054D01*
X145366171Y-119857267D01*
X145183762Y-119954767D01*
X144985836Y-120014807D01*
X144831578Y-120030000D01*
X144728422Y-120030000D01*
X144574164Y-120014807D01*
X144376238Y-119954767D01*
X144193829Y-119857267D01*
X144033946Y-119726054D01*
X143902733Y-119566171D01*
X143805233Y-119383762D01*
X143745193Y-119185836D01*
X143724920Y-118980000D01*
X143745193Y-118774164D01*
X143805233Y-118576238D01*
X143902733Y-118393829D01*
X144033946Y-118233946D01*
X144193829Y-118102733D01*
X144376238Y-118005233D01*
X144574164Y-117945193D01*
X144728422Y-117930000D01*
X144831578Y-117930000D01*
X144985836Y-117945193D01*
X144985836Y-117945193D01*
G37*
G36*
X143290000Y-120030000D02*
X141190000Y-120030000D01*
X141190000Y-117930000D01*
X143290000Y-117930000D01*
X143290000Y-120030000D01*
X143290000Y-120030000D01*
G37*
G36*
X147525836Y-117945193D02*
X147723762Y-118005233D01*
X147906171Y-118102733D01*
X148066054Y-118233946D01*
X148197267Y-118393829D01*
X148294767Y-118576238D01*
X148354807Y-118774164D01*
X148375080Y-118980000D01*
X148354807Y-119185836D01*
X148294767Y-119383762D01*
X148197267Y-119566171D01*
X148066054Y-119726054D01*
X147906171Y-119857267D01*
X147723762Y-119954767D01*
X147525836Y-120014807D01*
X147371578Y-120030000D01*
X147268422Y-120030000D01*
X147114164Y-120014807D01*
X146916238Y-119954767D01*
X146733829Y-119857267D01*
X146573946Y-119726054D01*
X146442733Y-119566171D01*
X146345233Y-119383762D01*
X146285193Y-119185836D01*
X146264920Y-118980000D01*
X146285193Y-118774164D01*
X146345233Y-118576238D01*
X146442733Y-118393829D01*
X146573946Y-118233946D01*
X146733829Y-118102733D01*
X146916238Y-118005233D01*
X147114164Y-117945193D01*
X147268422Y-117930000D01*
X147371578Y-117930000D01*
X147525836Y-117945193D01*
X147525836Y-117945193D01*
G37*
G36*
X108791689Y-118038429D02*
X108791692Y-118038430D01*
X108791691Y-118038430D01*
X108973678Y-118113811D01*
X109137462Y-118223248D01*
X109276752Y-118362538D01*
X109297659Y-118393828D01*
X109386189Y-118526322D01*
X109461571Y-118708311D01*
X109500000Y-118901509D01*
X109500000Y-119098491D01*
X109461571Y-119291689D01*
X109386189Y-119473678D01*
X109276751Y-119637463D01*
X109137463Y-119776751D01*
X108973678Y-119886189D01*
X108791689Y-119961571D01*
X108598491Y-120000000D01*
X108401509Y-120000000D01*
X108208311Y-119961571D01*
X108026322Y-119886189D01*
X107862537Y-119776751D01*
X107723249Y-119637463D01*
X107613811Y-119473678D01*
X107538429Y-119291689D01*
X107500000Y-119098491D01*
X107500000Y-118901509D01*
X107538429Y-118708311D01*
X107613811Y-118526322D01*
X107702341Y-118393828D01*
X107723248Y-118362538D01*
X107862538Y-118223248D01*
X108026322Y-118113811D01*
X108208309Y-118038430D01*
X108208308Y-118038430D01*
X108208311Y-118038429D01*
X108401509Y-118000000D01*
X108598491Y-118000000D01*
X108791689Y-118038429D01*
X108791689Y-118038429D01*
G37*
G36*
X112150000Y-118650000D02*
X110950000Y-118650000D01*
X110950000Y-116350000D01*
X112150000Y-116350000D01*
X112150000Y-118650000D01*
X112150000Y-118650000D01*
G37*
G36*
X114050000Y-118650000D02*
X112850000Y-118650000D01*
X112850000Y-116350000D01*
X114050000Y-116350000D01*
X114050000Y-118650000D01*
X114050000Y-118650000D01*
G37*
G36*
X130125836Y-116465193D02*
X130323762Y-116525233D01*
X130506171Y-116622733D01*
X130666054Y-116753946D01*
X130797267Y-116913829D01*
X130894767Y-117096238D01*
X130954807Y-117294164D01*
X130975080Y-117500000D01*
X130954807Y-117705836D01*
X130894767Y-117903762D01*
X130797267Y-118086171D01*
X130666054Y-118246054D01*
X130506171Y-118377267D01*
X130323762Y-118474767D01*
X130125836Y-118534807D01*
X129971578Y-118550000D01*
X129868422Y-118550000D01*
X129714164Y-118534807D01*
X129516238Y-118474767D01*
X129333829Y-118377267D01*
X129173946Y-118246054D01*
X129042733Y-118086171D01*
X128945233Y-117903762D01*
X128885193Y-117705836D01*
X128864920Y-117500000D01*
X128885193Y-117294164D01*
X128945233Y-117096238D01*
X129042733Y-116913829D01*
X129173946Y-116753946D01*
X129333829Y-116622733D01*
X129516238Y-116525233D01*
X129714164Y-116465193D01*
X129868422Y-116450000D01*
X129971578Y-116450000D01*
X130125836Y-116465193D01*
X130125836Y-116465193D01*
G37*
G36*
X132665836Y-116465193D02*
X132863762Y-116525233D01*
X133046171Y-116622733D01*
X133206054Y-116753946D01*
X133337267Y-116913829D01*
X133434767Y-117096238D01*
X133494807Y-117294164D01*
X133515080Y-117500000D01*
X133494807Y-117705836D01*
X133434767Y-117903762D01*
X133337267Y-118086171D01*
X133206054Y-118246054D01*
X133046171Y-118377267D01*
X132863762Y-118474767D01*
X132665836Y-118534807D01*
X132511578Y-118550000D01*
X132408422Y-118550000D01*
X132254164Y-118534807D01*
X132056238Y-118474767D01*
X131873829Y-118377267D01*
X131713946Y-118246054D01*
X131582733Y-118086171D01*
X131485233Y-117903762D01*
X131425193Y-117705836D01*
X131404920Y-117500000D01*
X131425193Y-117294164D01*
X131485233Y-117096238D01*
X131582733Y-116913829D01*
X131713946Y-116753946D01*
X131873829Y-116622733D01*
X132056238Y-116525233D01*
X132254164Y-116465193D01*
X132408422Y-116450000D01*
X132511578Y-116450000D01*
X132665836Y-116465193D01*
X132665836Y-116465193D01*
G37*
G36*
X136050000Y-118550000D02*
X133950000Y-118550000D01*
X133950000Y-116450000D01*
X136050000Y-116450000D01*
X136050000Y-118550000D01*
X136050000Y-118550000D01*
G37*
G36*
X119700000Y-118500000D02*
X116300000Y-118500000D01*
X116300000Y-115100000D01*
X119700000Y-115100000D01*
X119700000Y-118500000D01*
X119700000Y-118500000D01*
G37*
G36*
X123575873Y-115165330D02*
X123752352Y-115238430D01*
X123885252Y-115293479D01*
X124163687Y-115479523D01*
X124400477Y-115716313D01*
X124516194Y-115889496D01*
X124586521Y-115994748D01*
X124714670Y-116304127D01*
X124743686Y-116450000D01*
X124780000Y-116632565D01*
X124780000Y-116967435D01*
X124714670Y-117295872D01*
X124586521Y-117605252D01*
X124400477Y-117883687D01*
X124163687Y-118120477D01*
X123993868Y-118233946D01*
X123885252Y-118306521D01*
X123575873Y-118434670D01*
X123247435Y-118500000D01*
X122912565Y-118500000D01*
X122584127Y-118434670D01*
X122274748Y-118306521D01*
X122166132Y-118233946D01*
X121996313Y-118120477D01*
X121759523Y-117883687D01*
X121573479Y-117605252D01*
X121445330Y-117295872D01*
X121380000Y-116967435D01*
X121380000Y-116632565D01*
X121416314Y-116450000D01*
X121445330Y-116304127D01*
X121573479Y-115994748D01*
X121643806Y-115889496D01*
X121759523Y-115716313D01*
X121996313Y-115479523D01*
X122274748Y-115293479D01*
X122407648Y-115238430D01*
X122584127Y-115165330D01*
X122912565Y-115100000D01*
X123247435Y-115100000D01*
X123575873Y-115165330D01*
X123575873Y-115165330D01*
G37*
G36*
X103791689Y-115238429D02*
X103973678Y-115313811D01*
X104137463Y-115423249D01*
X104276751Y-115562537D01*
X104386189Y-115726322D01*
X104461571Y-115908311D01*
X104500000Y-116101509D01*
X104500000Y-116298491D01*
X104461571Y-116491689D01*
X104461570Y-116491691D01*
X104386189Y-116673678D01*
X104332556Y-116753946D01*
X104276751Y-116837463D01*
X104137463Y-116976751D01*
X103973678Y-117086189D01*
X103791689Y-117161571D01*
X103598491Y-117200000D01*
X103401509Y-117200000D01*
X103208311Y-117161571D01*
X103026322Y-117086189D01*
X102862537Y-116976751D01*
X102723249Y-116837463D01*
X102667445Y-116753946D01*
X102613811Y-116673678D01*
X102538430Y-116491691D01*
X102538429Y-116491689D01*
X102500000Y-116298491D01*
X102500000Y-116101509D01*
X102538429Y-115908311D01*
X102613811Y-115726322D01*
X102723249Y-115562537D01*
X102862537Y-115423249D01*
X103026322Y-115313811D01*
X103208311Y-115238429D01*
X103401509Y-115200000D01*
X103598491Y-115200000D01*
X103791689Y-115238429D01*
X103791689Y-115238429D01*
G37*
G36*
X113100000Y-115650000D02*
X111900000Y-115650000D01*
X111900000Y-113350000D01*
X113100000Y-113350000D01*
X113100000Y-115650000D01*
X113100000Y-115650000D01*
G37*
G36*
X135324221Y-110606106D02*
X135382633Y-110623825D01*
X135436476Y-110652605D01*
X135483667Y-110691333D01*
X135522395Y-110738524D01*
X135551175Y-110792367D01*
X135568894Y-110850779D01*
X135575000Y-110912772D01*
X135575000Y-114087228D01*
X135568894Y-114149221D01*
X135551175Y-114207633D01*
X135522395Y-114261476D01*
X135483667Y-114308667D01*
X135436476Y-114347395D01*
X135382633Y-114376175D01*
X135324221Y-114393894D01*
X135262228Y-114400000D01*
X134187772Y-114400000D01*
X134125779Y-114393894D01*
X134067367Y-114376175D01*
X134013524Y-114347395D01*
X133966333Y-114308667D01*
X133927605Y-114261476D01*
X133898825Y-114207633D01*
X133881106Y-114149221D01*
X133875000Y-114087228D01*
X133875000Y-110912772D01*
X133881106Y-110850779D01*
X133898825Y-110792367D01*
X133927605Y-110738524D01*
X133966333Y-110691333D01*
X134013524Y-110652605D01*
X134067367Y-110623825D01*
X134125779Y-110606106D01*
X134187772Y-110600000D01*
X135262228Y-110600000D01*
X135324221Y-110606106D01*
X135324221Y-110606106D01*
G37*
G36*
X130874221Y-110606106D02*
X130932633Y-110623825D01*
X130986476Y-110652605D01*
X131033667Y-110691333D01*
X131072395Y-110738524D01*
X131101175Y-110792367D01*
X131118894Y-110850779D01*
X131125000Y-110912772D01*
X131125000Y-114087228D01*
X131118894Y-114149221D01*
X131101175Y-114207633D01*
X131072395Y-114261476D01*
X131033667Y-114308667D01*
X130986476Y-114347395D01*
X130932633Y-114376175D01*
X130874221Y-114393894D01*
X130812228Y-114400000D01*
X129737772Y-114400000D01*
X129675779Y-114393894D01*
X129617367Y-114376175D01*
X129563524Y-114347395D01*
X129516333Y-114308667D01*
X129477605Y-114261476D01*
X129448825Y-114207633D01*
X129431106Y-114149221D01*
X129425000Y-114087228D01*
X129425000Y-110912772D01*
X129431106Y-110850779D01*
X129448825Y-110792367D01*
X129477605Y-110738524D01*
X129516333Y-110691333D01*
X129563524Y-110652605D01*
X129617367Y-110623825D01*
X129675779Y-110606106D01*
X129737772Y-110600000D01*
X130812228Y-110600000D01*
X130874221Y-110606106D01*
X130874221Y-110606106D01*
G37*
G36*
X103655241Y-111317363D02*
X103655244Y-111317364D01*
X103655245Y-111317364D01*
X103881439Y-111385979D01*
X103940626Y-111417615D01*
X104089910Y-111497409D01*
X104272634Y-111647366D01*
X104422591Y-111830090D01*
X104502385Y-111979374D01*
X104534021Y-112038561D01*
X104602636Y-112264755D01*
X104602637Y-112264759D01*
X104625806Y-112500000D01*
X104602637Y-112735241D01*
X104602636Y-112735244D01*
X104602636Y-112735245D01*
X104534021Y-112961439D01*
X104534019Y-112961442D01*
X104422591Y-113169910D01*
X104272634Y-113352634D01*
X104089910Y-113502591D01*
X103940626Y-113582385D01*
X103881439Y-113614021D01*
X103655245Y-113682636D01*
X103655244Y-113682636D01*
X103655241Y-113682637D01*
X103478950Y-113700000D01*
X103361050Y-113700000D01*
X103184759Y-113682637D01*
X103184756Y-113682636D01*
X103184755Y-113682636D01*
X102958561Y-113614021D01*
X102899374Y-113582385D01*
X102750090Y-113502591D01*
X102567366Y-113352634D01*
X102417409Y-113169910D01*
X102305981Y-112961442D01*
X102305979Y-112961439D01*
X102237364Y-112735245D01*
X102237364Y-112735244D01*
X102237363Y-112735241D01*
X102214194Y-112500000D01*
X102237363Y-112264759D01*
X102237364Y-112264755D01*
X102305979Y-112038561D01*
X102337615Y-111979374D01*
X102417409Y-111830090D01*
X102567366Y-111647366D01*
X102750090Y-111497409D01*
X102899374Y-111417615D01*
X102958561Y-111385979D01*
X103184755Y-111317364D01*
X103184756Y-111317364D01*
X103184759Y-111317363D01*
X103361050Y-111300000D01*
X103478950Y-111300000D01*
X103655241Y-111317363D01*
X103655241Y-111317363D01*
G37*
G36*
X109700000Y-113700000D02*
X107300000Y-113700000D01*
X107300000Y-111300000D01*
X109700000Y-111300000D01*
X109700000Y-113700000D01*
X109700000Y-113700000D01*
G37*
G36*
X107790135Y-105856322D02*
X107850666Y-105874684D01*
X107906460Y-105904507D01*
X107955361Y-105944639D01*
X107995493Y-105993540D01*
X108025316Y-106049334D01*
X108043678Y-106109865D01*
X108050000Y-106174057D01*
X108050000Y-107325943D01*
X108043678Y-107390135D01*
X108025316Y-107450666D01*
X107995493Y-107506460D01*
X107955361Y-107555361D01*
X107906460Y-107595493D01*
X107850666Y-107625316D01*
X107790135Y-107643678D01*
X107725943Y-107650000D01*
X106824057Y-107650000D01*
X106759865Y-107643678D01*
X106699334Y-107625316D01*
X106643540Y-107595493D01*
X106594639Y-107555361D01*
X106554507Y-107506460D01*
X106524684Y-107450666D01*
X106506322Y-107390135D01*
X106500000Y-107325943D01*
X106500000Y-106174057D01*
X106506322Y-106109865D01*
X106524684Y-106049334D01*
X106554507Y-105993540D01*
X106594639Y-105944639D01*
X106643540Y-105904507D01*
X106699334Y-105874684D01*
X106759865Y-105856322D01*
X106824057Y-105850000D01*
X107725943Y-105850000D01*
X107790135Y-105856322D01*
X107790135Y-105856322D01*
G37*
G36*
X90500836Y-105565193D02*
X90698762Y-105625233D01*
X90881171Y-105722733D01*
X91041054Y-105853946D01*
X91172267Y-106013829D01*
X91269767Y-106196238D01*
X91329807Y-106394164D01*
X91350080Y-106600000D01*
X91329807Y-106805836D01*
X91269767Y-107003762D01*
X91172267Y-107186171D01*
X91041054Y-107346054D01*
X90881171Y-107477267D01*
X90698762Y-107574767D01*
X90500836Y-107634807D01*
X90346578Y-107650000D01*
X89993422Y-107650000D01*
X89839164Y-107634807D01*
X89641238Y-107574767D01*
X89458829Y-107477267D01*
X89298946Y-107346054D01*
X89167733Y-107186171D01*
X89070233Y-107003762D01*
X89010193Y-106805836D01*
X88989920Y-106600000D01*
X89010193Y-106394164D01*
X89070233Y-106196238D01*
X89167733Y-106013829D01*
X89298946Y-105853946D01*
X89458829Y-105722733D01*
X89641238Y-105625233D01*
X89839164Y-105565193D01*
X89993422Y-105550000D01*
X90346578Y-105550000D01*
X90500836Y-105565193D01*
X90500836Y-105565193D01*
G37*
G36*
X105740135Y-105856322D02*
X105800666Y-105874684D01*
X105856460Y-105904507D01*
X105905361Y-105944639D01*
X105945493Y-105993540D01*
X105975316Y-106049334D01*
X105993678Y-106109865D01*
X106000000Y-106174057D01*
X106000000Y-107325943D01*
X105993678Y-107390135D01*
X105975316Y-107450666D01*
X105945493Y-107506460D01*
X105905361Y-107555361D01*
X105856460Y-107595493D01*
X105800666Y-107625316D01*
X105740135Y-107643678D01*
X105675943Y-107650000D01*
X104774057Y-107650000D01*
X104709865Y-107643678D01*
X104649334Y-107625316D01*
X104593540Y-107595493D01*
X104544639Y-107555361D01*
X104504507Y-107506460D01*
X104474684Y-107450666D01*
X104456322Y-107390135D01*
X104450000Y-107325943D01*
X104450000Y-106174057D01*
X104456322Y-106109865D01*
X104474684Y-106049334D01*
X104504507Y-105993540D01*
X104544639Y-105944639D01*
X104593540Y-105904507D01*
X104649334Y-105874684D01*
X104709865Y-105856322D01*
X104774057Y-105850000D01*
X105675943Y-105850000D01*
X105740135Y-105856322D01*
X105740135Y-105856322D01*
G37*
G36*
X112991689Y-105638429D02*
X113081546Y-105675649D01*
X113173678Y-105713811D01*
X113337462Y-105823248D01*
X113476752Y-105962538D01*
X113534747Y-106049334D01*
X113586189Y-106126322D01*
X113661571Y-106308311D01*
X113700000Y-106501509D01*
X113700000Y-106698491D01*
X113661571Y-106891689D01*
X113595997Y-107050000D01*
X113586189Y-107073678D01*
X113476752Y-107237462D01*
X113337462Y-107376752D01*
X113239825Y-107441991D01*
X113173678Y-107486189D01*
X112991689Y-107561571D01*
X112798491Y-107600000D01*
X112601509Y-107600000D01*
X112408311Y-107561571D01*
X112226322Y-107486189D01*
X112160175Y-107441991D01*
X112062538Y-107376752D01*
X111923248Y-107237462D01*
X111813811Y-107073678D01*
X111804003Y-107050000D01*
X111738429Y-106891689D01*
X111700000Y-106698491D01*
X111700000Y-106501509D01*
X111738429Y-106308311D01*
X111813811Y-106126322D01*
X111865253Y-106049334D01*
X111923248Y-105962538D01*
X112062538Y-105823248D01*
X112226322Y-105713811D01*
X112318454Y-105675649D01*
X112408311Y-105638429D01*
X112601509Y-105600000D01*
X112798491Y-105600000D01*
X112991689Y-105638429D01*
X112991689Y-105638429D01*
G37*
G36*
X117200000Y-107600000D02*
X115200000Y-107600000D01*
X115200000Y-105600000D01*
X117200000Y-105600000D01*
X117200000Y-107600000D01*
X117200000Y-107600000D01*
G37*
G36*
X95340135Y-105656322D02*
X95400666Y-105674684D01*
X95456460Y-105704507D01*
X95505361Y-105744639D01*
X95545493Y-105793540D01*
X95575316Y-105849334D01*
X95593678Y-105909865D01*
X95600000Y-105974057D01*
X95600000Y-106875943D01*
X95593678Y-106940135D01*
X95575316Y-107000666D01*
X95545493Y-107056460D01*
X95505361Y-107105361D01*
X95456460Y-107145493D01*
X95400666Y-107175316D01*
X95340135Y-107193678D01*
X95275943Y-107200000D01*
X94124057Y-107200000D01*
X94059865Y-107193678D01*
X93999334Y-107175316D01*
X93943540Y-107145493D01*
X93894639Y-107105361D01*
X93854507Y-107056460D01*
X93824684Y-107000666D01*
X93806322Y-106940135D01*
X93800000Y-106875943D01*
X93800000Y-105974057D01*
X93806322Y-105909865D01*
X93824684Y-105849334D01*
X93854507Y-105793540D01*
X93894639Y-105744639D01*
X93943540Y-105704507D01*
X93999334Y-105674684D01*
X94059865Y-105656322D01*
X94124057Y-105650000D01*
X95275943Y-105650000D01*
X95340135Y-105656322D01*
X95340135Y-105656322D01*
G37*
G36*
X169965606Y-104955714D02*
X170020208Y-104972277D01*
X170070526Y-104999173D01*
X170114631Y-105035369D01*
X170150827Y-105079474D01*
X170177723Y-105129792D01*
X170194286Y-105184394D01*
X170200000Y-105242408D01*
X170200000Y-106757592D01*
X170194286Y-106815606D01*
X170177723Y-106870208D01*
X170150827Y-106920526D01*
X170114631Y-106964631D01*
X170070526Y-107000827D01*
X170020208Y-107027723D01*
X169965606Y-107044286D01*
X169907592Y-107050000D01*
X168092408Y-107050000D01*
X168034394Y-107044286D01*
X167979792Y-107027723D01*
X167929474Y-107000827D01*
X167885369Y-106964631D01*
X167849173Y-106920526D01*
X167822277Y-106870208D01*
X167805714Y-106815606D01*
X167800000Y-106757592D01*
X167800000Y-105242408D01*
X167805714Y-105184394D01*
X167822277Y-105129792D01*
X167849173Y-105079474D01*
X167885369Y-105035369D01*
X167929474Y-104999173D01*
X167979792Y-104972277D01*
X168034394Y-104955714D01*
X168092408Y-104950000D01*
X169907592Y-104950000D01*
X169965606Y-104955714D01*
X169965606Y-104955714D01*
G37*
G36*
X95340135Y-103606322D02*
X95400666Y-103624684D01*
X95456460Y-103654507D01*
X95505361Y-103694639D01*
X95545493Y-103743540D01*
X95575316Y-103799334D01*
X95593678Y-103859865D01*
X95600000Y-103924057D01*
X95600000Y-104825943D01*
X95593678Y-104890135D01*
X95575316Y-104950666D01*
X95545493Y-105006460D01*
X95505361Y-105055361D01*
X95456460Y-105095493D01*
X95400666Y-105125316D01*
X95340135Y-105143678D01*
X95275943Y-105150000D01*
X94124057Y-105150000D01*
X94059865Y-105143678D01*
X93999334Y-105125316D01*
X93943540Y-105095493D01*
X93894639Y-105055361D01*
X93854507Y-105006460D01*
X93824684Y-104950666D01*
X93806322Y-104890135D01*
X93800000Y-104825943D01*
X93800000Y-103924057D01*
X93806322Y-103859865D01*
X93824684Y-103799334D01*
X93854507Y-103743540D01*
X93894639Y-103694639D01*
X93943540Y-103654507D01*
X93999334Y-103624684D01*
X94059865Y-103606322D01*
X94124057Y-103600000D01*
X95275943Y-103600000D01*
X95340135Y-103606322D01*
X95340135Y-103606322D01*
G37*
G36*
X90500836Y-103065193D02*
X90698762Y-103125233D01*
X90881171Y-103222733D01*
X91041054Y-103353946D01*
X91172267Y-103513829D01*
X91269767Y-103696238D01*
X91329807Y-103894164D01*
X91350080Y-104100000D01*
X91329807Y-104305836D01*
X91269767Y-104503762D01*
X91172267Y-104686171D01*
X91041054Y-104846054D01*
X90881171Y-104977267D01*
X90698762Y-105074767D01*
X90500836Y-105134807D01*
X90346578Y-105150000D01*
X89993422Y-105150000D01*
X89839164Y-105134807D01*
X89641238Y-105074767D01*
X89458829Y-104977267D01*
X89298946Y-104846054D01*
X89167733Y-104686171D01*
X89070233Y-104503762D01*
X89010193Y-104305836D01*
X88989920Y-104100000D01*
X89010193Y-103894164D01*
X89070233Y-103696238D01*
X89167733Y-103513829D01*
X89298946Y-103353946D01*
X89458829Y-103222733D01*
X89641238Y-103125233D01*
X89839164Y-103065193D01*
X89993422Y-103050000D01*
X90346578Y-103050000D01*
X90500836Y-103065193D01*
X90500836Y-103065193D01*
G37*
G36*
X169355836Y-102465193D02*
X169553762Y-102525233D01*
X169736171Y-102622733D01*
X169896054Y-102753946D01*
X170027267Y-102913829D01*
X170124767Y-103096238D01*
X170184807Y-103294164D01*
X170205080Y-103500000D01*
X170184807Y-103705836D01*
X170124767Y-103903762D01*
X170027267Y-104086171D01*
X169896054Y-104246054D01*
X169736171Y-104377267D01*
X169553762Y-104474767D01*
X169355836Y-104534807D01*
X169201578Y-104550000D01*
X168798422Y-104550000D01*
X168644164Y-104534807D01*
X168446238Y-104474767D01*
X168263829Y-104377267D01*
X168103946Y-104246054D01*
X167972733Y-104086171D01*
X167875233Y-103903762D01*
X167815193Y-103705836D01*
X167794920Y-103500000D01*
X167815193Y-103294164D01*
X167875233Y-103096238D01*
X167972733Y-102913829D01*
X168103946Y-102753946D01*
X168263829Y-102622733D01*
X168446238Y-102525233D01*
X168644164Y-102465193D01*
X168798422Y-102450000D01*
X169201578Y-102450000D01*
X169355836Y-102465193D01*
X169355836Y-102465193D01*
G37*
G36*
X107790135Y-102356322D02*
X107850666Y-102374684D01*
X107906460Y-102404507D01*
X107955361Y-102444639D01*
X107995493Y-102493540D01*
X108025316Y-102549334D01*
X108043678Y-102609865D01*
X108050000Y-102674057D01*
X108050000Y-103825943D01*
X108043678Y-103890135D01*
X108025316Y-103950666D01*
X107995493Y-104006460D01*
X107955361Y-104055361D01*
X107906460Y-104095493D01*
X107850666Y-104125316D01*
X107790135Y-104143678D01*
X107725943Y-104150000D01*
X106824057Y-104150000D01*
X106759865Y-104143678D01*
X106699334Y-104125316D01*
X106643540Y-104095493D01*
X106594639Y-104055361D01*
X106554507Y-104006460D01*
X106524684Y-103950666D01*
X106506322Y-103890135D01*
X106500000Y-103825943D01*
X106500000Y-102674057D01*
X106506322Y-102609865D01*
X106524684Y-102549334D01*
X106554507Y-102493540D01*
X106594639Y-102444639D01*
X106643540Y-102404507D01*
X106699334Y-102374684D01*
X106759865Y-102356322D01*
X106824057Y-102350000D01*
X107725943Y-102350000D01*
X107790135Y-102356322D01*
X107790135Y-102356322D01*
G37*
G36*
X105740135Y-102356322D02*
X105800666Y-102374684D01*
X105856460Y-102404507D01*
X105905361Y-102444639D01*
X105945493Y-102493540D01*
X105975316Y-102549334D01*
X105993678Y-102609865D01*
X106000000Y-102674057D01*
X106000000Y-103825943D01*
X105993678Y-103890135D01*
X105975316Y-103950666D01*
X105945493Y-104006460D01*
X105905361Y-104055361D01*
X105856460Y-104095493D01*
X105800666Y-104125316D01*
X105740135Y-104143678D01*
X105675943Y-104150000D01*
X104774057Y-104150000D01*
X104709865Y-104143678D01*
X104649334Y-104125316D01*
X104593540Y-104095493D01*
X104544639Y-104055361D01*
X104504507Y-104006460D01*
X104474684Y-103950666D01*
X104456322Y-103890135D01*
X104450000Y-103825943D01*
X104450000Y-102674057D01*
X104456322Y-102609865D01*
X104474684Y-102549334D01*
X104504507Y-102493540D01*
X104544639Y-102444639D01*
X104593540Y-102404507D01*
X104649334Y-102374684D01*
X104709865Y-102356322D01*
X104774057Y-102350000D01*
X105675943Y-102350000D01*
X105740135Y-102356322D01*
X105740135Y-102356322D01*
G37*
G36*
X91110606Y-100555714D02*
X91165208Y-100572277D01*
X91215526Y-100599173D01*
X91259631Y-100635369D01*
X91295827Y-100679474D01*
X91322723Y-100729792D01*
X91339286Y-100784394D01*
X91345000Y-100842408D01*
X91345000Y-102357592D01*
X91339286Y-102415606D01*
X91322723Y-102470208D01*
X91295827Y-102520526D01*
X91259631Y-102564631D01*
X91215526Y-102600827D01*
X91165208Y-102627723D01*
X91110606Y-102644286D01*
X91052592Y-102650000D01*
X89287408Y-102650000D01*
X89229394Y-102644286D01*
X89174792Y-102627723D01*
X89124474Y-102600827D01*
X89080369Y-102564631D01*
X89044173Y-102520526D01*
X89017277Y-102470208D01*
X89000714Y-102415606D01*
X88995000Y-102357592D01*
X88995000Y-100842408D01*
X89000714Y-100784394D01*
X89017277Y-100729792D01*
X89044173Y-100679474D01*
X89080369Y-100635369D01*
X89124474Y-100599173D01*
X89174792Y-100572277D01*
X89229394Y-100555714D01*
X89287408Y-100550000D01*
X91052592Y-100550000D01*
X91110606Y-100555714D01*
X91110606Y-100555714D01*
G37*
G36*
X129660000Y-101270000D02*
X119260000Y-101270000D01*
X119260000Y-95870000D01*
X129660000Y-95870000D01*
X129660000Y-101270000D01*
X129660000Y-101270000D01*
G37*
G36*
X94390135Y-94006322D02*
X94450666Y-94024684D01*
X94506460Y-94054507D01*
X94555361Y-94094639D01*
X94595493Y-94143540D01*
X94625316Y-94199334D01*
X94643678Y-94259865D01*
X94650000Y-94324057D01*
X94650000Y-95225943D01*
X94643678Y-95290135D01*
X94625316Y-95350666D01*
X94595493Y-95406460D01*
X94555361Y-95455361D01*
X94506460Y-95495493D01*
X94450666Y-95525316D01*
X94390135Y-95543678D01*
X94325943Y-95550000D01*
X93174057Y-95550000D01*
X93109865Y-95543678D01*
X93049334Y-95525316D01*
X92993540Y-95495493D01*
X92944639Y-95455361D01*
X92904507Y-95406460D01*
X92874684Y-95350666D01*
X92856322Y-95290135D01*
X92850000Y-95225943D01*
X92850000Y-94324057D01*
X92856322Y-94259865D01*
X92874684Y-94199334D01*
X92904507Y-94143540D01*
X92944639Y-94094639D01*
X92993540Y-94054507D01*
X93049334Y-94024684D01*
X93109865Y-94006322D01*
X93174057Y-94000000D01*
X94325943Y-94000000D01*
X94390135Y-94006322D01*
X94390135Y-94006322D01*
G37*
G36*
X90525836Y-91635193D02*
X90723762Y-91695233D01*
X90906171Y-91792733D01*
X91066054Y-91923946D01*
X91197267Y-92083829D01*
X91294767Y-92266238D01*
X91354807Y-92464164D01*
X91375080Y-92670000D01*
X91354807Y-92875836D01*
X91294767Y-93073762D01*
X91197267Y-93256171D01*
X91066054Y-93416054D01*
X90906171Y-93547267D01*
X90723762Y-93644767D01*
X90525836Y-93704807D01*
X90371578Y-93720000D01*
X89968422Y-93720000D01*
X89814164Y-93704807D01*
X89616238Y-93644767D01*
X89433829Y-93547267D01*
X89273946Y-93416054D01*
X89142733Y-93256171D01*
X89045233Y-93073762D01*
X88985193Y-92875836D01*
X88964920Y-92670000D01*
X88985193Y-92464164D01*
X89045233Y-92266238D01*
X89142733Y-92083829D01*
X89273946Y-91923946D01*
X89433829Y-91792733D01*
X89616238Y-91695233D01*
X89814164Y-91635193D01*
X89968422Y-91620000D01*
X90371578Y-91620000D01*
X90525836Y-91635193D01*
X90525836Y-91635193D01*
G37*
G36*
X94390135Y-91956322D02*
X94450666Y-91974684D01*
X94506460Y-92004507D01*
X94555361Y-92044639D01*
X94595493Y-92093540D01*
X94625316Y-92149334D01*
X94643678Y-92209865D01*
X94650000Y-92274057D01*
X94650000Y-93175943D01*
X94643678Y-93240135D01*
X94625316Y-93300666D01*
X94595493Y-93356460D01*
X94555361Y-93405361D01*
X94506460Y-93445493D01*
X94450666Y-93475316D01*
X94390135Y-93493678D01*
X94325943Y-93500000D01*
X93174057Y-93500000D01*
X93109865Y-93493678D01*
X93049334Y-93475316D01*
X92993540Y-93445493D01*
X92944639Y-93405361D01*
X92904507Y-93356460D01*
X92874684Y-93300666D01*
X92856322Y-93240135D01*
X92850000Y-93175943D01*
X92850000Y-92274057D01*
X92856322Y-92209865D01*
X92874684Y-92149334D01*
X92904507Y-92093540D01*
X92944639Y-92044639D01*
X92993540Y-92004507D01*
X93049334Y-91974684D01*
X93109865Y-91956322D01*
X93174057Y-91950000D01*
X94325943Y-91950000D01*
X94390135Y-91956322D01*
X94390135Y-91956322D01*
G37*
G36*
X169965606Y-90955714D02*
X170020208Y-90972277D01*
X170070526Y-90999173D01*
X170114631Y-91035369D01*
X170150827Y-91079474D01*
X170177723Y-91129792D01*
X170194286Y-91184394D01*
X170200000Y-91242408D01*
X170200000Y-92757592D01*
X170194286Y-92815606D01*
X170177723Y-92870208D01*
X170150827Y-92920526D01*
X170114631Y-92964631D01*
X170070526Y-93000827D01*
X170020208Y-93027723D01*
X169965606Y-93044286D01*
X169907592Y-93050000D01*
X168092408Y-93050000D01*
X168034394Y-93044286D01*
X167979792Y-93027723D01*
X167929474Y-93000827D01*
X167885369Y-92964631D01*
X167849173Y-92920526D01*
X167822277Y-92870208D01*
X167805714Y-92815606D01*
X167800000Y-92757592D01*
X167800000Y-91242408D01*
X167805714Y-91184394D01*
X167822277Y-91129792D01*
X167849173Y-91079474D01*
X167885369Y-91035369D01*
X167929474Y-90999173D01*
X167979792Y-90972277D01*
X168034394Y-90955714D01*
X168092408Y-90950000D01*
X169907592Y-90950000D01*
X169965606Y-90955714D01*
X169965606Y-90955714D01*
G37*
G36*
X91135606Y-89125714D02*
X91190208Y-89142277D01*
X91240526Y-89169173D01*
X91284631Y-89205369D01*
X91320827Y-89249474D01*
X91347723Y-89299792D01*
X91364286Y-89354394D01*
X91370000Y-89412408D01*
X91370000Y-90927592D01*
X91364286Y-90985606D01*
X91347723Y-91040208D01*
X91320827Y-91090526D01*
X91284631Y-91134631D01*
X91240526Y-91170827D01*
X91190208Y-91197723D01*
X91135606Y-91214286D01*
X91077592Y-91220000D01*
X89262408Y-91220000D01*
X89204394Y-91214286D01*
X89149792Y-91197723D01*
X89099474Y-91170827D01*
X89055369Y-91134631D01*
X89019173Y-91090526D01*
X88992277Y-91040208D01*
X88975714Y-90985606D01*
X88970000Y-90927592D01*
X88970000Y-89412408D01*
X88975714Y-89354394D01*
X88992277Y-89299792D01*
X89019173Y-89249474D01*
X89055369Y-89205369D01*
X89099474Y-89169173D01*
X89149792Y-89142277D01*
X89204394Y-89125714D01*
X89262408Y-89120000D01*
X91077592Y-89120000D01*
X91135606Y-89125714D01*
X91135606Y-89125714D01*
G37*
G36*
X169355836Y-88465193D02*
X169553762Y-88525233D01*
X169736171Y-88622733D01*
X169896054Y-88753946D01*
X170027267Y-88913829D01*
X170124767Y-89096238D01*
X170184807Y-89294164D01*
X170205080Y-89500000D01*
X170184807Y-89705836D01*
X170124767Y-89903762D01*
X170027267Y-90086171D01*
X169896054Y-90246054D01*
X169736171Y-90377267D01*
X169553762Y-90474767D01*
X169355836Y-90534807D01*
X169201578Y-90550000D01*
X168798422Y-90550000D01*
X168644164Y-90534807D01*
X168446238Y-90474767D01*
X168263829Y-90377267D01*
X168103946Y-90246054D01*
X167972733Y-90086171D01*
X167875233Y-89903762D01*
X167815193Y-89705836D01*
X167794920Y-89500000D01*
X167815193Y-89294164D01*
X167875233Y-89096238D01*
X167972733Y-88913829D01*
X168103946Y-88753946D01*
X168263829Y-88622733D01*
X168446238Y-88525233D01*
X168644164Y-88465193D01*
X168798422Y-88450000D01*
X169201578Y-88450000D01*
X169355836Y-88465193D01*
X169355836Y-88465193D01*
G37*
G36*
X124485929Y-84416676D02*
X124703176Y-84482577D01*
X124903393Y-84589595D01*
X124965609Y-84640655D01*
X125078884Y-84733616D01*
X125171845Y-84846892D01*
X125222905Y-84909108D01*
X125329923Y-85109325D01*
X125395824Y-85326572D01*
X125412500Y-85495887D01*
X125412500Y-85704114D01*
X125395824Y-85873429D01*
X125329923Y-86090676D01*
X125222905Y-86290893D01*
X125171845Y-86353109D01*
X125078884Y-86466384D01*
X124965608Y-86559345D01*
X124903392Y-86610405D01*
X124703175Y-86717423D01*
X124485928Y-86783324D01*
X124260000Y-86805576D01*
X124034071Y-86783324D01*
X123816824Y-86717423D01*
X123616607Y-86610405D01*
X123554391Y-86559345D01*
X123441116Y-86466384D01*
X123348155Y-86353108D01*
X123297095Y-86290892D01*
X123190077Y-86090675D01*
X123124176Y-85873428D01*
X123107500Y-85704113D01*
X123107500Y-85495886D01*
X123124176Y-85326571D01*
X123190077Y-85109324D01*
X123297095Y-84909107D01*
X123348155Y-84846891D01*
X123441116Y-84733616D01*
X123554392Y-84640655D01*
X123616608Y-84589595D01*
X123816825Y-84482577D01*
X124034072Y-84416676D01*
X124260000Y-84394424D01*
X124485929Y-84416676D01*
X124485929Y-84416676D01*
G37*
G36*
X121945929Y-84416676D02*
X122163176Y-84482577D01*
X122363393Y-84589595D01*
X122425609Y-84640655D01*
X122538884Y-84733616D01*
X122631845Y-84846892D01*
X122682905Y-84909108D01*
X122789923Y-85109325D01*
X122855824Y-85326572D01*
X122872500Y-85495887D01*
X122872500Y-85704114D01*
X122855824Y-85873429D01*
X122789923Y-86090676D01*
X122682905Y-86290893D01*
X122631845Y-86353109D01*
X122538884Y-86466384D01*
X122425608Y-86559345D01*
X122363392Y-86610405D01*
X122163175Y-86717423D01*
X121945928Y-86783324D01*
X121720000Y-86805576D01*
X121494071Y-86783324D01*
X121276824Y-86717423D01*
X121076607Y-86610405D01*
X121014391Y-86559345D01*
X120901116Y-86466384D01*
X120808155Y-86353108D01*
X120757095Y-86290892D01*
X120650077Y-86090675D01*
X120584176Y-85873428D01*
X120567500Y-85704113D01*
X120567500Y-85495886D01*
X120584176Y-85326571D01*
X120650077Y-85109324D01*
X120757095Y-84909107D01*
X120808155Y-84846891D01*
X120901116Y-84733616D01*
X121014392Y-84640655D01*
X121076608Y-84589595D01*
X121276825Y-84482577D01*
X121494072Y-84416676D01*
X121720000Y-84394424D01*
X121945929Y-84416676D01*
X121945929Y-84416676D01*
G37*
G36*
X127952500Y-86800000D02*
X125647500Y-86800000D01*
X125647500Y-84400000D01*
X127952500Y-84400000D01*
X127952500Y-86800000D01*
X127952500Y-86800000D01*
G37*
G36*
X90525836Y-80205193D02*
X90723762Y-80265233D01*
X90906171Y-80362733D01*
X91066054Y-80493946D01*
X91197267Y-80653829D01*
X91294767Y-80836238D01*
X91354807Y-81034164D01*
X91375080Y-81240000D01*
X91354807Y-81445836D01*
X91294767Y-81643762D01*
X91197267Y-81826171D01*
X91066054Y-81986054D01*
X90906171Y-82117267D01*
X90723762Y-82214767D01*
X90525836Y-82274807D01*
X90371578Y-82290000D01*
X89968422Y-82290000D01*
X89814164Y-82274807D01*
X89616238Y-82214767D01*
X89433829Y-82117267D01*
X89273946Y-81986054D01*
X89142733Y-81826171D01*
X89045233Y-81643762D01*
X88985193Y-81445836D01*
X88964920Y-81240000D01*
X88985193Y-81034164D01*
X89045233Y-80836238D01*
X89142733Y-80653829D01*
X89273946Y-80493946D01*
X89433829Y-80362733D01*
X89616238Y-80265233D01*
X89814164Y-80205193D01*
X89968422Y-80190000D01*
X90371578Y-80190000D01*
X90525836Y-80205193D01*
X90525836Y-80205193D01*
G37*
G36*
X94390135Y-80231322D02*
X94450666Y-80249684D01*
X94506460Y-80279507D01*
X94555361Y-80319639D01*
X94595493Y-80368540D01*
X94625316Y-80424334D01*
X94643678Y-80484865D01*
X94650000Y-80549057D01*
X94650000Y-81450943D01*
X94643678Y-81515135D01*
X94625316Y-81575666D01*
X94595493Y-81631460D01*
X94555361Y-81680361D01*
X94506460Y-81720493D01*
X94450666Y-81750316D01*
X94390135Y-81768678D01*
X94325943Y-81775000D01*
X93174057Y-81775000D01*
X93109865Y-81768678D01*
X93049334Y-81750316D01*
X92993540Y-81720493D01*
X92944639Y-81680361D01*
X92904507Y-81631460D01*
X92874684Y-81575666D01*
X92856322Y-81515135D01*
X92850000Y-81450943D01*
X92850000Y-80549057D01*
X92856322Y-80484865D01*
X92874684Y-80424334D01*
X92904507Y-80368540D01*
X92944639Y-80319639D01*
X92993540Y-80279507D01*
X93049334Y-80249684D01*
X93109865Y-80231322D01*
X93174057Y-80225000D01*
X94325943Y-80225000D01*
X94390135Y-80231322D01*
X94390135Y-80231322D01*
G37*
G36*
X91135606Y-77695714D02*
X91190208Y-77712277D01*
X91240526Y-77739173D01*
X91284631Y-77775369D01*
X91320827Y-77819474D01*
X91347723Y-77869792D01*
X91364286Y-77924394D01*
X91370000Y-77982408D01*
X91370000Y-79497592D01*
X91364286Y-79555606D01*
X91347723Y-79610208D01*
X91320827Y-79660526D01*
X91284631Y-79704631D01*
X91240526Y-79740827D01*
X91190208Y-79767723D01*
X91135606Y-79784286D01*
X91077592Y-79790000D01*
X89262408Y-79790000D01*
X89204394Y-79784286D01*
X89149792Y-79767723D01*
X89099474Y-79740827D01*
X89055369Y-79704631D01*
X89019173Y-79660526D01*
X88992277Y-79610208D01*
X88975714Y-79555606D01*
X88970000Y-79497592D01*
X88970000Y-77982408D01*
X88975714Y-77924394D01*
X88992277Y-77869792D01*
X89019173Y-77819474D01*
X89055369Y-77775369D01*
X89099474Y-77739173D01*
X89149792Y-77712277D01*
X89204394Y-77695714D01*
X89262408Y-77690000D01*
X91077592Y-77690000D01*
X91135606Y-77695714D01*
X91135606Y-77695714D01*
G37*
G36*
X94390135Y-78181322D02*
X94450666Y-78199684D01*
X94506460Y-78229507D01*
X94555361Y-78269639D01*
X94595493Y-78318540D01*
X94625316Y-78374334D01*
X94643678Y-78434865D01*
X94650000Y-78499057D01*
X94650000Y-79400943D01*
X94643678Y-79465135D01*
X94625316Y-79525666D01*
X94595493Y-79581460D01*
X94555361Y-79630361D01*
X94506460Y-79670493D01*
X94450666Y-79700316D01*
X94390135Y-79718678D01*
X94325943Y-79725000D01*
X93174057Y-79725000D01*
X93109865Y-79718678D01*
X93049334Y-79700316D01*
X92993540Y-79670493D01*
X92944639Y-79630361D01*
X92904507Y-79581460D01*
X92874684Y-79525666D01*
X92856322Y-79465135D01*
X92850000Y-79400943D01*
X92850000Y-78499057D01*
X92856322Y-78434865D01*
X92874684Y-78374334D01*
X92904507Y-78318540D01*
X92944639Y-78269639D01*
X92993540Y-78229507D01*
X93049334Y-78199684D01*
X93109865Y-78181322D01*
X93174057Y-78175000D01*
X94325943Y-78175000D01*
X94390135Y-78181322D01*
X94390135Y-78181322D01*
G37*
G36*
X169940606Y-76955714D02*
X169995208Y-76972277D01*
X170045526Y-76999173D01*
X170089631Y-77035369D01*
X170125827Y-77079474D01*
X170152723Y-77129792D01*
X170169286Y-77184394D01*
X170175000Y-77242408D01*
X170175000Y-78757592D01*
X170169286Y-78815606D01*
X170152723Y-78870208D01*
X170125827Y-78920526D01*
X170089631Y-78964631D01*
X170045526Y-79000827D01*
X169995208Y-79027723D01*
X169940606Y-79044286D01*
X169882592Y-79050000D01*
X168117408Y-79050000D01*
X168059394Y-79044286D01*
X168004792Y-79027723D01*
X167954474Y-79000827D01*
X167910369Y-78964631D01*
X167874173Y-78920526D01*
X167847277Y-78870208D01*
X167830714Y-78815606D01*
X167825000Y-78757592D01*
X167825000Y-77242408D01*
X167830714Y-77184394D01*
X167847277Y-77129792D01*
X167874173Y-77079474D01*
X167910369Y-77035369D01*
X167954474Y-76999173D01*
X168004792Y-76972277D01*
X168059394Y-76955714D01*
X168117408Y-76950000D01*
X169882592Y-76950000D01*
X169940606Y-76955714D01*
X169940606Y-76955714D01*
G37*
G36*
X169330836Y-74465193D02*
X169528762Y-74525233D01*
X169711171Y-74622733D01*
X169871054Y-74753946D01*
X170002267Y-74913829D01*
X170099767Y-75096238D01*
X170159807Y-75294164D01*
X170180080Y-75500000D01*
X170159807Y-75705836D01*
X170099767Y-75903762D01*
X170002267Y-76086171D01*
X169871054Y-76246054D01*
X169711171Y-76377267D01*
X169528762Y-76474767D01*
X169330836Y-76534807D01*
X169176578Y-76550000D01*
X168823422Y-76550000D01*
X168669164Y-76534807D01*
X168471238Y-76474767D01*
X168288829Y-76377267D01*
X168128946Y-76246054D01*
X167997733Y-76086171D01*
X167900233Y-75903762D01*
X167840193Y-75705836D01*
X167819920Y-75500000D01*
X167840193Y-75294164D01*
X167900233Y-75096238D01*
X167997733Y-74913829D01*
X168128946Y-74753946D01*
X168288829Y-74622733D01*
X168471238Y-74525233D01*
X168669164Y-74465193D01*
X168823422Y-74450000D01*
X169176578Y-74450000D01*
X169330836Y-74465193D01*
X169330836Y-74465193D01*
G37*
G36*
X169330836Y-71965193D02*
X169528762Y-72025233D01*
X169711171Y-72122733D01*
X169871054Y-72253946D01*
X170002267Y-72413829D01*
X170099767Y-72596238D01*
X170159807Y-72794164D01*
X170180080Y-73000000D01*
X170159807Y-73205836D01*
X170099767Y-73403762D01*
X170002267Y-73586171D01*
X169871054Y-73746054D01*
X169711171Y-73877267D01*
X169528762Y-73974767D01*
X169330836Y-74034807D01*
X169176578Y-74050000D01*
X168823422Y-74050000D01*
X168669164Y-74034807D01*
X168471238Y-73974767D01*
X168288829Y-73877267D01*
X168128946Y-73746054D01*
X167997733Y-73586171D01*
X167900233Y-73403762D01*
X167840193Y-73205836D01*
X167819920Y-73000000D01*
X167840193Y-72794164D01*
X167900233Y-72596238D01*
X167997733Y-72413829D01*
X168128946Y-72253946D01*
X168288829Y-72122733D01*
X168471238Y-72025233D01*
X168669164Y-71965193D01*
X168823422Y-71950000D01*
X169176578Y-71950000D01*
X169330836Y-71965193D01*
X169330836Y-71965193D01*
G37*
G36*
X104838385Y-72331364D02*
X104899323Y-72349849D01*
X104955494Y-72379874D01*
X105004724Y-72420276D01*
X105045126Y-72469506D01*
X105075151Y-72525677D01*
X105093636Y-72586615D01*
X105100000Y-72651232D01*
X105100000Y-73348768D01*
X105093636Y-73413385D01*
X105075151Y-73474323D01*
X105045126Y-73530494D01*
X105004724Y-73579724D01*
X104955494Y-73620126D01*
X104899323Y-73650151D01*
X104838385Y-73668636D01*
X104773768Y-73675000D01*
X103976232Y-73675000D01*
X103911615Y-73668636D01*
X103850677Y-73650151D01*
X103794506Y-73620126D01*
X103745276Y-73579724D01*
X103704874Y-73530494D01*
X103674849Y-73474323D01*
X103656364Y-73413385D01*
X103650000Y-73348768D01*
X103650000Y-72651232D01*
X103656364Y-72586615D01*
X103674849Y-72525677D01*
X103704874Y-72469506D01*
X103745276Y-72420276D01*
X103794506Y-72379874D01*
X103850677Y-72349849D01*
X103911615Y-72331364D01*
X103976232Y-72325000D01*
X104773768Y-72325000D01*
X104838385Y-72331364D01*
X104838385Y-72331364D01*
G37*
G36*
X103088385Y-72331364D02*
X103149323Y-72349849D01*
X103205494Y-72379874D01*
X103254724Y-72420276D01*
X103295126Y-72469506D01*
X103325151Y-72525677D01*
X103343636Y-72586615D01*
X103350000Y-72651232D01*
X103350000Y-73348768D01*
X103343636Y-73413385D01*
X103325151Y-73474323D01*
X103295126Y-73530494D01*
X103254724Y-73579724D01*
X103205494Y-73620126D01*
X103149323Y-73650151D01*
X103088385Y-73668636D01*
X103023768Y-73675000D01*
X102226232Y-73675000D01*
X102161615Y-73668636D01*
X102100677Y-73650151D01*
X102044506Y-73620126D01*
X101995276Y-73579724D01*
X101954874Y-73530494D01*
X101924849Y-73474323D01*
X101906364Y-73413385D01*
X101900000Y-73348768D01*
X101900000Y-72651232D01*
X101906364Y-72586615D01*
X101924849Y-72525677D01*
X101954874Y-72469506D01*
X101995276Y-72420276D01*
X102044506Y-72379874D01*
X102100677Y-72349849D01*
X102161615Y-72331364D01*
X102226232Y-72325000D01*
X103023768Y-72325000D01*
X103088385Y-72331364D01*
X103088385Y-72331364D01*
G37*
G36*
X114338385Y-70581364D02*
X114399323Y-70599849D01*
X114455494Y-70629874D01*
X114504724Y-70670276D01*
X114545126Y-70719506D01*
X114575151Y-70775677D01*
X114593636Y-70836615D01*
X114600000Y-70901232D01*
X114600000Y-71598768D01*
X114593636Y-71663385D01*
X114575151Y-71724323D01*
X114545126Y-71780494D01*
X114504724Y-71829724D01*
X114455494Y-71870126D01*
X114399323Y-71900151D01*
X114338385Y-71918636D01*
X114273768Y-71925000D01*
X113476232Y-71925000D01*
X113411615Y-71918636D01*
X113350677Y-71900151D01*
X113294506Y-71870126D01*
X113245276Y-71829724D01*
X113204874Y-71780494D01*
X113174849Y-71724323D01*
X113156364Y-71663385D01*
X113150000Y-71598768D01*
X113150000Y-70901232D01*
X113156364Y-70836615D01*
X113174849Y-70775677D01*
X113204874Y-70719506D01*
X113245276Y-70670276D01*
X113294506Y-70629874D01*
X113350677Y-70599849D01*
X113411615Y-70581364D01*
X113476232Y-70575000D01*
X114273768Y-70575000D01*
X114338385Y-70581364D01*
X114338385Y-70581364D01*
G37*
G36*
X112588385Y-70581364D02*
X112649323Y-70599849D01*
X112705494Y-70629874D01*
X112754724Y-70670276D01*
X112795126Y-70719506D01*
X112825151Y-70775677D01*
X112843636Y-70836615D01*
X112850000Y-70901232D01*
X112850000Y-71598768D01*
X112843636Y-71663385D01*
X112825151Y-71724323D01*
X112795126Y-71780494D01*
X112754724Y-71829724D01*
X112705494Y-71870126D01*
X112649323Y-71900151D01*
X112588385Y-71918636D01*
X112523768Y-71925000D01*
X111726232Y-71925000D01*
X111661615Y-71918636D01*
X111600677Y-71900151D01*
X111544506Y-71870126D01*
X111495276Y-71829724D01*
X111454874Y-71780494D01*
X111424849Y-71724323D01*
X111406364Y-71663385D01*
X111400000Y-71598768D01*
X111400000Y-70901232D01*
X111406364Y-70836615D01*
X111424849Y-70775677D01*
X111454874Y-70719506D01*
X111495276Y-70670276D01*
X111544506Y-70629874D01*
X111600677Y-70599849D01*
X111661615Y-70581364D01*
X111726232Y-70575000D01*
X112523768Y-70575000D01*
X112588385Y-70581364D01*
X112588385Y-70581364D01*
G37*
G36*
X169330836Y-69465193D02*
X169528762Y-69525233D01*
X169711171Y-69622733D01*
X169743571Y-69649323D01*
X169871054Y-69753946D01*
X170002266Y-69913828D01*
X170095570Y-70088385D01*
X170099767Y-70096238D01*
X170159807Y-70294164D01*
X170180080Y-70500000D01*
X170159807Y-70705836D01*
X170099767Y-70903762D01*
X170002267Y-71086171D01*
X169871054Y-71246054D01*
X169711171Y-71377267D01*
X169528762Y-71474767D01*
X169330836Y-71534807D01*
X169176578Y-71550000D01*
X168823422Y-71550000D01*
X168669164Y-71534807D01*
X168471238Y-71474767D01*
X168288829Y-71377267D01*
X168128946Y-71246054D01*
X167997733Y-71086171D01*
X167900233Y-70903762D01*
X167840193Y-70705836D01*
X167819920Y-70500000D01*
X167840193Y-70294164D01*
X167900233Y-70096238D01*
X167904431Y-70088385D01*
X167997734Y-69913828D01*
X168128946Y-69753946D01*
X168256429Y-69649323D01*
X168288829Y-69622733D01*
X168471238Y-69525233D01*
X168669164Y-69465193D01*
X168823422Y-69450000D01*
X169176578Y-69450000D01*
X169330836Y-69465193D01*
X169330836Y-69465193D01*
G37*
G36*
X90525836Y-68775193D02*
X90723762Y-68835233D01*
X90906171Y-68932733D01*
X91066054Y-69063946D01*
X91197267Y-69223829D01*
X91294767Y-69406238D01*
X91354807Y-69604164D01*
X91375080Y-69810000D01*
X91354807Y-70015836D01*
X91294767Y-70213762D01*
X91197267Y-70396171D01*
X91066054Y-70556054D01*
X90906171Y-70687267D01*
X90723762Y-70784767D01*
X90525836Y-70844807D01*
X90371578Y-70860000D01*
X89968422Y-70860000D01*
X89814164Y-70844807D01*
X89616238Y-70784767D01*
X89433829Y-70687267D01*
X89273946Y-70556054D01*
X89142733Y-70396171D01*
X89045233Y-70213762D01*
X88985193Y-70015836D01*
X88964920Y-69810000D01*
X88985193Y-69604164D01*
X89045233Y-69406238D01*
X89142733Y-69223829D01*
X89273946Y-69063946D01*
X89433829Y-68932733D01*
X89616238Y-68835233D01*
X89814164Y-68775193D01*
X89968422Y-68760000D01*
X90371578Y-68760000D01*
X90525836Y-68775193D01*
X90525836Y-68775193D01*
G37*
G36*
X116663385Y-68906364D02*
X116724323Y-68924849D01*
X116780494Y-68954874D01*
X116829724Y-68995276D01*
X116870126Y-69044506D01*
X116900151Y-69100677D01*
X116918636Y-69161615D01*
X116925000Y-69226232D01*
X116925000Y-70023768D01*
X116918636Y-70088385D01*
X116900151Y-70149323D01*
X116870126Y-70205494D01*
X116829724Y-70254724D01*
X116780494Y-70295126D01*
X116724323Y-70325151D01*
X116663385Y-70343636D01*
X116598768Y-70350000D01*
X115901232Y-70350000D01*
X115836615Y-70343636D01*
X115775677Y-70325151D01*
X115719506Y-70295126D01*
X115670276Y-70254724D01*
X115629874Y-70205494D01*
X115599849Y-70149323D01*
X115581364Y-70088385D01*
X115575000Y-70023768D01*
X115575000Y-69226232D01*
X115581364Y-69161615D01*
X115599849Y-69100677D01*
X115629874Y-69044506D01*
X115670276Y-68995276D01*
X115719506Y-68954874D01*
X115775677Y-68924849D01*
X115836615Y-68906364D01*
X115901232Y-68900000D01*
X116598768Y-68900000D01*
X116663385Y-68906364D01*
X116663385Y-68906364D01*
G37*
G36*
X94913385Y-68406364D02*
X94974323Y-68424849D01*
X95030494Y-68454874D01*
X95079724Y-68495276D01*
X95120126Y-68544506D01*
X95150151Y-68600677D01*
X95168636Y-68661615D01*
X95175000Y-68726232D01*
X95175000Y-69523768D01*
X95168636Y-69588385D01*
X95150151Y-69649323D01*
X95120126Y-69705494D01*
X95079724Y-69754724D01*
X95030494Y-69795126D01*
X94974323Y-69825151D01*
X94913385Y-69843636D01*
X94848768Y-69850000D01*
X94151232Y-69850000D01*
X94086615Y-69843636D01*
X94025677Y-69825151D01*
X93969506Y-69795126D01*
X93920276Y-69754724D01*
X93879874Y-69705494D01*
X93849849Y-69649323D01*
X93831364Y-69588385D01*
X93825000Y-69523768D01*
X93825000Y-68726232D01*
X93831364Y-68661615D01*
X93849849Y-68600677D01*
X93879874Y-68544506D01*
X93920276Y-68495276D01*
X93969506Y-68454874D01*
X94025677Y-68424849D01*
X94086615Y-68406364D01*
X94151232Y-68400000D01*
X94848768Y-68400000D01*
X94913385Y-68406364D01*
X94913385Y-68406364D01*
G37*
G36*
X110770000Y-69195000D02*
X109530000Y-69195000D01*
X109530000Y-68805000D01*
X110770000Y-68805000D01*
X110770000Y-69195000D01*
X110770000Y-69195000D01*
G37*
G36*
X106470000Y-69195000D02*
X105230000Y-69195000D01*
X105230000Y-68805000D01*
X106470000Y-68805000D01*
X106470000Y-69195000D01*
X106470000Y-69195000D01*
G37*
G36*
X110770000Y-68695000D02*
X109530000Y-68695000D01*
X109530000Y-68305000D01*
X110770000Y-68305000D01*
X110770000Y-68695000D01*
X110770000Y-68695000D01*
G37*
G36*
X106470000Y-68695000D02*
X105230000Y-68695000D01*
X105230000Y-68305000D01*
X106470000Y-68305000D01*
X106470000Y-68695000D01*
X106470000Y-68695000D01*
G37*
G36*
X116663385Y-67156364D02*
X116724323Y-67174849D01*
X116780494Y-67204874D01*
X116829724Y-67245276D01*
X116870126Y-67294506D01*
X116900151Y-67350677D01*
X116918636Y-67411615D01*
X116925000Y-67476232D01*
X116925000Y-68273768D01*
X116918636Y-68338385D01*
X116900151Y-68399323D01*
X116870126Y-68455494D01*
X116829724Y-68504724D01*
X116780494Y-68545126D01*
X116724323Y-68575151D01*
X116663385Y-68593636D01*
X116598768Y-68600000D01*
X115901232Y-68600000D01*
X115836615Y-68593636D01*
X115775677Y-68575151D01*
X115719506Y-68545126D01*
X115670276Y-68504724D01*
X115629874Y-68455494D01*
X115599849Y-68399323D01*
X115581364Y-68338385D01*
X115575000Y-68273768D01*
X115575000Y-67476232D01*
X115581364Y-67411615D01*
X115599849Y-67350677D01*
X115629874Y-67294506D01*
X115670276Y-67245276D01*
X115719506Y-67204874D01*
X115775677Y-67174849D01*
X115836615Y-67156364D01*
X115901232Y-67150000D01*
X116598768Y-67150000D01*
X116663385Y-67156364D01*
X116663385Y-67156364D01*
G37*
G36*
X113640135Y-67006322D02*
X113700666Y-67024684D01*
X113756460Y-67054507D01*
X113805361Y-67094639D01*
X113845493Y-67143540D01*
X113875316Y-67199334D01*
X113893678Y-67259865D01*
X113900000Y-67324057D01*
X113900000Y-68225943D01*
X113893678Y-68290135D01*
X113875316Y-68350666D01*
X113845493Y-68406460D01*
X113805361Y-68455361D01*
X113756460Y-68495493D01*
X113700666Y-68525316D01*
X113640135Y-68543678D01*
X113575943Y-68550000D01*
X112424057Y-68550000D01*
X112359865Y-68543678D01*
X112299334Y-68525316D01*
X112243540Y-68495493D01*
X112194639Y-68455361D01*
X112154507Y-68406460D01*
X112124684Y-68350666D01*
X112106322Y-68290135D01*
X112100000Y-68225943D01*
X112100000Y-67324057D01*
X112106322Y-67259865D01*
X112124684Y-67199334D01*
X112154507Y-67143540D01*
X112194639Y-67094639D01*
X112243540Y-67054507D01*
X112299334Y-67024684D01*
X112359865Y-67006322D01*
X112424057Y-67000000D01*
X113575943Y-67000000D01*
X113640135Y-67006322D01*
X113640135Y-67006322D01*
G37*
G36*
X91135606Y-66265714D02*
X91190208Y-66282277D01*
X91240526Y-66309173D01*
X91284631Y-66345369D01*
X91320827Y-66389474D01*
X91347723Y-66439792D01*
X91364286Y-66494394D01*
X91370000Y-66552408D01*
X91370000Y-68067592D01*
X91364286Y-68125606D01*
X91347723Y-68180208D01*
X91320827Y-68230526D01*
X91284631Y-68274631D01*
X91240526Y-68310827D01*
X91190208Y-68337723D01*
X91135606Y-68354286D01*
X91077592Y-68360000D01*
X89262408Y-68360000D01*
X89204394Y-68354286D01*
X89149792Y-68337723D01*
X89099474Y-68310827D01*
X89055369Y-68274631D01*
X89019173Y-68230526D01*
X88992277Y-68180208D01*
X88975714Y-68125606D01*
X88970000Y-68067592D01*
X88970000Y-66552408D01*
X88975714Y-66494394D01*
X88992277Y-66439792D01*
X89019173Y-66389474D01*
X89055369Y-66345369D01*
X89099474Y-66309173D01*
X89149792Y-66282277D01*
X89204394Y-66265714D01*
X89262408Y-66260000D01*
X91077592Y-66260000D01*
X91135606Y-66265714D01*
X91135606Y-66265714D01*
G37*
G36*
X110770000Y-68195000D02*
X109530000Y-68195000D01*
X109530000Y-67805000D01*
X110770000Y-67805000D01*
X110770000Y-68195000D01*
X110770000Y-68195000D01*
G37*
G36*
X106470000Y-68195000D02*
X105230000Y-68195000D01*
X105230000Y-67805000D01*
X106470000Y-67805000D01*
X106470000Y-68195000D01*
X106470000Y-68195000D01*
G37*
G36*
X94913385Y-66656364D02*
X94974323Y-66674849D01*
X95030494Y-66704874D01*
X95079724Y-66745276D01*
X95120126Y-66794506D01*
X95150151Y-66850677D01*
X95168636Y-66911615D01*
X95175000Y-66976232D01*
X95175000Y-67773768D01*
X95168636Y-67838385D01*
X95150151Y-67899323D01*
X95120126Y-67955494D01*
X95079724Y-68004724D01*
X95030494Y-68045126D01*
X94974323Y-68075151D01*
X94913385Y-68093636D01*
X94848768Y-68100000D01*
X94151232Y-68100000D01*
X94086615Y-68093636D01*
X94025677Y-68075151D01*
X93969506Y-68045126D01*
X93920276Y-68004724D01*
X93879874Y-67955494D01*
X93849849Y-67899323D01*
X93831364Y-67838385D01*
X93825000Y-67773768D01*
X93825000Y-66976232D01*
X93831364Y-66911615D01*
X93849849Y-66850677D01*
X93879874Y-66794506D01*
X93920276Y-66745276D01*
X93969506Y-66704874D01*
X94025677Y-66674849D01*
X94086615Y-66656364D01*
X94151232Y-66650000D01*
X94848768Y-66650000D01*
X94913385Y-66656364D01*
X94913385Y-66656364D01*
G37*
G36*
X106470000Y-67695000D02*
X105230000Y-67695000D01*
X105230000Y-67305000D01*
X106470000Y-67305000D01*
X106470000Y-67695000D01*
X106470000Y-67695000D01*
G37*
G36*
X110770000Y-67695000D02*
X109530000Y-67695000D01*
X109530000Y-67305000D01*
X110770000Y-67305000D01*
X110770000Y-67695000D01*
X110770000Y-67695000D01*
G37*
G36*
X106470000Y-67195000D02*
X105230000Y-67195000D01*
X105230000Y-66805000D01*
X106470000Y-66805000D01*
X106470000Y-67195000D01*
X106470000Y-67195000D01*
G37*
G36*
X110770000Y-67195000D02*
X109530000Y-67195000D01*
X109530000Y-66805000D01*
X110770000Y-66805000D01*
X110770000Y-67195000D01*
X110770000Y-67195000D01*
G37*
G36*
X113640135Y-64956322D02*
X113700666Y-64974684D01*
X113756460Y-65004507D01*
X113805361Y-65044639D01*
X113845493Y-65093540D01*
X113875316Y-65149334D01*
X113893678Y-65209865D01*
X113900000Y-65274057D01*
X113900000Y-66175943D01*
X113893678Y-66240135D01*
X113875316Y-66300666D01*
X113845493Y-66356460D01*
X113805361Y-66405361D01*
X113756460Y-66445493D01*
X113700666Y-66475316D01*
X113640135Y-66493678D01*
X113575943Y-66500000D01*
X112424057Y-66500000D01*
X112359865Y-66493678D01*
X112299334Y-66475316D01*
X112243540Y-66445493D01*
X112194639Y-66405361D01*
X112154507Y-66356460D01*
X112124684Y-66300666D01*
X112106322Y-66240135D01*
X112100000Y-66175943D01*
X112100000Y-65274057D01*
X112106322Y-65209865D01*
X112124684Y-65149334D01*
X112154507Y-65093540D01*
X112194639Y-65044639D01*
X112243540Y-65004507D01*
X112299334Y-64974684D01*
X112359865Y-64956322D01*
X112424057Y-64950000D01*
X113575943Y-64950000D01*
X113640135Y-64956322D01*
X113640135Y-64956322D01*
G37*
G36*
X107713385Y-61556364D02*
X107774323Y-61574849D01*
X107830494Y-61604874D01*
X107879724Y-61645276D01*
X107920126Y-61694506D01*
X107950151Y-61750677D01*
X107968636Y-61811615D01*
X107975000Y-61876232D01*
X107975000Y-62673768D01*
X107968636Y-62738385D01*
X107950151Y-62799323D01*
X107920126Y-62855494D01*
X107879724Y-62904724D01*
X107830494Y-62945126D01*
X107774323Y-62975151D01*
X107713385Y-62993636D01*
X107648768Y-63000000D01*
X106951232Y-63000000D01*
X106886615Y-62993636D01*
X106825677Y-62975151D01*
X106769506Y-62945126D01*
X106720276Y-62904724D01*
X106679874Y-62855494D01*
X106649849Y-62799323D01*
X106631364Y-62738385D01*
X106625000Y-62673768D01*
X106625000Y-61876232D01*
X106631364Y-61811615D01*
X106649849Y-61750677D01*
X106679874Y-61694506D01*
X106720276Y-61645276D01*
X106769506Y-61604874D01*
X106825677Y-61574849D01*
X106886615Y-61556364D01*
X106951232Y-61550000D01*
X107648768Y-61550000D01*
X107713385Y-61556364D01*
X107713385Y-61556364D01*
G37*
G36*
X110213385Y-61506364D02*
X110274323Y-61524849D01*
X110330494Y-61554874D01*
X110379724Y-61595276D01*
X110420126Y-61644506D01*
X110450151Y-61700677D01*
X110468636Y-61761615D01*
X110475000Y-61826232D01*
X110475000Y-62623768D01*
X110468636Y-62688385D01*
X110450151Y-62749323D01*
X110420126Y-62805494D01*
X110379724Y-62854724D01*
X110330494Y-62895126D01*
X110274323Y-62925151D01*
X110213385Y-62943636D01*
X110148768Y-62950000D01*
X109451232Y-62950000D01*
X109386615Y-62943636D01*
X109325677Y-62925151D01*
X109269506Y-62895126D01*
X109220276Y-62854724D01*
X109179874Y-62805494D01*
X109149849Y-62749323D01*
X109131364Y-62688385D01*
X109125000Y-62623768D01*
X109125000Y-61826232D01*
X109131364Y-61761615D01*
X109149849Y-61700677D01*
X109179874Y-61644506D01*
X109220276Y-61595276D01*
X109269506Y-61554874D01*
X109325677Y-61524849D01*
X109386615Y-61506364D01*
X109451232Y-61500000D01*
X110148768Y-61500000D01*
X110213385Y-61506364D01*
X110213385Y-61506364D01*
G37*
G36*
X107713385Y-59806364D02*
X107774323Y-59824849D01*
X107830494Y-59854874D01*
X107879724Y-59895276D01*
X107920126Y-59944506D01*
X107950151Y-60000677D01*
X107968636Y-60061615D01*
X107975000Y-60126232D01*
X107975000Y-60923768D01*
X107968636Y-60988385D01*
X107950151Y-61049323D01*
X107920126Y-61105494D01*
X107879724Y-61154724D01*
X107830494Y-61195126D01*
X107774323Y-61225151D01*
X107713385Y-61243636D01*
X107648768Y-61250000D01*
X106951232Y-61250000D01*
X106886615Y-61243636D01*
X106825677Y-61225151D01*
X106769506Y-61195126D01*
X106720276Y-61154724D01*
X106679874Y-61105494D01*
X106649849Y-61049323D01*
X106631364Y-60988385D01*
X106625000Y-60923768D01*
X106625000Y-60126232D01*
X106631364Y-60061615D01*
X106649849Y-60000677D01*
X106679874Y-59944506D01*
X106720276Y-59895276D01*
X106769506Y-59854874D01*
X106825677Y-59824849D01*
X106886615Y-59806364D01*
X106951232Y-59800000D01*
X107648768Y-59800000D01*
X107713385Y-59806364D01*
X107713385Y-59806364D01*
G37*
G36*
X110213385Y-59756364D02*
X110274323Y-59774849D01*
X110330494Y-59804874D01*
X110379724Y-59845276D01*
X110420126Y-59894506D01*
X110450151Y-59950677D01*
X110468636Y-60011615D01*
X110475000Y-60076232D01*
X110475000Y-60873768D01*
X110468636Y-60938385D01*
X110450151Y-60999323D01*
X110420126Y-61055494D01*
X110379724Y-61104724D01*
X110330494Y-61145126D01*
X110274323Y-61175151D01*
X110213385Y-61193636D01*
X110148768Y-61200000D01*
X109451232Y-61200000D01*
X109386615Y-61193636D01*
X109325677Y-61175151D01*
X109269506Y-61145126D01*
X109220276Y-61104724D01*
X109179874Y-61055494D01*
X109149849Y-60999323D01*
X109131364Y-60938385D01*
X109125000Y-60873768D01*
X109125000Y-60076232D01*
X109131364Y-60011615D01*
X109149849Y-59950677D01*
X109179874Y-59894506D01*
X109220276Y-59845276D01*
X109269506Y-59804874D01*
X109325677Y-59774849D01*
X109386615Y-59756364D01*
X109451232Y-59750000D01*
X110148768Y-59750000D01*
X110213385Y-59756364D01*
X110213385Y-59756364D01*
G37*
G36*
X170991743Y-54230660D02*
X171610504Y-54486959D01*
X172167374Y-54859048D01*
X172640952Y-55332626D01*
X173013041Y-55889496D01*
X173269340Y-56508257D01*
X173400000Y-57165129D01*
X173400000Y-57834871D01*
X173269340Y-58491743D01*
X173013041Y-59110504D01*
X172640952Y-59667374D01*
X172167374Y-60140952D01*
X171610504Y-60513041D01*
X170991743Y-60769340D01*
X170334871Y-60900000D01*
X169665129Y-60900000D01*
X169008257Y-60769340D01*
X168389496Y-60513041D01*
X167832626Y-60140952D01*
X167359048Y-59667374D01*
X166986959Y-59110504D01*
X166730660Y-58491743D01*
X166600000Y-57834871D01*
X166600000Y-57165129D01*
X166730660Y-56508257D01*
X166986959Y-55889496D01*
X167359048Y-55332626D01*
X167832626Y-54859048D01*
X168389496Y-54486959D01*
X169008257Y-54230660D01*
X169665129Y-54100000D01*
X170334871Y-54100000D01*
X170991743Y-54230660D01*
X170991743Y-54230660D01*
G37*
G36*
X90991743Y-54230660D02*
X91610504Y-54486959D01*
X92167374Y-54859048D01*
X92640952Y-55332626D01*
X93013041Y-55889496D01*
X93269340Y-56508257D01*
X93400000Y-57165129D01*
X93400000Y-57834871D01*
X93269340Y-58491743D01*
X93013041Y-59110504D01*
X92640952Y-59667374D01*
X92167374Y-60140952D01*
X91610504Y-60513041D01*
X90991743Y-60769340D01*
X90334871Y-60900000D01*
X89665129Y-60900000D01*
X89008257Y-60769340D01*
X88389496Y-60513041D01*
X87832626Y-60140952D01*
X87359048Y-59667374D01*
X86986959Y-59110504D01*
X86730660Y-58491743D01*
X86600000Y-57834871D01*
X86600000Y-57165129D01*
X86730660Y-56508257D01*
X86986959Y-55889496D01*
X87359048Y-55332626D01*
X87832626Y-54859048D01*
X88389496Y-54486959D01*
X89008257Y-54230660D01*
X89665129Y-54100000D01*
X90334871Y-54100000D01*
X90991743Y-54230660D01*
X90991743Y-54230660D01*
G37*
G36*
X110095835Y-55845193D02*
X110293761Y-55905233D01*
X110476171Y-56002733D01*
X110636054Y-56133946D01*
X110767267Y-56293829D01*
X110864767Y-56476238D01*
X110924807Y-56674164D01*
X110940000Y-56828422D01*
X110940000Y-57231577D01*
X110924807Y-57385835D01*
X110864767Y-57583761D01*
X110767267Y-57766171D01*
X110636054Y-57926054D01*
X110476171Y-58057267D01*
X110293762Y-58154767D01*
X110095836Y-58214807D01*
X109890000Y-58235080D01*
X109684165Y-58214807D01*
X109486239Y-58154767D01*
X109303830Y-58057267D01*
X109143947Y-57926054D01*
X109012733Y-57766171D01*
X108915233Y-57583762D01*
X108855193Y-57385836D01*
X108840000Y-57231578D01*
X108840000Y-56828423D01*
X108855193Y-56674165D01*
X108915233Y-56476239D01*
X109012733Y-56293829D01*
X109143946Y-56133946D01*
X109303829Y-56002733D01*
X109486238Y-55905233D01*
X109684164Y-55845193D01*
X109890000Y-55824920D01*
X110095835Y-55845193D01*
X110095835Y-55845193D01*
G37*
G36*
X108205606Y-55835714D02*
X108260208Y-55852277D01*
X108310526Y-55879173D01*
X108354631Y-55915369D01*
X108390827Y-55959474D01*
X108417723Y-56009792D01*
X108434286Y-56064394D01*
X108440000Y-56122408D01*
X108440000Y-57937592D01*
X108434286Y-57995606D01*
X108417723Y-58050208D01*
X108390827Y-58100526D01*
X108354631Y-58144631D01*
X108310526Y-58180827D01*
X108260208Y-58207723D01*
X108205606Y-58224286D01*
X108147592Y-58230000D01*
X106632408Y-58230000D01*
X106574394Y-58224286D01*
X106519792Y-58207723D01*
X106469474Y-58180827D01*
X106425369Y-58144631D01*
X106389173Y-58100526D01*
X106362277Y-58050208D01*
X106345714Y-57995606D01*
X106340000Y-57937592D01*
X106340000Y-56122408D01*
X106345714Y-56064394D01*
X106362277Y-56009792D01*
X106389173Y-55959474D01*
X106425369Y-55915369D01*
X106469474Y-55879173D01*
X106519792Y-55852277D01*
X106574394Y-55835714D01*
X106632408Y-55830000D01*
X108147592Y-55830000D01*
X108205606Y-55835714D01*
X108205606Y-55835714D01*
G37*
M02*
