M48
;DRILL file {KiCad 5.0.2-bee76a0~70~ubuntu16.04.1} date Thu 03 Jan 2019 19:03:12 GMT
;FORMAT={-:-/ absolute / inch / decimal}
FMAT,2
INCH,TZ
T1C0.0160
T2C0.0236
T3C0.0315
T4C0.0374
T5C0.0394
T6C0.0433
T7C0.0598
T8C0.1260
%
G90
G05
T1
X3.6909Y-2.9232
X3.8287Y-3.4843
X3.9764Y-3.0512
X4.1437Y-3.9646
X4.226Y-2.874
X4.2323Y-2.6772
X4.311Y-4.1339
X4.437Y-3.189
X4.4488Y-2.4409
X4.5571Y-3.002
X4.567Y-2.3623
X4.6063Y-3.7598
X4.6063Y-3.9961
X4.6457Y-3.4843
X4.7244Y-2.7559
X4.7244Y-2.7559
X4.7244Y-2.7559
X4.7244Y-2.8346
X4.7244Y-3.8583
X4.7244Y-3.937
X4.8031Y-2.2539
X4.8031Y-2.7559
X4.8031Y-2.8346
X4.8031Y-3.8583
X4.8031Y-3.937
X4.8917Y-2.3819
X4.9016Y-2.7559
X4.9016Y-3.937
X5.Y-2.7559
X5.Y-2.8346
X5.Y-3.8583
X5.Y-3.937
X5.0787Y-2.7559
X5.0787Y-2.8346
X5.0787Y-3.8583
X5.0787Y-3.937
X5.1969Y-3.7598
X5.1969Y-3.9961
X5.3937Y-3.0315
X5.502Y-3.0315
X5.502Y-2.9626
X5.561Y-3.1496
X5.6063Y-3.4685
X5.6102Y-3.0906
X5.7087Y-2.687
X5.7677Y-3.3465
X5.7677Y-3.3465
X5.7677Y-3.3465
X5.7776Y-3.5531
X5.7874Y-2.687
X5.8071Y-3.0118
X5.8291Y-3.5984
X5.8661Y-3.0709
X5.8661Y-3.5472
X5.8967Y-3.1978
X5.9055Y-3.0118
X5.9134Y-3.5984
X5.9252Y-2.485
X5.9449Y-3.0709
X6.122Y-2.8504
X6.1437Y-2.75
X6.185Y-2.8543
X6.2598Y-2.9921
T2
X4.0748Y-4.5748
X4.2717Y-4.685
T3
X4.437Y-4.1969
X4.5748Y-4.1969
T4
X3.55Y-4.
X3.55Y-4.0984
X3.55Y-4.1969
X6.6535Y-2.7756
X6.6535Y-2.874
X6.6535Y-2.9724
X6.6535Y-3.0709
T5
X3.55Y-2.65
X3.55Y-2.7484
X3.55Y-3.1
X3.55Y-3.1984
X3.55Y-3.55
X3.55Y-3.6484
X5.115Y-4.626
X5.215Y-4.626
X5.315Y-4.626
X6.6535Y-4.0748
X6.6535Y-4.1732
X4.228Y-2.2453
X4.3264Y-2.2453
X5.6Y-4.6843
X5.7Y-4.6843
X5.8Y-4.6843
X5.9Y-4.6843
X6.Y-4.6843
X6.1Y-4.6843
X4.0717Y-4.4291
X4.2717Y-4.4291
X6.6535Y-3.5236
X6.6535Y-3.622
T6
X4.7921Y-3.3701
X4.8921Y-3.3701
X4.9921Y-3.3701
T7
X4.6457Y-4.5984
X4.8457Y-4.5984
T8
X3.5433Y-4.626
X6.6929Y-4.626
X3.5433Y-2.2638
X6.6929Y-2.2638
T0
M30
