G04 #@! TF.GenerationSoftware,KiCad,Pcbnew,5.0.2-bee76a0~70~ubuntu16.04.1*
G04 #@! TF.CreationDate,2019-01-03T19:03:09+00:00*
G04 #@! TF.ProjectId,stm32l053c,73746d33-326c-4303-9533-632e6b696361,rev?*
G04 #@! TF.SameCoordinates,Original*
G04 #@! TF.FileFunction,Legend,Bot*
G04 #@! TF.FilePolarity,Positive*
%FSLAX46Y46*%
G04 Gerber Fmt 4.6, Leading zero omitted, Abs format (unit mm)*
G04 Created by KiCad (PCBNEW 5.0.2-bee76a0~70~ubuntu16.04.1) date Thu 03 Jan 2019 19:03:09 GMT*
%MOMM*%
%LPD*%
G01*
G04 APERTURE LIST*
%ADD10C,0.150000*%
%ADD11C,1.000000*%
%ADD12C,0.120000*%
G04 APERTURE END LIST*
D10*
X105561428Y-70461904D02*
X106018571Y-70461904D01*
X105790000Y-70461904D02*
X105790000Y-69661904D01*
X105866190Y-69776190D01*
X105942380Y-69852380D01*
X106018571Y-69890476D01*
D11*
X161552380Y-57000000D02*
X161933333Y-56761904D01*
X162504761Y-56761904D01*
X163076190Y-57000000D01*
X163457142Y-57476190D01*
X163647619Y-57952380D01*
X163838095Y-58904761D01*
X163838095Y-59619047D01*
X163647619Y-60571428D01*
X163457142Y-61047619D01*
X163076190Y-61523809D01*
X162504761Y-61761904D01*
X162123809Y-61761904D01*
X161552380Y-61523809D01*
X161361904Y-61285714D01*
X161361904Y-59619047D01*
X162123809Y-59619047D01*
X157933333Y-61761904D02*
X157933333Y-59142857D01*
X158123809Y-58666666D01*
X158504761Y-58428571D01*
X159266666Y-58428571D01*
X159647619Y-58666666D01*
X157933333Y-61523809D02*
X158314285Y-61761904D01*
X159266666Y-61761904D01*
X159647619Y-61523809D01*
X159838095Y-61047619D01*
X159838095Y-60571428D01*
X159647619Y-60095238D01*
X159266666Y-59857142D01*
X158314285Y-59857142D01*
X157933333Y-59619047D01*
X156028571Y-61761904D02*
X156028571Y-58428571D01*
X156028571Y-59380952D02*
X155838095Y-58904761D01*
X155647619Y-58666666D01*
X155266666Y-58428571D01*
X154885714Y-58428571D01*
X151838095Y-61761904D02*
X151838095Y-56761904D01*
X151838095Y-61523809D02*
X152219047Y-61761904D01*
X152980952Y-61761904D01*
X153361904Y-61523809D01*
X153552380Y-61285714D01*
X153742857Y-60809523D01*
X153742857Y-59380952D01*
X153552380Y-58904761D01*
X153361904Y-58666666D01*
X152980952Y-58428571D01*
X152219047Y-58428571D01*
X151838095Y-58666666D01*
X148409523Y-61523809D02*
X148790476Y-61761904D01*
X149552380Y-61761904D01*
X149933333Y-61523809D01*
X150123809Y-61047619D01*
X150123809Y-59142857D01*
X149933333Y-58666666D01*
X149552380Y-58428571D01*
X148790476Y-58428571D01*
X148409523Y-58666666D01*
X148219047Y-59142857D01*
X148219047Y-59619047D01*
X150123809Y-60095238D01*
X146504761Y-58428571D02*
X146504761Y-61761904D01*
X146504761Y-58904761D02*
X146314285Y-58666666D01*
X145933333Y-58428571D01*
X145361904Y-58428571D01*
X144980952Y-58666666D01*
X144790476Y-59142857D01*
X144790476Y-61761904D01*
X163838095Y-68833333D02*
X161933333Y-68833333D01*
X164219047Y-70261904D02*
X162885714Y-65261904D01*
X161552380Y-70261904D01*
X160219047Y-66928571D02*
X160219047Y-70261904D01*
X160219047Y-67404761D02*
X160028571Y-67166666D01*
X159647619Y-66928571D01*
X159076190Y-66928571D01*
X158695238Y-67166666D01*
X158504761Y-67642857D01*
X158504761Y-70261904D01*
X156600000Y-70261904D02*
X156600000Y-66928571D01*
X156600000Y-65261904D02*
X156790476Y-65500000D01*
X156600000Y-65738095D01*
X156409523Y-65500000D01*
X156600000Y-65261904D01*
X156600000Y-65738095D01*
X154695238Y-70261904D02*
X154695238Y-66928571D01*
X154695238Y-67404761D02*
X154504761Y-67166666D01*
X154123809Y-66928571D01*
X153552380Y-66928571D01*
X153171428Y-67166666D01*
X152980952Y-67642857D01*
X152980952Y-70261904D01*
X152980952Y-67642857D02*
X152790476Y-67166666D01*
X152409523Y-66928571D01*
X151838095Y-66928571D01*
X151457142Y-67166666D01*
X151266666Y-67642857D01*
X151266666Y-70261904D01*
X147647619Y-70261904D02*
X147647619Y-67642857D01*
X147838095Y-67166666D01*
X148219047Y-66928571D01*
X148980952Y-66928571D01*
X149361904Y-67166666D01*
X147647619Y-70023809D02*
X148028571Y-70261904D01*
X148980952Y-70261904D01*
X149361904Y-70023809D01*
X149552380Y-69547619D01*
X149552380Y-69071428D01*
X149361904Y-68595238D01*
X148980952Y-68357142D01*
X148028571Y-68357142D01*
X147647619Y-68119047D01*
X145171428Y-70261904D02*
X145552380Y-70023809D01*
X145742857Y-69547619D01*
X145742857Y-65261904D01*
X161361904Y-78761904D02*
X162695238Y-76380952D01*
X163647619Y-78761904D02*
X163647619Y-73761904D01*
X162123809Y-73761904D01*
X161742857Y-74000000D01*
X161552380Y-74238095D01*
X161361904Y-74714285D01*
X161361904Y-75428571D01*
X161552380Y-75904761D01*
X161742857Y-76142857D01*
X162123809Y-76380952D01*
X163647619Y-76380952D01*
X158123809Y-78523809D02*
X158504761Y-78761904D01*
X159266666Y-78761904D01*
X159647619Y-78523809D01*
X159838095Y-78047619D01*
X159838095Y-76142857D01*
X159647619Y-75666666D01*
X159266666Y-75428571D01*
X158504761Y-75428571D01*
X158123809Y-75666666D01*
X157933333Y-76142857D01*
X157933333Y-76619047D01*
X159838095Y-77095238D01*
X156219047Y-75428571D02*
X156219047Y-80428571D01*
X156219047Y-75666666D02*
X155838095Y-75428571D01*
X155076190Y-75428571D01*
X154695238Y-75666666D01*
X154504761Y-75904761D01*
X154314285Y-76380952D01*
X154314285Y-77809523D01*
X154504761Y-78285714D01*
X154695238Y-78523809D01*
X155076190Y-78761904D01*
X155838095Y-78761904D01*
X156219047Y-78523809D01*
X151076190Y-78523809D02*
X151457142Y-78761904D01*
X152219047Y-78761904D01*
X152600000Y-78523809D01*
X152790476Y-78047619D01*
X152790476Y-76142857D01*
X152600000Y-75666666D01*
X152219047Y-75428571D01*
X151457142Y-75428571D01*
X151076190Y-75666666D01*
X150885714Y-76142857D01*
X150885714Y-76619047D01*
X152790476Y-77095238D01*
X148600000Y-78761904D02*
X148980952Y-78523809D01*
X149171428Y-78047619D01*
X149171428Y-73761904D01*
X146504761Y-78761904D02*
X146885714Y-78523809D01*
X147076190Y-78047619D01*
X147076190Y-73761904D01*
X143457142Y-78523809D02*
X143838095Y-78761904D01*
X144600000Y-78761904D01*
X144980952Y-78523809D01*
X145171428Y-78047619D01*
X145171428Y-76142857D01*
X144980952Y-75666666D01*
X144600000Y-75428571D01*
X143838095Y-75428571D01*
X143457142Y-75666666D01*
X143266666Y-76142857D01*
X143266666Y-76619047D01*
X145171428Y-77095238D01*
X141552380Y-75428571D02*
X141552380Y-78761904D01*
X141552380Y-75904761D02*
X141361904Y-75666666D01*
X140980952Y-75428571D01*
X140409523Y-75428571D01*
X140028571Y-75666666D01*
X139838095Y-76142857D01*
X139838095Y-78761904D01*
X138504761Y-75428571D02*
X136980952Y-75428571D01*
X137933333Y-73761904D02*
X137933333Y-78047619D01*
X137742857Y-78523809D01*
X137361904Y-78761904D01*
X136980952Y-78761904D01*
X163647619Y-87261904D02*
X163647619Y-82261904D01*
X162695238Y-82261904D01*
X162123809Y-82500000D01*
X161742857Y-82976190D01*
X161552380Y-83452380D01*
X161361904Y-84404761D01*
X161361904Y-85119047D01*
X161552380Y-86071428D01*
X161742857Y-86547619D01*
X162123809Y-87023809D01*
X162695238Y-87261904D01*
X163647619Y-87261904D01*
X158123809Y-87023809D02*
X158504761Y-87261904D01*
X159266666Y-87261904D01*
X159647619Y-87023809D01*
X159838095Y-86547619D01*
X159838095Y-84642857D01*
X159647619Y-84166666D01*
X159266666Y-83928571D01*
X158504761Y-83928571D01*
X158123809Y-84166666D01*
X157933333Y-84642857D01*
X157933333Y-85119047D01*
X159838095Y-85595238D01*
X156600000Y-83928571D02*
X155647619Y-87261904D01*
X154695238Y-83928571D01*
X153171428Y-87261904D02*
X153171428Y-83928571D01*
X153171428Y-82261904D02*
X153361904Y-82500000D01*
X153171428Y-82738095D01*
X152980952Y-82500000D01*
X153171428Y-82261904D01*
X153171428Y-82738095D01*
X149552380Y-87023809D02*
X149933333Y-87261904D01*
X150695238Y-87261904D01*
X151076190Y-87023809D01*
X151266666Y-86785714D01*
X151457142Y-86309523D01*
X151457142Y-84880952D01*
X151266666Y-84404761D01*
X151076190Y-84166666D01*
X150695238Y-83928571D01*
X149933333Y-83928571D01*
X149552380Y-84166666D01*
X146314285Y-87023809D02*
X146695238Y-87261904D01*
X147457142Y-87261904D01*
X147838095Y-87023809D01*
X148028571Y-86547619D01*
X148028571Y-84642857D01*
X147838095Y-84166666D01*
X147457142Y-83928571D01*
X146695238Y-83928571D01*
X146314285Y-84166666D01*
X146123809Y-84642857D01*
X146123809Y-85119047D01*
X148028571Y-85595238D01*
D10*
X110495238Y-65883333D02*
X110114285Y-65883333D01*
X110571428Y-66111904D02*
X110304761Y-65311904D01*
X110038095Y-66111904D01*
X109771428Y-66111904D02*
X109771428Y-65311904D01*
X109580952Y-65311904D01*
X109466666Y-65350000D01*
X109390476Y-65426190D01*
X109352380Y-65502380D01*
X109314285Y-65654761D01*
X109314285Y-65769047D01*
X109352380Y-65921428D01*
X109390476Y-65997619D01*
X109466666Y-66073809D01*
X109580952Y-66111904D01*
X109771428Y-66111904D01*
X109009523Y-66073809D02*
X108895238Y-66111904D01*
X108704761Y-66111904D01*
X108628571Y-66073809D01*
X108590476Y-66035714D01*
X108552380Y-65959523D01*
X108552380Y-65883333D01*
X108590476Y-65807142D01*
X108628571Y-65769047D01*
X108704761Y-65730952D01*
X108857142Y-65692857D01*
X108933333Y-65654761D01*
X108971428Y-65616666D01*
X109009523Y-65540476D01*
X109009523Y-65464285D01*
X108971428Y-65388095D01*
X108933333Y-65350000D01*
X108857142Y-65311904D01*
X108666666Y-65311904D01*
X108552380Y-65350000D01*
X107790476Y-66111904D02*
X108247619Y-66111904D01*
X108019047Y-66111904D02*
X108019047Y-65311904D01*
X108095238Y-65426190D01*
X108171428Y-65502380D01*
X108247619Y-65540476D01*
X107295238Y-65311904D02*
X107219047Y-65311904D01*
X107142857Y-65350000D01*
X107104761Y-65388095D01*
X107066666Y-65464285D01*
X107028571Y-65616666D01*
X107028571Y-65807142D01*
X107066666Y-65959523D01*
X107104761Y-66035714D01*
X107142857Y-66073809D01*
X107219047Y-66111904D01*
X107295238Y-66111904D01*
X107371428Y-66073809D01*
X107409523Y-66035714D01*
X107447619Y-65959523D01*
X107485714Y-65807142D01*
X107485714Y-65616666D01*
X107447619Y-65464285D01*
X107409523Y-65388095D01*
X107371428Y-65350000D01*
X107295238Y-65311904D01*
X106266666Y-66111904D02*
X106723809Y-66111904D01*
X106495238Y-66111904D02*
X106495238Y-65311904D01*
X106571428Y-65426190D01*
X106647619Y-65502380D01*
X106723809Y-65540476D01*
X105542857Y-65311904D02*
X105923809Y-65311904D01*
X105961904Y-65692857D01*
X105923809Y-65654761D01*
X105847619Y-65616666D01*
X105657142Y-65616666D01*
X105580952Y-65654761D01*
X105542857Y-65692857D01*
X105504761Y-65769047D01*
X105504761Y-65959523D01*
X105542857Y-66035714D01*
X105580952Y-66073809D01*
X105657142Y-66111904D01*
X105847619Y-66111904D01*
X105923809Y-66073809D01*
X105961904Y-66035714D01*
X155833333Y-117461904D02*
X155833333Y-116661904D01*
X155528571Y-116661904D01*
X155452380Y-116700000D01*
X155414285Y-116738095D01*
X155376190Y-116814285D01*
X155376190Y-116928571D01*
X155414285Y-117004761D01*
X155452380Y-117042857D01*
X155528571Y-117080952D01*
X155833333Y-117080952D01*
X155071428Y-117233333D02*
X154690476Y-117233333D01*
X155147619Y-117461904D02*
X154880952Y-116661904D01*
X154614285Y-117461904D01*
X154385714Y-116738095D02*
X154347619Y-116700000D01*
X154271428Y-116661904D01*
X154080952Y-116661904D01*
X154004761Y-116700000D01*
X153966666Y-116738095D01*
X153928571Y-116814285D01*
X153928571Y-116890476D01*
X153966666Y-117004761D01*
X154423809Y-117461904D01*
X153928571Y-117461904D01*
X152838095Y-117461904D02*
X153104761Y-117080952D01*
X153295238Y-117461904D02*
X153295238Y-116661904D01*
X152990476Y-116661904D01*
X152914285Y-116700000D01*
X152876190Y-116738095D01*
X152838095Y-116814285D01*
X152838095Y-116928571D01*
X152876190Y-117004761D01*
X152914285Y-117042857D01*
X152990476Y-117080952D01*
X153295238Y-117080952D01*
X152533333Y-117423809D02*
X152419047Y-117461904D01*
X152228571Y-117461904D01*
X152152380Y-117423809D01*
X152114285Y-117385714D01*
X152076190Y-117309523D01*
X152076190Y-117233333D01*
X152114285Y-117157142D01*
X152152380Y-117119047D01*
X152228571Y-117080952D01*
X152380952Y-117042857D01*
X152457142Y-117004761D01*
X152495238Y-116966666D01*
X152533333Y-116890476D01*
X152533333Y-116814285D01*
X152495238Y-116738095D01*
X152457142Y-116700000D01*
X152380952Y-116661904D01*
X152190476Y-116661904D01*
X152076190Y-116700000D01*
X151847619Y-116661904D02*
X151390476Y-116661904D01*
X151619047Y-117461904D02*
X151619047Y-116661904D01*
X150719047Y-117461904D02*
X150719047Y-116661904D01*
X150528571Y-116661904D01*
X150414285Y-116700000D01*
X150338095Y-116776190D01*
X150300000Y-116852380D01*
X150261904Y-117004761D01*
X150261904Y-117119047D01*
X150300000Y-117271428D01*
X150338095Y-117347619D01*
X150414285Y-117423809D01*
X150528571Y-117461904D01*
X150719047Y-117461904D01*
X149919047Y-117461904D02*
X149919047Y-116661904D01*
X149385714Y-116661904D02*
X149233333Y-116661904D01*
X149157142Y-116700000D01*
X149080952Y-116776190D01*
X149042857Y-116928571D01*
X149042857Y-117195238D01*
X149080952Y-117347619D01*
X149157142Y-117423809D01*
X149233333Y-117461904D01*
X149385714Y-117461904D01*
X149461904Y-117423809D01*
X149538095Y-117347619D01*
X149576190Y-117195238D01*
X149576190Y-116928571D01*
X149538095Y-116776190D01*
X149461904Y-116700000D01*
X149385714Y-116661904D01*
X147909523Y-116700000D02*
X147985714Y-116661904D01*
X148100000Y-116661904D01*
X148214285Y-116700000D01*
X148290476Y-116776190D01*
X148328571Y-116852380D01*
X148366666Y-117004761D01*
X148366666Y-117119047D01*
X148328571Y-117271428D01*
X148290476Y-117347619D01*
X148214285Y-117423809D01*
X148100000Y-117461904D01*
X148023809Y-117461904D01*
X147909523Y-117423809D01*
X147871428Y-117385714D01*
X147871428Y-117119047D01*
X148023809Y-117119047D01*
X147528571Y-117461904D02*
X147528571Y-116661904D01*
X147071428Y-117461904D01*
X147071428Y-116661904D01*
X146690476Y-117461904D02*
X146690476Y-116661904D01*
X146500000Y-116661904D01*
X146385714Y-116700000D01*
X146309523Y-116776190D01*
X146271428Y-116852380D01*
X146233333Y-117004761D01*
X146233333Y-117119047D01*
X146271428Y-117271428D01*
X146309523Y-117347619D01*
X146385714Y-117423809D01*
X146500000Y-117461904D01*
X146690476Y-117461904D01*
X145276190Y-117385714D02*
X145314285Y-117423809D01*
X145428571Y-117461904D01*
X145504761Y-117461904D01*
X145619047Y-117423809D01*
X145695238Y-117347619D01*
X145733333Y-117271428D01*
X145771428Y-117119047D01*
X145771428Y-117004761D01*
X145733333Y-116852380D01*
X145695238Y-116776190D01*
X145619047Y-116700000D01*
X145504761Y-116661904D01*
X145428571Y-116661904D01*
X145314285Y-116700000D01*
X145276190Y-116738095D01*
X144552380Y-117461904D02*
X144933333Y-117461904D01*
X144933333Y-116661904D01*
X144285714Y-117461904D02*
X144285714Y-116661904D01*
X143828571Y-117461904D02*
X144171428Y-117004761D01*
X143828571Y-116661904D02*
X144285714Y-117119047D01*
X143190476Y-116661904D02*
X142695238Y-116661904D01*
X142961904Y-116966666D01*
X142847619Y-116966666D01*
X142771428Y-117004761D01*
X142733333Y-117042857D01*
X142695238Y-117119047D01*
X142695238Y-117309523D01*
X142733333Y-117385714D01*
X142771428Y-117423809D01*
X142847619Y-117461904D01*
X143076190Y-117461904D01*
X143152380Y-117423809D01*
X143190476Y-117385714D01*
X142466666Y-116661904D02*
X142200000Y-117461904D01*
X141933333Y-116661904D01*
X141742857Y-116661904D02*
X141247619Y-116661904D01*
X141514285Y-116966666D01*
X141400000Y-116966666D01*
X141323809Y-117004761D01*
X141285714Y-117042857D01*
X141247619Y-117119047D01*
X141247619Y-117309523D01*
X141285714Y-117385714D01*
X141323809Y-117423809D01*
X141400000Y-117461904D01*
X141628571Y-117461904D01*
X141704761Y-117423809D01*
X141742857Y-117385714D01*
D12*
G04 #@! TO.C,F1*
X133886252Y-110790000D02*
X131113748Y-110790000D01*
X133886252Y-114210000D02*
X131113748Y-114210000D01*
G04 #@! TO.C,Q2*
X110920000Y-115240000D02*
X111850000Y-115240000D01*
X114080000Y-115240000D02*
X113150000Y-115240000D01*
X114080000Y-115240000D02*
X114080000Y-118400000D01*
X110920000Y-115240000D02*
X110920000Y-116700000D01*
G04 #@! TO.C,R2*
X112828733Y-71760000D02*
X113171267Y-71760000D01*
X112828733Y-70740000D02*
X113171267Y-70740000D01*
G04 #@! TO.C,R3*
X116760000Y-68578733D02*
X116760000Y-68921267D01*
X115740000Y-68578733D02*
X115740000Y-68921267D01*
G04 #@! TO.C,R6*
X95010000Y-68421267D02*
X95010000Y-68078733D01*
X93990000Y-68421267D02*
X93990000Y-68078733D01*
G04 #@! TO.C,R7*
X93040000Y-80236252D02*
X93040000Y-79713748D01*
X94460000Y-80236252D02*
X94460000Y-79713748D01*
G04 #@! TO.C,R9*
X105988748Y-103960000D02*
X106511252Y-103960000D01*
X105988748Y-102540000D02*
X106511252Y-102540000D01*
G04 #@! TO.C,R10*
X103671267Y-72490000D02*
X103328733Y-72490000D01*
X103671267Y-73510000D02*
X103328733Y-73510000D01*
G04 #@! TO.C,R11*
X95410000Y-105138748D02*
X95410000Y-105661252D01*
X93990000Y-105138748D02*
X93990000Y-105661252D01*
G04 #@! TO.C,R12*
X93040000Y-93488748D02*
X93040000Y-94011252D01*
X94460000Y-93488748D02*
X94460000Y-94011252D01*
G04 #@! TO.C,R8*
X105988748Y-106040000D02*
X106511252Y-106040000D01*
X105988748Y-107460000D02*
X106511252Y-107460000D01*
G04 #@! TO.C,C7*
X113710000Y-67011252D02*
X113710000Y-66488748D01*
X112290000Y-67011252D02*
X112290000Y-66488748D01*
G04 #@! TO.C,R19*
X109290000Y-61521267D02*
X109290000Y-61178733D01*
X110310000Y-61521267D02*
X110310000Y-61178733D01*
G04 #@! TO.C,R20*
X107810000Y-61571267D02*
X107810000Y-61228733D01*
X106790000Y-61571267D02*
X106790000Y-61228733D01*
D10*
G04 #@! TO.C,U3*
X106375000Y-69625000D02*
X106375000Y-69450000D01*
X109625000Y-69625000D02*
X109625000Y-69350000D01*
X109625000Y-66375000D02*
X109625000Y-66650000D01*
X106375000Y-66375000D02*
X106375000Y-66650000D01*
X106375000Y-69625000D02*
X109625000Y-69625000D01*
X106375000Y-66375000D02*
X109625000Y-66375000D01*
X106375000Y-69450000D02*
X105300000Y-69450000D01*
G04 #@! TO.C,REF\002A\002A*
X159939806Y-97370000D02*
G75*
G03X159939806Y-97370000I-2839806J0D01*
G01*
X154100000Y-95400000D02*
X154725000Y-95625000D01*
X153275000Y-94800000D02*
X154100000Y-95400000D01*
X152650000Y-93850000D02*
X153275000Y-94800000D01*
X152875000Y-92725000D02*
X152650000Y-93850000D01*
X153725000Y-91950000D02*
X152875000Y-92725000D01*
X155125000Y-91825000D02*
X153725000Y-91950000D01*
X156350000Y-92500000D02*
X155125000Y-91825000D01*
X156850000Y-93400000D02*
X156350000Y-92500000D01*
X157025000Y-94450000D02*
X156850000Y-93400000D01*
X159525000Y-95975000D02*
X159575000Y-96200000D01*
X160375000Y-95800000D02*
X159525000Y-95975000D01*
X161150000Y-95625000D02*
X160375000Y-95800000D01*
X161775000Y-94800000D02*
X161150000Y-95625000D01*
X161825000Y-93800000D02*
X161775000Y-94800000D01*
X161275000Y-92950000D02*
X161825000Y-93800000D01*
X160375000Y-92500000D02*
X161275000Y-92950000D01*
X158975000Y-92625000D02*
X160375000Y-92500000D01*
X158200000Y-93125000D02*
X158975000Y-92625000D01*
X157525000Y-93675000D02*
X158200000Y-93125000D01*
X157075000Y-94450000D02*
X157525000Y-93675000D01*
X153050000Y-100650000D02*
X153500000Y-99925000D01*
X153100000Y-101500000D02*
X153050000Y-100650000D01*
X154000000Y-102275000D02*
X153100000Y-101500000D01*
X155125000Y-102350000D02*
X154000000Y-102275000D01*
X156225000Y-101725000D02*
X155125000Y-102350000D01*
X156675000Y-101175000D02*
X156225000Y-101725000D01*
X157125000Y-100450000D02*
X156675000Y-101175000D01*
X157075000Y-101275000D02*
X157125000Y-100450000D01*
X157250000Y-102000000D02*
X157075000Y-101275000D01*
X157675000Y-102625000D02*
X157250000Y-102000000D01*
X158850000Y-102850000D02*
X157675000Y-102625000D01*
X159700000Y-102725000D02*
X158850000Y-102850000D01*
X160200000Y-101950000D02*
X159700000Y-102725000D01*
X160425000Y-101050000D02*
X160200000Y-101950000D01*
X160025000Y-99825000D02*
X160425000Y-101050000D01*
X159525000Y-99100000D02*
X160025000Y-99825000D01*
X159975000Y-99375000D02*
X159525000Y-99100000D01*
X160600000Y-99775000D02*
X159975000Y-99375000D01*
X161650000Y-99875000D02*
X160600000Y-99775000D01*
X162500000Y-99500000D02*
X161650000Y-99875000D01*
X162950000Y-98600000D02*
X162500000Y-99500000D01*
X162825000Y-97425000D02*
X162950000Y-98600000D01*
X162150000Y-96850000D02*
X162825000Y-97425000D01*
X161375000Y-96425000D02*
X162150000Y-96850000D01*
X160650000Y-96250000D02*
X161375000Y-96425000D01*
X159650000Y-96075000D02*
X160650000Y-96250000D01*
X154675000Y-95625000D02*
X154675000Y-95575000D01*
X154275000Y-95625000D02*
X154675000Y-95625000D01*
X153600000Y-95625000D02*
X154275000Y-95625000D01*
X152725000Y-95700000D02*
X153600000Y-95625000D01*
X152050000Y-95750000D02*
X152725000Y-95700000D01*
X151375000Y-96200000D02*
X152050000Y-95750000D01*
X151100000Y-96650000D02*
X151375000Y-96200000D01*
X151025000Y-97300000D02*
X151100000Y-96650000D01*
X151325000Y-98100000D02*
X151025000Y-97300000D01*
X152200000Y-98650000D02*
X151325000Y-98100000D01*
X153675000Y-99100000D02*
X152200000Y-98650000D01*
X154775000Y-99100000D02*
X153675000Y-99100000D01*
X153875000Y-99500000D02*
X154775000Y-99100000D01*
X153450000Y-100000000D02*
X153875000Y-99500000D01*
X158200000Y-96300000D02*
X157900000Y-96300000D01*
X157900000Y-96475000D02*
X158200000Y-96300000D01*
X157625000Y-96525000D02*
X157900000Y-96475000D01*
X157575000Y-96925000D02*
X157625000Y-96525000D01*
X157975000Y-97075000D02*
X157575000Y-96925000D01*
X158525000Y-97075000D02*
X157975000Y-97075000D01*
X158525000Y-96425000D02*
X158525000Y-97075000D01*
X158200000Y-96200000D02*
X158525000Y-96425000D01*
X155625000Y-96800000D02*
X155950000Y-96475000D01*
X155900000Y-97075000D02*
X155625000Y-96800000D01*
X156525000Y-97025000D02*
X155900000Y-97075000D01*
X156575000Y-96575000D02*
X156525000Y-97025000D01*
X156450000Y-96250000D02*
X156575000Y-96575000D01*
X155950000Y-96200000D02*
X156450000Y-96250000D01*
X155175000Y-97800000D02*
X155275000Y-97800000D01*
X155350000Y-98475000D02*
X155175000Y-97800000D01*
X155775000Y-98875000D02*
X155350000Y-98475000D01*
X156400000Y-99100000D02*
X155775000Y-98875000D01*
X157175000Y-98975000D02*
X156400000Y-99100000D01*
X157750000Y-98750000D02*
X157175000Y-98975000D01*
X158200000Y-98550000D02*
X157750000Y-98750000D01*
X158525000Y-98025000D02*
X158200000Y-98550000D01*
X155450000Y-115025000D02*
X155450000Y-115400000D01*
X155000000Y-113525000D02*
X155450000Y-115025000D01*
X154825000Y-111125000D02*
X155000000Y-113525000D01*
X154550000Y-109075000D02*
X154825000Y-111125000D01*
X154650000Y-107225000D02*
X154550000Y-109075000D01*
X154925000Y-105525000D02*
X154650000Y-107225000D01*
X155450000Y-104000000D02*
X154925000Y-105525000D01*
X156250000Y-102775000D02*
X155450000Y-104000000D01*
X157150000Y-100450000D02*
X156250000Y-102775000D01*
X155000000Y-113975000D02*
X154650000Y-113800000D01*
X154125000Y-112825000D02*
X155000000Y-113975000D01*
X153575000Y-111750000D02*
X154125000Y-112825000D01*
X153950000Y-110225000D02*
X153575000Y-111750000D01*
X154200000Y-111225000D02*
X153950000Y-110225000D01*
X154925000Y-112450000D02*
X154200000Y-111225000D01*
G04 #@! TO.C,F1*
X132833333Y-109778571D02*
X133166666Y-109778571D01*
X133166666Y-110302380D02*
X133166666Y-109302380D01*
X132690476Y-109302380D01*
X131785714Y-110302380D02*
X132357142Y-110302380D01*
X132071428Y-110302380D02*
X132071428Y-109302380D01*
X132166666Y-109445238D01*
X132261904Y-109540476D01*
X132357142Y-109588095D01*
G04 #@! TO.C,Q2*
X114345238Y-115047619D02*
X114440476Y-115000000D01*
X114535714Y-114904761D01*
X114678571Y-114761904D01*
X114773809Y-114714285D01*
X114869047Y-114714285D01*
X114821428Y-114952380D02*
X114916666Y-114904761D01*
X115011904Y-114809523D01*
X115059523Y-114619047D01*
X115059523Y-114285714D01*
X115011904Y-114095238D01*
X114916666Y-114000000D01*
X114821428Y-113952380D01*
X114630952Y-113952380D01*
X114535714Y-114000000D01*
X114440476Y-114095238D01*
X114392857Y-114285714D01*
X114392857Y-114619047D01*
X114440476Y-114809523D01*
X114535714Y-114904761D01*
X114630952Y-114952380D01*
X114821428Y-114952380D01*
X114011904Y-114047619D02*
X113964285Y-114000000D01*
X113869047Y-113952380D01*
X113630952Y-113952380D01*
X113535714Y-114000000D01*
X113488095Y-114047619D01*
X113440476Y-114142857D01*
X113440476Y-114238095D01*
X113488095Y-114380952D01*
X114059523Y-114952380D01*
X113440476Y-114952380D01*
G04 #@! TO.C,R2*
X113166666Y-70202380D02*
X113500000Y-69726190D01*
X113738095Y-70202380D02*
X113738095Y-69202380D01*
X113357142Y-69202380D01*
X113261904Y-69250000D01*
X113214285Y-69297619D01*
X113166666Y-69392857D01*
X113166666Y-69535714D01*
X113214285Y-69630952D01*
X113261904Y-69678571D01*
X113357142Y-69726190D01*
X113738095Y-69726190D01*
X112785714Y-69297619D02*
X112738095Y-69250000D01*
X112642857Y-69202380D01*
X112404761Y-69202380D01*
X112309523Y-69250000D01*
X112261904Y-69297619D01*
X112214285Y-69392857D01*
X112214285Y-69488095D01*
X112261904Y-69630952D01*
X112833333Y-70202380D01*
X112214285Y-70202380D01*
X113690476Y-73202380D02*
X114261904Y-73202380D01*
X113976190Y-73202380D02*
X113976190Y-72202380D01*
X114071428Y-72345238D01*
X114166666Y-72440476D01*
X114261904Y-72488095D01*
X113071428Y-72202380D02*
X112976190Y-72202380D01*
X112880952Y-72250000D01*
X112833333Y-72297619D01*
X112785714Y-72392857D01*
X112738095Y-72583333D01*
X112738095Y-72821428D01*
X112785714Y-73011904D01*
X112833333Y-73107142D01*
X112880952Y-73154761D01*
X112976190Y-73202380D01*
X113071428Y-73202380D01*
X113166666Y-73154761D01*
X113214285Y-73107142D01*
X113261904Y-73011904D01*
X113309523Y-72821428D01*
X113309523Y-72583333D01*
X113261904Y-72392857D01*
X113214285Y-72297619D01*
X113166666Y-72250000D01*
X113071428Y-72202380D01*
X112309523Y-73202380D02*
X112309523Y-72202380D01*
X111738095Y-73202380D02*
X112166666Y-72630952D01*
X111738095Y-72202380D02*
X112309523Y-72773809D01*
G04 #@! TO.C,R3*
X116416666Y-66702380D02*
X116750000Y-66226190D01*
X116988095Y-66702380D02*
X116988095Y-65702380D01*
X116607142Y-65702380D01*
X116511904Y-65750000D01*
X116464285Y-65797619D01*
X116416666Y-65892857D01*
X116416666Y-66035714D01*
X116464285Y-66130952D01*
X116511904Y-66178571D01*
X116607142Y-66226190D01*
X116988095Y-66226190D01*
X116083333Y-65702380D02*
X115464285Y-65702380D01*
X115797619Y-66083333D01*
X115654761Y-66083333D01*
X115559523Y-66130952D01*
X115511904Y-66178571D01*
X115464285Y-66273809D01*
X115464285Y-66511904D01*
X115511904Y-66607142D01*
X115559523Y-66654761D01*
X115654761Y-66702380D01*
X115940476Y-66702380D01*
X116035714Y-66654761D01*
X116083333Y-66607142D01*
X116940476Y-71702380D02*
X117511904Y-71702380D01*
X117226190Y-71702380D02*
X117226190Y-70702380D01*
X117321428Y-70845238D01*
X117416666Y-70940476D01*
X117511904Y-70988095D01*
X116321428Y-70702380D02*
X116226190Y-70702380D01*
X116130952Y-70750000D01*
X116083333Y-70797619D01*
X116035714Y-70892857D01*
X115988095Y-71083333D01*
X115988095Y-71321428D01*
X116035714Y-71511904D01*
X116083333Y-71607142D01*
X116130952Y-71654761D01*
X116226190Y-71702380D01*
X116321428Y-71702380D01*
X116416666Y-71654761D01*
X116464285Y-71607142D01*
X116511904Y-71511904D01*
X116559523Y-71321428D01*
X116559523Y-71083333D01*
X116511904Y-70892857D01*
X116464285Y-70797619D01*
X116416666Y-70750000D01*
X116321428Y-70702380D01*
X115559523Y-71702380D02*
X115559523Y-70702380D01*
X114988095Y-71702380D02*
X115416666Y-71130952D01*
X114988095Y-70702380D02*
X115559523Y-71273809D01*
G04 #@! TO.C,R6*
X94666666Y-66202380D02*
X95000000Y-65726190D01*
X95238095Y-66202380D02*
X95238095Y-65202380D01*
X94857142Y-65202380D01*
X94761904Y-65250000D01*
X94714285Y-65297619D01*
X94666666Y-65392857D01*
X94666666Y-65535714D01*
X94714285Y-65630952D01*
X94761904Y-65678571D01*
X94857142Y-65726190D01*
X95238095Y-65726190D01*
X93809523Y-65202380D02*
X94000000Y-65202380D01*
X94095238Y-65250000D01*
X94142857Y-65297619D01*
X94238095Y-65440476D01*
X94285714Y-65630952D01*
X94285714Y-66011904D01*
X94238095Y-66107142D01*
X94190476Y-66154761D01*
X94095238Y-66202380D01*
X93904761Y-66202380D01*
X93809523Y-66154761D01*
X93761904Y-66107142D01*
X93714285Y-66011904D01*
X93714285Y-65773809D01*
X93761904Y-65678571D01*
X93809523Y-65630952D01*
X93904761Y-65583333D01*
X94095238Y-65583333D01*
X94190476Y-65630952D01*
X94238095Y-65678571D01*
X94285714Y-65773809D01*
X95190476Y-71202380D02*
X95761904Y-71202380D01*
X95476190Y-71202380D02*
X95476190Y-70202380D01*
X95571428Y-70345238D01*
X95666666Y-70440476D01*
X95761904Y-70488095D01*
X94571428Y-70202380D02*
X94476190Y-70202380D01*
X94380952Y-70250000D01*
X94333333Y-70297619D01*
X94285714Y-70392857D01*
X94238095Y-70583333D01*
X94238095Y-70821428D01*
X94285714Y-71011904D01*
X94333333Y-71107142D01*
X94380952Y-71154761D01*
X94476190Y-71202380D01*
X94571428Y-71202380D01*
X94666666Y-71154761D01*
X94714285Y-71107142D01*
X94761904Y-71011904D01*
X94809523Y-70821428D01*
X94809523Y-70583333D01*
X94761904Y-70392857D01*
X94714285Y-70297619D01*
X94666666Y-70250000D01*
X94571428Y-70202380D01*
X93809523Y-71202380D02*
X93809523Y-70202380D01*
X93238095Y-71202380D02*
X93666666Y-70630952D01*
X93238095Y-70202380D02*
X93809523Y-70773809D01*
G04 #@! TO.C,R7*
X93916666Y-77702380D02*
X94250000Y-77226190D01*
X94488095Y-77702380D02*
X94488095Y-76702380D01*
X94107142Y-76702380D01*
X94011904Y-76750000D01*
X93964285Y-76797619D01*
X93916666Y-76892857D01*
X93916666Y-77035714D01*
X93964285Y-77130952D01*
X94011904Y-77178571D01*
X94107142Y-77226190D01*
X94488095Y-77226190D01*
X93583333Y-76702380D02*
X92916666Y-76702380D01*
X93345238Y-77702380D01*
X94916666Y-83202380D02*
X95488095Y-83202380D01*
X95202380Y-83202380D02*
X95202380Y-82202380D01*
X95297619Y-82345238D01*
X95392857Y-82440476D01*
X95488095Y-82488095D01*
X94297619Y-82202380D02*
X94202380Y-82202380D01*
X94107142Y-82250000D01*
X94059523Y-82297619D01*
X94011904Y-82392857D01*
X93964285Y-82583333D01*
X93964285Y-82821428D01*
X94011904Y-83011904D01*
X94059523Y-83107142D01*
X94107142Y-83154761D01*
X94202380Y-83202380D01*
X94297619Y-83202380D01*
X94392857Y-83154761D01*
X94440476Y-83107142D01*
X94488095Y-83011904D01*
X94535714Y-82821428D01*
X94535714Y-82583333D01*
X94488095Y-82392857D01*
X94440476Y-82297619D01*
X94392857Y-82250000D01*
X94297619Y-82202380D01*
X93345238Y-82202380D02*
X93250000Y-82202380D01*
X93154761Y-82250000D01*
X93107142Y-82297619D01*
X93059523Y-82392857D01*
X93011904Y-82583333D01*
X93011904Y-82821428D01*
X93059523Y-83011904D01*
X93107142Y-83107142D01*
X93154761Y-83154761D01*
X93250000Y-83202380D01*
X93345238Y-83202380D01*
X93440476Y-83154761D01*
X93488095Y-83107142D01*
X93535714Y-83011904D01*
X93583333Y-82821428D01*
X93583333Y-82583333D01*
X93535714Y-82392857D01*
X93488095Y-82297619D01*
X93440476Y-82250000D01*
X93345238Y-82202380D01*
X92583333Y-83202380D02*
X92583333Y-82202380D01*
X92011904Y-83202380D02*
X92440476Y-82630952D01*
X92011904Y-82202380D02*
X92583333Y-82773809D01*
G04 #@! TO.C,R9*
X106416666Y-105352380D02*
X106750000Y-104876190D01*
X106988095Y-105352380D02*
X106988095Y-104352380D01*
X106607142Y-104352380D01*
X106511904Y-104400000D01*
X106464285Y-104447619D01*
X106416666Y-104542857D01*
X106416666Y-104685714D01*
X106464285Y-104780952D01*
X106511904Y-104828571D01*
X106607142Y-104876190D01*
X106988095Y-104876190D01*
X105940476Y-105352380D02*
X105750000Y-105352380D01*
X105654761Y-105304761D01*
X105607142Y-105257142D01*
X105511904Y-105114285D01*
X105464285Y-104923809D01*
X105464285Y-104542857D01*
X105511904Y-104447619D01*
X105559523Y-104400000D01*
X105654761Y-104352380D01*
X105845238Y-104352380D01*
X105940476Y-104400000D01*
X105988095Y-104447619D01*
X106035714Y-104542857D01*
X106035714Y-104780952D01*
X105988095Y-104876190D01*
X105940476Y-104923809D01*
X105845238Y-104971428D01*
X105654761Y-104971428D01*
X105559523Y-104923809D01*
X105511904Y-104876190D01*
X105464285Y-104780952D01*
X103416666Y-103702380D02*
X103988095Y-103702380D01*
X103702380Y-103702380D02*
X103702380Y-102702380D01*
X103797619Y-102845238D01*
X103892857Y-102940476D01*
X103988095Y-102988095D01*
X102797619Y-102702380D02*
X102702380Y-102702380D01*
X102607142Y-102750000D01*
X102559523Y-102797619D01*
X102511904Y-102892857D01*
X102464285Y-103083333D01*
X102464285Y-103321428D01*
X102511904Y-103511904D01*
X102559523Y-103607142D01*
X102607142Y-103654761D01*
X102702380Y-103702380D01*
X102797619Y-103702380D01*
X102892857Y-103654761D01*
X102940476Y-103607142D01*
X102988095Y-103511904D01*
X103035714Y-103321428D01*
X103035714Y-103083333D01*
X102988095Y-102892857D01*
X102940476Y-102797619D01*
X102892857Y-102750000D01*
X102797619Y-102702380D01*
X101845238Y-102702380D02*
X101750000Y-102702380D01*
X101654761Y-102750000D01*
X101607142Y-102797619D01*
X101559523Y-102892857D01*
X101511904Y-103083333D01*
X101511904Y-103321428D01*
X101559523Y-103511904D01*
X101607142Y-103607142D01*
X101654761Y-103654761D01*
X101750000Y-103702380D01*
X101845238Y-103702380D01*
X101940476Y-103654761D01*
X101988095Y-103607142D01*
X102035714Y-103511904D01*
X102083333Y-103321428D01*
X102083333Y-103083333D01*
X102035714Y-102892857D01*
X101988095Y-102797619D01*
X101940476Y-102750000D01*
X101845238Y-102702380D01*
X101083333Y-103702380D02*
X101083333Y-102702380D01*
X100511904Y-103702380D02*
X100940476Y-103130952D01*
X100511904Y-102702380D02*
X101083333Y-103273809D01*
G04 #@! TO.C,R10*
X104142857Y-71952380D02*
X104476190Y-71476190D01*
X104714285Y-71952380D02*
X104714285Y-70952380D01*
X104333333Y-70952380D01*
X104238095Y-71000000D01*
X104190476Y-71047619D01*
X104142857Y-71142857D01*
X104142857Y-71285714D01*
X104190476Y-71380952D01*
X104238095Y-71428571D01*
X104333333Y-71476190D01*
X104714285Y-71476190D01*
X103190476Y-71952380D02*
X103761904Y-71952380D01*
X103476190Y-71952380D02*
X103476190Y-70952380D01*
X103571428Y-71095238D01*
X103666666Y-71190476D01*
X103761904Y-71238095D01*
X102571428Y-70952380D02*
X102476190Y-70952380D01*
X102380952Y-71000000D01*
X102333333Y-71047619D01*
X102285714Y-71142857D01*
X102238095Y-71333333D01*
X102238095Y-71571428D01*
X102285714Y-71761904D01*
X102333333Y-71857142D01*
X102380952Y-71904761D01*
X102476190Y-71952380D01*
X102571428Y-71952380D01*
X102666666Y-71904761D01*
X102714285Y-71857142D01*
X102761904Y-71761904D01*
X102809523Y-71571428D01*
X102809523Y-71333333D01*
X102761904Y-71142857D01*
X102714285Y-71047619D01*
X102666666Y-71000000D01*
X102571428Y-70952380D01*
X104190476Y-74882380D02*
X104761904Y-74882380D01*
X104476190Y-74882380D02*
X104476190Y-73882380D01*
X104571428Y-74025238D01*
X104666666Y-74120476D01*
X104761904Y-74168095D01*
X103571428Y-73882380D02*
X103476190Y-73882380D01*
X103380952Y-73930000D01*
X103333333Y-73977619D01*
X103285714Y-74072857D01*
X103238095Y-74263333D01*
X103238095Y-74501428D01*
X103285714Y-74691904D01*
X103333333Y-74787142D01*
X103380952Y-74834761D01*
X103476190Y-74882380D01*
X103571428Y-74882380D01*
X103666666Y-74834761D01*
X103714285Y-74787142D01*
X103761904Y-74691904D01*
X103809523Y-74501428D01*
X103809523Y-74263333D01*
X103761904Y-74072857D01*
X103714285Y-73977619D01*
X103666666Y-73930000D01*
X103571428Y-73882380D01*
X102809523Y-74882380D02*
X102809523Y-73882380D01*
X102238095Y-74882380D02*
X102666666Y-74310952D01*
X102238095Y-73882380D02*
X102809523Y-74453809D01*
G04 #@! TO.C,R11*
X95392857Y-103202380D02*
X95726190Y-102726190D01*
X95964285Y-103202380D02*
X95964285Y-102202380D01*
X95583333Y-102202380D01*
X95488095Y-102250000D01*
X95440476Y-102297619D01*
X95392857Y-102392857D01*
X95392857Y-102535714D01*
X95440476Y-102630952D01*
X95488095Y-102678571D01*
X95583333Y-102726190D01*
X95964285Y-102726190D01*
X94440476Y-103202380D02*
X95011904Y-103202380D01*
X94726190Y-103202380D02*
X94726190Y-102202380D01*
X94821428Y-102345238D01*
X94916666Y-102440476D01*
X95011904Y-102488095D01*
X93488095Y-103202380D02*
X94059523Y-103202380D01*
X93773809Y-103202380D02*
X93773809Y-102202380D01*
X93869047Y-102345238D01*
X93964285Y-102440476D01*
X94059523Y-102488095D01*
X95916666Y-108452380D02*
X96488095Y-108452380D01*
X96202380Y-108452380D02*
X96202380Y-107452380D01*
X96297619Y-107595238D01*
X96392857Y-107690476D01*
X96488095Y-107738095D01*
X95297619Y-107452380D02*
X95202380Y-107452380D01*
X95107142Y-107500000D01*
X95059523Y-107547619D01*
X95011904Y-107642857D01*
X94964285Y-107833333D01*
X94964285Y-108071428D01*
X95011904Y-108261904D01*
X95059523Y-108357142D01*
X95107142Y-108404761D01*
X95202380Y-108452380D01*
X95297619Y-108452380D01*
X95392857Y-108404761D01*
X95440476Y-108357142D01*
X95488095Y-108261904D01*
X95535714Y-108071428D01*
X95535714Y-107833333D01*
X95488095Y-107642857D01*
X95440476Y-107547619D01*
X95392857Y-107500000D01*
X95297619Y-107452380D01*
X94345238Y-107452380D02*
X94250000Y-107452380D01*
X94154761Y-107500000D01*
X94107142Y-107547619D01*
X94059523Y-107642857D01*
X94011904Y-107833333D01*
X94011904Y-108071428D01*
X94059523Y-108261904D01*
X94107142Y-108357142D01*
X94154761Y-108404761D01*
X94250000Y-108452380D01*
X94345238Y-108452380D01*
X94440476Y-108404761D01*
X94488095Y-108357142D01*
X94535714Y-108261904D01*
X94583333Y-108071428D01*
X94583333Y-107833333D01*
X94535714Y-107642857D01*
X94488095Y-107547619D01*
X94440476Y-107500000D01*
X94345238Y-107452380D01*
X93583333Y-108452380D02*
X93583333Y-107452380D01*
X93011904Y-108452380D02*
X93440476Y-107880952D01*
X93011904Y-107452380D02*
X93583333Y-108023809D01*
G04 #@! TO.C,R12*
X94392857Y-91452380D02*
X94726190Y-90976190D01*
X94964285Y-91452380D02*
X94964285Y-90452380D01*
X94583333Y-90452380D01*
X94488095Y-90500000D01*
X94440476Y-90547619D01*
X94392857Y-90642857D01*
X94392857Y-90785714D01*
X94440476Y-90880952D01*
X94488095Y-90928571D01*
X94583333Y-90976190D01*
X94964285Y-90976190D01*
X93440476Y-91452380D02*
X94011904Y-91452380D01*
X93726190Y-91452380D02*
X93726190Y-90452380D01*
X93821428Y-90595238D01*
X93916666Y-90690476D01*
X94011904Y-90738095D01*
X93059523Y-90547619D02*
X93011904Y-90500000D01*
X92916666Y-90452380D01*
X92678571Y-90452380D01*
X92583333Y-90500000D01*
X92535714Y-90547619D01*
X92488095Y-90642857D01*
X92488095Y-90738095D01*
X92535714Y-90880952D01*
X93107142Y-91452380D01*
X92488095Y-91452380D01*
X94916666Y-96952380D02*
X95488095Y-96952380D01*
X95202380Y-96952380D02*
X95202380Y-95952380D01*
X95297619Y-96095238D01*
X95392857Y-96190476D01*
X95488095Y-96238095D01*
X94297619Y-95952380D02*
X94202380Y-95952380D01*
X94107142Y-96000000D01*
X94059523Y-96047619D01*
X94011904Y-96142857D01*
X93964285Y-96333333D01*
X93964285Y-96571428D01*
X94011904Y-96761904D01*
X94059523Y-96857142D01*
X94107142Y-96904761D01*
X94202380Y-96952380D01*
X94297619Y-96952380D01*
X94392857Y-96904761D01*
X94440476Y-96857142D01*
X94488095Y-96761904D01*
X94535714Y-96571428D01*
X94535714Y-96333333D01*
X94488095Y-96142857D01*
X94440476Y-96047619D01*
X94392857Y-96000000D01*
X94297619Y-95952380D01*
X93345238Y-95952380D02*
X93250000Y-95952380D01*
X93154761Y-96000000D01*
X93107142Y-96047619D01*
X93059523Y-96142857D01*
X93011904Y-96333333D01*
X93011904Y-96571428D01*
X93059523Y-96761904D01*
X93107142Y-96857142D01*
X93154761Y-96904761D01*
X93250000Y-96952380D01*
X93345238Y-96952380D01*
X93440476Y-96904761D01*
X93488095Y-96857142D01*
X93535714Y-96761904D01*
X93583333Y-96571428D01*
X93583333Y-96333333D01*
X93535714Y-96142857D01*
X93488095Y-96047619D01*
X93440476Y-96000000D01*
X93345238Y-95952380D01*
X92583333Y-96952380D02*
X92583333Y-95952380D01*
X92011904Y-96952380D02*
X92440476Y-96380952D01*
X92011904Y-95952380D02*
X92583333Y-96523809D01*
G04 #@! TO.C,R8*
X106416666Y-108852380D02*
X106750000Y-108376190D01*
X106988095Y-108852380D02*
X106988095Y-107852380D01*
X106607142Y-107852380D01*
X106511904Y-107900000D01*
X106464285Y-107947619D01*
X106416666Y-108042857D01*
X106416666Y-108185714D01*
X106464285Y-108280952D01*
X106511904Y-108328571D01*
X106607142Y-108376190D01*
X106988095Y-108376190D01*
X105845238Y-108280952D02*
X105940476Y-108233333D01*
X105988095Y-108185714D01*
X106035714Y-108090476D01*
X106035714Y-108042857D01*
X105988095Y-107947619D01*
X105940476Y-107900000D01*
X105845238Y-107852380D01*
X105654761Y-107852380D01*
X105559523Y-107900000D01*
X105511904Y-107947619D01*
X105464285Y-108042857D01*
X105464285Y-108090476D01*
X105511904Y-108185714D01*
X105559523Y-108233333D01*
X105654761Y-108280952D01*
X105845238Y-108280952D01*
X105940476Y-108328571D01*
X105988095Y-108376190D01*
X106035714Y-108471428D01*
X106035714Y-108661904D01*
X105988095Y-108757142D01*
X105940476Y-108804761D01*
X105845238Y-108852380D01*
X105654761Y-108852380D01*
X105559523Y-108804761D01*
X105511904Y-108757142D01*
X105464285Y-108661904D01*
X105464285Y-108471428D01*
X105511904Y-108376190D01*
X105559523Y-108328571D01*
X105654761Y-108280952D01*
X103511904Y-106202380D02*
X103702380Y-106202380D01*
X103797619Y-106250000D01*
X103845238Y-106297619D01*
X103940476Y-106440476D01*
X103988095Y-106630952D01*
X103988095Y-107011904D01*
X103940476Y-107107142D01*
X103892857Y-107154761D01*
X103797619Y-107202380D01*
X103607142Y-107202380D01*
X103511904Y-107154761D01*
X103464285Y-107107142D01*
X103416666Y-107011904D01*
X103416666Y-106773809D01*
X103464285Y-106678571D01*
X103511904Y-106630952D01*
X103607142Y-106583333D01*
X103797619Y-106583333D01*
X103892857Y-106630952D01*
X103940476Y-106678571D01*
X103988095Y-106773809D01*
X103035714Y-106297619D02*
X102988095Y-106250000D01*
X102892857Y-106202380D01*
X102654761Y-106202380D01*
X102559523Y-106250000D01*
X102511904Y-106297619D01*
X102464285Y-106392857D01*
X102464285Y-106488095D01*
X102511904Y-106630952D01*
X103083333Y-107202380D01*
X102464285Y-107202380D01*
X101845238Y-106202380D02*
X101750000Y-106202380D01*
X101654761Y-106250000D01*
X101607142Y-106297619D01*
X101559523Y-106392857D01*
X101511904Y-106583333D01*
X101511904Y-106821428D01*
X101559523Y-107011904D01*
X101607142Y-107107142D01*
X101654761Y-107154761D01*
X101750000Y-107202380D01*
X101845238Y-107202380D01*
X101940476Y-107154761D01*
X101988095Y-107107142D01*
X102035714Y-107011904D01*
X102083333Y-106821428D01*
X102083333Y-106583333D01*
X102035714Y-106392857D01*
X101988095Y-106297619D01*
X101940476Y-106250000D01*
X101845238Y-106202380D01*
X101083333Y-107202380D02*
X101083333Y-106202380D01*
X100511904Y-107202380D02*
X100940476Y-106630952D01*
X100511904Y-106202380D02*
X101083333Y-106773809D01*
G04 #@! TO.C,C7*
X113166666Y-64357142D02*
X113214285Y-64404761D01*
X113357142Y-64452380D01*
X113452380Y-64452380D01*
X113595238Y-64404761D01*
X113690476Y-64309523D01*
X113738095Y-64214285D01*
X113785714Y-64023809D01*
X113785714Y-63880952D01*
X113738095Y-63690476D01*
X113690476Y-63595238D01*
X113595238Y-63500000D01*
X113452380Y-63452380D01*
X113357142Y-63452380D01*
X113214285Y-63500000D01*
X113166666Y-63547619D01*
X112833333Y-63452380D02*
X112166666Y-63452380D01*
X112595238Y-64452380D01*
G04 #@! TO.C,R19*
X110892857Y-59452380D02*
X111226190Y-58976190D01*
X111464285Y-59452380D02*
X111464285Y-58452380D01*
X111083333Y-58452380D01*
X110988095Y-58500000D01*
X110940476Y-58547619D01*
X110892857Y-58642857D01*
X110892857Y-58785714D01*
X110940476Y-58880952D01*
X110988095Y-58928571D01*
X111083333Y-58976190D01*
X111464285Y-58976190D01*
X109940476Y-59452380D02*
X110511904Y-59452380D01*
X110226190Y-59452380D02*
X110226190Y-58452380D01*
X110321428Y-58595238D01*
X110416666Y-58690476D01*
X110511904Y-58738095D01*
X109464285Y-59452380D02*
X109273809Y-59452380D01*
X109178571Y-59404761D01*
X109130952Y-59357142D01*
X109035714Y-59214285D01*
X108988095Y-59023809D01*
X108988095Y-58642857D01*
X109035714Y-58547619D01*
X109083333Y-58500000D01*
X109178571Y-58452380D01*
X109369047Y-58452380D01*
X109464285Y-58500000D01*
X109511904Y-58547619D01*
X109559523Y-58642857D01*
X109559523Y-58880952D01*
X109511904Y-58976190D01*
X109464285Y-59023809D01*
X109369047Y-59071428D01*
X109178571Y-59071428D01*
X109083333Y-59023809D01*
X109035714Y-58976190D01*
X108988095Y-58880952D01*
X109964285Y-64202380D02*
X110535714Y-64202380D01*
X110250000Y-64202380D02*
X110250000Y-63202380D01*
X110345238Y-63345238D01*
X110440476Y-63440476D01*
X110535714Y-63488095D01*
X109535714Y-64202380D02*
X109535714Y-63202380D01*
X108964285Y-64202380D02*
X109392857Y-63630952D01*
X108964285Y-63202380D02*
X109535714Y-63773809D01*
G04 #@! TO.C,R20*
X107392857Y-59452380D02*
X107726190Y-58976190D01*
X107964285Y-59452380D02*
X107964285Y-58452380D01*
X107583333Y-58452380D01*
X107488095Y-58500000D01*
X107440476Y-58547619D01*
X107392857Y-58642857D01*
X107392857Y-58785714D01*
X107440476Y-58880952D01*
X107488095Y-58928571D01*
X107583333Y-58976190D01*
X107964285Y-58976190D01*
X107011904Y-58547619D02*
X106964285Y-58500000D01*
X106869047Y-58452380D01*
X106630952Y-58452380D01*
X106535714Y-58500000D01*
X106488095Y-58547619D01*
X106440476Y-58642857D01*
X106440476Y-58738095D01*
X106488095Y-58880952D01*
X107059523Y-59452380D01*
X106440476Y-59452380D01*
X105821428Y-58452380D02*
X105726190Y-58452380D01*
X105630952Y-58500000D01*
X105583333Y-58547619D01*
X105535714Y-58642857D01*
X105488095Y-58833333D01*
X105488095Y-59071428D01*
X105535714Y-59261904D01*
X105583333Y-59357142D01*
X105630952Y-59404761D01*
X105726190Y-59452380D01*
X105821428Y-59452380D01*
X105916666Y-59404761D01*
X105964285Y-59357142D01*
X106011904Y-59261904D01*
X106059523Y-59071428D01*
X106059523Y-58833333D01*
X106011904Y-58642857D01*
X105964285Y-58547619D01*
X105916666Y-58500000D01*
X105821428Y-58452380D01*
X107464285Y-64202380D02*
X108035714Y-64202380D01*
X107750000Y-64202380D02*
X107750000Y-63202380D01*
X107845238Y-63345238D01*
X107940476Y-63440476D01*
X108035714Y-63488095D01*
X107035714Y-64202380D02*
X107035714Y-63202380D01*
X106464285Y-64202380D02*
X106892857Y-63630952D01*
X106464285Y-63202380D02*
X107035714Y-63773809D01*
G04 #@! TO.C,U3*
X108761904Y-70002380D02*
X108761904Y-70811904D01*
X108714285Y-70907142D01*
X108666666Y-70954761D01*
X108571428Y-71002380D01*
X108380952Y-71002380D01*
X108285714Y-70954761D01*
X108238095Y-70907142D01*
X108190476Y-70811904D01*
X108190476Y-70002380D01*
X107809523Y-70002380D02*
X107190476Y-70002380D01*
X107523809Y-70383333D01*
X107380952Y-70383333D01*
X107285714Y-70430952D01*
X107238095Y-70478571D01*
X107190476Y-70573809D01*
X107190476Y-70811904D01*
X107238095Y-70907142D01*
X107285714Y-70954761D01*
X107380952Y-71002380D01*
X107666666Y-71002380D01*
X107761904Y-70954761D01*
X107809523Y-70907142D01*
G04 #@! TD*
M02*
