G04 #@! TF.GenerationSoftware,KiCad,Pcbnew,5.0.2-bee76a0~70~ubuntu16.04.1*
G04 #@! TF.CreationDate,2019-01-02T19:21:14+00:00*
G04 #@! TF.ProjectId,stm32l053c,73746d33-326c-4303-9533-632e6b696361,rev?*
G04 #@! TF.SameCoordinates,Original*
G04 #@! TF.FileFunction,Legend,Top*
G04 #@! TF.FilePolarity,Positive*
%FSLAX46Y46*%
G04 Gerber Fmt 4.6, Leading zero omitted, Abs format (unit mm)*
G04 Created by KiCad (PCBNEW 5.0.2-bee76a0~70~ubuntu16.04.1) date Wed 02 Jan 2019 19:21:14 GMT*
%MOMM*%
%LPD*%
G01*
G04 APERTURE LIST*
%ADD10C,1.000000*%
%ADD11C,0.150000*%
%ADD12C,0.250000*%
%ADD13C,0.500000*%
%ADD14C,0.200000*%
%ADD15C,0.120000*%
%ADD16C,0.100000*%
G04 APERTURE END LIST*
D10*
X140523809Y-92500000D02*
X140142857Y-92261904D01*
X139571428Y-92261904D01*
X139000000Y-92500000D01*
X138619047Y-92976190D01*
X138428571Y-93452380D01*
X138238095Y-94404761D01*
X138238095Y-95119047D01*
X138428571Y-96071428D01*
X138619047Y-96547619D01*
X139000000Y-97023809D01*
X139571428Y-97261904D01*
X139952380Y-97261904D01*
X140523809Y-97023809D01*
X140714285Y-96785714D01*
X140714285Y-95119047D01*
X139952380Y-95119047D01*
X142428571Y-96785714D02*
X142619047Y-97023809D01*
X142428571Y-97261904D01*
X142238095Y-97023809D01*
X142428571Y-96785714D01*
X142428571Y-97261904D01*
X144142857Y-95833333D02*
X146047619Y-95833333D01*
X143761904Y-97261904D02*
X145095238Y-92261904D01*
X146428571Y-97261904D01*
X147761904Y-96785714D02*
X147952380Y-97023809D01*
X147761904Y-97261904D01*
X147571428Y-97023809D01*
X147761904Y-96785714D01*
X147761904Y-97261904D01*
X151952380Y-97261904D02*
X150619047Y-94880952D01*
X149666666Y-97261904D02*
X149666666Y-92261904D01*
X151190476Y-92261904D01*
X151571428Y-92500000D01*
X151761904Y-92738095D01*
X151952380Y-93214285D01*
X151952380Y-93928571D01*
X151761904Y-94404761D01*
X151571428Y-94642857D01*
X151190476Y-94880952D01*
X149666666Y-94880952D01*
X153666666Y-96785714D02*
X153857142Y-97023809D01*
X153666666Y-97261904D01*
X153476190Y-97023809D01*
X153666666Y-96785714D01*
X153666666Y-97261904D01*
X155571428Y-97261904D02*
X155571428Y-92261904D01*
X156523809Y-92261904D01*
X157095238Y-92500000D01*
X157476190Y-92976190D01*
X157666666Y-93452380D01*
X157857142Y-94404761D01*
X157857142Y-95119047D01*
X157666666Y-96071428D01*
X157476190Y-96547619D01*
X157095238Y-97023809D01*
X156523809Y-97261904D01*
X155571428Y-97261904D01*
X159571428Y-96785714D02*
X159761904Y-97023809D01*
X159571428Y-97261904D01*
X159380952Y-97023809D01*
X159571428Y-96785714D01*
X159571428Y-97261904D01*
D11*
X111464404Y-85858333D02*
X111845357Y-85858333D01*
X111388214Y-86086904D02*
X111654880Y-85286904D01*
X111921547Y-86086904D01*
X112302500Y-86086904D02*
X112226309Y-86048809D01*
X112188214Y-85972619D01*
X112188214Y-85286904D01*
X112492976Y-85553571D02*
X112797738Y-85553571D01*
X112607261Y-85286904D02*
X112607261Y-85972619D01*
X112645357Y-86048809D01*
X112721547Y-86086904D01*
X112797738Y-86086904D01*
X113369166Y-86048809D02*
X113292976Y-86086904D01*
X113140595Y-86086904D01*
X113064404Y-86048809D01*
X113026309Y-85972619D01*
X113026309Y-85667857D01*
X113064404Y-85591666D01*
X113140595Y-85553571D01*
X113292976Y-85553571D01*
X113369166Y-85591666D01*
X113407261Y-85667857D01*
X113407261Y-85744047D01*
X113026309Y-85820238D01*
X113750119Y-86086904D02*
X113750119Y-85553571D01*
X113750119Y-85705952D02*
X113788214Y-85629761D01*
X113826309Y-85591666D01*
X113902500Y-85553571D01*
X113978690Y-85553571D01*
X114245357Y-85553571D02*
X114245357Y-86086904D01*
X114245357Y-85629761D02*
X114283452Y-85591666D01*
X114359642Y-85553571D01*
X114473928Y-85553571D01*
X114550119Y-85591666D01*
X114588214Y-85667857D01*
X114588214Y-86086904D01*
X115312023Y-86086904D02*
X115312023Y-85667857D01*
X115273928Y-85591666D01*
X115197738Y-85553571D01*
X115045357Y-85553571D01*
X114969166Y-85591666D01*
X115312023Y-86048809D02*
X115235833Y-86086904D01*
X115045357Y-86086904D01*
X114969166Y-86048809D01*
X114931071Y-85972619D01*
X114931071Y-85896428D01*
X114969166Y-85820238D01*
X115045357Y-85782142D01*
X115235833Y-85782142D01*
X115312023Y-85744047D01*
X115578690Y-85553571D02*
X115883452Y-85553571D01*
X115692976Y-85286904D02*
X115692976Y-85972619D01*
X115731071Y-86048809D01*
X115807261Y-86086904D01*
X115883452Y-86086904D01*
X116454880Y-86048809D02*
X116378690Y-86086904D01*
X116226309Y-86086904D01*
X116150119Y-86048809D01*
X116112023Y-85972619D01*
X116112023Y-85667857D01*
X116150119Y-85591666D01*
X116226309Y-85553571D01*
X116378690Y-85553571D01*
X116454880Y-85591666D01*
X116492976Y-85667857D01*
X116492976Y-85744047D01*
X116112023Y-85820238D01*
X117826309Y-85286904D02*
X117445357Y-85286904D01*
X117407261Y-85667857D01*
X117445357Y-85629761D01*
X117521547Y-85591666D01*
X117712023Y-85591666D01*
X117788214Y-85629761D01*
X117826309Y-85667857D01*
X117864404Y-85744047D01*
X117864404Y-85934523D01*
X117826309Y-86010714D01*
X117788214Y-86048809D01*
X117712023Y-86086904D01*
X117521547Y-86086904D01*
X117445357Y-86048809D01*
X117407261Y-86010714D01*
X118092976Y-85286904D02*
X118359642Y-86086904D01*
X118626309Y-85286904D01*
X113445357Y-87436904D02*
X113445357Y-86903571D01*
X113445357Y-87055952D02*
X113483452Y-86979761D01*
X113521547Y-86941666D01*
X113597738Y-86903571D01*
X113673928Y-86903571D01*
X114245357Y-87398809D02*
X114169166Y-87436904D01*
X114016785Y-87436904D01*
X113940595Y-87398809D01*
X113902500Y-87322619D01*
X113902500Y-87017857D01*
X113940595Y-86941666D01*
X114016785Y-86903571D01*
X114169166Y-86903571D01*
X114245357Y-86941666D01*
X114283452Y-87017857D01*
X114283452Y-87094047D01*
X113902500Y-87170238D01*
X114969166Y-86903571D02*
X114969166Y-87551190D01*
X114931071Y-87627380D01*
X114892976Y-87665476D01*
X114816785Y-87703571D01*
X114702500Y-87703571D01*
X114626309Y-87665476D01*
X114969166Y-87398809D02*
X114892976Y-87436904D01*
X114740595Y-87436904D01*
X114664404Y-87398809D01*
X114626309Y-87360714D01*
X114588214Y-87284523D01*
X114588214Y-87055952D01*
X114626309Y-86979761D01*
X114664404Y-86941666D01*
X114740595Y-86903571D01*
X114892976Y-86903571D01*
X114969166Y-86941666D01*
X115692976Y-86903571D02*
X115692976Y-87436904D01*
X115350119Y-86903571D02*
X115350119Y-87322619D01*
X115388214Y-87398809D01*
X115464404Y-87436904D01*
X115578690Y-87436904D01*
X115654880Y-87398809D01*
X115692976Y-87360714D01*
X116188214Y-87436904D02*
X116112023Y-87398809D01*
X116073928Y-87322619D01*
X116073928Y-86636904D01*
X116835833Y-87436904D02*
X116835833Y-87017857D01*
X116797738Y-86941666D01*
X116721547Y-86903571D01*
X116569166Y-86903571D01*
X116492976Y-86941666D01*
X116835833Y-87398809D02*
X116759642Y-87436904D01*
X116569166Y-87436904D01*
X116492976Y-87398809D01*
X116454880Y-87322619D01*
X116454880Y-87246428D01*
X116492976Y-87170238D01*
X116569166Y-87132142D01*
X116759642Y-87132142D01*
X116835833Y-87094047D01*
X117102500Y-86903571D02*
X117407261Y-86903571D01*
X117216785Y-86636904D02*
X117216785Y-87322619D01*
X117254880Y-87398809D01*
X117331071Y-87436904D01*
X117407261Y-87436904D01*
X117788214Y-87436904D02*
X117712023Y-87398809D01*
X117673928Y-87360714D01*
X117635833Y-87284523D01*
X117635833Y-87055952D01*
X117673928Y-86979761D01*
X117712023Y-86941666D01*
X117788214Y-86903571D01*
X117902500Y-86903571D01*
X117978690Y-86941666D01*
X118016785Y-86979761D01*
X118054880Y-87055952D01*
X118054880Y-87284523D01*
X118016785Y-87360714D01*
X117978690Y-87398809D01*
X117902500Y-87436904D01*
X117788214Y-87436904D01*
X118397738Y-87436904D02*
X118397738Y-86903571D01*
X118397738Y-87055952D02*
X118435833Y-86979761D01*
X118473928Y-86941666D01*
X118550119Y-86903571D01*
X118626309Y-86903571D01*
D12*
X117511904Y-74452380D02*
X118130952Y-74452380D01*
X117797619Y-74833333D01*
X117940476Y-74833333D01*
X118035714Y-74880952D01*
X118083333Y-74928571D01*
X118130952Y-75023809D01*
X118130952Y-75261904D01*
X118083333Y-75357142D01*
X118035714Y-75404761D01*
X117940476Y-75452380D01*
X117654761Y-75452380D01*
X117559523Y-75404761D01*
X117511904Y-75357142D01*
X118416666Y-74452380D02*
X118750000Y-75452380D01*
X119083333Y-74452380D01*
X119321428Y-74452380D02*
X119940476Y-74452380D01*
X119607142Y-74833333D01*
X119750000Y-74833333D01*
X119845238Y-74880952D01*
X119892857Y-74928571D01*
X119940476Y-75023809D01*
X119940476Y-75261904D01*
X119892857Y-75357142D01*
X119845238Y-75404761D01*
X119750000Y-75452380D01*
X119464285Y-75452380D01*
X119369047Y-75404761D01*
X119321428Y-75357142D01*
D13*
X121547619Y-106154761D02*
X121547619Y-104154761D01*
X122309523Y-104154761D01*
X122500000Y-104250000D01*
X122595238Y-104345238D01*
X122690476Y-104535714D01*
X122690476Y-104821428D01*
X122595238Y-105011904D01*
X122500000Y-105107142D01*
X122309523Y-105202380D01*
X121547619Y-105202380D01*
X123833333Y-106154761D02*
X123642857Y-106059523D01*
X123547619Y-105964285D01*
X123452380Y-105773809D01*
X123452380Y-105202380D01*
X123547619Y-105011904D01*
X123642857Y-104916666D01*
X123833333Y-104821428D01*
X124119047Y-104821428D01*
X124309523Y-104916666D01*
X124404761Y-105011904D01*
X124500000Y-105202380D01*
X124500000Y-105773809D01*
X124404761Y-105964285D01*
X124309523Y-106059523D01*
X124119047Y-106154761D01*
X123833333Y-106154761D01*
X125166666Y-104821428D02*
X125547619Y-106154761D01*
X125928571Y-105202380D01*
X126309523Y-106154761D01*
X126690476Y-104821428D01*
X128214285Y-106059523D02*
X128023809Y-106154761D01*
X127642857Y-106154761D01*
X127452380Y-106059523D01*
X127357142Y-105869047D01*
X127357142Y-105107142D01*
X127452380Y-104916666D01*
X127642857Y-104821428D01*
X128023809Y-104821428D01*
X128214285Y-104916666D01*
X128309523Y-105107142D01*
X128309523Y-105297619D01*
X127357142Y-105488095D01*
X129166666Y-106154761D02*
X129166666Y-104821428D01*
X129166666Y-105202380D02*
X129261904Y-105011904D01*
X129357142Y-104916666D01*
X129547619Y-104821428D01*
X129738095Y-104821428D01*
X119595238Y-109654761D02*
X119595238Y-107654761D01*
X120261904Y-109083333D01*
X120928571Y-107654761D01*
X120928571Y-109654761D01*
X122738095Y-109654761D02*
X122738095Y-108607142D01*
X122642857Y-108416666D01*
X122452380Y-108321428D01*
X122071428Y-108321428D01*
X121880952Y-108416666D01*
X122738095Y-109559523D02*
X122547619Y-109654761D01*
X122071428Y-109654761D01*
X121880952Y-109559523D01*
X121785714Y-109369047D01*
X121785714Y-109178571D01*
X121880952Y-108988095D01*
X122071428Y-108892857D01*
X122547619Y-108892857D01*
X122738095Y-108797619D01*
X123500000Y-109654761D02*
X124547619Y-108321428D01*
X123500000Y-108321428D02*
X124547619Y-109654761D01*
X127880952Y-109654761D02*
X126738095Y-109654761D01*
X127309523Y-109654761D02*
X127309523Y-107654761D01*
X127119047Y-107940476D01*
X126928571Y-108130952D01*
X126738095Y-108226190D01*
X129595238Y-107654761D02*
X129214285Y-107654761D01*
X129023809Y-107750000D01*
X128928571Y-107845238D01*
X128738095Y-108130952D01*
X128642857Y-108511904D01*
X128642857Y-109273809D01*
X128738095Y-109464285D01*
X128833333Y-109559523D01*
X129023809Y-109654761D01*
X129404761Y-109654761D01*
X129595238Y-109559523D01*
X129690476Y-109464285D01*
X129785714Y-109273809D01*
X129785714Y-108797619D01*
X129690476Y-108607142D01*
X129595238Y-108511904D01*
X129404761Y-108416666D01*
X129023809Y-108416666D01*
X128833333Y-108511904D01*
X128738095Y-108607142D01*
X128642857Y-108797619D01*
X130357142Y-107654761D02*
X131023809Y-109654761D01*
X131690476Y-107654761D01*
X156365476Y-103654761D02*
X156365476Y-101654761D01*
X157127380Y-101654761D01*
X157317857Y-101750000D01*
X157413095Y-101845238D01*
X157508333Y-102035714D01*
X157508333Y-102321428D01*
X157413095Y-102511904D01*
X157317857Y-102607142D01*
X157127380Y-102702380D01*
X156365476Y-102702380D01*
X159222619Y-102321428D02*
X159222619Y-103654761D01*
X158365476Y-102321428D02*
X158365476Y-103369047D01*
X158460714Y-103559523D01*
X158651190Y-103654761D01*
X158936904Y-103654761D01*
X159127380Y-103559523D01*
X159222619Y-103464285D01*
X160175000Y-103654761D02*
X160175000Y-102321428D01*
X160175000Y-102511904D02*
X160270238Y-102416666D01*
X160460714Y-102321428D01*
X160746428Y-102321428D01*
X160936904Y-102416666D01*
X161032142Y-102607142D01*
X161032142Y-103654761D01*
X161032142Y-102607142D02*
X161127380Y-102416666D01*
X161317857Y-102321428D01*
X161603571Y-102321428D01*
X161794047Y-102416666D01*
X161889285Y-102607142D01*
X161889285Y-103654761D01*
X162841666Y-102321428D02*
X162841666Y-104321428D01*
X162841666Y-102416666D02*
X163032142Y-102321428D01*
X163413095Y-102321428D01*
X163603571Y-102416666D01*
X163698809Y-102511904D01*
X163794047Y-102702380D01*
X163794047Y-103273809D01*
X163698809Y-103464285D01*
X163603571Y-103559523D01*
X163413095Y-103654761D01*
X163032142Y-103654761D01*
X162841666Y-103559523D01*
X154936904Y-107059523D02*
X155222619Y-107154761D01*
X155698809Y-107154761D01*
X155889285Y-107059523D01*
X155984523Y-106964285D01*
X156079761Y-106773809D01*
X156079761Y-106583333D01*
X155984523Y-106392857D01*
X155889285Y-106297619D01*
X155698809Y-106202380D01*
X155317857Y-106107142D01*
X155127380Y-106011904D01*
X155032142Y-105916666D01*
X154936904Y-105726190D01*
X154936904Y-105535714D01*
X155032142Y-105345238D01*
X155127380Y-105250000D01*
X155317857Y-105154761D01*
X155794047Y-105154761D01*
X156079761Y-105250000D01*
X156746428Y-105821428D02*
X157127380Y-107154761D01*
X157508333Y-106202380D01*
X157889285Y-107154761D01*
X158270238Y-105821428D01*
X159032142Y-107154761D02*
X159032142Y-105821428D01*
X159032142Y-105154761D02*
X158936904Y-105250000D01*
X159032142Y-105345238D01*
X159127380Y-105250000D01*
X159032142Y-105154761D01*
X159032142Y-105345238D01*
X159698809Y-105821428D02*
X160460714Y-105821428D01*
X159984523Y-105154761D02*
X159984523Y-106869047D01*
X160079761Y-107059523D01*
X160270238Y-107154761D01*
X160460714Y-107154761D01*
X161984523Y-107059523D02*
X161794047Y-107154761D01*
X161413095Y-107154761D01*
X161222619Y-107059523D01*
X161127380Y-106964285D01*
X161032142Y-106773809D01*
X161032142Y-106202380D01*
X161127380Y-106011904D01*
X161222619Y-105916666D01*
X161413095Y-105821428D01*
X161794047Y-105821428D01*
X161984523Y-105916666D01*
X162841666Y-107154761D02*
X162841666Y-105154761D01*
X163698809Y-107154761D02*
X163698809Y-106107142D01*
X163603571Y-105916666D01*
X163413095Y-105821428D01*
X163127380Y-105821428D01*
X162936904Y-105916666D01*
X162841666Y-106011904D01*
X115944047Y-56464285D02*
X115848809Y-56559523D01*
X115563095Y-56654761D01*
X115372619Y-56654761D01*
X115086904Y-56559523D01*
X114896428Y-56369047D01*
X114801190Y-56178571D01*
X114705952Y-55797619D01*
X114705952Y-55511904D01*
X114801190Y-55130952D01*
X114896428Y-54940476D01*
X115086904Y-54750000D01*
X115372619Y-54654761D01*
X115563095Y-54654761D01*
X115848809Y-54750000D01*
X115944047Y-54845238D01*
X117658333Y-55321428D02*
X117658333Y-56654761D01*
X116801190Y-55321428D02*
X116801190Y-56369047D01*
X116896428Y-56559523D01*
X117086904Y-56654761D01*
X117372619Y-56654761D01*
X117563095Y-56559523D01*
X117658333Y-56464285D01*
X118610714Y-56654761D02*
X118610714Y-55321428D01*
X118610714Y-55702380D02*
X118705952Y-55511904D01*
X118801190Y-55416666D01*
X118991666Y-55321428D01*
X119182142Y-55321428D01*
X119848809Y-56654761D02*
X119848809Y-55321428D01*
X119848809Y-55702380D02*
X119944047Y-55511904D01*
X120039285Y-55416666D01*
X120229761Y-55321428D01*
X120420238Y-55321428D01*
X121848809Y-56559523D02*
X121658333Y-56654761D01*
X121277380Y-56654761D01*
X121086904Y-56559523D01*
X120991666Y-56369047D01*
X120991666Y-55607142D01*
X121086904Y-55416666D01*
X121277380Y-55321428D01*
X121658333Y-55321428D01*
X121848809Y-55416666D01*
X121944047Y-55607142D01*
X121944047Y-55797619D01*
X120991666Y-55988095D01*
X122801190Y-55321428D02*
X122801190Y-56654761D01*
X122801190Y-55511904D02*
X122896428Y-55416666D01*
X123086904Y-55321428D01*
X123372619Y-55321428D01*
X123563095Y-55416666D01*
X123658333Y-55607142D01*
X123658333Y-56654761D01*
X124325000Y-55321428D02*
X125086904Y-55321428D01*
X124610714Y-54654761D02*
X124610714Y-56369047D01*
X124705952Y-56559523D01*
X124896428Y-56654761D01*
X125086904Y-56654761D01*
X114705952Y-60059523D02*
X114991666Y-60154761D01*
X115467857Y-60154761D01*
X115658333Y-60059523D01*
X115753571Y-59964285D01*
X115848809Y-59773809D01*
X115848809Y-59583333D01*
X115753571Y-59392857D01*
X115658333Y-59297619D01*
X115467857Y-59202380D01*
X115086904Y-59107142D01*
X114896428Y-59011904D01*
X114801190Y-58916666D01*
X114705952Y-58726190D01*
X114705952Y-58535714D01*
X114801190Y-58345238D01*
X114896428Y-58250000D01*
X115086904Y-58154761D01*
X115563095Y-58154761D01*
X115848809Y-58250000D01*
X117467857Y-60059523D02*
X117277380Y-60154761D01*
X116896428Y-60154761D01*
X116705952Y-60059523D01*
X116610714Y-59869047D01*
X116610714Y-59107142D01*
X116705952Y-58916666D01*
X116896428Y-58821428D01*
X117277380Y-58821428D01*
X117467857Y-58916666D01*
X117563095Y-59107142D01*
X117563095Y-59297619D01*
X116610714Y-59488095D01*
X118420238Y-58821428D02*
X118420238Y-60154761D01*
X118420238Y-59011904D02*
X118515476Y-58916666D01*
X118705952Y-58821428D01*
X118991666Y-58821428D01*
X119182142Y-58916666D01*
X119277380Y-59107142D01*
X119277380Y-60154761D01*
X120134523Y-60059523D02*
X120325000Y-60154761D01*
X120705952Y-60154761D01*
X120896428Y-60059523D01*
X120991666Y-59869047D01*
X120991666Y-59773809D01*
X120896428Y-59583333D01*
X120705952Y-59488095D01*
X120420238Y-59488095D01*
X120229761Y-59392857D01*
X120134523Y-59202380D01*
X120134523Y-59107142D01*
X120229761Y-58916666D01*
X120420238Y-58821428D01*
X120705952Y-58821428D01*
X120896428Y-58916666D01*
X122134523Y-60154761D02*
X121944047Y-60059523D01*
X121848809Y-59964285D01*
X121753571Y-59773809D01*
X121753571Y-59202380D01*
X121848809Y-59011904D01*
X121944047Y-58916666D01*
X122134523Y-58821428D01*
X122420238Y-58821428D01*
X122610714Y-58916666D01*
X122705952Y-59011904D01*
X122801190Y-59202380D01*
X122801190Y-59773809D01*
X122705952Y-59964285D01*
X122610714Y-60059523D01*
X122420238Y-60154761D01*
X122134523Y-60154761D01*
X123658333Y-60154761D02*
X123658333Y-58821428D01*
X123658333Y-59202380D02*
X123753571Y-59011904D01*
X123848809Y-58916666D01*
X124039285Y-58821428D01*
X124229761Y-58821428D01*
X96801190Y-103154761D02*
X96801190Y-101154761D01*
X97467857Y-102583333D01*
X98134523Y-101154761D01*
X98134523Y-103154761D01*
X99372619Y-103154761D02*
X99182142Y-103059523D01*
X99086904Y-102964285D01*
X98991666Y-102773809D01*
X98991666Y-102202380D01*
X99086904Y-102011904D01*
X99182142Y-101916666D01*
X99372619Y-101821428D01*
X99658333Y-101821428D01*
X99848809Y-101916666D01*
X99944047Y-102011904D01*
X100039285Y-102202380D01*
X100039285Y-102773809D01*
X99944047Y-102964285D01*
X99848809Y-103059523D01*
X99658333Y-103154761D01*
X99372619Y-103154761D01*
X100610714Y-101821428D02*
X101372619Y-101821428D01*
X100896428Y-101154761D02*
X100896428Y-102869047D01*
X100991666Y-103059523D01*
X101182142Y-103154761D01*
X101372619Y-103154761D01*
X102039285Y-103154761D02*
X102039285Y-101821428D01*
X102039285Y-101154761D02*
X101944047Y-101250000D01*
X102039285Y-101345238D01*
X102134523Y-101250000D01*
X102039285Y-101154761D01*
X102039285Y-101345238D01*
X103277380Y-103154761D02*
X103086904Y-103059523D01*
X102991666Y-102964285D01*
X102896428Y-102773809D01*
X102896428Y-102202380D01*
X102991666Y-102011904D01*
X103086904Y-101916666D01*
X103277380Y-101821428D01*
X103563095Y-101821428D01*
X103753571Y-101916666D01*
X103848809Y-102011904D01*
X103944047Y-102202380D01*
X103944047Y-102773809D01*
X103848809Y-102964285D01*
X103753571Y-103059523D01*
X103563095Y-103154761D01*
X103277380Y-103154761D01*
X104801190Y-101821428D02*
X104801190Y-103154761D01*
X104801190Y-102011904D02*
X104896428Y-101916666D01*
X105086904Y-101821428D01*
X105372619Y-101821428D01*
X105563095Y-101916666D01*
X105658333Y-102107142D01*
X105658333Y-103154761D01*
X96705952Y-106559523D02*
X96991666Y-106654761D01*
X97467857Y-106654761D01*
X97658333Y-106559523D01*
X97753571Y-106464285D01*
X97848809Y-106273809D01*
X97848809Y-106083333D01*
X97753571Y-105892857D01*
X97658333Y-105797619D01*
X97467857Y-105702380D01*
X97086904Y-105607142D01*
X96896428Y-105511904D01*
X96801190Y-105416666D01*
X96705952Y-105226190D01*
X96705952Y-105035714D01*
X96801190Y-104845238D01*
X96896428Y-104750000D01*
X97086904Y-104654761D01*
X97563095Y-104654761D01*
X97848809Y-104750000D01*
X99467857Y-106559523D02*
X99277380Y-106654761D01*
X98896428Y-106654761D01*
X98705952Y-106559523D01*
X98610714Y-106369047D01*
X98610714Y-105607142D01*
X98705952Y-105416666D01*
X98896428Y-105321428D01*
X99277380Y-105321428D01*
X99467857Y-105416666D01*
X99563095Y-105607142D01*
X99563095Y-105797619D01*
X98610714Y-105988095D01*
X100420238Y-105321428D02*
X100420238Y-106654761D01*
X100420238Y-105511904D02*
X100515476Y-105416666D01*
X100705952Y-105321428D01*
X100991666Y-105321428D01*
X101182142Y-105416666D01*
X101277380Y-105607142D01*
X101277380Y-106654761D01*
X102134523Y-106559523D02*
X102325000Y-106654761D01*
X102705952Y-106654761D01*
X102896428Y-106559523D01*
X102991666Y-106369047D01*
X102991666Y-106273809D01*
X102896428Y-106083333D01*
X102705952Y-105988095D01*
X102420238Y-105988095D01*
X102229761Y-105892857D01*
X102134523Y-105702380D01*
X102134523Y-105607142D01*
X102229761Y-105416666D01*
X102420238Y-105321428D01*
X102705952Y-105321428D01*
X102896428Y-105416666D01*
X104134523Y-106654761D02*
X103944047Y-106559523D01*
X103848809Y-106464285D01*
X103753571Y-106273809D01*
X103753571Y-105702380D01*
X103848809Y-105511904D01*
X103944047Y-105416666D01*
X104134523Y-105321428D01*
X104420238Y-105321428D01*
X104610714Y-105416666D01*
X104705952Y-105511904D01*
X104801190Y-105702380D01*
X104801190Y-106273809D01*
X104705952Y-106464285D01*
X104610714Y-106559523D01*
X104420238Y-106654761D01*
X104134523Y-106654761D01*
X105658333Y-106654761D02*
X105658333Y-105321428D01*
X105658333Y-105702380D02*
X105753571Y-105511904D01*
X105848809Y-105416666D01*
X106039285Y-105321428D01*
X106229761Y-105321428D01*
X96801190Y-90654761D02*
X96801190Y-88654761D01*
X97277380Y-88654761D01*
X97563095Y-88750000D01*
X97753571Y-88940476D01*
X97848809Y-89130952D01*
X97944047Y-89511904D01*
X97944047Y-89797619D01*
X97848809Y-90178571D01*
X97753571Y-90369047D01*
X97563095Y-90559523D01*
X97277380Y-90654761D01*
X96801190Y-90654761D01*
X99086904Y-90654761D02*
X98896428Y-90559523D01*
X98801190Y-90464285D01*
X98705952Y-90273809D01*
X98705952Y-89702380D01*
X98801190Y-89511904D01*
X98896428Y-89416666D01*
X99086904Y-89321428D01*
X99372619Y-89321428D01*
X99563095Y-89416666D01*
X99658333Y-89511904D01*
X99753571Y-89702380D01*
X99753571Y-90273809D01*
X99658333Y-90464285D01*
X99563095Y-90559523D01*
X99372619Y-90654761D01*
X99086904Y-90654761D01*
X100896428Y-90654761D02*
X100705952Y-90559523D01*
X100610714Y-90464285D01*
X100515476Y-90273809D01*
X100515476Y-89702380D01*
X100610714Y-89511904D01*
X100705952Y-89416666D01*
X100896428Y-89321428D01*
X101182142Y-89321428D01*
X101372619Y-89416666D01*
X101467857Y-89511904D01*
X101563095Y-89702380D01*
X101563095Y-90273809D01*
X101467857Y-90464285D01*
X101372619Y-90559523D01*
X101182142Y-90654761D01*
X100896428Y-90654761D01*
X102420238Y-90654761D02*
X102420238Y-89321428D01*
X102420238Y-89702380D02*
X102515476Y-89511904D01*
X102610714Y-89416666D01*
X102801190Y-89321428D01*
X102991666Y-89321428D01*
X96705952Y-94059523D02*
X96991666Y-94154761D01*
X97467857Y-94154761D01*
X97658333Y-94059523D01*
X97753571Y-93964285D01*
X97848809Y-93773809D01*
X97848809Y-93583333D01*
X97753571Y-93392857D01*
X97658333Y-93297619D01*
X97467857Y-93202380D01*
X97086904Y-93107142D01*
X96896428Y-93011904D01*
X96801190Y-92916666D01*
X96705952Y-92726190D01*
X96705952Y-92535714D01*
X96801190Y-92345238D01*
X96896428Y-92250000D01*
X97086904Y-92154761D01*
X97563095Y-92154761D01*
X97848809Y-92250000D01*
X98515476Y-92821428D02*
X98896428Y-94154761D01*
X99277380Y-93202380D01*
X99658333Y-94154761D01*
X100039285Y-92821428D01*
X100801190Y-94154761D02*
X100801190Y-92821428D01*
X100801190Y-92154761D02*
X100705952Y-92250000D01*
X100801190Y-92345238D01*
X100896428Y-92250000D01*
X100801190Y-92154761D01*
X100801190Y-92345238D01*
X101467857Y-92821428D02*
X102229761Y-92821428D01*
X101753571Y-92154761D02*
X101753571Y-93869047D01*
X101848809Y-94059523D01*
X102039285Y-94154761D01*
X102229761Y-94154761D01*
X103753571Y-94059523D02*
X103563095Y-94154761D01*
X103182142Y-94154761D01*
X102991666Y-94059523D01*
X102896428Y-93964285D01*
X102801190Y-93773809D01*
X102801190Y-93202380D01*
X102896428Y-93011904D01*
X102991666Y-92916666D01*
X103182142Y-92821428D01*
X103563095Y-92821428D01*
X103753571Y-92916666D01*
X104610714Y-94154761D02*
X104610714Y-92154761D01*
X105467857Y-94154761D02*
X105467857Y-93107142D01*
X105372619Y-92916666D01*
X105182142Y-92821428D01*
X104896428Y-92821428D01*
X104705952Y-92916666D01*
X104610714Y-93011904D01*
X96610714Y-77154761D02*
X97086904Y-79154761D01*
X97467857Y-77726190D01*
X97848809Y-79154761D01*
X98325000Y-77154761D01*
X99944047Y-79154761D02*
X99944047Y-78107142D01*
X99848809Y-77916666D01*
X99658333Y-77821428D01*
X99277380Y-77821428D01*
X99086904Y-77916666D01*
X99944047Y-79059523D02*
X99753571Y-79154761D01*
X99277380Y-79154761D01*
X99086904Y-79059523D01*
X98991666Y-78869047D01*
X98991666Y-78678571D01*
X99086904Y-78488095D01*
X99277380Y-78392857D01*
X99753571Y-78392857D01*
X99944047Y-78297619D01*
X100610714Y-77821428D02*
X101372619Y-77821428D01*
X100896428Y-77154761D02*
X100896428Y-78869047D01*
X100991666Y-79059523D01*
X101182142Y-79154761D01*
X101372619Y-79154761D01*
X102801190Y-79059523D02*
X102610714Y-79154761D01*
X102229761Y-79154761D01*
X102039285Y-79059523D01*
X101944047Y-78869047D01*
X101944047Y-78107142D01*
X102039285Y-77916666D01*
X102229761Y-77821428D01*
X102610714Y-77821428D01*
X102801190Y-77916666D01*
X102896428Y-78107142D01*
X102896428Y-78297619D01*
X101944047Y-78488095D01*
X103753571Y-79154761D02*
X103753571Y-77821428D01*
X103753571Y-78202380D02*
X103848809Y-78011904D01*
X103944047Y-77916666D01*
X104134523Y-77821428D01*
X104325000Y-77821428D01*
X97753571Y-82654761D02*
X96801190Y-82654761D01*
X96801190Y-80654761D01*
X99182142Y-82559523D02*
X98991666Y-82654761D01*
X98610714Y-82654761D01*
X98420238Y-82559523D01*
X98325000Y-82369047D01*
X98325000Y-81607142D01*
X98420238Y-81416666D01*
X98610714Y-81321428D01*
X98991666Y-81321428D01*
X99182142Y-81416666D01*
X99277380Y-81607142D01*
X99277380Y-81797619D01*
X98325000Y-81988095D01*
X99944047Y-81321428D02*
X100420238Y-82654761D01*
X100896428Y-81321428D01*
X102420238Y-82559523D02*
X102229761Y-82654761D01*
X101848809Y-82654761D01*
X101658333Y-82559523D01*
X101563095Y-82369047D01*
X101563095Y-81607142D01*
X101658333Y-81416666D01*
X101848809Y-81321428D01*
X102229761Y-81321428D01*
X102420238Y-81416666D01*
X102515476Y-81607142D01*
X102515476Y-81797619D01*
X101563095Y-81988095D01*
X103658333Y-82654761D02*
X103467857Y-82559523D01*
X103372619Y-82369047D01*
X103372619Y-80654761D01*
X96610714Y-65654761D02*
X97086904Y-67654761D01*
X97467857Y-66226190D01*
X97848809Y-67654761D01*
X98325000Y-65654761D01*
X99944047Y-67654761D02*
X99944047Y-66607142D01*
X99848809Y-66416666D01*
X99658333Y-66321428D01*
X99277380Y-66321428D01*
X99086904Y-66416666D01*
X99944047Y-67559523D02*
X99753571Y-67654761D01*
X99277380Y-67654761D01*
X99086904Y-67559523D01*
X98991666Y-67369047D01*
X98991666Y-67178571D01*
X99086904Y-66988095D01*
X99277380Y-66892857D01*
X99753571Y-66892857D01*
X99944047Y-66797619D01*
X100610714Y-66321428D02*
X101372619Y-66321428D01*
X100896428Y-65654761D02*
X100896428Y-67369047D01*
X100991666Y-67559523D01*
X101182142Y-67654761D01*
X101372619Y-67654761D01*
X102801190Y-67559523D02*
X102610714Y-67654761D01*
X102229761Y-67654761D01*
X102039285Y-67559523D01*
X101944047Y-67369047D01*
X101944047Y-66607142D01*
X102039285Y-66416666D01*
X102229761Y-66321428D01*
X102610714Y-66321428D01*
X102801190Y-66416666D01*
X102896428Y-66607142D01*
X102896428Y-66797619D01*
X101944047Y-66988095D01*
X103753571Y-67654761D02*
X103753571Y-66321428D01*
X103753571Y-66702380D02*
X103848809Y-66511904D01*
X103944047Y-66416666D01*
X104134523Y-66321428D01*
X104325000Y-66321428D01*
X96515476Y-69154761D02*
X97658333Y-69154761D01*
X97086904Y-71154761D02*
X97086904Y-69154761D01*
X99086904Y-71059523D02*
X98896428Y-71154761D01*
X98515476Y-71154761D01*
X98325000Y-71059523D01*
X98229761Y-70869047D01*
X98229761Y-70107142D01*
X98325000Y-69916666D01*
X98515476Y-69821428D01*
X98896428Y-69821428D01*
X99086904Y-69916666D01*
X99182142Y-70107142D01*
X99182142Y-70297619D01*
X98229761Y-70488095D01*
X100039285Y-71154761D02*
X100039285Y-69821428D01*
X100039285Y-70011904D02*
X100134523Y-69916666D01*
X100325000Y-69821428D01*
X100610714Y-69821428D01*
X100801190Y-69916666D01*
X100896428Y-70107142D01*
X100896428Y-71154761D01*
X100896428Y-70107142D02*
X100991666Y-69916666D01*
X101182142Y-69821428D01*
X101467857Y-69821428D01*
X101658333Y-69916666D01*
X101753571Y-70107142D01*
X101753571Y-71154761D01*
X102705952Y-69821428D02*
X102705952Y-71821428D01*
X102705952Y-69916666D02*
X102896428Y-69821428D01*
X103277380Y-69821428D01*
X103467857Y-69916666D01*
X103563095Y-70011904D01*
X103658333Y-70202380D01*
X103658333Y-70773809D01*
X103563095Y-70964285D01*
X103467857Y-71059523D01*
X103277380Y-71154761D01*
X102896428Y-71154761D01*
X102705952Y-71059523D01*
X105277380Y-71059523D02*
X105086904Y-71154761D01*
X104705952Y-71154761D01*
X104515476Y-71059523D01*
X104420238Y-70869047D01*
X104420238Y-70107142D01*
X104515476Y-69916666D01*
X104705952Y-69821428D01*
X105086904Y-69821428D01*
X105277380Y-69916666D01*
X105372619Y-70107142D01*
X105372619Y-70297619D01*
X104420238Y-70488095D01*
X106229761Y-71154761D02*
X106229761Y-69821428D01*
X106229761Y-70202380D02*
X106325000Y-70011904D01*
X106420238Y-69916666D01*
X106610714Y-69821428D01*
X106801190Y-69821428D01*
X108325000Y-71154761D02*
X108325000Y-70107142D01*
X108229761Y-69916666D01*
X108039285Y-69821428D01*
X107658333Y-69821428D01*
X107467857Y-69916666D01*
X108325000Y-71059523D02*
X108134523Y-71154761D01*
X107658333Y-71154761D01*
X107467857Y-71059523D01*
X107372619Y-70869047D01*
X107372619Y-70678571D01*
X107467857Y-70488095D01*
X107658333Y-70392857D01*
X108134523Y-70392857D01*
X108325000Y-70297619D01*
X108991666Y-69821428D02*
X109753571Y-69821428D01*
X109277380Y-69154761D02*
X109277380Y-70869047D01*
X109372619Y-71059523D01*
X109563095Y-71154761D01*
X109753571Y-71154761D01*
X111277380Y-69821428D02*
X111277380Y-71154761D01*
X110420238Y-69821428D02*
X110420238Y-70869047D01*
X110515476Y-71059523D01*
X110705952Y-71154761D01*
X110991666Y-71154761D01*
X111182142Y-71059523D01*
X111277380Y-70964285D01*
X112229761Y-71154761D02*
X112229761Y-69821428D01*
X112229761Y-70202380D02*
X112325000Y-70011904D01*
X112420238Y-69916666D01*
X112610714Y-69821428D01*
X112801190Y-69821428D01*
X114229761Y-71059523D02*
X114039285Y-71154761D01*
X113658333Y-71154761D01*
X113467857Y-71059523D01*
X113372619Y-70869047D01*
X113372619Y-70107142D01*
X113467857Y-69916666D01*
X113658333Y-69821428D01*
X114039285Y-69821428D01*
X114229761Y-69916666D01*
X114325000Y-70107142D01*
X114325000Y-70297619D01*
X113372619Y-70488095D01*
D12*
X129047619Y-119952380D02*
X129238095Y-119952380D01*
X129333333Y-120000000D01*
X129428571Y-120095238D01*
X129476190Y-120285714D01*
X129476190Y-120619047D01*
X129428571Y-120809523D01*
X129333333Y-120904761D01*
X129238095Y-120952380D01*
X129047619Y-120952380D01*
X128952380Y-120904761D01*
X128857142Y-120809523D01*
X128809523Y-120619047D01*
X128809523Y-120285714D01*
X128857142Y-120095238D01*
X128952380Y-120000000D01*
X129047619Y-119952380D01*
X130238095Y-120428571D02*
X129904761Y-120428571D01*
X129904761Y-120952380D02*
X129904761Y-119952380D01*
X130380952Y-119952380D01*
X131095238Y-120428571D02*
X130761904Y-120428571D01*
X130761904Y-120952380D02*
X130761904Y-119952380D01*
X131238095Y-119952380D01*
X134630952Y-119952380D02*
X134821428Y-119952380D01*
X134916666Y-120000000D01*
X135011904Y-120095238D01*
X135059523Y-120285714D01*
X135059523Y-120619047D01*
X135011904Y-120809523D01*
X134916666Y-120904761D01*
X134821428Y-120952380D01*
X134630952Y-120952380D01*
X134535714Y-120904761D01*
X134440476Y-120809523D01*
X134392857Y-120619047D01*
X134392857Y-120285714D01*
X134440476Y-120095238D01*
X134535714Y-120000000D01*
X134630952Y-119952380D01*
X135488095Y-120952380D02*
X135488095Y-119952380D01*
X136059523Y-120952380D01*
X136059523Y-119952380D01*
D11*
X165057142Y-88304761D02*
X165057142Y-87695238D01*
X164561904Y-94147619D02*
X164561904Y-94528571D01*
X164942857Y-94566666D01*
X164904761Y-94528571D01*
X164866666Y-94452380D01*
X164866666Y-94261904D01*
X164904761Y-94185714D01*
X164942857Y-94147619D01*
X165019047Y-94109523D01*
X165209523Y-94109523D01*
X165285714Y-94147619D01*
X165323809Y-94185714D01*
X165361904Y-94261904D01*
X165361904Y-94452380D01*
X165323809Y-94528571D01*
X165285714Y-94566666D01*
X164561904Y-93880952D02*
X165361904Y-93614285D01*
X164561904Y-93347619D01*
X165057142Y-93080952D02*
X165057142Y-92471428D01*
X165361904Y-92776190D02*
X164752380Y-92776190D01*
D12*
X118809523Y-93452380D02*
X118333333Y-93452380D01*
X118285714Y-93928571D01*
X118333333Y-93880952D01*
X118428571Y-93833333D01*
X118666666Y-93833333D01*
X118761904Y-93880952D01*
X118809523Y-93928571D01*
X118857142Y-94023809D01*
X118857142Y-94261904D01*
X118809523Y-94357142D01*
X118761904Y-94404761D01*
X118666666Y-94452380D01*
X118428571Y-94452380D01*
X118333333Y-94404761D01*
X118285714Y-94357142D01*
X119142857Y-93452380D02*
X119476190Y-94452380D01*
X119809523Y-93452380D01*
D11*
X140085714Y-54561904D02*
X139819047Y-54180952D01*
X139628571Y-54561904D02*
X139628571Y-53761904D01*
X139933333Y-53761904D01*
X140009523Y-53800000D01*
X140047619Y-53838095D01*
X140085714Y-53914285D01*
X140085714Y-54028571D01*
X140047619Y-54104761D01*
X140009523Y-54142857D01*
X139933333Y-54180952D01*
X139628571Y-54180952D01*
X140695238Y-54142857D02*
X140428571Y-54142857D01*
X140428571Y-54561904D02*
X140428571Y-53761904D01*
X140809523Y-53761904D01*
X141114285Y-54561904D02*
X141114285Y-53761904D01*
X141380952Y-54333333D01*
X141647619Y-53761904D01*
X141647619Y-54561904D01*
X142066666Y-54561904D02*
X142219047Y-54561904D01*
X142295238Y-54523809D01*
X142333333Y-54485714D01*
X142409523Y-54371428D01*
X142447619Y-54219047D01*
X142447619Y-53914285D01*
X142409523Y-53838095D01*
X142371428Y-53800000D01*
X142295238Y-53761904D01*
X142142857Y-53761904D01*
X142066666Y-53800000D01*
X142028571Y-53838095D01*
X141990476Y-53914285D01*
X141990476Y-54104761D01*
X142028571Y-54180952D01*
X142066666Y-54219047D01*
X142142857Y-54257142D01*
X142295238Y-54257142D01*
X142371428Y-54219047D01*
X142409523Y-54180952D01*
X142447619Y-54104761D01*
X143171428Y-53761904D02*
X142790476Y-53761904D01*
X142752380Y-54142857D01*
X142790476Y-54104761D01*
X142866666Y-54066666D01*
X143057142Y-54066666D01*
X143133333Y-54104761D01*
X143171428Y-54142857D01*
X143209523Y-54219047D01*
X143209523Y-54409523D01*
X143171428Y-54485714D01*
X143133333Y-54523809D01*
X143057142Y-54561904D01*
X142866666Y-54561904D01*
X142790476Y-54523809D01*
X142752380Y-54485714D01*
X148247619Y-78848809D02*
X148361904Y-78886904D01*
X148552380Y-78886904D01*
X148628571Y-78848809D01*
X148666666Y-78810714D01*
X148704761Y-78734523D01*
X148704761Y-78658333D01*
X148666666Y-78582142D01*
X148628571Y-78544047D01*
X148552380Y-78505952D01*
X148400000Y-78467857D01*
X148323809Y-78429761D01*
X148285714Y-78391666D01*
X148247619Y-78315476D01*
X148247619Y-78239285D01*
X148285714Y-78163095D01*
X148323809Y-78125000D01*
X148400000Y-78086904D01*
X148590476Y-78086904D01*
X148704761Y-78125000D01*
X148933333Y-78086904D02*
X149390476Y-78086904D01*
X149161904Y-78886904D02*
X149161904Y-78086904D01*
X149657142Y-78886904D02*
X149657142Y-78086904D01*
X149923809Y-78658333D01*
X150190476Y-78086904D01*
X150190476Y-78886904D01*
X150495238Y-78086904D02*
X150990476Y-78086904D01*
X150723809Y-78391666D01*
X150838095Y-78391666D01*
X150914285Y-78429761D01*
X150952380Y-78467857D01*
X150990476Y-78544047D01*
X150990476Y-78734523D01*
X150952380Y-78810714D01*
X150914285Y-78848809D01*
X150838095Y-78886904D01*
X150609523Y-78886904D01*
X150533333Y-78848809D01*
X150495238Y-78810714D01*
X151295238Y-78163095D02*
X151333333Y-78125000D01*
X151409523Y-78086904D01*
X151600000Y-78086904D01*
X151676190Y-78125000D01*
X151714285Y-78163095D01*
X151752380Y-78239285D01*
X151752380Y-78315476D01*
X151714285Y-78429761D01*
X151257142Y-78886904D01*
X151752380Y-78886904D01*
X148019047Y-80236904D02*
X147638095Y-80236904D01*
X147638095Y-79436904D01*
X148438095Y-79436904D02*
X148514285Y-79436904D01*
X148590476Y-79475000D01*
X148628571Y-79513095D01*
X148666666Y-79589285D01*
X148704761Y-79741666D01*
X148704761Y-79932142D01*
X148666666Y-80084523D01*
X148628571Y-80160714D01*
X148590476Y-80198809D01*
X148514285Y-80236904D01*
X148438095Y-80236904D01*
X148361904Y-80198809D01*
X148323809Y-80160714D01*
X148285714Y-80084523D01*
X148247619Y-79932142D01*
X148247619Y-79741666D01*
X148285714Y-79589285D01*
X148323809Y-79513095D01*
X148361904Y-79475000D01*
X148438095Y-79436904D01*
X149428571Y-79436904D02*
X149047619Y-79436904D01*
X149009523Y-79817857D01*
X149047619Y-79779761D01*
X149123809Y-79741666D01*
X149314285Y-79741666D01*
X149390476Y-79779761D01*
X149428571Y-79817857D01*
X149466666Y-79894047D01*
X149466666Y-80084523D01*
X149428571Y-80160714D01*
X149390476Y-80198809D01*
X149314285Y-80236904D01*
X149123809Y-80236904D01*
X149047619Y-80198809D01*
X149009523Y-80160714D01*
X149733333Y-79436904D02*
X150228571Y-79436904D01*
X149961904Y-79741666D01*
X150076190Y-79741666D01*
X150152380Y-79779761D01*
X150190476Y-79817857D01*
X150228571Y-79894047D01*
X150228571Y-80084523D01*
X150190476Y-80160714D01*
X150152380Y-80198809D01*
X150076190Y-80236904D01*
X149847619Y-80236904D01*
X149771428Y-80198809D01*
X149733333Y-80160714D01*
X151028571Y-80160714D02*
X150990476Y-80198809D01*
X150876190Y-80236904D01*
X150800000Y-80236904D01*
X150685714Y-80198809D01*
X150609523Y-80122619D01*
X150571428Y-80046428D01*
X150533333Y-79894047D01*
X150533333Y-79779761D01*
X150571428Y-79627380D01*
X150609523Y-79551190D01*
X150685714Y-79475000D01*
X150800000Y-79436904D01*
X150876190Y-79436904D01*
X150990476Y-79475000D01*
X151028571Y-79513095D01*
X151485714Y-79779761D02*
X151409523Y-79741666D01*
X151371428Y-79703571D01*
X151333333Y-79627380D01*
X151333333Y-79589285D01*
X151371428Y-79513095D01*
X151409523Y-79475000D01*
X151485714Y-79436904D01*
X151638095Y-79436904D01*
X151714285Y-79475000D01*
X151752380Y-79513095D01*
X151790476Y-79589285D01*
X151790476Y-79627380D01*
X151752380Y-79703571D01*
X151714285Y-79741666D01*
X151638095Y-79779761D01*
X151485714Y-79779761D01*
X151409523Y-79817857D01*
X151371428Y-79855952D01*
X151333333Y-79932142D01*
X151333333Y-80084523D01*
X151371428Y-80160714D01*
X151409523Y-80198809D01*
X151485714Y-80236904D01*
X151638095Y-80236904D01*
X151714285Y-80198809D01*
X151752380Y-80160714D01*
X151790476Y-80084523D01*
X151790476Y-79932142D01*
X151752380Y-79855952D01*
X151714285Y-79817857D01*
X151638095Y-79779761D01*
X152019047Y-79436904D02*
X152476190Y-79436904D01*
X152247619Y-80236904D02*
X152247619Y-79436904D01*
X126414285Y-113942857D02*
X126528571Y-113980952D01*
X126566666Y-114019047D01*
X126604761Y-114095238D01*
X126604761Y-114209523D01*
X126566666Y-114285714D01*
X126528571Y-114323809D01*
X126452380Y-114361904D01*
X126147619Y-114361904D01*
X126147619Y-113561904D01*
X126414285Y-113561904D01*
X126490476Y-113600000D01*
X126528571Y-113638095D01*
X126566666Y-113714285D01*
X126566666Y-113790476D01*
X126528571Y-113866666D01*
X126490476Y-113904761D01*
X126414285Y-113942857D01*
X126147619Y-113942857D01*
X126909523Y-114133333D02*
X127290476Y-114133333D01*
X126833333Y-114361904D02*
X127100000Y-113561904D01*
X127366666Y-114361904D01*
X127519047Y-113561904D02*
X127976190Y-113561904D01*
X127747619Y-114361904D02*
X127747619Y-113561904D01*
X128242857Y-114057142D02*
X128852380Y-114057142D01*
X128547619Y-114361904D02*
X128547619Y-113752380D01*
X112414285Y-119942857D02*
X112528571Y-119980952D01*
X112566666Y-120019047D01*
X112604761Y-120095238D01*
X112604761Y-120209523D01*
X112566666Y-120285714D01*
X112528571Y-120323809D01*
X112452380Y-120361904D01*
X112147619Y-120361904D01*
X112147619Y-119561904D01*
X112414285Y-119561904D01*
X112490476Y-119600000D01*
X112528571Y-119638095D01*
X112566666Y-119714285D01*
X112566666Y-119790476D01*
X112528571Y-119866666D01*
X112490476Y-119904761D01*
X112414285Y-119942857D01*
X112147619Y-119942857D01*
X112909523Y-120133333D02*
X113290476Y-120133333D01*
X112833333Y-120361904D02*
X113100000Y-119561904D01*
X113366666Y-120361904D01*
X113519047Y-119561904D02*
X113976190Y-119561904D01*
X113747619Y-120361904D02*
X113747619Y-119561904D01*
X114242857Y-120057142D02*
X114852380Y-120057142D01*
D13*
X146939000Y-81708714D02*
X146843761Y-81613476D01*
X146939000Y-81518238D01*
X147034238Y-81613476D01*
X146939000Y-81708714D01*
X146939000Y-81518238D01*
D14*
X138785714Y-110935714D02*
X138785714Y-111745238D01*
X138738095Y-111840476D01*
X138690476Y-111888095D01*
X138595238Y-111935714D01*
X138452380Y-111935714D01*
X138357142Y-111888095D01*
X138785714Y-111554761D02*
X138690476Y-111602380D01*
X138500000Y-111602380D01*
X138404761Y-111554761D01*
X138357142Y-111507142D01*
X138309523Y-111411904D01*
X138309523Y-111126190D01*
X138357142Y-111030952D01*
X138404761Y-110983333D01*
X138500000Y-110935714D01*
X138690476Y-110935714D01*
X138785714Y-110983333D01*
X139261904Y-111602380D02*
X139261904Y-110935714D01*
X139261904Y-110602380D02*
X139214285Y-110650000D01*
X139261904Y-110697619D01*
X139309523Y-110650000D01*
X139261904Y-110602380D01*
X139261904Y-110697619D01*
X139595238Y-110935714D02*
X139976190Y-110935714D01*
X139738095Y-110602380D02*
X139738095Y-111459523D01*
X139785714Y-111554761D01*
X139880952Y-111602380D01*
X139976190Y-111602380D01*
X140309523Y-111602380D02*
X140309523Y-110602380D01*
X140738095Y-111602380D02*
X140738095Y-111078571D01*
X140690476Y-110983333D01*
X140595238Y-110935714D01*
X140452380Y-110935714D01*
X140357142Y-110983333D01*
X140309523Y-111030952D01*
X141642857Y-110935714D02*
X141642857Y-111602380D01*
X141214285Y-110935714D02*
X141214285Y-111459523D01*
X141261904Y-111554761D01*
X141357142Y-111602380D01*
X141500000Y-111602380D01*
X141595238Y-111554761D01*
X141642857Y-111507142D01*
X142119047Y-111602380D02*
X142119047Y-110602380D01*
X142119047Y-110983333D02*
X142214285Y-110935714D01*
X142404761Y-110935714D01*
X142500000Y-110983333D01*
X142547619Y-111030952D01*
X142595238Y-111126190D01*
X142595238Y-111411904D01*
X142547619Y-111507142D01*
X142500000Y-111554761D01*
X142404761Y-111602380D01*
X142214285Y-111602380D01*
X142119047Y-111554761D01*
X143023809Y-111507142D02*
X143071428Y-111554761D01*
X143023809Y-111602380D01*
X142976190Y-111554761D01*
X143023809Y-111507142D01*
X143023809Y-111602380D01*
X143928571Y-111554761D02*
X143833333Y-111602380D01*
X143642857Y-111602380D01*
X143547619Y-111554761D01*
X143500000Y-111507142D01*
X143452380Y-111411904D01*
X143452380Y-111126190D01*
X143500000Y-111030952D01*
X143547619Y-110983333D01*
X143642857Y-110935714D01*
X143833333Y-110935714D01*
X143928571Y-110983333D01*
X144500000Y-111602380D02*
X144404761Y-111554761D01*
X144357142Y-111507142D01*
X144309523Y-111411904D01*
X144309523Y-111126190D01*
X144357142Y-111030952D01*
X144404761Y-110983333D01*
X144500000Y-110935714D01*
X144642857Y-110935714D01*
X144738095Y-110983333D01*
X144785714Y-111030952D01*
X144833333Y-111126190D01*
X144833333Y-111411904D01*
X144785714Y-111507142D01*
X144738095Y-111554761D01*
X144642857Y-111602380D01*
X144500000Y-111602380D01*
X145261904Y-111602380D02*
X145261904Y-110935714D01*
X145261904Y-111030952D02*
X145309523Y-110983333D01*
X145404761Y-110935714D01*
X145547619Y-110935714D01*
X145642857Y-110983333D01*
X145690476Y-111078571D01*
X145690476Y-111602380D01*
X145690476Y-111078571D02*
X145738095Y-110983333D01*
X145833333Y-110935714D01*
X145976190Y-110935714D01*
X146071428Y-110983333D01*
X146119047Y-111078571D01*
X146119047Y-111602380D01*
X147309523Y-110554761D02*
X146452380Y-111840476D01*
X147500000Y-110935714D02*
X147880952Y-110935714D01*
X147642857Y-110602380D02*
X147642857Y-111459523D01*
X147690476Y-111554761D01*
X147785714Y-111602380D01*
X147880952Y-111602380D01*
X148214285Y-111602380D02*
X148214285Y-110602380D01*
X148642857Y-111602380D02*
X148642857Y-111078571D01*
X148595238Y-110983333D01*
X148500000Y-110935714D01*
X148357142Y-110935714D01*
X148261904Y-110983333D01*
X148214285Y-111030952D01*
X149500000Y-111554761D02*
X149404761Y-111602380D01*
X149214285Y-111602380D01*
X149119047Y-111554761D01*
X149071428Y-111459523D01*
X149071428Y-111078571D01*
X149119047Y-110983333D01*
X149214285Y-110935714D01*
X149404761Y-110935714D01*
X149500000Y-110983333D01*
X149547619Y-111078571D01*
X149547619Y-111173809D01*
X149071428Y-111269047D01*
X150404761Y-111602380D02*
X150404761Y-111078571D01*
X150357142Y-110983333D01*
X150261904Y-110935714D01*
X150071428Y-110935714D01*
X149976190Y-110983333D01*
X150404761Y-111554761D02*
X150309523Y-111602380D01*
X150071428Y-111602380D01*
X149976190Y-111554761D01*
X149928571Y-111459523D01*
X149928571Y-111364285D01*
X149976190Y-111269047D01*
X150071428Y-111221428D01*
X150309523Y-111221428D01*
X150404761Y-111173809D01*
X150880952Y-110935714D02*
X150880952Y-111935714D01*
X150880952Y-110983333D02*
X150976190Y-110935714D01*
X151166666Y-110935714D01*
X151261904Y-110983333D01*
X151309523Y-111030952D01*
X151357142Y-111126190D01*
X151357142Y-111411904D01*
X151309523Y-111507142D01*
X151261904Y-111554761D01*
X151166666Y-111602380D01*
X150976190Y-111602380D01*
X150880952Y-111554761D01*
X151785714Y-111602380D02*
X151785714Y-110935714D01*
X151785714Y-110602380D02*
X151738095Y-110650000D01*
X151785714Y-110697619D01*
X151833333Y-110650000D01*
X151785714Y-110602380D01*
X151785714Y-110697619D01*
X152976190Y-110554761D02*
X152119047Y-111840476D01*
X153738095Y-110935714D02*
X153738095Y-111745238D01*
X153690476Y-111840476D01*
X153642857Y-111888095D01*
X153547619Y-111935714D01*
X153404761Y-111935714D01*
X153309523Y-111888095D01*
X153738095Y-111554761D02*
X153642857Y-111602380D01*
X153452380Y-111602380D01*
X153357142Y-111554761D01*
X153309523Y-111507142D01*
X153261904Y-111411904D01*
X153261904Y-111126190D01*
X153309523Y-111030952D01*
X153357142Y-110983333D01*
X153452380Y-110935714D01*
X153642857Y-110935714D01*
X153738095Y-110983333D01*
X154642857Y-111602380D02*
X154642857Y-111078571D01*
X154595238Y-110983333D01*
X154500000Y-110935714D01*
X154309523Y-110935714D01*
X154214285Y-110983333D01*
X154642857Y-111554761D02*
X154547619Y-111602380D01*
X154309523Y-111602380D01*
X154214285Y-111554761D01*
X154166666Y-111459523D01*
X154166666Y-111364285D01*
X154214285Y-111269047D01*
X154309523Y-111221428D01*
X154547619Y-111221428D01*
X154642857Y-111173809D01*
X155119047Y-111602380D02*
X155119047Y-110935714D01*
X155119047Y-111126190D02*
X155166666Y-111030952D01*
X155214285Y-110983333D01*
X155309523Y-110935714D01*
X155404761Y-110935714D01*
X156166666Y-111602380D02*
X156166666Y-110602380D01*
X156166666Y-111554761D02*
X156071428Y-111602380D01*
X155880952Y-111602380D01*
X155785714Y-111554761D01*
X155738095Y-111507142D01*
X155690476Y-111411904D01*
X155690476Y-111126190D01*
X155738095Y-111030952D01*
X155785714Y-110983333D01*
X155880952Y-110935714D01*
X156071428Y-110935714D01*
X156166666Y-110983333D01*
X156404761Y-111697619D02*
X157166666Y-111697619D01*
X157404761Y-111602380D02*
X157404761Y-110602380D01*
X157833333Y-111602380D02*
X157833333Y-111078571D01*
X157785714Y-110983333D01*
X157690476Y-110935714D01*
X157547619Y-110935714D01*
X157452380Y-110983333D01*
X157404761Y-111030952D01*
X158214285Y-110935714D02*
X158404761Y-111602380D01*
X158595238Y-111126190D01*
X158785714Y-111602380D01*
X158976190Y-110935714D01*
X143619047Y-112302380D02*
X143619047Y-113016666D01*
X143571428Y-113159523D01*
X143476190Y-113254761D01*
X143333333Y-113302380D01*
X143238095Y-113302380D01*
X144523809Y-113302380D02*
X144523809Y-112778571D01*
X144476190Y-112683333D01*
X144380952Y-112635714D01*
X144190476Y-112635714D01*
X144095238Y-112683333D01*
X144523809Y-113254761D02*
X144428571Y-113302380D01*
X144190476Y-113302380D01*
X144095238Y-113254761D01*
X144047619Y-113159523D01*
X144047619Y-113064285D01*
X144095238Y-112969047D01*
X144190476Y-112921428D01*
X144428571Y-112921428D01*
X144523809Y-112873809D01*
X145000000Y-112635714D02*
X145000000Y-113302380D01*
X145000000Y-112730952D02*
X145047619Y-112683333D01*
X145142857Y-112635714D01*
X145285714Y-112635714D01*
X145380952Y-112683333D01*
X145428571Y-112778571D01*
X145428571Y-113302380D01*
X146619047Y-112397619D02*
X146666666Y-112350000D01*
X146761904Y-112302380D01*
X147000000Y-112302380D01*
X147095238Y-112350000D01*
X147142857Y-112397619D01*
X147190476Y-112492857D01*
X147190476Y-112588095D01*
X147142857Y-112730952D01*
X146571428Y-113302380D01*
X147190476Y-113302380D01*
X147809523Y-112302380D02*
X147904761Y-112302380D01*
X148000000Y-112350000D01*
X148047619Y-112397619D01*
X148095238Y-112492857D01*
X148142857Y-112683333D01*
X148142857Y-112921428D01*
X148095238Y-113111904D01*
X148047619Y-113207142D01*
X148000000Y-113254761D01*
X147904761Y-113302380D01*
X147809523Y-113302380D01*
X147714285Y-113254761D01*
X147666666Y-113207142D01*
X147619047Y-113111904D01*
X147571428Y-112921428D01*
X147571428Y-112683333D01*
X147619047Y-112492857D01*
X147666666Y-112397619D01*
X147714285Y-112350000D01*
X147809523Y-112302380D01*
X149095238Y-113302380D02*
X148523809Y-113302380D01*
X148809523Y-113302380D02*
X148809523Y-112302380D01*
X148714285Y-112445238D01*
X148619047Y-112540476D01*
X148523809Y-112588095D01*
X149571428Y-113302380D02*
X149761904Y-113302380D01*
X149857142Y-113254761D01*
X149904761Y-113207142D01*
X150000000Y-113064285D01*
X150047619Y-112873809D01*
X150047619Y-112492857D01*
X150000000Y-112397619D01*
X149952380Y-112350000D01*
X149857142Y-112302380D01*
X149666666Y-112302380D01*
X149571428Y-112350000D01*
X149523809Y-112397619D01*
X149476190Y-112492857D01*
X149476190Y-112730952D01*
X149523809Y-112826190D01*
X149571428Y-112873809D01*
X149666666Y-112921428D01*
X149857142Y-112921428D01*
X149952380Y-112873809D01*
X150000000Y-112826190D01*
X150047619Y-112730952D01*
X151142857Y-112635714D02*
X151380952Y-113302380D01*
X151619047Y-112635714D01*
X152523809Y-113302380D02*
X151952380Y-113302380D01*
X152238095Y-113302380D02*
X152238095Y-112302380D01*
X152142857Y-112445238D01*
X152047619Y-112540476D01*
X151952380Y-112588095D01*
X152952380Y-113207142D02*
X153000000Y-113254761D01*
X152952380Y-113302380D01*
X152904761Y-113254761D01*
X152952380Y-113207142D01*
X152952380Y-113302380D01*
X153619047Y-112302380D02*
X153714285Y-112302380D01*
X153809523Y-112350000D01*
X153857142Y-112397619D01*
X153904761Y-112492857D01*
X153952380Y-112683333D01*
X153952380Y-112921428D01*
X153904761Y-113111904D01*
X153857142Y-113207142D01*
X153809523Y-113254761D01*
X153714285Y-113302380D01*
X153619047Y-113302380D01*
X153523809Y-113254761D01*
X153476190Y-113207142D01*
X153428571Y-113111904D01*
X153380952Y-112921428D01*
X153380952Y-112683333D01*
X153428571Y-112492857D01*
X153476190Y-112397619D01*
X153523809Y-112350000D01*
X153619047Y-112302380D01*
D11*
X141249523Y-116636904D02*
X141744761Y-116636904D01*
X141478095Y-116941666D01*
X141592380Y-116941666D01*
X141668571Y-116979761D01*
X141706666Y-117017857D01*
X141744761Y-117094047D01*
X141744761Y-117284523D01*
X141706666Y-117360714D01*
X141668571Y-117398809D01*
X141592380Y-117436904D01*
X141363809Y-117436904D01*
X141287619Y-117398809D01*
X141249523Y-117360714D01*
X141973333Y-116636904D02*
X142240000Y-117436904D01*
X142506666Y-116636904D01*
X142697142Y-116636904D02*
X143192380Y-116636904D01*
X142925714Y-116941666D01*
X143040000Y-116941666D01*
X143116190Y-116979761D01*
X143154285Y-117017857D01*
X143192380Y-117094047D01*
X143192380Y-117284523D01*
X143154285Y-117360714D01*
X143116190Y-117398809D01*
X143040000Y-117436904D01*
X142811428Y-117436904D01*
X142735238Y-117398809D01*
X142697142Y-117360714D01*
X146710476Y-116675000D02*
X146634285Y-116636904D01*
X146520000Y-116636904D01*
X146405714Y-116675000D01*
X146329523Y-116751190D01*
X146291428Y-116827380D01*
X146253333Y-116979761D01*
X146253333Y-117094047D01*
X146291428Y-117246428D01*
X146329523Y-117322619D01*
X146405714Y-117398809D01*
X146520000Y-117436904D01*
X146596190Y-117436904D01*
X146710476Y-117398809D01*
X146748571Y-117360714D01*
X146748571Y-117094047D01*
X146596190Y-117094047D01*
X147091428Y-117436904D02*
X147091428Y-116636904D01*
X147548571Y-117436904D01*
X147548571Y-116636904D01*
X147929523Y-117436904D02*
X147929523Y-116636904D01*
X148120000Y-116636904D01*
X148234285Y-116675000D01*
X148310476Y-116751190D01*
X148348571Y-116827380D01*
X148386666Y-116979761D01*
X148386666Y-117094047D01*
X148348571Y-117246428D01*
X148310476Y-117322619D01*
X148234285Y-117398809D01*
X148120000Y-117436904D01*
X147929523Y-117436904D01*
X144303809Y-117360714D02*
X144265714Y-117398809D01*
X144151428Y-117436904D01*
X144075238Y-117436904D01*
X143960952Y-117398809D01*
X143884761Y-117322619D01*
X143846666Y-117246428D01*
X143808571Y-117094047D01*
X143808571Y-116979761D01*
X143846666Y-116827380D01*
X143884761Y-116751190D01*
X143960952Y-116675000D01*
X144075238Y-116636904D01*
X144151428Y-116636904D01*
X144265714Y-116675000D01*
X144303809Y-116713095D01*
X145027619Y-117436904D02*
X144646666Y-117436904D01*
X144646666Y-116636904D01*
X145294285Y-117436904D02*
X145294285Y-116636904D01*
X145751428Y-117436904D02*
X145408571Y-116979761D01*
X145751428Y-116636904D02*
X145294285Y-117094047D01*
X149040952Y-117436904D02*
X149040952Y-116636904D01*
X149231428Y-116636904D01*
X149345714Y-116675000D01*
X149421904Y-116751190D01*
X149460000Y-116827380D01*
X149498095Y-116979761D01*
X149498095Y-117094047D01*
X149460000Y-117246428D01*
X149421904Y-117322619D01*
X149345714Y-117398809D01*
X149231428Y-117436904D01*
X149040952Y-117436904D01*
X149840952Y-117436904D02*
X149840952Y-116636904D01*
X150374285Y-116636904D02*
X150526666Y-116636904D01*
X150602857Y-116675000D01*
X150679047Y-116751190D01*
X150717142Y-116903571D01*
X150717142Y-117170238D01*
X150679047Y-117322619D01*
X150602857Y-117398809D01*
X150526666Y-117436904D01*
X150374285Y-117436904D01*
X150298095Y-117398809D01*
X150221904Y-117322619D01*
X150183809Y-117170238D01*
X150183809Y-116903571D01*
X150221904Y-116751190D01*
X150298095Y-116675000D01*
X150374285Y-116636904D01*
X151961904Y-117436904D02*
X151695238Y-117055952D01*
X151504761Y-117436904D02*
X151504761Y-116636904D01*
X151809523Y-116636904D01*
X151885714Y-116675000D01*
X151923809Y-116713095D01*
X151961904Y-116789285D01*
X151961904Y-116903571D01*
X151923809Y-116979761D01*
X151885714Y-117017857D01*
X151809523Y-117055952D01*
X151504761Y-117055952D01*
X152266666Y-117398809D02*
X152380952Y-117436904D01*
X152571428Y-117436904D01*
X152647619Y-117398809D01*
X152685714Y-117360714D01*
X152723809Y-117284523D01*
X152723809Y-117208333D01*
X152685714Y-117132142D01*
X152647619Y-117094047D01*
X152571428Y-117055952D01*
X152419047Y-117017857D01*
X152342857Y-116979761D01*
X152304761Y-116941666D01*
X152266666Y-116865476D01*
X152266666Y-116789285D01*
X152304761Y-116713095D01*
X152342857Y-116675000D01*
X152419047Y-116636904D01*
X152609523Y-116636904D01*
X152723809Y-116675000D01*
X152952380Y-116636904D02*
X153409523Y-116636904D01*
X153180952Y-117436904D02*
X153180952Y-116636904D01*
X154006666Y-117436904D02*
X154006666Y-116636904D01*
X154311428Y-116636904D01*
X154387619Y-116675000D01*
X154425714Y-116713095D01*
X154463809Y-116789285D01*
X154463809Y-116903571D01*
X154425714Y-116979761D01*
X154387619Y-117017857D01*
X154311428Y-117055952D01*
X154006666Y-117055952D01*
X154768571Y-117208333D02*
X155149523Y-117208333D01*
X154692380Y-117436904D02*
X154959047Y-116636904D01*
X155225714Y-117436904D01*
X155454285Y-116713095D02*
X155492380Y-116675000D01*
X155568571Y-116636904D01*
X155759047Y-116636904D01*
X155835238Y-116675000D01*
X155873333Y-116713095D01*
X155911428Y-116789285D01*
X155911428Y-116865476D01*
X155873333Y-116979761D01*
X155416190Y-117436904D01*
X155911428Y-117436904D01*
D15*
G04 #@! TO.C,U1*
X121050000Y-97430000D02*
X122310000Y-97430000D01*
X127870000Y-97430000D02*
X126610000Y-97430000D01*
X121050000Y-93670000D02*
X121050000Y-97430000D01*
X127870000Y-91420000D02*
X127870000Y-97430000D01*
G04 #@! TO.C,D2*
X166540000Y-80560000D02*
X172510000Y-80560000D01*
X172510000Y-80560000D02*
X172510000Y-67940000D01*
X172510000Y-67940000D02*
X166540000Y-67940000D01*
X166540000Y-67940000D02*
X166540000Y-80560000D01*
X166550000Y-77250000D02*
X167300000Y-77250000D01*
X167300000Y-77250000D02*
X167300000Y-71250000D01*
X167300000Y-71250000D02*
X166550000Y-71250000D01*
X166550000Y-71250000D02*
X166550000Y-77250000D01*
X166550000Y-80550000D02*
X167300000Y-80550000D01*
X167300000Y-80550000D02*
X167300000Y-78750000D01*
X167300000Y-78750000D02*
X166550000Y-78750000D01*
X166550000Y-78750000D02*
X166550000Y-80550000D01*
X166550000Y-69750000D02*
X167300000Y-69750000D01*
X167300000Y-69750000D02*
X167300000Y-67950000D01*
X167300000Y-67950000D02*
X166550000Y-67950000D01*
X166550000Y-67950000D02*
X166550000Y-69750000D01*
X168800000Y-80550000D02*
X168800000Y-79800000D01*
X168800000Y-79800000D02*
X171750000Y-79800000D01*
X171750000Y-79800000D02*
X171750000Y-74250000D01*
X168800000Y-67950000D02*
X168800000Y-68700000D01*
X168800000Y-68700000D02*
X171750000Y-68700000D01*
X171750000Y-68700000D02*
X171750000Y-74250000D01*
X166250000Y-79600000D02*
X166250000Y-80850000D01*
X166250000Y-80850000D02*
X167500000Y-80850000D01*
G04 #@! TO.C,R4*
X138990000Y-83828733D02*
X138990000Y-84171267D01*
X140010000Y-83828733D02*
X140010000Y-84171267D01*
D11*
G04 #@! TO.C,U2*
X146235000Y-82365000D02*
X146685000Y-82365000D01*
X146235000Y-75115000D02*
X146760000Y-75115000D01*
X153485000Y-75115000D02*
X152960000Y-75115000D01*
X153485000Y-82365000D02*
X152960000Y-82365000D01*
X146235000Y-82365000D02*
X146235000Y-81840000D01*
X153485000Y-82365000D02*
X153485000Y-81840000D01*
X153485000Y-75115000D02*
X153485000Y-75640000D01*
X146235000Y-75115000D02*
X146235000Y-75640000D01*
X146685000Y-82365000D02*
X146685000Y-83740000D01*
D15*
G04 #@! TO.C,P1*
X143510000Y-120310000D02*
X156270000Y-120310000D01*
X156270000Y-120310000D02*
X156270000Y-117650000D01*
X142240000Y-120310000D02*
X140910000Y-120310000D01*
X140910000Y-120310000D02*
X140910000Y-118980000D01*
D11*
G04 #@! TO.C,U5*
X158115000Y-70850000D02*
X158115000Y-54850000D01*
X158115000Y-54850000D02*
X142115000Y-54850000D01*
X142115000Y-54850000D02*
X142115000Y-70850000D01*
X142115000Y-70850000D02*
X158115000Y-70850000D01*
G04 #@! TO.C,D1*
X160100000Y-118450000D02*
X162800000Y-118450000D01*
X160100000Y-116950000D02*
X162800000Y-116950000D01*
X161600000Y-117850000D02*
X161600000Y-117600000D01*
X161600000Y-117600000D02*
X161450000Y-117750000D01*
X161350000Y-117350000D02*
X161350000Y-118050000D01*
X161700000Y-117700000D02*
X162050000Y-117700000D01*
X161350000Y-117700000D02*
X161700000Y-117350000D01*
X161700000Y-117350000D02*
X161700000Y-118050000D01*
X161700000Y-118050000D02*
X161350000Y-117700000D01*
G04 #@! TO.C,U4*
X137895000Y-55880000D02*
G75*
G03X137895000Y-55880000I-100000J0D01*
G01*
X138795000Y-55880000D02*
G75*
G03X138795000Y-55880000I-1000000J0D01*
G01*
X138795000Y-57180000D02*
X136795000Y-57180000D01*
X139095000Y-54880000D02*
X139095000Y-56880000D01*
X136795000Y-54580000D02*
X138795000Y-54580000D01*
X136495000Y-56880000D02*
X136495000Y-54880000D01*
X138795000Y-57180000D02*
G75*
G03X139095000Y-56880000I0J300000D01*
G01*
X139095000Y-54880000D02*
G75*
G03X138795000Y-54580000I-300000J0D01*
G01*
X136795000Y-54580000D02*
G75*
G03X136495000Y-54880000I0J-300000D01*
G01*
X136495000Y-56880000D02*
G75*
G03X136795000Y-57180000I300000J0D01*
G01*
D15*
G04 #@! TO.C,J1*
X92630000Y-76180000D02*
X86660000Y-76180000D01*
X86660000Y-76180000D02*
X86660000Y-83800000D01*
X86660000Y-83800000D02*
X92630000Y-83800000D01*
X92630000Y-83800000D02*
X92630000Y-76180000D01*
X92620000Y-79490000D02*
X91870000Y-79490000D01*
X91870000Y-79490000D02*
X91870000Y-80490000D01*
X91870000Y-80490000D02*
X92620000Y-80490000D01*
X92620000Y-80490000D02*
X92620000Y-79490000D01*
X92620000Y-76190000D02*
X91870000Y-76190000D01*
X91870000Y-76190000D02*
X91870000Y-77990000D01*
X91870000Y-77990000D02*
X92620000Y-77990000D01*
X92620000Y-77990000D02*
X92620000Y-76190000D01*
X92620000Y-81990000D02*
X91870000Y-81990000D01*
X91870000Y-81990000D02*
X91870000Y-83790000D01*
X91870000Y-83790000D02*
X92620000Y-83790000D01*
X92620000Y-83790000D02*
X92620000Y-81990000D01*
X90370000Y-76190000D02*
X90370000Y-76940000D01*
X90370000Y-76940000D02*
X87420000Y-76940000D01*
X87420000Y-76940000D02*
X87420000Y-79990000D01*
X90370000Y-83790000D02*
X90370000Y-83040000D01*
X90370000Y-83040000D02*
X87420000Y-83040000D01*
X87420000Y-83040000D02*
X87420000Y-79990000D01*
X92920000Y-77140000D02*
X92920000Y-75890000D01*
X92920000Y-75890000D02*
X91670000Y-75890000D01*
G04 #@! TO.C,J2*
X92630000Y-99040000D02*
X86660000Y-99040000D01*
X86660000Y-99040000D02*
X86660000Y-109160000D01*
X86660000Y-109160000D02*
X92630000Y-109160000D01*
X92630000Y-109160000D02*
X92630000Y-99040000D01*
X92620000Y-102350000D02*
X91870000Y-102350000D01*
X91870000Y-102350000D02*
X91870000Y-105850000D01*
X91870000Y-105850000D02*
X92620000Y-105850000D01*
X92620000Y-105850000D02*
X92620000Y-102350000D01*
X92620000Y-99050000D02*
X91870000Y-99050000D01*
X91870000Y-99050000D02*
X91870000Y-100850000D01*
X91870000Y-100850000D02*
X92620000Y-100850000D01*
X92620000Y-100850000D02*
X92620000Y-99050000D01*
X92620000Y-107350000D02*
X91870000Y-107350000D01*
X91870000Y-107350000D02*
X91870000Y-109150000D01*
X91870000Y-109150000D02*
X92620000Y-109150000D01*
X92620000Y-109150000D02*
X92620000Y-107350000D01*
X90370000Y-99050000D02*
X90370000Y-99800000D01*
X90370000Y-99800000D02*
X87420000Y-99800000D01*
X87420000Y-99800000D02*
X87420000Y-104100000D01*
X90370000Y-109150000D02*
X90370000Y-108400000D01*
X90370000Y-108400000D02*
X87420000Y-108400000D01*
X87420000Y-108400000D02*
X87420000Y-104100000D01*
X92920000Y-100000000D02*
X92920000Y-98750000D01*
X92920000Y-98750000D02*
X91670000Y-98750000D01*
G04 #@! TO.C,J3*
X92630000Y-87610000D02*
X86660000Y-87610000D01*
X86660000Y-87610000D02*
X86660000Y-95230000D01*
X86660000Y-95230000D02*
X92630000Y-95230000D01*
X92630000Y-95230000D02*
X92630000Y-87610000D01*
X92620000Y-90920000D02*
X91870000Y-90920000D01*
X91870000Y-90920000D02*
X91870000Y-91920000D01*
X91870000Y-91920000D02*
X92620000Y-91920000D01*
X92620000Y-91920000D02*
X92620000Y-90920000D01*
X92620000Y-87620000D02*
X91870000Y-87620000D01*
X91870000Y-87620000D02*
X91870000Y-89420000D01*
X91870000Y-89420000D02*
X92620000Y-89420000D01*
X92620000Y-89420000D02*
X92620000Y-87620000D01*
X92620000Y-93420000D02*
X91870000Y-93420000D01*
X91870000Y-93420000D02*
X91870000Y-95220000D01*
X91870000Y-95220000D02*
X92620000Y-95220000D01*
X92620000Y-95220000D02*
X92620000Y-93420000D01*
X90370000Y-87620000D02*
X90370000Y-88370000D01*
X90370000Y-88370000D02*
X87420000Y-88370000D01*
X87420000Y-88370000D02*
X87420000Y-91420000D01*
X90370000Y-95220000D02*
X90370000Y-94470000D01*
X90370000Y-94470000D02*
X87420000Y-94470000D01*
X87420000Y-94470000D02*
X87420000Y-91420000D01*
X92920000Y-88570000D02*
X92920000Y-87320000D01*
X92920000Y-87320000D02*
X91670000Y-87320000D01*
G04 #@! TO.C,J4*
X166540000Y-94560000D02*
X172510000Y-94560000D01*
X172510000Y-94560000D02*
X172510000Y-86940000D01*
X172510000Y-86940000D02*
X166540000Y-86940000D01*
X166540000Y-86940000D02*
X166540000Y-94560000D01*
X166550000Y-91250000D02*
X167300000Y-91250000D01*
X167300000Y-91250000D02*
X167300000Y-90250000D01*
X167300000Y-90250000D02*
X166550000Y-90250000D01*
X166550000Y-90250000D02*
X166550000Y-91250000D01*
X166550000Y-94550000D02*
X167300000Y-94550000D01*
X167300000Y-94550000D02*
X167300000Y-92750000D01*
X167300000Y-92750000D02*
X166550000Y-92750000D01*
X166550000Y-92750000D02*
X166550000Y-94550000D01*
X166550000Y-88750000D02*
X167300000Y-88750000D01*
X167300000Y-88750000D02*
X167300000Y-86950000D01*
X167300000Y-86950000D02*
X166550000Y-86950000D01*
X166550000Y-86950000D02*
X166550000Y-88750000D01*
X168800000Y-94550000D02*
X168800000Y-93800000D01*
X168800000Y-93800000D02*
X171750000Y-93800000D01*
X171750000Y-93800000D02*
X171750000Y-90750000D01*
X168800000Y-86950000D02*
X168800000Y-87700000D01*
X168800000Y-87700000D02*
X171750000Y-87700000D01*
X171750000Y-87700000D02*
X171750000Y-90750000D01*
X166250000Y-93600000D02*
X166250000Y-94850000D01*
X166250000Y-94850000D02*
X167500000Y-94850000D01*
G04 #@! TO.C,Q1*
X160420000Y-90760000D02*
X161350000Y-90760000D01*
X163580000Y-90760000D02*
X162650000Y-90760000D01*
X163580000Y-90760000D02*
X163580000Y-87600000D01*
X160420000Y-90760000D02*
X160420000Y-89300000D01*
G04 #@! TO.C,R13*
X161828733Y-85510000D02*
X162171267Y-85510000D01*
X161828733Y-84490000D02*
X162171267Y-84490000D01*
G04 #@! TO.C,R16*
X161738748Y-82710000D02*
X162261252Y-82710000D01*
X161738748Y-81290000D02*
X162261252Y-81290000D01*
G04 #@! TO.C,R17*
X161713748Y-78290000D02*
X162236252Y-78290000D01*
X161713748Y-79710000D02*
X162236252Y-79710000D01*
G04 #@! TO.C,R18*
X161738748Y-75290000D02*
X162261252Y-75290000D01*
X161738748Y-76710000D02*
X162261252Y-76710000D01*
G04 #@! TO.C,TH1*
X92920000Y-64460000D02*
X91670000Y-64460000D01*
X92920000Y-65710000D02*
X92920000Y-64460000D01*
X87420000Y-71610000D02*
X87420000Y-68560000D01*
X90370000Y-71610000D02*
X87420000Y-71610000D01*
X90370000Y-72360000D02*
X90370000Y-71610000D01*
X87420000Y-65510000D02*
X87420000Y-68560000D01*
X90370000Y-65510000D02*
X87420000Y-65510000D01*
X90370000Y-64760000D02*
X90370000Y-65510000D01*
X92620000Y-72360000D02*
X92620000Y-70560000D01*
X91870000Y-72360000D02*
X92620000Y-72360000D01*
X91870000Y-70560000D02*
X91870000Y-72360000D01*
X92620000Y-70560000D02*
X91870000Y-70560000D01*
X92620000Y-66560000D02*
X92620000Y-64760000D01*
X91870000Y-66560000D02*
X92620000Y-66560000D01*
X91870000Y-64760000D02*
X91870000Y-66560000D01*
X92620000Y-64760000D02*
X91870000Y-64760000D01*
X92620000Y-69060000D02*
X92620000Y-68060000D01*
X91870000Y-69060000D02*
X92620000Y-69060000D01*
X91870000Y-68060000D02*
X91870000Y-69060000D01*
X92620000Y-68060000D02*
X91870000Y-68060000D01*
X92630000Y-72370000D02*
X92630000Y-64750000D01*
X86660000Y-72370000D02*
X92630000Y-72370000D01*
X86660000Y-64750000D02*
X86660000Y-72370000D01*
X92630000Y-64750000D02*
X86660000Y-64750000D01*
G04 #@! TO.C,R1*
X161438748Y-115110000D02*
X161961252Y-115110000D01*
X161438748Y-113690000D02*
X161961252Y-113690000D01*
G04 #@! TO.C,R5*
X104830000Y-54570000D02*
X104830000Y-60540000D01*
X104830000Y-60540000D02*
X112450000Y-60540000D01*
X112450000Y-60540000D02*
X112450000Y-54570000D01*
X112450000Y-54570000D02*
X104830000Y-54570000D01*
X108140000Y-54580000D02*
X108140000Y-55330000D01*
X108140000Y-55330000D02*
X109140000Y-55330000D01*
X109140000Y-55330000D02*
X109140000Y-54580000D01*
X109140000Y-54580000D02*
X108140000Y-54580000D01*
X104840000Y-54580000D02*
X104840000Y-55330000D01*
X104840000Y-55330000D02*
X106640000Y-55330000D01*
X106640000Y-55330000D02*
X106640000Y-54580000D01*
X106640000Y-54580000D02*
X104840000Y-54580000D01*
X110640000Y-54580000D02*
X110640000Y-55330000D01*
X110640000Y-55330000D02*
X112440000Y-55330000D01*
X112440000Y-55330000D02*
X112440000Y-54580000D01*
X112440000Y-54580000D02*
X110640000Y-54580000D01*
X104840000Y-56830000D02*
X105590000Y-56830000D01*
X105590000Y-56830000D02*
X105590000Y-59780000D01*
X105590000Y-59780000D02*
X108640000Y-59780000D01*
X112440000Y-56830000D02*
X111690000Y-56830000D01*
X111690000Y-56830000D02*
X111690000Y-59780000D01*
X111690000Y-59780000D02*
X108640000Y-59780000D01*
X105790000Y-54280000D02*
X104540000Y-54280000D01*
X104540000Y-54280000D02*
X104540000Y-55530000D01*
G04 #@! TO.C,U6*
X127870000Y-73020000D02*
X126610000Y-73020000D01*
X121050000Y-73020000D02*
X122310000Y-73020000D01*
X127870000Y-76780000D02*
X127870000Y-73020000D01*
X121050000Y-79030000D02*
X121050000Y-73020000D01*
G04 #@! TO.C,C1*
X155538748Y-73490000D02*
X156061252Y-73490000D01*
X155538748Y-74910000D02*
X156061252Y-74910000D01*
G04 #@! TO.C,C2*
X144025252Y-82348000D02*
X143502748Y-82348000D01*
X144025252Y-83768000D02*
X143502748Y-83768000D01*
G04 #@! TO.C,C3*
X151810000Y-86313748D02*
X151810000Y-86836252D01*
X150390000Y-86313748D02*
X150390000Y-86836252D01*
G04 #@! TO.C,C4*
X122738748Y-80790000D02*
X123261252Y-80790000D01*
X122738748Y-82210000D02*
X123261252Y-82210000D01*
G04 #@! TO.C,C5*
X129090000Y-91561252D02*
X129090000Y-91038748D01*
X130510000Y-91561252D02*
X130510000Y-91038748D01*
G04 #@! TO.C,C6*
X122738748Y-89210000D02*
X123261252Y-89210000D01*
X122738748Y-87790000D02*
X123261252Y-87790000D01*
G04 #@! TO.C,C8*
X133290000Y-62761252D02*
X133290000Y-62238748D01*
X134710000Y-62761252D02*
X134710000Y-62238748D01*
G04 #@! TO.C,C10*
X130710000Y-77261252D02*
X130710000Y-76738748D01*
X129290000Y-77261252D02*
X129290000Y-76738748D01*
G04 #@! TO.C,C11*
X133710000Y-77261252D02*
X133710000Y-76738748D01*
X132290000Y-77261252D02*
X132290000Y-76738748D01*
G04 #@! TO.C,J7*
X125620000Y-119340000D02*
X115460000Y-119340000D01*
X125620000Y-120610000D02*
X125620000Y-112990000D01*
X125620000Y-112990000D02*
X115460000Y-112990000D01*
X115460000Y-112990000D02*
X115460000Y-120610000D01*
X115460000Y-120610000D02*
X125620000Y-120610000D01*
G04 #@! TO.C,C12*
X118570000Y-106600000D02*
G75*
G03X118570000Y-106600000I-4120000J0D01*
G01*
X114450000Y-110680000D02*
X114450000Y-102520000D01*
X114410000Y-110680000D02*
X114410000Y-102520000D01*
X114370000Y-110680000D02*
X114370000Y-102520000D01*
X114330000Y-110679000D02*
X114330000Y-102521000D01*
X114290000Y-110677000D02*
X114290000Y-102523000D01*
X114250000Y-110676000D02*
X114250000Y-102524000D01*
X114210000Y-110674000D02*
X114210000Y-102526000D01*
X114170000Y-110671000D02*
X114170000Y-102529000D01*
X114130000Y-110668000D02*
X114130000Y-102532000D01*
X114090000Y-110665000D02*
X114090000Y-102535000D01*
X114050000Y-110661000D02*
X114050000Y-102539000D01*
X114010000Y-110657000D02*
X114010000Y-102543000D01*
X113970000Y-110652000D02*
X113970000Y-102548000D01*
X113930000Y-110648000D02*
X113930000Y-102552000D01*
X113890000Y-110642000D02*
X113890000Y-102558000D01*
X113850000Y-110637000D02*
X113850000Y-102563000D01*
X113810000Y-110630000D02*
X113810000Y-102570000D01*
X113770000Y-110624000D02*
X113770000Y-102576000D01*
X113729000Y-110617000D02*
X113729000Y-107640000D01*
X113729000Y-105560000D02*
X113729000Y-102583000D01*
X113689000Y-110610000D02*
X113689000Y-107640000D01*
X113689000Y-105560000D02*
X113689000Y-102590000D01*
X113649000Y-110602000D02*
X113649000Y-107640000D01*
X113649000Y-105560000D02*
X113649000Y-102598000D01*
X113609000Y-110594000D02*
X113609000Y-107640000D01*
X113609000Y-105560000D02*
X113609000Y-102606000D01*
X113569000Y-110585000D02*
X113569000Y-107640000D01*
X113569000Y-105560000D02*
X113569000Y-102615000D01*
X113529000Y-110576000D02*
X113529000Y-107640000D01*
X113529000Y-105560000D02*
X113529000Y-102624000D01*
X113489000Y-110567000D02*
X113489000Y-107640000D01*
X113489000Y-105560000D02*
X113489000Y-102633000D01*
X113449000Y-110557000D02*
X113449000Y-107640000D01*
X113449000Y-105560000D02*
X113449000Y-102643000D01*
X113409000Y-110547000D02*
X113409000Y-107640000D01*
X113409000Y-105560000D02*
X113409000Y-102653000D01*
X113369000Y-110536000D02*
X113369000Y-107640000D01*
X113369000Y-105560000D02*
X113369000Y-102664000D01*
X113329000Y-110525000D02*
X113329000Y-107640000D01*
X113329000Y-105560000D02*
X113329000Y-102675000D01*
X113289000Y-110514000D02*
X113289000Y-107640000D01*
X113289000Y-105560000D02*
X113289000Y-102686000D01*
X113249000Y-110502000D02*
X113249000Y-107640000D01*
X113249000Y-105560000D02*
X113249000Y-102698000D01*
X113209000Y-110489000D02*
X113209000Y-107640000D01*
X113209000Y-105560000D02*
X113209000Y-102711000D01*
X113169000Y-110477000D02*
X113169000Y-107640000D01*
X113169000Y-105560000D02*
X113169000Y-102723000D01*
X113129000Y-110463000D02*
X113129000Y-107640000D01*
X113129000Y-105560000D02*
X113129000Y-102737000D01*
X113089000Y-110450000D02*
X113089000Y-107640000D01*
X113089000Y-105560000D02*
X113089000Y-102750000D01*
X113049000Y-110435000D02*
X113049000Y-107640000D01*
X113049000Y-105560000D02*
X113049000Y-102765000D01*
X113009000Y-110421000D02*
X113009000Y-107640000D01*
X113009000Y-105560000D02*
X113009000Y-102779000D01*
X112969000Y-110405000D02*
X112969000Y-107640000D01*
X112969000Y-105560000D02*
X112969000Y-102795000D01*
X112929000Y-110390000D02*
X112929000Y-107640000D01*
X112929000Y-105560000D02*
X112929000Y-102810000D01*
X112889000Y-110374000D02*
X112889000Y-107640000D01*
X112889000Y-105560000D02*
X112889000Y-102826000D01*
X112849000Y-110357000D02*
X112849000Y-107640000D01*
X112849000Y-105560000D02*
X112849000Y-102843000D01*
X112809000Y-110340000D02*
X112809000Y-107640000D01*
X112809000Y-105560000D02*
X112809000Y-102860000D01*
X112769000Y-110322000D02*
X112769000Y-107640000D01*
X112769000Y-105560000D02*
X112769000Y-102878000D01*
X112729000Y-110304000D02*
X112729000Y-107640000D01*
X112729000Y-105560000D02*
X112729000Y-102896000D01*
X112689000Y-110286000D02*
X112689000Y-107640000D01*
X112689000Y-105560000D02*
X112689000Y-102914000D01*
X112649000Y-110266000D02*
X112649000Y-107640000D01*
X112649000Y-105560000D02*
X112649000Y-102934000D01*
X112609000Y-110247000D02*
X112609000Y-107640000D01*
X112609000Y-105560000D02*
X112609000Y-102953000D01*
X112569000Y-110227000D02*
X112569000Y-107640000D01*
X112569000Y-105560000D02*
X112569000Y-102973000D01*
X112529000Y-110206000D02*
X112529000Y-107640000D01*
X112529000Y-105560000D02*
X112529000Y-102994000D01*
X112489000Y-110184000D02*
X112489000Y-107640000D01*
X112489000Y-105560000D02*
X112489000Y-103016000D01*
X112449000Y-110162000D02*
X112449000Y-107640000D01*
X112449000Y-105560000D02*
X112449000Y-103038000D01*
X112409000Y-110140000D02*
X112409000Y-107640000D01*
X112409000Y-105560000D02*
X112409000Y-103060000D01*
X112369000Y-110117000D02*
X112369000Y-107640000D01*
X112369000Y-105560000D02*
X112369000Y-103083000D01*
X112329000Y-110093000D02*
X112329000Y-107640000D01*
X112329000Y-105560000D02*
X112329000Y-103107000D01*
X112289000Y-110069000D02*
X112289000Y-107640000D01*
X112289000Y-105560000D02*
X112289000Y-103131000D01*
X112249000Y-110044000D02*
X112249000Y-107640000D01*
X112249000Y-105560000D02*
X112249000Y-103156000D01*
X112209000Y-110018000D02*
X112209000Y-107640000D01*
X112209000Y-105560000D02*
X112209000Y-103182000D01*
X112169000Y-109992000D02*
X112169000Y-107640000D01*
X112169000Y-105560000D02*
X112169000Y-103208000D01*
X112129000Y-109965000D02*
X112129000Y-107640000D01*
X112129000Y-105560000D02*
X112129000Y-103235000D01*
X112089000Y-109938000D02*
X112089000Y-107640000D01*
X112089000Y-105560000D02*
X112089000Y-103262000D01*
X112049000Y-109909000D02*
X112049000Y-107640000D01*
X112049000Y-105560000D02*
X112049000Y-103291000D01*
X112009000Y-109880000D02*
X112009000Y-107640000D01*
X112009000Y-105560000D02*
X112009000Y-103320000D01*
X111969000Y-109850000D02*
X111969000Y-107640000D01*
X111969000Y-105560000D02*
X111969000Y-103350000D01*
X111929000Y-109820000D02*
X111929000Y-107640000D01*
X111929000Y-105560000D02*
X111929000Y-103380000D01*
X111889000Y-109789000D02*
X111889000Y-107640000D01*
X111889000Y-105560000D02*
X111889000Y-103411000D01*
X111849000Y-109756000D02*
X111849000Y-107640000D01*
X111849000Y-105560000D02*
X111849000Y-103444000D01*
X111809000Y-109724000D02*
X111809000Y-107640000D01*
X111809000Y-105560000D02*
X111809000Y-103476000D01*
X111769000Y-109690000D02*
X111769000Y-107640000D01*
X111769000Y-105560000D02*
X111769000Y-103510000D01*
X111729000Y-109655000D02*
X111729000Y-107640000D01*
X111729000Y-105560000D02*
X111729000Y-103545000D01*
X111689000Y-109619000D02*
X111689000Y-107640000D01*
X111689000Y-105560000D02*
X111689000Y-103581000D01*
X111649000Y-109583000D02*
X111649000Y-103617000D01*
X111609000Y-109545000D02*
X111609000Y-103655000D01*
X111569000Y-109507000D02*
X111569000Y-103693000D01*
X111529000Y-109467000D02*
X111529000Y-103733000D01*
X111489000Y-109426000D02*
X111489000Y-103774000D01*
X111449000Y-109384000D02*
X111449000Y-103816000D01*
X111409000Y-109341000D02*
X111409000Y-103859000D01*
X111369000Y-109297000D02*
X111369000Y-103903000D01*
X111329000Y-109251000D02*
X111329000Y-103949000D01*
X111289000Y-109204000D02*
X111289000Y-103996000D01*
X111249000Y-109156000D02*
X111249000Y-104044000D01*
X111209000Y-109105000D02*
X111209000Y-104095000D01*
X111169000Y-109054000D02*
X111169000Y-104146000D01*
X111129000Y-109000000D02*
X111129000Y-104200000D01*
X111089000Y-108945000D02*
X111089000Y-104255000D01*
X111049000Y-108887000D02*
X111049000Y-104313000D01*
X111009000Y-108828000D02*
X111009000Y-104372000D01*
X110969000Y-108766000D02*
X110969000Y-104434000D01*
X110929000Y-108702000D02*
X110929000Y-104498000D01*
X110889000Y-108634000D02*
X110889000Y-104566000D01*
X110849000Y-108564000D02*
X110849000Y-104636000D01*
X110809000Y-108490000D02*
X110809000Y-104710000D01*
X110769000Y-108413000D02*
X110769000Y-104787000D01*
X110729000Y-108331000D02*
X110729000Y-104869000D01*
X110689000Y-108245000D02*
X110689000Y-104955000D01*
X110649000Y-108152000D02*
X110649000Y-105048000D01*
X110609000Y-108053000D02*
X110609000Y-105147000D01*
X110569000Y-107946000D02*
X110569000Y-105254000D01*
X110529000Y-107829000D02*
X110529000Y-105371000D01*
X110489000Y-107698000D02*
X110489000Y-105502000D01*
X110449000Y-107548000D02*
X110449000Y-105652000D01*
X110409000Y-107368000D02*
X110409000Y-105832000D01*
X110369000Y-107133000D02*
X110369000Y-106067000D01*
X118859698Y-108915000D02*
X118059698Y-108915000D01*
X118459698Y-109315000D02*
X118459698Y-108515000D01*
G04 #@! TO.C,J6*
X166540000Y-108560000D02*
X172510000Y-108560000D01*
X172510000Y-108560000D02*
X172510000Y-100940000D01*
X172510000Y-100940000D02*
X166540000Y-100940000D01*
X166540000Y-100940000D02*
X166540000Y-108560000D01*
X166550000Y-105250000D02*
X167300000Y-105250000D01*
X167300000Y-105250000D02*
X167300000Y-104250000D01*
X167300000Y-104250000D02*
X166550000Y-104250000D01*
X166550000Y-104250000D02*
X166550000Y-105250000D01*
X166550000Y-108550000D02*
X167300000Y-108550000D01*
X167300000Y-108550000D02*
X167300000Y-106750000D01*
X167300000Y-106750000D02*
X166550000Y-106750000D01*
X166550000Y-106750000D02*
X166550000Y-108550000D01*
X166550000Y-102750000D02*
X167300000Y-102750000D01*
X167300000Y-102750000D02*
X167300000Y-100950000D01*
X167300000Y-100950000D02*
X166550000Y-100950000D01*
X166550000Y-100950000D02*
X166550000Y-102750000D01*
X168800000Y-108550000D02*
X168800000Y-107800000D01*
X168800000Y-107800000D02*
X171750000Y-107800000D01*
X171750000Y-107800000D02*
X171750000Y-104750000D01*
X168800000Y-100950000D02*
X168800000Y-101700000D01*
X168800000Y-101700000D02*
X171750000Y-101700000D01*
X171750000Y-101700000D02*
X171750000Y-104750000D01*
X166250000Y-107600000D02*
X166250000Y-108850000D01*
X166250000Y-108850000D02*
X167500000Y-108850000D01*
G04 #@! TO.C,D3*
X107680000Y-113740000D02*
X107680000Y-113920000D01*
X107680000Y-113920000D02*
X104240000Y-113920000D01*
X104240000Y-113920000D02*
X104240000Y-113740000D01*
X107680000Y-111260000D02*
X107680000Y-111080000D01*
X107680000Y-111080000D02*
X104240000Y-111080000D01*
X104240000Y-111080000D02*
X104240000Y-111260000D01*
X107080000Y-113920000D02*
X107080000Y-111080000D01*
X106960000Y-113920000D02*
X106960000Y-111080000D01*
X107200000Y-113920000D02*
X107200000Y-111080000D01*
D11*
G04 #@! TO.C,RV1*
X109500000Y-114900000D02*
X102500000Y-114900000D01*
X109500000Y-120300000D02*
X102500000Y-120300000D01*
X102500000Y-120300000D02*
X102500000Y-114900000D01*
X109500000Y-120300000D02*
X109500000Y-114900000D01*
D15*
G04 #@! TO.C,C9*
X93790000Y-100761252D02*
X93790000Y-100238748D01*
X95210000Y-100761252D02*
X95210000Y-100238748D01*
G04 #@! TO.C,SW1*
X128590000Y-116170000D02*
X128590000Y-118830000D01*
X133730000Y-116170000D02*
X128590000Y-116170000D01*
X133730000Y-118830000D02*
X128590000Y-118830000D01*
X133730000Y-116170000D02*
X133730000Y-118830000D01*
X135000000Y-116170000D02*
X136330000Y-116170000D01*
X136330000Y-116170000D02*
X136330000Y-117500000D01*
G04 #@! TO.C,U7*
X129380000Y-88870000D02*
X119140000Y-88870000D01*
X129380000Y-84229000D02*
X119140000Y-84229000D01*
X129380000Y-88870000D02*
X129380000Y-84229000D01*
X119140000Y-88870000D02*
X119140000Y-84229000D01*
X129380000Y-87360000D02*
X119140000Y-87360000D01*
X126110000Y-88870000D02*
X126110000Y-87360000D01*
X122409000Y-88870000D02*
X122409000Y-87360000D01*
D11*
G04 #@! TO.C,REF\002A\002A*
X149744214Y-101940000D02*
G75*
G03X149744214Y-101940000I-1414214J0D01*
G01*
X149620000Y-100810000D02*
X149390000Y-100920000D01*
X149810000Y-100730000D02*
X149620000Y-100810000D01*
X149960000Y-100580000D02*
X149810000Y-100730000D01*
X150000000Y-100390000D02*
X149960000Y-100580000D01*
X149960000Y-100040000D02*
X150000000Y-100390000D01*
X149810000Y-99740000D02*
X149960000Y-100040000D01*
X149430000Y-99590000D02*
X149810000Y-99740000D01*
X149050000Y-99630000D02*
X149430000Y-99590000D01*
X148700000Y-99930000D02*
X149050000Y-99630000D01*
X148470000Y-100120000D02*
X148700000Y-99930000D01*
X148320000Y-100500000D02*
X148470000Y-100120000D01*
X146990000Y-101340000D02*
X146990000Y-101380000D01*
X146910000Y-101340000D02*
X146990000Y-101340000D01*
X146680000Y-101300000D02*
X146910000Y-101340000D01*
X146420000Y-101150000D02*
X146680000Y-101300000D01*
X146230000Y-100730000D02*
X146420000Y-101150000D01*
X146340000Y-100120000D02*
X146230000Y-100730000D01*
X146640000Y-99820000D02*
X146340000Y-100120000D01*
X147060000Y-99660000D02*
X146640000Y-99820000D01*
X147640000Y-99740000D02*
X147060000Y-99660000D01*
X147980000Y-99930000D02*
X147640000Y-99740000D01*
X148320000Y-100540000D02*
X147980000Y-99930000D01*
X147030000Y-102790000D02*
X147100000Y-102790000D01*
X146760000Y-103090000D02*
X147030000Y-102790000D01*
X146570000Y-103210000D02*
X146760000Y-103090000D01*
X146190000Y-103210000D02*
X146570000Y-103210000D01*
X145840000Y-102900000D02*
X146190000Y-103210000D01*
X145770000Y-102670000D02*
X145840000Y-102900000D01*
X145770000Y-102410000D02*
X145770000Y-102670000D01*
X145840000Y-102140000D02*
X145770000Y-102410000D01*
X146000000Y-101840000D02*
X145840000Y-102140000D01*
X146420000Y-101570000D02*
X146000000Y-101840000D01*
X146950000Y-101340000D02*
X146420000Y-101570000D01*
X148660000Y-103630000D02*
X148660000Y-103360000D01*
X148590000Y-103970000D02*
X148660000Y-103630000D01*
X148470000Y-104310000D02*
X148590000Y-103970000D01*
X148250000Y-104660000D02*
X148470000Y-104310000D01*
X147670000Y-104770000D02*
X148250000Y-104660000D01*
X147180000Y-104460000D02*
X147670000Y-104770000D01*
X146910000Y-103930000D02*
X147180000Y-104460000D01*
X146950000Y-103360000D02*
X146910000Y-103930000D01*
X147100000Y-102790000D02*
X146950000Y-103360000D01*
X149810000Y-102290000D02*
X149650000Y-102220000D01*
X150040000Y-102370000D02*
X149810000Y-102290000D01*
X150380000Y-102410000D02*
X150040000Y-102370000D01*
X150680000Y-102330000D02*
X150380000Y-102410000D01*
X151030000Y-102220000D02*
X150680000Y-102330000D01*
X151180000Y-101910000D02*
X151030000Y-102220000D01*
X151180000Y-101610000D02*
X151180000Y-101910000D01*
X151100000Y-101190000D02*
X151180000Y-101610000D01*
X150570000Y-100850000D02*
X151100000Y-101190000D01*
X150070000Y-100880000D02*
X150570000Y-100850000D01*
X149430000Y-101070000D02*
X150070000Y-100880000D01*
X148820000Y-103590000D02*
X148660000Y-103360000D01*
X149050000Y-103970000D02*
X148820000Y-103590000D01*
X149240000Y-104160000D02*
X149050000Y-103970000D01*
X149540000Y-104310000D02*
X149240000Y-104160000D01*
X149880000Y-104310000D02*
X149540000Y-104310000D01*
X150230000Y-104050000D02*
X149880000Y-104310000D01*
X150420000Y-103780000D02*
X150230000Y-104050000D01*
X150420000Y-103320000D02*
X150420000Y-103780000D01*
X150190000Y-102790000D02*
X150420000Y-103320000D01*
X149770000Y-102290000D02*
X150190000Y-102790000D01*
X149240000Y-102030000D02*
X149160000Y-102100000D01*
X149120000Y-102250000D02*
X149240000Y-102030000D01*
X149010000Y-102450000D02*
X149120000Y-102250000D01*
X148780000Y-102640000D02*
X149010000Y-102450000D01*
X148630000Y-102710000D02*
X148780000Y-102640000D01*
X148470000Y-102710000D02*
X148630000Y-102710000D01*
X148320000Y-102710000D02*
X148470000Y-102710000D01*
X148130000Y-102710000D02*
X148320000Y-102710000D01*
X147980000Y-102640000D02*
X148130000Y-102710000D01*
X147640000Y-102370000D02*
X147980000Y-102640000D01*
X147780000Y-101440000D02*
X147520000Y-101380000D01*
X147890000Y-101520000D02*
X147780000Y-101440000D01*
X147870000Y-101620000D02*
X147890000Y-101520000D01*
X147750000Y-101770000D02*
X147870000Y-101620000D01*
X147600000Y-101870000D02*
X147750000Y-101770000D01*
X147450000Y-101790000D02*
X147600000Y-101870000D01*
X147350000Y-101700000D02*
X147450000Y-101790000D01*
X147370000Y-101550000D02*
X147350000Y-101700000D01*
X147490000Y-101330000D02*
X147370000Y-101550000D01*
X148910000Y-101240000D02*
X148730000Y-101200000D01*
X149000000Y-101350000D02*
X148910000Y-101240000D01*
X149030000Y-101470000D02*
X149000000Y-101350000D01*
X148910000Y-101640000D02*
X149030000Y-101470000D01*
X148730000Y-101680000D02*
X148910000Y-101640000D01*
X148570000Y-101620000D02*
X148730000Y-101680000D01*
X148470000Y-101520000D02*
X148570000Y-101620000D01*
X148560000Y-101330000D02*
X148470000Y-101520000D01*
X148710000Y-101210000D02*
X148560000Y-101330000D01*
X149760000Y-108990000D02*
X149710000Y-108990000D01*
X149650000Y-108550000D02*
X149760000Y-108990000D01*
X149430000Y-107600000D02*
X149650000Y-108550000D01*
X149430000Y-107210000D02*
X149430000Y-107600000D01*
X149590000Y-106650000D02*
X149430000Y-107210000D01*
X149590000Y-106140000D02*
X149590000Y-106650000D01*
X149590000Y-105700000D02*
X149590000Y-106140000D01*
X149430000Y-105250000D02*
X149590000Y-105700000D01*
X149150000Y-104800000D02*
X149430000Y-105250000D01*
X148700000Y-103740000D02*
X149150000Y-104800000D01*
X149790000Y-107630000D02*
X149590000Y-107870000D01*
X149910000Y-107500000D02*
X149790000Y-107630000D01*
X150230000Y-107460000D02*
X149910000Y-107500000D01*
X150050000Y-107630000D02*
X150230000Y-107460000D01*
X149880000Y-107820000D02*
X150050000Y-107630000D01*
X149760000Y-108010000D02*
X149880000Y-107820000D01*
X149620000Y-108280000D02*
X149760000Y-108010000D01*
G04 #@! TO.C,U1*
X128238095Y-94452380D02*
X128238095Y-95261904D01*
X128285714Y-95357142D01*
X128333333Y-95404761D01*
X128428571Y-95452380D01*
X128619047Y-95452380D01*
X128714285Y-95404761D01*
X128761904Y-95357142D01*
X128809523Y-95261904D01*
X128809523Y-94452380D01*
X129809523Y-95452380D02*
X129238095Y-95452380D01*
X129523809Y-95452380D02*
X129523809Y-94452380D01*
X129428571Y-94595238D01*
X129333333Y-94690476D01*
X129238095Y-94738095D01*
G04 #@! TO.C,D2*
X165902380Y-74988095D02*
X164902380Y-74988095D01*
X164902380Y-74750000D01*
X164950000Y-74607142D01*
X165045238Y-74511904D01*
X165140476Y-74464285D01*
X165330952Y-74416666D01*
X165473809Y-74416666D01*
X165664285Y-74464285D01*
X165759523Y-74511904D01*
X165854761Y-74607142D01*
X165902380Y-74750000D01*
X165902380Y-74988095D01*
X164997619Y-74035714D02*
X164950000Y-73988095D01*
X164902380Y-73892857D01*
X164902380Y-73654761D01*
X164950000Y-73559523D01*
X164997619Y-73511904D01*
X165092857Y-73464285D01*
X165188095Y-73464285D01*
X165330952Y-73511904D01*
X165902380Y-74083333D01*
X165902380Y-73464285D01*
X166976190Y-82952380D02*
X166500000Y-82952380D01*
X166500000Y-81952380D01*
X167309523Y-82428571D02*
X167642857Y-82428571D01*
X167785714Y-82952380D02*
X167309523Y-82952380D01*
X167309523Y-81952380D01*
X167785714Y-81952380D01*
X168214285Y-82952380D02*
X168214285Y-81952380D01*
X168452380Y-81952380D01*
X168595238Y-82000000D01*
X168690476Y-82095238D01*
X168738095Y-82190476D01*
X168785714Y-82380952D01*
X168785714Y-82523809D01*
X168738095Y-82714285D01*
X168690476Y-82809523D01*
X168595238Y-82904761D01*
X168452380Y-82952380D01*
X168214285Y-82952380D01*
X168976190Y-83047619D02*
X169738095Y-83047619D01*
X170547619Y-82857142D02*
X170500000Y-82904761D01*
X170357142Y-82952380D01*
X170261904Y-82952380D01*
X170119047Y-82904761D01*
X170023809Y-82809523D01*
X169976190Y-82714285D01*
X169928571Y-82523809D01*
X169928571Y-82380952D01*
X169976190Y-82190476D01*
X170023809Y-82095238D01*
X170119047Y-82000000D01*
X170261904Y-81952380D01*
X170357142Y-81952380D01*
X170500000Y-82000000D01*
X170547619Y-82047619D01*
X171547619Y-82952380D02*
X171214285Y-82476190D01*
X170976190Y-82952380D02*
X170976190Y-81952380D01*
X171357142Y-81952380D01*
X171452380Y-82000000D01*
X171500000Y-82047619D01*
X171547619Y-82142857D01*
X171547619Y-82285714D01*
X171500000Y-82380952D01*
X171452380Y-82428571D01*
X171357142Y-82476190D01*
X170976190Y-82476190D01*
X172500000Y-82000000D02*
X172404761Y-81952380D01*
X172261904Y-81952380D01*
X172119047Y-82000000D01*
X172023809Y-82095238D01*
X171976190Y-82190476D01*
X171928571Y-82380952D01*
X171928571Y-82523809D01*
X171976190Y-82714285D01*
X172023809Y-82809523D01*
X172119047Y-82904761D01*
X172261904Y-82952380D01*
X172357142Y-82952380D01*
X172500000Y-82904761D01*
X172547619Y-82857142D01*
X172547619Y-82523809D01*
X172357142Y-82523809D01*
X173309523Y-82428571D02*
X173452380Y-82476190D01*
X173500000Y-82523809D01*
X173547619Y-82619047D01*
X173547619Y-82761904D01*
X173500000Y-82857142D01*
X173452380Y-82904761D01*
X173357142Y-82952380D01*
X172976190Y-82952380D01*
X172976190Y-81952380D01*
X173309523Y-81952380D01*
X173404761Y-82000000D01*
X173452380Y-82047619D01*
X173500000Y-82142857D01*
X173500000Y-82238095D01*
X173452380Y-82333333D01*
X173404761Y-82380952D01*
X173309523Y-82428571D01*
X172976190Y-82428571D01*
G04 #@! TO.C,R4*
X139333333Y-86952380D02*
X139000000Y-86476190D01*
X138761904Y-86952380D02*
X138761904Y-85952380D01*
X139142857Y-85952380D01*
X139238095Y-86000000D01*
X139285714Y-86047619D01*
X139333333Y-86142857D01*
X139333333Y-86285714D01*
X139285714Y-86380952D01*
X139238095Y-86428571D01*
X139142857Y-86476190D01*
X138761904Y-86476190D01*
X140190476Y-86285714D02*
X140190476Y-86952380D01*
X139952380Y-85904761D02*
X139714285Y-86619047D01*
X140333333Y-86619047D01*
X138522380Y-84690476D02*
X138522380Y-85261904D01*
X138522380Y-84976190D02*
X137522380Y-84976190D01*
X137665238Y-85071428D01*
X137760476Y-85166666D01*
X137808095Y-85261904D01*
X137522380Y-84071428D02*
X137522380Y-83976190D01*
X137570000Y-83880952D01*
X137617619Y-83833333D01*
X137712857Y-83785714D01*
X137903333Y-83738095D01*
X138141428Y-83738095D01*
X138331904Y-83785714D01*
X138427142Y-83833333D01*
X138474761Y-83880952D01*
X138522380Y-83976190D01*
X138522380Y-84071428D01*
X138474761Y-84166666D01*
X138427142Y-84214285D01*
X138331904Y-84261904D01*
X138141428Y-84309523D01*
X137903333Y-84309523D01*
X137712857Y-84261904D01*
X137617619Y-84214285D01*
X137570000Y-84166666D01*
X137522380Y-84071428D01*
X138522380Y-83309523D02*
X137522380Y-83309523D01*
X138522380Y-82738095D02*
X137950952Y-83166666D01*
X137522380Y-82738095D02*
X138093809Y-83309523D01*
G04 #@! TO.C,U2*
X147715476Y-81086904D02*
X147715476Y-81734523D01*
X147753571Y-81810714D01*
X147791666Y-81848809D01*
X147867857Y-81886904D01*
X148020238Y-81886904D01*
X148096428Y-81848809D01*
X148134523Y-81810714D01*
X148172619Y-81734523D01*
X148172619Y-81086904D01*
X148515476Y-81163095D02*
X148553571Y-81125000D01*
X148629761Y-81086904D01*
X148820238Y-81086904D01*
X148896428Y-81125000D01*
X148934523Y-81163095D01*
X148972619Y-81239285D01*
X148972619Y-81315476D01*
X148934523Y-81429761D01*
X148477380Y-81886904D01*
X148972619Y-81886904D01*
G04 #@! TO.C,P1*
X157674761Y-120337142D02*
X157722380Y-120194285D01*
X157722380Y-119956190D01*
X157674761Y-119860952D01*
X157627142Y-119813333D01*
X157531904Y-119765714D01*
X157436666Y-119765714D01*
X157341428Y-119813333D01*
X157293809Y-119860952D01*
X157246190Y-119956190D01*
X157198571Y-120146666D01*
X157150952Y-120241904D01*
X157103333Y-120289523D01*
X157008095Y-120337142D01*
X156912857Y-120337142D01*
X156817619Y-120289523D01*
X156770000Y-120241904D01*
X156722380Y-120146666D01*
X156722380Y-119908571D01*
X156770000Y-119765714D01*
X156722380Y-119432380D02*
X157722380Y-119194285D01*
X157008095Y-119003809D01*
X157722380Y-118813333D01*
X156722380Y-118575238D01*
X157722380Y-118194285D02*
X156722380Y-118194285D01*
X156722380Y-117956190D01*
X156770000Y-117813333D01*
X156865238Y-117718095D01*
X156960476Y-117670476D01*
X157150952Y-117622857D01*
X157293809Y-117622857D01*
X157484285Y-117670476D01*
X157579523Y-117718095D01*
X157674761Y-117813333D01*
X157722380Y-117956190D01*
X157722380Y-118194285D01*
G04 #@! TO.C,U5*
X149138095Y-63112380D02*
X149138095Y-63921904D01*
X149185714Y-64017142D01*
X149233333Y-64064761D01*
X149328571Y-64112380D01*
X149519047Y-64112380D01*
X149614285Y-64064761D01*
X149661904Y-64017142D01*
X149709523Y-63921904D01*
X149709523Y-63112380D01*
X150661904Y-63112380D02*
X150185714Y-63112380D01*
X150138095Y-63588571D01*
X150185714Y-63540952D01*
X150280952Y-63493333D01*
X150519047Y-63493333D01*
X150614285Y-63540952D01*
X150661904Y-63588571D01*
X150709523Y-63683809D01*
X150709523Y-63921904D01*
X150661904Y-64017142D01*
X150614285Y-64064761D01*
X150519047Y-64112380D01*
X150280952Y-64112380D01*
X150185714Y-64064761D01*
X150138095Y-64017142D01*
G04 #@! TO.C,D1*
X163629523Y-118041904D02*
X163629523Y-117241904D01*
X163820000Y-117241904D01*
X163934285Y-117280000D01*
X164010476Y-117356190D01*
X164048571Y-117432380D01*
X164086666Y-117584761D01*
X164086666Y-117699047D01*
X164048571Y-117851428D01*
X164010476Y-117927619D01*
X163934285Y-118003809D01*
X163820000Y-118041904D01*
X163629523Y-118041904D01*
X164848571Y-118041904D02*
X164391428Y-118041904D01*
X164620000Y-118041904D02*
X164620000Y-117241904D01*
X164543809Y-117356190D01*
X164467619Y-117432380D01*
X164391428Y-117470476D01*
X161057142Y-119902380D02*
X160580952Y-119902380D01*
X160580952Y-118902380D01*
X161390476Y-119378571D02*
X161723809Y-119378571D01*
X161866666Y-119902380D02*
X161390476Y-119902380D01*
X161390476Y-118902380D01*
X161866666Y-118902380D01*
X162295238Y-119902380D02*
X162295238Y-118902380D01*
X162533333Y-118902380D01*
X162676190Y-118950000D01*
X162771428Y-119045238D01*
X162819047Y-119140476D01*
X162866666Y-119330952D01*
X162866666Y-119473809D01*
X162819047Y-119664285D01*
X162771428Y-119759523D01*
X162676190Y-119854761D01*
X162533333Y-119902380D01*
X162295238Y-119902380D01*
G04 #@! TO.C,U4*
D16*
X137414047Y-55098190D02*
X137414047Y-55502952D01*
X137437857Y-55550571D01*
X137461666Y-55574380D01*
X137509285Y-55598190D01*
X137604523Y-55598190D01*
X137652142Y-55574380D01*
X137675952Y-55550571D01*
X137699761Y-55502952D01*
X137699761Y-55098190D01*
X138152142Y-55264857D02*
X138152142Y-55598190D01*
X138033095Y-55074380D02*
X137914047Y-55431523D01*
X138223571Y-55431523D01*
G04 #@! TO.C,J1*
D11*
X93172380Y-80323333D02*
X93886666Y-80323333D01*
X94029523Y-80370952D01*
X94124761Y-80466190D01*
X94172380Y-80609047D01*
X94172380Y-80704285D01*
X94172380Y-79323333D02*
X94172380Y-79894761D01*
X94172380Y-79609047D02*
X93172380Y-79609047D01*
X93315238Y-79704285D01*
X93410476Y-79799523D01*
X93458095Y-79894761D01*
X85202380Y-84180476D02*
X86202380Y-83942380D01*
X85488095Y-83751904D01*
X86202380Y-83561428D01*
X85202380Y-83323333D01*
X86202380Y-82513809D02*
X85678571Y-82513809D01*
X85583333Y-82561428D01*
X85535714Y-82656666D01*
X85535714Y-82847142D01*
X85583333Y-82942380D01*
X86154761Y-82513809D02*
X86202380Y-82609047D01*
X86202380Y-82847142D01*
X86154761Y-82942380D01*
X86059523Y-82990000D01*
X85964285Y-82990000D01*
X85869047Y-82942380D01*
X85821428Y-82847142D01*
X85821428Y-82609047D01*
X85773809Y-82513809D01*
X85535714Y-82180476D02*
X85535714Y-81799523D01*
X85202380Y-82037619D02*
X86059523Y-82037619D01*
X86154761Y-81990000D01*
X86202380Y-81894761D01*
X86202380Y-81799523D01*
X86154761Y-81085238D02*
X86202380Y-81180476D01*
X86202380Y-81370952D01*
X86154761Y-81466190D01*
X86059523Y-81513809D01*
X85678571Y-81513809D01*
X85583333Y-81466190D01*
X85535714Y-81370952D01*
X85535714Y-81180476D01*
X85583333Y-81085238D01*
X85678571Y-81037619D01*
X85773809Y-81037619D01*
X85869047Y-81513809D01*
X86202380Y-80609047D02*
X85535714Y-80609047D01*
X85726190Y-80609047D02*
X85630952Y-80561428D01*
X85583333Y-80513809D01*
X85535714Y-80418571D01*
X85535714Y-80323333D01*
X86297619Y-80228095D02*
X86297619Y-79466190D01*
X86202380Y-78751904D02*
X86202380Y-79228095D01*
X85202380Y-79228095D01*
X86154761Y-78037619D02*
X86202380Y-78132857D01*
X86202380Y-78323333D01*
X86154761Y-78418571D01*
X86059523Y-78466190D01*
X85678571Y-78466190D01*
X85583333Y-78418571D01*
X85535714Y-78323333D01*
X85535714Y-78132857D01*
X85583333Y-78037619D01*
X85678571Y-77990000D01*
X85773809Y-77990000D01*
X85869047Y-78466190D01*
X85535714Y-77656666D02*
X86202380Y-77418571D01*
X85535714Y-77180476D01*
X86154761Y-76418571D02*
X86202380Y-76513809D01*
X86202380Y-76704285D01*
X86154761Y-76799523D01*
X86059523Y-76847142D01*
X85678571Y-76847142D01*
X85583333Y-76799523D01*
X85535714Y-76704285D01*
X85535714Y-76513809D01*
X85583333Y-76418571D01*
X85678571Y-76370952D01*
X85773809Y-76370952D01*
X85869047Y-76847142D01*
X86202380Y-75799523D02*
X86154761Y-75894761D01*
X86059523Y-75942380D01*
X85202380Y-75942380D01*
G04 #@! TO.C,J2*
X93252380Y-105933333D02*
X93966666Y-105933333D01*
X94109523Y-105980952D01*
X94204761Y-106076190D01*
X94252380Y-106219047D01*
X94252380Y-106314285D01*
X93347619Y-105504761D02*
X93300000Y-105457142D01*
X93252380Y-105361904D01*
X93252380Y-105123809D01*
X93300000Y-105028571D01*
X93347619Y-104980952D01*
X93442857Y-104933333D01*
X93538095Y-104933333D01*
X93680952Y-104980952D01*
X94252380Y-105552380D01*
X94252380Y-104933333D01*
X86202380Y-106214285D02*
X85202380Y-106214285D01*
X85916666Y-105880952D01*
X85202380Y-105547619D01*
X86202380Y-105547619D01*
X86202380Y-104928571D02*
X86154761Y-105023809D01*
X86107142Y-105071428D01*
X86011904Y-105119047D01*
X85726190Y-105119047D01*
X85630952Y-105071428D01*
X85583333Y-105023809D01*
X85535714Y-104928571D01*
X85535714Y-104785714D01*
X85583333Y-104690476D01*
X85630952Y-104642857D01*
X85726190Y-104595238D01*
X86011904Y-104595238D01*
X86107142Y-104642857D01*
X86154761Y-104690476D01*
X86202380Y-104785714D01*
X86202380Y-104928571D01*
X85535714Y-104309523D02*
X85535714Y-103928571D01*
X85202380Y-104166666D02*
X86059523Y-104166666D01*
X86154761Y-104119047D01*
X86202380Y-104023809D01*
X86202380Y-103928571D01*
X86202380Y-103595238D02*
X85535714Y-103595238D01*
X85202380Y-103595238D02*
X85250000Y-103642857D01*
X85297619Y-103595238D01*
X85250000Y-103547619D01*
X85202380Y-103595238D01*
X85297619Y-103595238D01*
X86202380Y-102976190D02*
X86154761Y-103071428D01*
X86107142Y-103119047D01*
X86011904Y-103166666D01*
X85726190Y-103166666D01*
X85630952Y-103119047D01*
X85583333Y-103071428D01*
X85535714Y-102976190D01*
X85535714Y-102833333D01*
X85583333Y-102738095D01*
X85630952Y-102690476D01*
X85726190Y-102642857D01*
X86011904Y-102642857D01*
X86107142Y-102690476D01*
X86154761Y-102738095D01*
X86202380Y-102833333D01*
X86202380Y-102976190D01*
X85535714Y-102214285D02*
X86202380Y-102214285D01*
X85630952Y-102214285D02*
X85583333Y-102166666D01*
X85535714Y-102071428D01*
X85535714Y-101928571D01*
X85583333Y-101833333D01*
X85678571Y-101785714D01*
X86202380Y-101785714D01*
G04 #@! TO.C,J3*
X93172380Y-91753333D02*
X93886666Y-91753333D01*
X94029523Y-91800952D01*
X94124761Y-91896190D01*
X94172380Y-92039047D01*
X94172380Y-92134285D01*
X93172380Y-91372380D02*
X93172380Y-90753333D01*
X93553333Y-91086666D01*
X93553333Y-90943809D01*
X93600952Y-90848571D01*
X93648571Y-90800952D01*
X93743809Y-90753333D01*
X93981904Y-90753333D01*
X94077142Y-90800952D01*
X94124761Y-90848571D01*
X94172380Y-90943809D01*
X94172380Y-91229523D01*
X94124761Y-91324761D01*
X94077142Y-91372380D01*
X86202380Y-92896190D02*
X85202380Y-92896190D01*
X85202380Y-92658095D01*
X85250000Y-92515238D01*
X85345238Y-92420000D01*
X85440476Y-92372380D01*
X85630952Y-92324761D01*
X85773809Y-92324761D01*
X85964285Y-92372380D01*
X86059523Y-92420000D01*
X86154761Y-92515238D01*
X86202380Y-92658095D01*
X86202380Y-92896190D01*
X86202380Y-91753333D02*
X86154761Y-91848571D01*
X86107142Y-91896190D01*
X86011904Y-91943809D01*
X85726190Y-91943809D01*
X85630952Y-91896190D01*
X85583333Y-91848571D01*
X85535714Y-91753333D01*
X85535714Y-91610476D01*
X85583333Y-91515238D01*
X85630952Y-91467619D01*
X85726190Y-91420000D01*
X86011904Y-91420000D01*
X86107142Y-91467619D01*
X86154761Y-91515238D01*
X86202380Y-91610476D01*
X86202380Y-91753333D01*
X86202380Y-90848571D02*
X86154761Y-90943809D01*
X86107142Y-90991428D01*
X86011904Y-91039047D01*
X85726190Y-91039047D01*
X85630952Y-90991428D01*
X85583333Y-90943809D01*
X85535714Y-90848571D01*
X85535714Y-90705714D01*
X85583333Y-90610476D01*
X85630952Y-90562857D01*
X85726190Y-90515238D01*
X86011904Y-90515238D01*
X86107142Y-90562857D01*
X86154761Y-90610476D01*
X86202380Y-90705714D01*
X86202380Y-90848571D01*
X86202380Y-90086666D02*
X85535714Y-90086666D01*
X85726190Y-90086666D02*
X85630952Y-90039047D01*
X85583333Y-89991428D01*
X85535714Y-89896190D01*
X85535714Y-89800952D01*
G04 #@! TO.C,J4*
X166357142Y-96952380D02*
X166357142Y-95952380D01*
X166595238Y-95952380D01*
X166738095Y-96000000D01*
X166833333Y-96095238D01*
X166880952Y-96190476D01*
X166928571Y-96380952D01*
X166928571Y-96523809D01*
X166880952Y-96714285D01*
X166833333Y-96809523D01*
X166738095Y-96904761D01*
X166595238Y-96952380D01*
X166357142Y-96952380D01*
X167500000Y-96952380D02*
X167404761Y-96904761D01*
X167357142Y-96857142D01*
X167309523Y-96761904D01*
X167309523Y-96476190D01*
X167357142Y-96380952D01*
X167404761Y-96333333D01*
X167500000Y-96285714D01*
X167642857Y-96285714D01*
X167738095Y-96333333D01*
X167785714Y-96380952D01*
X167833333Y-96476190D01*
X167833333Y-96761904D01*
X167785714Y-96857142D01*
X167738095Y-96904761D01*
X167642857Y-96952380D01*
X167500000Y-96952380D01*
X168404761Y-96952380D02*
X168309523Y-96904761D01*
X168261904Y-96857142D01*
X168214285Y-96761904D01*
X168214285Y-96476190D01*
X168261904Y-96380952D01*
X168309523Y-96333333D01*
X168404761Y-96285714D01*
X168547619Y-96285714D01*
X168642857Y-96333333D01*
X168690476Y-96380952D01*
X168738095Y-96476190D01*
X168738095Y-96761904D01*
X168690476Y-96857142D01*
X168642857Y-96904761D01*
X168547619Y-96952380D01*
X168404761Y-96952380D01*
X169166666Y-96952380D02*
X169166666Y-96285714D01*
X169166666Y-96476190D02*
X169214285Y-96380952D01*
X169261904Y-96333333D01*
X169357142Y-96285714D01*
X169452380Y-96285714D01*
X169547619Y-97047619D02*
X170309523Y-97047619D01*
X171023809Y-96952380D02*
X170547619Y-96952380D01*
X170547619Y-95952380D01*
X171738095Y-96904761D02*
X171642857Y-96952380D01*
X171452380Y-96952380D01*
X171357142Y-96904761D01*
X171309523Y-96809523D01*
X171309523Y-96428571D01*
X171357142Y-96333333D01*
X171452380Y-96285714D01*
X171642857Y-96285714D01*
X171738095Y-96333333D01*
X171785714Y-96428571D01*
X171785714Y-96523809D01*
X171309523Y-96619047D01*
X172642857Y-96952380D02*
X172642857Y-95952380D01*
X172642857Y-96904761D02*
X172547619Y-96952380D01*
X172357142Y-96952380D01*
X172261904Y-96904761D01*
X172214285Y-96857142D01*
X172166666Y-96761904D01*
X172166666Y-96476190D01*
X172214285Y-96380952D01*
X172261904Y-96333333D01*
X172357142Y-96285714D01*
X172547619Y-96285714D01*
X172642857Y-96333333D01*
G04 #@! TO.C,Q1*
X165047619Y-90095238D02*
X165000000Y-90190476D01*
X164904761Y-90285714D01*
X164761904Y-90428571D01*
X164714285Y-90523809D01*
X164714285Y-90619047D01*
X164952380Y-90571428D02*
X164904761Y-90666666D01*
X164809523Y-90761904D01*
X164619047Y-90809523D01*
X164285714Y-90809523D01*
X164095238Y-90761904D01*
X164000000Y-90666666D01*
X163952380Y-90571428D01*
X163952380Y-90380952D01*
X164000000Y-90285714D01*
X164095238Y-90190476D01*
X164285714Y-90142857D01*
X164619047Y-90142857D01*
X164809523Y-90190476D01*
X164904761Y-90285714D01*
X164952380Y-90380952D01*
X164952380Y-90571428D01*
X164952380Y-89190476D02*
X164952380Y-89761904D01*
X164952380Y-89476190D02*
X163952380Y-89476190D01*
X164095238Y-89571428D01*
X164190476Y-89666666D01*
X164238095Y-89761904D01*
G04 #@! TO.C,R13*
X161357142Y-84022380D02*
X161023809Y-83546190D01*
X160785714Y-84022380D02*
X160785714Y-83022380D01*
X161166666Y-83022380D01*
X161261904Y-83070000D01*
X161309523Y-83117619D01*
X161357142Y-83212857D01*
X161357142Y-83355714D01*
X161309523Y-83450952D01*
X161261904Y-83498571D01*
X161166666Y-83546190D01*
X160785714Y-83546190D01*
X162309523Y-84022380D02*
X161738095Y-84022380D01*
X162023809Y-84022380D02*
X162023809Y-83022380D01*
X161928571Y-83165238D01*
X161833333Y-83260476D01*
X161738095Y-83308095D01*
X162642857Y-83022380D02*
X163261904Y-83022380D01*
X162928571Y-83403333D01*
X163071428Y-83403333D01*
X163166666Y-83450952D01*
X163214285Y-83498571D01*
X163261904Y-83593809D01*
X163261904Y-83831904D01*
X163214285Y-83927142D01*
X163166666Y-83974761D01*
X163071428Y-84022380D01*
X162785714Y-84022380D01*
X162690476Y-83974761D01*
X162642857Y-83927142D01*
X161785714Y-86882380D02*
X161214285Y-86882380D01*
X161500000Y-86882380D02*
X161500000Y-85882380D01*
X161404761Y-86025238D01*
X161309523Y-86120476D01*
X161214285Y-86168095D01*
X162214285Y-86882380D02*
X162214285Y-85882380D01*
X162785714Y-86882380D02*
X162357142Y-86310952D01*
X162785714Y-85882380D02*
X162214285Y-86453809D01*
G04 #@! TO.C,R16*
X161357142Y-80802380D02*
X161023809Y-80326190D01*
X160785714Y-80802380D02*
X160785714Y-79802380D01*
X161166666Y-79802380D01*
X161261904Y-79850000D01*
X161309523Y-79897619D01*
X161357142Y-79992857D01*
X161357142Y-80135714D01*
X161309523Y-80230952D01*
X161261904Y-80278571D01*
X161166666Y-80326190D01*
X160785714Y-80326190D01*
X162309523Y-80802380D02*
X161738095Y-80802380D01*
X162023809Y-80802380D02*
X162023809Y-79802380D01*
X161928571Y-79945238D01*
X161833333Y-80040476D01*
X161738095Y-80088095D01*
X163166666Y-79802380D02*
X162976190Y-79802380D01*
X162880952Y-79850000D01*
X162833333Y-79897619D01*
X162738095Y-80040476D01*
X162690476Y-80230952D01*
X162690476Y-80611904D01*
X162738095Y-80707142D01*
X162785714Y-80754761D01*
X162880952Y-80802380D01*
X163071428Y-80802380D01*
X163166666Y-80754761D01*
X163214285Y-80707142D01*
X163261904Y-80611904D01*
X163261904Y-80373809D01*
X163214285Y-80278571D01*
X163166666Y-80230952D01*
X163071428Y-80183333D01*
X162880952Y-80183333D01*
X162785714Y-80230952D01*
X162738095Y-80278571D01*
X162690476Y-80373809D01*
G04 #@! TO.C,R17*
X161332142Y-77802380D02*
X160998809Y-77326190D01*
X160760714Y-77802380D02*
X160760714Y-76802380D01*
X161141666Y-76802380D01*
X161236904Y-76850000D01*
X161284523Y-76897619D01*
X161332142Y-76992857D01*
X161332142Y-77135714D01*
X161284523Y-77230952D01*
X161236904Y-77278571D01*
X161141666Y-77326190D01*
X160760714Y-77326190D01*
X162284523Y-77802380D02*
X161713095Y-77802380D01*
X161998809Y-77802380D02*
X161998809Y-76802380D01*
X161903571Y-76945238D01*
X161808333Y-77040476D01*
X161713095Y-77088095D01*
X162617857Y-76802380D02*
X163284523Y-76802380D01*
X162855952Y-77802380D01*
G04 #@! TO.C,R18*
X161357142Y-74802380D02*
X161023809Y-74326190D01*
X160785714Y-74802380D02*
X160785714Y-73802380D01*
X161166666Y-73802380D01*
X161261904Y-73850000D01*
X161309523Y-73897619D01*
X161357142Y-73992857D01*
X161357142Y-74135714D01*
X161309523Y-74230952D01*
X161261904Y-74278571D01*
X161166666Y-74326190D01*
X160785714Y-74326190D01*
X162309523Y-74802380D02*
X161738095Y-74802380D01*
X162023809Y-74802380D02*
X162023809Y-73802380D01*
X161928571Y-73945238D01*
X161833333Y-74040476D01*
X161738095Y-74088095D01*
X162880952Y-74230952D02*
X162785714Y-74183333D01*
X162738095Y-74135714D01*
X162690476Y-74040476D01*
X162690476Y-73992857D01*
X162738095Y-73897619D01*
X162785714Y-73850000D01*
X162880952Y-73802380D01*
X163071428Y-73802380D01*
X163166666Y-73850000D01*
X163214285Y-73897619D01*
X163261904Y-73992857D01*
X163261904Y-74040476D01*
X163214285Y-74135714D01*
X163166666Y-74183333D01*
X163071428Y-74230952D01*
X162880952Y-74230952D01*
X162785714Y-74278571D01*
X162738095Y-74326190D01*
X162690476Y-74421428D01*
X162690476Y-74611904D01*
X162738095Y-74707142D01*
X162785714Y-74754761D01*
X162880952Y-74802380D01*
X163071428Y-74802380D01*
X163166666Y-74754761D01*
X163214285Y-74707142D01*
X163261904Y-74611904D01*
X163261904Y-74421428D01*
X163214285Y-74326190D01*
X163166666Y-74278571D01*
X163071428Y-74230952D01*
G04 #@! TO.C,TH1*
X93172380Y-69845714D02*
X93172380Y-69274285D01*
X94172380Y-69560000D02*
X93172380Y-69560000D01*
X94172380Y-68940952D02*
X93172380Y-68940952D01*
X93648571Y-68940952D02*
X93648571Y-68369523D01*
X94172380Y-68369523D02*
X93172380Y-68369523D01*
X94172380Y-67369523D02*
X94172380Y-67940952D01*
X94172380Y-67655238D02*
X93172380Y-67655238D01*
X93315238Y-67750476D01*
X93410476Y-67845714D01*
X93458095Y-67940952D01*
X85202380Y-74119047D02*
X85202380Y-73547619D01*
X86202380Y-73833333D02*
X85202380Y-73833333D01*
X86202380Y-73214285D02*
X85202380Y-73214285D01*
X86202380Y-72785714D02*
X85678571Y-72785714D01*
X85583333Y-72833333D01*
X85535714Y-72928571D01*
X85535714Y-73071428D01*
X85583333Y-73166666D01*
X85630952Y-73214285D01*
X86154761Y-71928571D02*
X86202380Y-72023809D01*
X86202380Y-72214285D01*
X86154761Y-72309523D01*
X86059523Y-72357142D01*
X85678571Y-72357142D01*
X85583333Y-72309523D01*
X85535714Y-72214285D01*
X85535714Y-72023809D01*
X85583333Y-71928571D01*
X85678571Y-71880952D01*
X85773809Y-71880952D01*
X85869047Y-72357142D01*
X86202380Y-71452380D02*
X85535714Y-71452380D01*
X85726190Y-71452380D02*
X85630952Y-71404761D01*
X85583333Y-71357142D01*
X85535714Y-71261904D01*
X85535714Y-71166666D01*
X86202380Y-70833333D02*
X85535714Y-70833333D01*
X85630952Y-70833333D02*
X85583333Y-70785714D01*
X85535714Y-70690476D01*
X85535714Y-70547619D01*
X85583333Y-70452380D01*
X85678571Y-70404761D01*
X86202380Y-70404761D01*
X85678571Y-70404761D02*
X85583333Y-70357142D01*
X85535714Y-70261904D01*
X85535714Y-70119047D01*
X85583333Y-70023809D01*
X85678571Y-69976190D01*
X86202380Y-69976190D01*
X86202380Y-69500000D02*
X85535714Y-69500000D01*
X85202380Y-69500000D02*
X85250000Y-69547619D01*
X85297619Y-69500000D01*
X85250000Y-69452380D01*
X85202380Y-69500000D01*
X85297619Y-69500000D01*
X86154761Y-69071428D02*
X86202380Y-68976190D01*
X86202380Y-68785714D01*
X86154761Y-68690476D01*
X86059523Y-68642857D01*
X86011904Y-68642857D01*
X85916666Y-68690476D01*
X85869047Y-68785714D01*
X85869047Y-68928571D01*
X85821428Y-69023809D01*
X85726190Y-69071428D01*
X85678571Y-69071428D01*
X85583333Y-69023809D01*
X85535714Y-68928571D01*
X85535714Y-68785714D01*
X85583333Y-68690476D01*
X85535714Y-68357142D02*
X85535714Y-67976190D01*
X85202380Y-68214285D02*
X86059523Y-68214285D01*
X86154761Y-68166666D01*
X86202380Y-68071428D01*
X86202380Y-67976190D01*
X86202380Y-67500000D02*
X86154761Y-67595238D01*
X86107142Y-67642857D01*
X86011904Y-67690476D01*
X85726190Y-67690476D01*
X85630952Y-67642857D01*
X85583333Y-67595238D01*
X85535714Y-67500000D01*
X85535714Y-67357142D01*
X85583333Y-67261904D01*
X85630952Y-67214285D01*
X85726190Y-67166666D01*
X86011904Y-67166666D01*
X86107142Y-67214285D01*
X86154761Y-67261904D01*
X86202380Y-67357142D01*
X86202380Y-67500000D01*
X86202380Y-66738095D02*
X85535714Y-66738095D01*
X85726190Y-66738095D02*
X85630952Y-66690476D01*
X85583333Y-66642857D01*
X85535714Y-66547619D01*
X85535714Y-66452380D01*
X86297619Y-66357142D02*
X86297619Y-65595238D01*
X86202380Y-65357142D02*
X85202380Y-65357142D01*
X86202380Y-64785714D01*
X85202380Y-64785714D01*
X85202380Y-64452380D02*
X85202380Y-63880952D01*
X86202380Y-64166666D02*
X85202380Y-64166666D01*
X86107142Y-62976190D02*
X86154761Y-63023809D01*
X86202380Y-63166666D01*
X86202380Y-63261904D01*
X86154761Y-63404761D01*
X86059523Y-63500000D01*
X85964285Y-63547619D01*
X85773809Y-63595238D01*
X85630952Y-63595238D01*
X85440476Y-63547619D01*
X85345238Y-63500000D01*
X85250000Y-63404761D01*
X85202380Y-63261904D01*
X85202380Y-63166666D01*
X85250000Y-63023809D01*
X85297619Y-62976190D01*
G04 #@! TO.C,R1*
X161533333Y-113202380D02*
X161200000Y-112726190D01*
X160961904Y-113202380D02*
X160961904Y-112202380D01*
X161342857Y-112202380D01*
X161438095Y-112250000D01*
X161485714Y-112297619D01*
X161533333Y-112392857D01*
X161533333Y-112535714D01*
X161485714Y-112630952D01*
X161438095Y-112678571D01*
X161342857Y-112726190D01*
X160961904Y-112726190D01*
X162485714Y-113202380D02*
X161914285Y-113202380D01*
X162200000Y-113202380D02*
X162200000Y-112202380D01*
X162104761Y-112345238D01*
X162009523Y-112440476D01*
X161914285Y-112488095D01*
X160652380Y-115930952D02*
X160557142Y-115883333D01*
X160509523Y-115835714D01*
X160461904Y-115740476D01*
X160461904Y-115692857D01*
X160509523Y-115597619D01*
X160557142Y-115550000D01*
X160652380Y-115502380D01*
X160842857Y-115502380D01*
X160938095Y-115550000D01*
X160985714Y-115597619D01*
X161033333Y-115692857D01*
X161033333Y-115740476D01*
X160985714Y-115835714D01*
X160938095Y-115883333D01*
X160842857Y-115930952D01*
X160652380Y-115930952D01*
X160557142Y-115978571D01*
X160509523Y-116026190D01*
X160461904Y-116121428D01*
X160461904Y-116311904D01*
X160509523Y-116407142D01*
X160557142Y-116454761D01*
X160652380Y-116502380D01*
X160842857Y-116502380D01*
X160938095Y-116454761D01*
X160985714Y-116407142D01*
X161033333Y-116311904D01*
X161033333Y-116121428D01*
X160985714Y-116026190D01*
X160938095Y-115978571D01*
X160842857Y-115930952D01*
X161414285Y-115597619D02*
X161461904Y-115550000D01*
X161557142Y-115502380D01*
X161795238Y-115502380D01*
X161890476Y-115550000D01*
X161938095Y-115597619D01*
X161985714Y-115692857D01*
X161985714Y-115788095D01*
X161938095Y-115930952D01*
X161366666Y-116502380D01*
X161985714Y-116502380D01*
X162604761Y-115502380D02*
X162700000Y-115502380D01*
X162795238Y-115550000D01*
X162842857Y-115597619D01*
X162890476Y-115692857D01*
X162938095Y-115883333D01*
X162938095Y-116121428D01*
X162890476Y-116311904D01*
X162842857Y-116407142D01*
X162795238Y-116454761D01*
X162700000Y-116502380D01*
X162604761Y-116502380D01*
X162509523Y-116454761D01*
X162461904Y-116407142D01*
X162414285Y-116311904D01*
X162366666Y-116121428D01*
X162366666Y-115883333D01*
X162414285Y-115692857D01*
X162461904Y-115597619D01*
X162509523Y-115550000D01*
X162604761Y-115502380D01*
G04 #@! TO.C,R5*
X108633333Y-62052380D02*
X108300000Y-61576190D01*
X108061904Y-62052380D02*
X108061904Y-61052380D01*
X108442857Y-61052380D01*
X108538095Y-61100000D01*
X108585714Y-61147619D01*
X108633333Y-61242857D01*
X108633333Y-61385714D01*
X108585714Y-61480952D01*
X108538095Y-61528571D01*
X108442857Y-61576190D01*
X108061904Y-61576190D01*
X109538095Y-61052380D02*
X109061904Y-61052380D01*
X109014285Y-61528571D01*
X109061904Y-61480952D01*
X109157142Y-61433333D01*
X109395238Y-61433333D01*
X109490476Y-61480952D01*
X109538095Y-61528571D01*
X109585714Y-61623809D01*
X109585714Y-61861904D01*
X109538095Y-61957142D01*
X109490476Y-62004761D01*
X109395238Y-62052380D01*
X109157142Y-62052380D01*
X109061904Y-62004761D01*
X109014285Y-61957142D01*
G04 #@! TO.C,U6*
X128238095Y-72452380D02*
X128238095Y-73261904D01*
X128285714Y-73357142D01*
X128333333Y-73404761D01*
X128428571Y-73452380D01*
X128619047Y-73452380D01*
X128714285Y-73404761D01*
X128761904Y-73357142D01*
X128809523Y-73261904D01*
X128809523Y-72452380D01*
X129714285Y-72452380D02*
X129523809Y-72452380D01*
X129428571Y-72500000D01*
X129380952Y-72547619D01*
X129285714Y-72690476D01*
X129238095Y-72880952D01*
X129238095Y-73261904D01*
X129285714Y-73357142D01*
X129333333Y-73404761D01*
X129428571Y-73452380D01*
X129619047Y-73452380D01*
X129714285Y-73404761D01*
X129761904Y-73357142D01*
X129809523Y-73261904D01*
X129809523Y-73023809D01*
X129761904Y-72928571D01*
X129714285Y-72880952D01*
X129619047Y-72833333D01*
X129428571Y-72833333D01*
X129333333Y-72880952D01*
X129285714Y-72928571D01*
X129238095Y-73023809D01*
G04 #@! TO.C,C1*
X156233333Y-76357142D02*
X156185714Y-76404761D01*
X156042857Y-76452380D01*
X155947619Y-76452380D01*
X155804761Y-76404761D01*
X155709523Y-76309523D01*
X155661904Y-76214285D01*
X155614285Y-76023809D01*
X155614285Y-75880952D01*
X155661904Y-75690476D01*
X155709523Y-75595238D01*
X155804761Y-75500000D01*
X155947619Y-75452380D01*
X156042857Y-75452380D01*
X156185714Y-75500000D01*
X156233333Y-75547619D01*
X157185714Y-76452380D02*
X156614285Y-76452380D01*
X156900000Y-76452380D02*
X156900000Y-75452380D01*
X156804761Y-75595238D01*
X156709523Y-75690476D01*
X156614285Y-75738095D01*
X154852380Y-73052380D02*
X154280952Y-73052380D01*
X154566666Y-73052380D02*
X154566666Y-72052380D01*
X154471428Y-72195238D01*
X154376190Y-72290476D01*
X154280952Y-72338095D01*
X155471428Y-72052380D02*
X155566666Y-72052380D01*
X155661904Y-72100000D01*
X155709523Y-72147619D01*
X155757142Y-72242857D01*
X155804761Y-72433333D01*
X155804761Y-72671428D01*
X155757142Y-72861904D01*
X155709523Y-72957142D01*
X155661904Y-73004761D01*
X155566666Y-73052380D01*
X155471428Y-73052380D01*
X155376190Y-73004761D01*
X155328571Y-72957142D01*
X155280952Y-72861904D01*
X155233333Y-72671428D01*
X155233333Y-72433333D01*
X155280952Y-72242857D01*
X155328571Y-72147619D01*
X155376190Y-72100000D01*
X155471428Y-72052380D01*
X156423809Y-72052380D02*
X156519047Y-72052380D01*
X156614285Y-72100000D01*
X156661904Y-72147619D01*
X156709523Y-72242857D01*
X156757142Y-72433333D01*
X156757142Y-72671428D01*
X156709523Y-72861904D01*
X156661904Y-72957142D01*
X156614285Y-73004761D01*
X156519047Y-73052380D01*
X156423809Y-73052380D01*
X156328571Y-73004761D01*
X156280952Y-72957142D01*
X156233333Y-72861904D01*
X156185714Y-72671428D01*
X156185714Y-72433333D01*
X156233333Y-72242857D01*
X156280952Y-72147619D01*
X156328571Y-72100000D01*
X156423809Y-72052380D01*
X157185714Y-72385714D02*
X157185714Y-73052380D01*
X157185714Y-72480952D02*
X157233333Y-72433333D01*
X157328571Y-72385714D01*
X157471428Y-72385714D01*
X157566666Y-72433333D01*
X157614285Y-72528571D01*
X157614285Y-73052380D01*
X158423809Y-72528571D02*
X158090476Y-72528571D01*
X158090476Y-73052380D02*
X158090476Y-72052380D01*
X158566666Y-72052380D01*
G04 #@! TO.C,C2*
X143597333Y-85065142D02*
X143549714Y-85112761D01*
X143406857Y-85160380D01*
X143311619Y-85160380D01*
X143168761Y-85112761D01*
X143073523Y-85017523D01*
X143025904Y-84922285D01*
X142978285Y-84731809D01*
X142978285Y-84588952D01*
X143025904Y-84398476D01*
X143073523Y-84303238D01*
X143168761Y-84208000D01*
X143311619Y-84160380D01*
X143406857Y-84160380D01*
X143549714Y-84208000D01*
X143597333Y-84255619D01*
X143978285Y-84255619D02*
X144025904Y-84208000D01*
X144121142Y-84160380D01*
X144359238Y-84160380D01*
X144454476Y-84208000D01*
X144502095Y-84255619D01*
X144549714Y-84350857D01*
X144549714Y-84446095D01*
X144502095Y-84588952D01*
X143930666Y-85160380D01*
X144549714Y-85160380D01*
X142452380Y-86702380D02*
X141880952Y-86702380D01*
X142166666Y-86702380D02*
X142166666Y-85702380D01*
X142071428Y-85845238D01*
X141976190Y-85940476D01*
X141880952Y-85988095D01*
X143071428Y-85702380D02*
X143166666Y-85702380D01*
X143261904Y-85750000D01*
X143309523Y-85797619D01*
X143357142Y-85892857D01*
X143404761Y-86083333D01*
X143404761Y-86321428D01*
X143357142Y-86511904D01*
X143309523Y-86607142D01*
X143261904Y-86654761D01*
X143166666Y-86702380D01*
X143071428Y-86702380D01*
X142976190Y-86654761D01*
X142928571Y-86607142D01*
X142880952Y-86511904D01*
X142833333Y-86321428D01*
X142833333Y-86083333D01*
X142880952Y-85892857D01*
X142928571Y-85797619D01*
X142976190Y-85750000D01*
X143071428Y-85702380D01*
X144023809Y-85702380D02*
X144119047Y-85702380D01*
X144214285Y-85750000D01*
X144261904Y-85797619D01*
X144309523Y-85892857D01*
X144357142Y-86083333D01*
X144357142Y-86321428D01*
X144309523Y-86511904D01*
X144261904Y-86607142D01*
X144214285Y-86654761D01*
X144119047Y-86702380D01*
X144023809Y-86702380D01*
X143928571Y-86654761D01*
X143880952Y-86607142D01*
X143833333Y-86511904D01*
X143785714Y-86321428D01*
X143785714Y-86083333D01*
X143833333Y-85892857D01*
X143880952Y-85797619D01*
X143928571Y-85750000D01*
X144023809Y-85702380D01*
X144785714Y-86035714D02*
X144785714Y-86702380D01*
X144785714Y-86130952D02*
X144833333Y-86083333D01*
X144928571Y-86035714D01*
X145071428Y-86035714D01*
X145166666Y-86083333D01*
X145214285Y-86178571D01*
X145214285Y-86702380D01*
X146023809Y-86178571D02*
X145690476Y-86178571D01*
X145690476Y-86702380D02*
X145690476Y-85702380D01*
X146166666Y-85702380D01*
G04 #@! TO.C,C3*
X151083333Y-89607142D02*
X151035714Y-89654761D01*
X150892857Y-89702380D01*
X150797619Y-89702380D01*
X150654761Y-89654761D01*
X150559523Y-89559523D01*
X150511904Y-89464285D01*
X150464285Y-89273809D01*
X150464285Y-89130952D01*
X150511904Y-88940476D01*
X150559523Y-88845238D01*
X150654761Y-88750000D01*
X150797619Y-88702380D01*
X150892857Y-88702380D01*
X151035714Y-88750000D01*
X151083333Y-88797619D01*
X151416666Y-88702380D02*
X152035714Y-88702380D01*
X151702380Y-89083333D01*
X151845238Y-89083333D01*
X151940476Y-89130952D01*
X151988095Y-89178571D01*
X152035714Y-89273809D01*
X152035714Y-89511904D01*
X151988095Y-89607142D01*
X151940476Y-89654761D01*
X151845238Y-89702380D01*
X151559523Y-89702380D01*
X151464285Y-89654761D01*
X151416666Y-89607142D01*
X149902380Y-88122619D02*
X149902380Y-88694047D01*
X149902380Y-88408333D02*
X148902380Y-88408333D01*
X149045238Y-88503571D01*
X149140476Y-88598809D01*
X149188095Y-88694047D01*
X148902380Y-87503571D02*
X148902380Y-87408333D01*
X148950000Y-87313095D01*
X148997619Y-87265476D01*
X149092857Y-87217857D01*
X149283333Y-87170238D01*
X149521428Y-87170238D01*
X149711904Y-87217857D01*
X149807142Y-87265476D01*
X149854761Y-87313095D01*
X149902380Y-87408333D01*
X149902380Y-87503571D01*
X149854761Y-87598809D01*
X149807142Y-87646428D01*
X149711904Y-87694047D01*
X149521428Y-87741666D01*
X149283333Y-87741666D01*
X149092857Y-87694047D01*
X148997619Y-87646428D01*
X148950000Y-87598809D01*
X148902380Y-87503571D01*
X148902380Y-86551190D02*
X148902380Y-86455952D01*
X148950000Y-86360714D01*
X148997619Y-86313095D01*
X149092857Y-86265476D01*
X149283333Y-86217857D01*
X149521428Y-86217857D01*
X149711904Y-86265476D01*
X149807142Y-86313095D01*
X149854761Y-86360714D01*
X149902380Y-86455952D01*
X149902380Y-86551190D01*
X149854761Y-86646428D01*
X149807142Y-86694047D01*
X149711904Y-86741666D01*
X149521428Y-86789285D01*
X149283333Y-86789285D01*
X149092857Y-86741666D01*
X148997619Y-86694047D01*
X148950000Y-86646428D01*
X148902380Y-86551190D01*
X149235714Y-85789285D02*
X149902380Y-85789285D01*
X149330952Y-85789285D02*
X149283333Y-85741666D01*
X149235714Y-85646428D01*
X149235714Y-85503571D01*
X149283333Y-85408333D01*
X149378571Y-85360714D01*
X149902380Y-85360714D01*
X149378571Y-84551190D02*
X149378571Y-84884523D01*
X149902380Y-84884523D02*
X148902380Y-84884523D01*
X148902380Y-84408333D01*
G04 #@! TO.C,C4*
X122833333Y-83607142D02*
X122785714Y-83654761D01*
X122642857Y-83702380D01*
X122547619Y-83702380D01*
X122404761Y-83654761D01*
X122309523Y-83559523D01*
X122261904Y-83464285D01*
X122214285Y-83273809D01*
X122214285Y-83130952D01*
X122261904Y-82940476D01*
X122309523Y-82845238D01*
X122404761Y-82750000D01*
X122547619Y-82702380D01*
X122642857Y-82702380D01*
X122785714Y-82750000D01*
X122833333Y-82797619D01*
X123690476Y-83035714D02*
X123690476Y-83702380D01*
X123452380Y-82654761D02*
X123214285Y-83369047D01*
X123833333Y-83369047D01*
X122547619Y-80452380D02*
X121976190Y-80452380D01*
X122261904Y-80452380D02*
X122261904Y-79452380D01*
X122166666Y-79595238D01*
X122071428Y-79690476D01*
X121976190Y-79738095D01*
X123404761Y-79785714D02*
X123404761Y-80452380D01*
X122976190Y-79785714D02*
X122976190Y-80309523D01*
X123023809Y-80404761D01*
X123119047Y-80452380D01*
X123261904Y-80452380D01*
X123357142Y-80404761D01*
X123404761Y-80357142D01*
X123738095Y-79785714D02*
X124119047Y-79785714D01*
X123880952Y-80452380D02*
X123880952Y-79595238D01*
X123928571Y-79500000D01*
X124023809Y-79452380D01*
X124119047Y-79452380D01*
G04 #@! TO.C,C5*
X131833333Y-92857142D02*
X131785714Y-92904761D01*
X131642857Y-92952380D01*
X131547619Y-92952380D01*
X131404761Y-92904761D01*
X131309523Y-92809523D01*
X131261904Y-92714285D01*
X131214285Y-92523809D01*
X131214285Y-92380952D01*
X131261904Y-92190476D01*
X131309523Y-92095238D01*
X131404761Y-92000000D01*
X131547619Y-91952380D01*
X131642857Y-91952380D01*
X131785714Y-92000000D01*
X131833333Y-92047619D01*
X132738095Y-91952380D02*
X132261904Y-91952380D01*
X132214285Y-92428571D01*
X132261904Y-92380952D01*
X132357142Y-92333333D01*
X132595238Y-92333333D01*
X132690476Y-92380952D01*
X132738095Y-92428571D01*
X132785714Y-92523809D01*
X132785714Y-92761904D01*
X132738095Y-92857142D01*
X132690476Y-92904761D01*
X132595238Y-92952380D01*
X132357142Y-92952380D01*
X132261904Y-92904761D01*
X132214285Y-92857142D01*
X131547619Y-91452380D02*
X130976190Y-91452380D01*
X131261904Y-91452380D02*
X131261904Y-90452380D01*
X131166666Y-90595238D01*
X131071428Y-90690476D01*
X130976190Y-90738095D01*
X132404761Y-90785714D02*
X132404761Y-91452380D01*
X131976190Y-90785714D02*
X131976190Y-91309523D01*
X132023809Y-91404761D01*
X132119047Y-91452380D01*
X132261904Y-91452380D01*
X132357142Y-91404761D01*
X132404761Y-91357142D01*
X132738095Y-90785714D02*
X133119047Y-90785714D01*
X132880952Y-91452380D02*
X132880952Y-90595238D01*
X132928571Y-90500000D01*
X133023809Y-90452380D01*
X133119047Y-90452380D01*
G04 #@! TO.C,C6*
X122033333Y-90557142D02*
X121985714Y-90604761D01*
X121842857Y-90652380D01*
X121747619Y-90652380D01*
X121604761Y-90604761D01*
X121509523Y-90509523D01*
X121461904Y-90414285D01*
X121414285Y-90223809D01*
X121414285Y-90080952D01*
X121461904Y-89890476D01*
X121509523Y-89795238D01*
X121604761Y-89700000D01*
X121747619Y-89652380D01*
X121842857Y-89652380D01*
X121985714Y-89700000D01*
X122033333Y-89747619D01*
X122890476Y-89652380D02*
X122700000Y-89652380D01*
X122604761Y-89700000D01*
X122557142Y-89747619D01*
X122461904Y-89890476D01*
X122414285Y-90080952D01*
X122414285Y-90461904D01*
X122461904Y-90557142D01*
X122509523Y-90604761D01*
X122604761Y-90652380D01*
X122795238Y-90652380D01*
X122890476Y-90604761D01*
X122938095Y-90557142D01*
X122985714Y-90461904D01*
X122985714Y-90223809D01*
X122938095Y-90128571D01*
X122890476Y-90080952D01*
X122795238Y-90033333D01*
X122604761Y-90033333D01*
X122509523Y-90080952D01*
X122461904Y-90128571D01*
X122414285Y-90223809D01*
X124147619Y-90652380D02*
X123576190Y-90652380D01*
X123861904Y-90652380D02*
X123861904Y-89652380D01*
X123766666Y-89795238D01*
X123671428Y-89890476D01*
X123576190Y-89938095D01*
X125004761Y-89985714D02*
X125004761Y-90652380D01*
X124576190Y-89985714D02*
X124576190Y-90509523D01*
X124623809Y-90604761D01*
X124719047Y-90652380D01*
X124861904Y-90652380D01*
X124957142Y-90604761D01*
X125004761Y-90557142D01*
X125338095Y-89985714D02*
X125719047Y-89985714D01*
X125480952Y-90652380D02*
X125480952Y-89795238D01*
X125528571Y-89700000D01*
X125623809Y-89652380D01*
X125719047Y-89652380D01*
G04 #@! TO.C,C8*
X133633333Y-65623142D02*
X133585714Y-65670761D01*
X133442857Y-65718380D01*
X133347619Y-65718380D01*
X133204761Y-65670761D01*
X133109523Y-65575523D01*
X133061904Y-65480285D01*
X133014285Y-65289809D01*
X133014285Y-65146952D01*
X133061904Y-64956476D01*
X133109523Y-64861238D01*
X133204761Y-64766000D01*
X133347619Y-64718380D01*
X133442857Y-64718380D01*
X133585714Y-64766000D01*
X133633333Y-64813619D01*
X134204761Y-65146952D02*
X134109523Y-65099333D01*
X134061904Y-65051714D01*
X134014285Y-64956476D01*
X134014285Y-64908857D01*
X134061904Y-64813619D01*
X134109523Y-64766000D01*
X134204761Y-64718380D01*
X134395238Y-64718380D01*
X134490476Y-64766000D01*
X134538095Y-64813619D01*
X134585714Y-64908857D01*
X134585714Y-64956476D01*
X134538095Y-65051714D01*
X134490476Y-65099333D01*
X134395238Y-65146952D01*
X134204761Y-65146952D01*
X134109523Y-65194571D01*
X134061904Y-65242190D01*
X134014285Y-65337428D01*
X134014285Y-65527904D01*
X134061904Y-65623142D01*
X134109523Y-65670761D01*
X134204761Y-65718380D01*
X134395238Y-65718380D01*
X134490476Y-65670761D01*
X134538095Y-65623142D01*
X134585714Y-65527904D01*
X134585714Y-65337428D01*
X134538095Y-65242190D01*
X134490476Y-65194571D01*
X134395238Y-65146952D01*
X132752380Y-63571428D02*
X132752380Y-64142857D01*
X132752380Y-63857142D02*
X131752380Y-63857142D01*
X131895238Y-63952380D01*
X131990476Y-64047619D01*
X132038095Y-64142857D01*
X131752380Y-62952380D02*
X131752380Y-62857142D01*
X131800000Y-62761904D01*
X131847619Y-62714285D01*
X131942857Y-62666666D01*
X132133333Y-62619047D01*
X132371428Y-62619047D01*
X132561904Y-62666666D01*
X132657142Y-62714285D01*
X132704761Y-62761904D01*
X132752380Y-62857142D01*
X132752380Y-62952380D01*
X132704761Y-63047619D01*
X132657142Y-63095238D01*
X132561904Y-63142857D01*
X132371428Y-63190476D01*
X132133333Y-63190476D01*
X131942857Y-63142857D01*
X131847619Y-63095238D01*
X131800000Y-63047619D01*
X131752380Y-62952380D01*
X132085714Y-61761904D02*
X132752380Y-61761904D01*
X132085714Y-62190476D02*
X132609523Y-62190476D01*
X132704761Y-62142857D01*
X132752380Y-62047619D01*
X132752380Y-61904761D01*
X132704761Y-61809523D01*
X132657142Y-61761904D01*
X132228571Y-60952380D02*
X132228571Y-61285714D01*
X132752380Y-61285714D02*
X131752380Y-61285714D01*
X131752380Y-60809523D01*
G04 #@! TO.C,C10*
X129357142Y-80357142D02*
X129309523Y-80404761D01*
X129166666Y-80452380D01*
X129071428Y-80452380D01*
X128928571Y-80404761D01*
X128833333Y-80309523D01*
X128785714Y-80214285D01*
X128738095Y-80023809D01*
X128738095Y-79880952D01*
X128785714Y-79690476D01*
X128833333Y-79595238D01*
X128928571Y-79500000D01*
X129071428Y-79452380D01*
X129166666Y-79452380D01*
X129309523Y-79500000D01*
X129357142Y-79547619D01*
X130309523Y-80452380D02*
X129738095Y-80452380D01*
X130023809Y-80452380D02*
X130023809Y-79452380D01*
X129928571Y-79595238D01*
X129833333Y-79690476D01*
X129738095Y-79738095D01*
X130928571Y-79452380D02*
X131023809Y-79452380D01*
X131119047Y-79500000D01*
X131166666Y-79547619D01*
X131214285Y-79642857D01*
X131261904Y-79833333D01*
X131261904Y-80071428D01*
X131214285Y-80261904D01*
X131166666Y-80357142D01*
X131119047Y-80404761D01*
X131023809Y-80452380D01*
X130928571Y-80452380D01*
X130833333Y-80404761D01*
X130785714Y-80357142D01*
X130738095Y-80261904D01*
X130690476Y-80071428D01*
X130690476Y-79833333D01*
X130738095Y-79642857D01*
X130785714Y-79547619D01*
X130833333Y-79500000D01*
X130928571Y-79452380D01*
X129547619Y-74952380D02*
X128976190Y-74952380D01*
X129261904Y-74952380D02*
X129261904Y-73952380D01*
X129166666Y-74095238D01*
X129071428Y-74190476D01*
X128976190Y-74238095D01*
X130404761Y-74285714D02*
X130404761Y-74952380D01*
X129976190Y-74285714D02*
X129976190Y-74809523D01*
X130023809Y-74904761D01*
X130119047Y-74952380D01*
X130261904Y-74952380D01*
X130357142Y-74904761D01*
X130404761Y-74857142D01*
X130738095Y-74285714D02*
X131119047Y-74285714D01*
X130880952Y-74952380D02*
X130880952Y-74095238D01*
X130928571Y-74000000D01*
X131023809Y-73952380D01*
X131119047Y-73952380D01*
G04 #@! TO.C,C11*
X132357142Y-80357142D02*
X132309523Y-80404761D01*
X132166666Y-80452380D01*
X132071428Y-80452380D01*
X131928571Y-80404761D01*
X131833333Y-80309523D01*
X131785714Y-80214285D01*
X131738095Y-80023809D01*
X131738095Y-79880952D01*
X131785714Y-79690476D01*
X131833333Y-79595238D01*
X131928571Y-79500000D01*
X132071428Y-79452380D01*
X132166666Y-79452380D01*
X132309523Y-79500000D01*
X132357142Y-79547619D01*
X133309523Y-80452380D02*
X132738095Y-80452380D01*
X133023809Y-80452380D02*
X133023809Y-79452380D01*
X132928571Y-79595238D01*
X132833333Y-79690476D01*
X132738095Y-79738095D01*
X134261904Y-80452380D02*
X133690476Y-80452380D01*
X133976190Y-80452380D02*
X133976190Y-79452380D01*
X133880952Y-79595238D01*
X133785714Y-79690476D01*
X133690476Y-79738095D01*
X135452380Y-78071428D02*
X135452380Y-78642857D01*
X135452380Y-78357142D02*
X134452380Y-78357142D01*
X134595238Y-78452380D01*
X134690476Y-78547619D01*
X134738095Y-78642857D01*
X134452380Y-77452380D02*
X134452380Y-77357142D01*
X134500000Y-77261904D01*
X134547619Y-77214285D01*
X134642857Y-77166666D01*
X134833333Y-77119047D01*
X135071428Y-77119047D01*
X135261904Y-77166666D01*
X135357142Y-77214285D01*
X135404761Y-77261904D01*
X135452380Y-77357142D01*
X135452380Y-77452380D01*
X135404761Y-77547619D01*
X135357142Y-77595238D01*
X135261904Y-77642857D01*
X135071428Y-77690476D01*
X134833333Y-77690476D01*
X134642857Y-77642857D01*
X134547619Y-77595238D01*
X134500000Y-77547619D01*
X134452380Y-77452380D01*
X134785714Y-76261904D02*
X135452380Y-76261904D01*
X134785714Y-76690476D02*
X135309523Y-76690476D01*
X135404761Y-76642857D01*
X135452380Y-76547619D01*
X135452380Y-76404761D01*
X135404761Y-76309523D01*
X135357142Y-76261904D01*
X134928571Y-75452380D02*
X134928571Y-75785714D01*
X135452380Y-75785714D02*
X134452380Y-75785714D01*
X134452380Y-75309523D01*
G04 #@! TO.C,J7*
X120206666Y-111172380D02*
X120206666Y-111886666D01*
X120159047Y-112029523D01*
X120063809Y-112124761D01*
X119920952Y-112172380D01*
X119825714Y-112172380D01*
X120587619Y-111172380D02*
X121254285Y-111172380D01*
X120825714Y-112172380D01*
X118000000Y-121428571D02*
X118142857Y-121476190D01*
X118190476Y-121523809D01*
X118238095Y-121619047D01*
X118238095Y-121761904D01*
X118190476Y-121857142D01*
X118142857Y-121904761D01*
X118047619Y-121952380D01*
X117666666Y-121952380D01*
X117666666Y-120952380D01*
X118000000Y-120952380D01*
X118095238Y-121000000D01*
X118142857Y-121047619D01*
X118190476Y-121142857D01*
X118190476Y-121238095D01*
X118142857Y-121333333D01*
X118095238Y-121380952D01*
X118000000Y-121428571D01*
X117666666Y-121428571D01*
X118619047Y-121666666D02*
X119095238Y-121666666D01*
X118523809Y-121952380D02*
X118857142Y-120952380D01*
X119190476Y-121952380D01*
X119380952Y-120952380D02*
X119952380Y-120952380D01*
X119666666Y-121952380D02*
X119666666Y-120952380D01*
X120142857Y-120952380D02*
X120714285Y-120952380D01*
X120428571Y-121952380D02*
X120428571Y-120952380D01*
X121047619Y-121428571D02*
X121380952Y-121428571D01*
X121523809Y-121952380D02*
X121047619Y-121952380D01*
X121047619Y-120952380D01*
X121523809Y-120952380D01*
X122523809Y-121952380D02*
X122190476Y-121476190D01*
X121952380Y-121952380D02*
X121952380Y-120952380D01*
X122333333Y-120952380D01*
X122428571Y-121000000D01*
X122476190Y-121047619D01*
X122523809Y-121142857D01*
X122523809Y-121285714D01*
X122476190Y-121380952D01*
X122428571Y-121428571D01*
X122333333Y-121476190D01*
X121952380Y-121476190D01*
X123142857Y-121476190D02*
X123142857Y-121952380D01*
X122809523Y-120952380D02*
X123142857Y-121476190D01*
X123476190Y-120952380D01*
G04 #@! TO.C,C12*
X113807142Y-101607142D02*
X113759523Y-101654761D01*
X113616666Y-101702380D01*
X113521428Y-101702380D01*
X113378571Y-101654761D01*
X113283333Y-101559523D01*
X113235714Y-101464285D01*
X113188095Y-101273809D01*
X113188095Y-101130952D01*
X113235714Y-100940476D01*
X113283333Y-100845238D01*
X113378571Y-100750000D01*
X113521428Y-100702380D01*
X113616666Y-100702380D01*
X113759523Y-100750000D01*
X113807142Y-100797619D01*
X114759523Y-101702380D02*
X114188095Y-101702380D01*
X114473809Y-101702380D02*
X114473809Y-100702380D01*
X114378571Y-100845238D01*
X114283333Y-100940476D01*
X114188095Y-100988095D01*
X115140476Y-100797619D02*
X115188095Y-100750000D01*
X115283333Y-100702380D01*
X115521428Y-100702380D01*
X115616666Y-100750000D01*
X115664285Y-100797619D01*
X115711904Y-100892857D01*
X115711904Y-100988095D01*
X115664285Y-101130952D01*
X115092857Y-101702380D01*
X115711904Y-101702380D01*
G04 #@! TO.C,J6*
X164902380Y-105083333D02*
X165616666Y-105083333D01*
X165759523Y-105130952D01*
X165854761Y-105226190D01*
X165902380Y-105369047D01*
X165902380Y-105464285D01*
X164902380Y-104178571D02*
X164902380Y-104369047D01*
X164950000Y-104464285D01*
X164997619Y-104511904D01*
X165140476Y-104607142D01*
X165330952Y-104654761D01*
X165711904Y-104654761D01*
X165807142Y-104607142D01*
X165854761Y-104559523D01*
X165902380Y-104464285D01*
X165902380Y-104273809D01*
X165854761Y-104178571D01*
X165807142Y-104130952D01*
X165711904Y-104083333D01*
X165473809Y-104083333D01*
X165378571Y-104130952D01*
X165330952Y-104178571D01*
X165283333Y-104273809D01*
X165283333Y-104464285D01*
X165330952Y-104559523D01*
X165378571Y-104607142D01*
X165473809Y-104654761D01*
X167416666Y-110702380D02*
X167416666Y-109702380D01*
X167797619Y-109702380D01*
X167892857Y-109750000D01*
X167940476Y-109797619D01*
X167988095Y-109892857D01*
X167988095Y-110035714D01*
X167940476Y-110130952D01*
X167892857Y-110178571D01*
X167797619Y-110226190D01*
X167416666Y-110226190D01*
X168845238Y-110035714D02*
X168845238Y-110702380D01*
X168416666Y-110035714D02*
X168416666Y-110559523D01*
X168464285Y-110654761D01*
X168559523Y-110702380D01*
X168702380Y-110702380D01*
X168797619Y-110654761D01*
X168845238Y-110607142D01*
X169321428Y-110702380D02*
X169321428Y-110035714D01*
X169321428Y-110130952D02*
X169369047Y-110083333D01*
X169464285Y-110035714D01*
X169607142Y-110035714D01*
X169702380Y-110083333D01*
X169750000Y-110178571D01*
X169750000Y-110702380D01*
X169750000Y-110178571D02*
X169797619Y-110083333D01*
X169892857Y-110035714D01*
X170035714Y-110035714D01*
X170130952Y-110083333D01*
X170178571Y-110178571D01*
X170178571Y-110702380D01*
X170654761Y-110035714D02*
X170654761Y-111035714D01*
X170654761Y-110083333D02*
X170750000Y-110035714D01*
X170940476Y-110035714D01*
X171035714Y-110083333D01*
X171083333Y-110130952D01*
X171130952Y-110226190D01*
X171130952Y-110511904D01*
X171083333Y-110607142D01*
X171035714Y-110654761D01*
X170940476Y-110702380D01*
X170750000Y-110702380D01*
X170654761Y-110654761D01*
G04 #@! TO.C,D3*
X105221904Y-110452380D02*
X105221904Y-109452380D01*
X105460000Y-109452380D01*
X105602857Y-109500000D01*
X105698095Y-109595238D01*
X105745714Y-109690476D01*
X105793333Y-109880952D01*
X105793333Y-110023809D01*
X105745714Y-110214285D01*
X105698095Y-110309523D01*
X105602857Y-110404761D01*
X105460000Y-110452380D01*
X105221904Y-110452380D01*
X106126666Y-109452380D02*
X106745714Y-109452380D01*
X106412380Y-109833333D01*
X106555238Y-109833333D01*
X106650476Y-109880952D01*
X106698095Y-109928571D01*
X106745714Y-110023809D01*
X106745714Y-110261904D01*
X106698095Y-110357142D01*
X106650476Y-110404761D01*
X106555238Y-110452380D01*
X106269523Y-110452380D01*
X106174285Y-110404761D01*
X106126666Y-110357142D01*
G04 #@! TO.C,RV1*
X103404761Y-119452380D02*
X103071428Y-118976190D01*
X102833333Y-119452380D02*
X102833333Y-118452380D01*
X103214285Y-118452380D01*
X103309523Y-118500000D01*
X103357142Y-118547619D01*
X103404761Y-118642857D01*
X103404761Y-118785714D01*
X103357142Y-118880952D01*
X103309523Y-118928571D01*
X103214285Y-118976190D01*
X102833333Y-118976190D01*
X103690476Y-118452380D02*
X104023809Y-119452380D01*
X104357142Y-118452380D01*
X105214285Y-119452380D02*
X104642857Y-119452380D01*
X104928571Y-119452380D02*
X104928571Y-118452380D01*
X104833333Y-118595238D01*
X104738095Y-118690476D01*
X104642857Y-118738095D01*
G04 #@! TO.C,C9*
X94233333Y-103757142D02*
X94185714Y-103804761D01*
X94042857Y-103852380D01*
X93947619Y-103852380D01*
X93804761Y-103804761D01*
X93709523Y-103709523D01*
X93661904Y-103614285D01*
X93614285Y-103423809D01*
X93614285Y-103280952D01*
X93661904Y-103090476D01*
X93709523Y-102995238D01*
X93804761Y-102900000D01*
X93947619Y-102852380D01*
X94042857Y-102852380D01*
X94185714Y-102900000D01*
X94233333Y-102947619D01*
X94709523Y-103852380D02*
X94900000Y-103852380D01*
X94995238Y-103804761D01*
X95042857Y-103757142D01*
X95138095Y-103614285D01*
X95185714Y-103423809D01*
X95185714Y-103042857D01*
X95138095Y-102947619D01*
X95090476Y-102900000D01*
X94995238Y-102852380D01*
X94804761Y-102852380D01*
X94709523Y-102900000D01*
X94661904Y-102947619D01*
X94614285Y-103042857D01*
X94614285Y-103280952D01*
X94661904Y-103376190D01*
X94709523Y-103423809D01*
X94804761Y-103471428D01*
X94995238Y-103471428D01*
X95090476Y-103423809D01*
X95138095Y-103376190D01*
X95185714Y-103280952D01*
X93528571Y-98452380D02*
X92957142Y-98452380D01*
X93242857Y-98452380D02*
X93242857Y-97452380D01*
X93147619Y-97595238D01*
X93052380Y-97690476D01*
X92957142Y-97738095D01*
X94147619Y-97452380D02*
X94242857Y-97452380D01*
X94338095Y-97500000D01*
X94385714Y-97547619D01*
X94433333Y-97642857D01*
X94480952Y-97833333D01*
X94480952Y-98071428D01*
X94433333Y-98261904D01*
X94385714Y-98357142D01*
X94338095Y-98404761D01*
X94242857Y-98452380D01*
X94147619Y-98452380D01*
X94052380Y-98404761D01*
X94004761Y-98357142D01*
X93957142Y-98261904D01*
X93909523Y-98071428D01*
X93909523Y-97833333D01*
X93957142Y-97642857D01*
X94004761Y-97547619D01*
X94052380Y-97500000D01*
X94147619Y-97452380D01*
X95338095Y-97785714D02*
X95338095Y-98452380D01*
X94909523Y-97785714D02*
X94909523Y-98309523D01*
X94957142Y-98404761D01*
X95052380Y-98452380D01*
X95195238Y-98452380D01*
X95290476Y-98404761D01*
X95338095Y-98357142D01*
X96147619Y-97928571D02*
X95814285Y-97928571D01*
X95814285Y-98452380D02*
X95814285Y-97452380D01*
X96290476Y-97452380D01*
G04 #@! TO.C,SW1*
X137734761Y-118833333D02*
X137782380Y-118690476D01*
X137782380Y-118452380D01*
X137734761Y-118357142D01*
X137687142Y-118309523D01*
X137591904Y-118261904D01*
X137496666Y-118261904D01*
X137401428Y-118309523D01*
X137353809Y-118357142D01*
X137306190Y-118452380D01*
X137258571Y-118642857D01*
X137210952Y-118738095D01*
X137163333Y-118785714D01*
X137068095Y-118833333D01*
X136972857Y-118833333D01*
X136877619Y-118785714D01*
X136830000Y-118738095D01*
X136782380Y-118642857D01*
X136782380Y-118404761D01*
X136830000Y-118261904D01*
X136782380Y-117928571D02*
X137782380Y-117690476D01*
X137068095Y-117500000D01*
X137782380Y-117309523D01*
X136782380Y-117071428D01*
X137782380Y-116166666D02*
X137782380Y-116738095D01*
X137782380Y-116452380D02*
X136782380Y-116452380D01*
X136925238Y-116547619D01*
X137020476Y-116642857D01*
X137068095Y-116738095D01*
G04 #@! TO.C,U7*
X129838095Y-84652380D02*
X129838095Y-85461904D01*
X129885714Y-85557142D01*
X129933333Y-85604761D01*
X130028571Y-85652380D01*
X130219047Y-85652380D01*
X130314285Y-85604761D01*
X130361904Y-85557142D01*
X130409523Y-85461904D01*
X130409523Y-84652380D01*
X130790476Y-84652380D02*
X131457142Y-84652380D01*
X131028571Y-85652380D01*
G04 #@! TD*
M02*
