G04 #@! TF.GenerationSoftware,KiCad,Pcbnew,5.0.2-bee76a0~70~ubuntu16.04.1*
G04 #@! TF.CreationDate,2019-01-03T19:03:09+00:00*
G04 #@! TF.ProjectId,stm32l053c,73746d33-326c-4303-9533-632e6b696361,rev?*
G04 #@! TF.SameCoordinates,Original*
G04 #@! TF.FileFunction,Soldermask,Top*
G04 #@! TF.FilePolarity,Negative*
%FSLAX46Y46*%
G04 Gerber Fmt 4.6, Leading zero omitted, Abs format (unit mm)*
G04 Created by KiCad (PCBNEW 5.0.2-bee76a0~70~ubuntu16.04.1) date Thu 03 Jan 2019 19:03:09 GMT*
%MOMM*%
%LPD*%
G01*
G04 APERTURE LIST*
%ADD10C,0.150000*%
%ADD11C,0.127000*%
%ADD12C,0.076200*%
%ADD13C,0.101600*%
%ADD14R,10.400000X5.400000*%
%ADD15R,1.900000X2.400000*%
%ADD16C,2.100000*%
%ADD17O,2.350000X2.100000*%
%ADD18C,1.350000*%
%ADD19R,0.390000X1.440000*%
%ADD20R,1.440000X0.390000*%
%ADD21R,2.100000X2.100000*%
%ADD22O,2.100000X2.100000*%
%ADD23R,2.400000X1.400000*%
%ADD24R,1.598880X1.598880*%
%ADD25R,2.340000X1.190000*%
%ADD26R,2.140000X1.140000*%
%ADD27O,2.400000X2.100000*%
%ADD28R,1.200000X2.300000*%
%ADD29C,1.550000*%
%ADD30O,2.100000X2.400000*%
%ADD31C,6.800000*%
%ADD32R,3.400000X3.400000*%
%ADD33C,3.400000*%
%ADD34R,2.000000X2.000000*%
%ADD35C,2.000000*%
%ADD36R,2.400000X2.400000*%
%ADD37O,2.400000X2.400000*%
%ADD38R,2.305000X2.400000*%
%ADD39O,2.305000X2.400000*%
G04 APERTURE END LIST*
D10*
G04 #@! TO.C,REF\002A\002A*
X97151623Y-116700000D02*
G75*
G03X97151623Y-116700000I-31623J0D01*
G01*
D11*
X97390000Y-116780000D02*
G75*
G03X97390000Y-116780000I-410000J0D01*
G01*
D10*
X96871623Y-116700000D02*
G75*
G03X96871623Y-116700000I-31623J0D01*
G01*
D12*
X96790000Y-116920000D02*
X96910000Y-116990000D01*
X96910000Y-116990000D02*
X97040000Y-116980000D01*
X97040000Y-116980000D02*
X97160000Y-116890000D01*
D13*
X96870000Y-116310000D02*
X96600000Y-116170000D01*
X96600000Y-116170000D02*
X96320000Y-116240000D01*
X96320000Y-116240000D02*
X96210000Y-116430000D01*
X96210000Y-116430000D02*
X96320000Y-116600000D01*
X96320000Y-116600000D02*
X96530000Y-116650000D01*
X96540000Y-116720000D02*
X96270000Y-116770000D01*
X96270000Y-116770000D02*
X96180000Y-116920000D01*
X96180000Y-116920000D02*
X96220000Y-117050000D01*
X96220000Y-117050000D02*
X96340000Y-117130000D01*
X96340000Y-117130000D02*
X96590000Y-117070000D01*
X96610000Y-117090000D02*
X96530000Y-117290000D01*
X96530000Y-117290000D02*
X96540000Y-117480000D01*
X96540000Y-117480000D02*
X96650000Y-117520000D01*
X96650000Y-117520000D02*
X96770000Y-117480000D01*
X96770000Y-117480000D02*
X96830000Y-117370000D01*
X96830000Y-117370000D02*
X96850000Y-117260000D01*
X96850000Y-117260000D02*
X96870000Y-117240000D01*
X96870000Y-117240000D02*
X96840000Y-117260000D01*
X96840000Y-117260000D02*
X96830000Y-117230000D01*
X96940000Y-116350000D02*
X97030000Y-116080000D01*
X97030000Y-116080000D02*
X97190000Y-116020000D01*
X97190000Y-116020000D02*
X97360000Y-116050000D01*
X97360000Y-116050000D02*
X97410000Y-116160000D01*
X97410000Y-116160000D02*
X97390000Y-116270000D01*
X97390000Y-116270000D02*
X97300000Y-116410000D01*
X97270000Y-116400000D02*
X97640000Y-116390000D01*
X97640000Y-116390000D02*
X97750000Y-116490000D01*
X97750000Y-116490000D02*
X97770000Y-116640000D01*
X97770000Y-116640000D02*
X97670000Y-116710000D01*
X97670000Y-116710000D02*
X97520000Y-116720000D01*
X97520000Y-116720000D02*
X97420000Y-116720000D01*
X97420000Y-116750000D02*
X97600000Y-116860000D01*
X97600000Y-116860000D02*
X97700000Y-117000000D01*
X97700000Y-117000000D02*
X97700000Y-117140000D01*
X97700000Y-117140000D02*
X97660000Y-117240000D01*
X97660000Y-117240000D02*
X97550000Y-117280000D01*
X97550000Y-117280000D02*
X97420000Y-117250000D01*
X97420000Y-117250000D02*
X97330000Y-117120000D01*
X96900000Y-117250000D02*
X96970000Y-117440000D01*
X96970000Y-117440000D02*
X97090000Y-117570000D01*
X97090000Y-117570000D02*
X97210000Y-117540000D01*
X97210000Y-117540000D02*
X97260000Y-117450000D01*
X97260000Y-117450000D02*
X97240000Y-117350000D01*
X97240000Y-117350000D02*
X97240000Y-117180000D01*
X96870000Y-117340000D02*
X96960000Y-117770000D01*
X96960000Y-117770000D02*
X97180000Y-118070000D01*
X97180000Y-118070000D02*
X97300000Y-118350000D01*
X97300000Y-118350000D02*
X97260000Y-118570000D01*
X97260000Y-118570000D02*
X97420000Y-118050000D01*
G04 #@! TD*
D14*
G04 #@! TO.C,U1*
X124460000Y-98570000D03*
D15*
X124460000Y-92370000D03*
X122160000Y-92370000D03*
X126760000Y-92370000D03*
G04 #@! TD*
D13*
G04 #@! TO.C,D2*
G36*
X169896447Y-76951487D02*
X169926425Y-76955934D01*
X169955824Y-76963298D01*
X169984358Y-76973508D01*
X170011755Y-76986465D01*
X170037750Y-77002046D01*
X170062092Y-77020100D01*
X170084548Y-77040452D01*
X170104900Y-77062908D01*
X170122954Y-77087250D01*
X170138535Y-77113245D01*
X170151492Y-77140642D01*
X170161702Y-77169176D01*
X170169066Y-77198575D01*
X170173513Y-77228553D01*
X170175000Y-77258823D01*
X170175000Y-78741177D01*
X170173513Y-78771447D01*
X170169066Y-78801425D01*
X170161702Y-78830824D01*
X170151492Y-78859358D01*
X170138535Y-78886755D01*
X170122954Y-78912750D01*
X170104900Y-78937092D01*
X170084548Y-78959548D01*
X170062092Y-78979900D01*
X170037750Y-78997954D01*
X170011755Y-79013535D01*
X169984358Y-79026492D01*
X169955824Y-79036702D01*
X169926425Y-79044066D01*
X169896447Y-79048513D01*
X169866177Y-79050000D01*
X168133823Y-79050000D01*
X168103553Y-79048513D01*
X168073575Y-79044066D01*
X168044176Y-79036702D01*
X168015642Y-79026492D01*
X167988245Y-79013535D01*
X167962250Y-78997954D01*
X167937908Y-78979900D01*
X167915452Y-78959548D01*
X167895100Y-78937092D01*
X167877046Y-78912750D01*
X167861465Y-78886755D01*
X167848508Y-78859358D01*
X167838298Y-78830824D01*
X167830934Y-78801425D01*
X167826487Y-78771447D01*
X167825000Y-78741177D01*
X167825000Y-77258823D01*
X167826487Y-77228553D01*
X167830934Y-77198575D01*
X167838298Y-77169176D01*
X167848508Y-77140642D01*
X167861465Y-77113245D01*
X167877046Y-77087250D01*
X167895100Y-77062908D01*
X167915452Y-77040452D01*
X167937908Y-77020100D01*
X167962250Y-77002046D01*
X167988245Y-76986465D01*
X168015642Y-76973508D01*
X168044176Y-76963298D01*
X168073575Y-76955934D01*
X168103553Y-76951487D01*
X168133823Y-76950000D01*
X169866177Y-76950000D01*
X169896447Y-76951487D01*
X169896447Y-76951487D01*
G37*
D16*
X169000000Y-78000000D03*
D17*
X169000000Y-75500000D03*
X169000000Y-73000000D03*
X169000000Y-70500000D03*
G04 #@! TD*
D13*
G04 #@! TO.C,R4*
G36*
X139870581Y-84151625D02*
X139903343Y-84156485D01*
X139935471Y-84164533D01*
X139966656Y-84175691D01*
X139996596Y-84189852D01*
X140025005Y-84206879D01*
X140051608Y-84226609D01*
X140076149Y-84248851D01*
X140098391Y-84273392D01*
X140118121Y-84299995D01*
X140135148Y-84328404D01*
X140149309Y-84358344D01*
X140160467Y-84389529D01*
X140168515Y-84421657D01*
X140173375Y-84454419D01*
X140175000Y-84487500D01*
X140175000Y-85262500D01*
X140173375Y-85295581D01*
X140168515Y-85328343D01*
X140160467Y-85360471D01*
X140149309Y-85391656D01*
X140135148Y-85421596D01*
X140118121Y-85450005D01*
X140098391Y-85476608D01*
X140076149Y-85501149D01*
X140051608Y-85523391D01*
X140025005Y-85543121D01*
X139996596Y-85560148D01*
X139966656Y-85574309D01*
X139935471Y-85585467D01*
X139903343Y-85593515D01*
X139870581Y-85598375D01*
X139837500Y-85600000D01*
X139162500Y-85600000D01*
X139129419Y-85598375D01*
X139096657Y-85593515D01*
X139064529Y-85585467D01*
X139033344Y-85574309D01*
X139003404Y-85560148D01*
X138974995Y-85543121D01*
X138948392Y-85523391D01*
X138923851Y-85501149D01*
X138901609Y-85476608D01*
X138881879Y-85450005D01*
X138864852Y-85421596D01*
X138850691Y-85391656D01*
X138839533Y-85360471D01*
X138831485Y-85328343D01*
X138826625Y-85295581D01*
X138825000Y-85262500D01*
X138825000Y-84487500D01*
X138826625Y-84454419D01*
X138831485Y-84421657D01*
X138839533Y-84389529D01*
X138850691Y-84358344D01*
X138864852Y-84328404D01*
X138881879Y-84299995D01*
X138901609Y-84273392D01*
X138923851Y-84248851D01*
X138948392Y-84226609D01*
X138974995Y-84206879D01*
X139003404Y-84189852D01*
X139033344Y-84175691D01*
X139064529Y-84164533D01*
X139096657Y-84156485D01*
X139129419Y-84151625D01*
X139162500Y-84150000D01*
X139837500Y-84150000D01*
X139870581Y-84151625D01*
X139870581Y-84151625D01*
G37*
D18*
X139500000Y-84875000D03*
D13*
G36*
X139870581Y-82401625D02*
X139903343Y-82406485D01*
X139935471Y-82414533D01*
X139966656Y-82425691D01*
X139996596Y-82439852D01*
X140025005Y-82456879D01*
X140051608Y-82476609D01*
X140076149Y-82498851D01*
X140098391Y-82523392D01*
X140118121Y-82549995D01*
X140135148Y-82578404D01*
X140149309Y-82608344D01*
X140160467Y-82639529D01*
X140168515Y-82671657D01*
X140173375Y-82704419D01*
X140175000Y-82737500D01*
X140175000Y-83512500D01*
X140173375Y-83545581D01*
X140168515Y-83578343D01*
X140160467Y-83610471D01*
X140149309Y-83641656D01*
X140135148Y-83671596D01*
X140118121Y-83700005D01*
X140098391Y-83726608D01*
X140076149Y-83751149D01*
X140051608Y-83773391D01*
X140025005Y-83793121D01*
X139996596Y-83810148D01*
X139966656Y-83824309D01*
X139935471Y-83835467D01*
X139903343Y-83843515D01*
X139870581Y-83848375D01*
X139837500Y-83850000D01*
X139162500Y-83850000D01*
X139129419Y-83848375D01*
X139096657Y-83843515D01*
X139064529Y-83835467D01*
X139033344Y-83824309D01*
X139003404Y-83810148D01*
X138974995Y-83793121D01*
X138948392Y-83773391D01*
X138923851Y-83751149D01*
X138901609Y-83726608D01*
X138881879Y-83700005D01*
X138864852Y-83671596D01*
X138850691Y-83641656D01*
X138839533Y-83610471D01*
X138831485Y-83578343D01*
X138826625Y-83545581D01*
X138825000Y-83512500D01*
X138825000Y-82737500D01*
X138826625Y-82704419D01*
X138831485Y-82671657D01*
X138839533Y-82639529D01*
X138850691Y-82608344D01*
X138864852Y-82578404D01*
X138881879Y-82549995D01*
X138901609Y-82523392D01*
X138923851Y-82498851D01*
X138948392Y-82476609D01*
X138974995Y-82456879D01*
X139003404Y-82439852D01*
X139033344Y-82425691D01*
X139064529Y-82414533D01*
X139096657Y-82406485D01*
X139129419Y-82401625D01*
X139162500Y-82400000D01*
X139837500Y-82400000D01*
X139870581Y-82401625D01*
X139870581Y-82401625D01*
G37*
D18*
X139500000Y-83125000D03*
G04 #@! TD*
D19*
G04 #@! TO.C,U2*
X147110000Y-83090000D03*
X147610000Y-83090000D03*
X148110000Y-83090000D03*
X148610000Y-83090000D03*
X149110000Y-83090000D03*
X149610000Y-83090000D03*
X150110000Y-83090000D03*
X150610000Y-83090000D03*
X151110000Y-83090000D03*
X151610000Y-83090000D03*
X152110000Y-83090000D03*
X152610000Y-83090000D03*
D20*
X154210000Y-81490000D03*
X154210000Y-80990000D03*
X154210000Y-80490000D03*
X154210000Y-79990000D03*
X154210000Y-79490000D03*
X154210000Y-78990000D03*
X154210000Y-78490000D03*
X154210000Y-77990000D03*
X154210000Y-77490000D03*
X154210000Y-76990000D03*
X154210000Y-76490000D03*
X154210000Y-75990000D03*
D19*
X152610000Y-74390000D03*
X152110000Y-74390000D03*
X151610000Y-74390000D03*
X151110000Y-74390000D03*
X150610000Y-74390000D03*
X150110000Y-74390000D03*
X149610000Y-74390000D03*
X149110000Y-74390000D03*
X148610000Y-74390000D03*
X148110000Y-74390000D03*
X147610000Y-74390000D03*
X147110000Y-74390000D03*
D20*
X145510000Y-75990000D03*
X145510000Y-76490000D03*
X145510000Y-76990000D03*
X145510000Y-77490000D03*
X145510000Y-77990000D03*
X145510000Y-78490000D03*
X145510000Y-78990000D03*
X145510000Y-79490000D03*
X145510000Y-79990000D03*
X145510000Y-80490000D03*
X145510000Y-80990000D03*
X145510000Y-81490000D03*
G04 #@! TD*
D21*
G04 #@! TO.C,P1*
X142240000Y-118980000D03*
D22*
X144780000Y-118980000D03*
X147320000Y-118980000D03*
X149860000Y-118980000D03*
X152400000Y-118980000D03*
X154940000Y-118980000D03*
G04 #@! TD*
D23*
G04 #@! TO.C,U5*
X158115000Y-69850000D03*
X158115000Y-67850000D03*
X158115000Y-65850000D03*
X158115000Y-63850000D03*
X158115000Y-61850000D03*
X158115000Y-59850000D03*
X158115000Y-57850000D03*
X158115000Y-55850000D03*
X142115000Y-55850000D03*
X142115000Y-57850000D03*
X142115000Y-59850000D03*
X142115000Y-61850000D03*
X142115000Y-63850000D03*
X142115000Y-65850000D03*
X142115000Y-67850000D03*
X142115000Y-69850000D03*
G04 #@! TD*
D24*
G04 #@! TO.C,D1*
X162749020Y-117700000D03*
X160650980Y-117700000D03*
G04 #@! TD*
D25*
G04 #@! TO.C,U4*
X137795000Y-57355000D03*
X137795000Y-54405000D03*
D26*
X139827000Y-55880000D03*
G04 #@! TD*
D13*
G04 #@! TO.C,J1*
G36*
X91091447Y-77691487D02*
X91121425Y-77695934D01*
X91150824Y-77703298D01*
X91179358Y-77713508D01*
X91206755Y-77726465D01*
X91232750Y-77742046D01*
X91257092Y-77760100D01*
X91279548Y-77780452D01*
X91299900Y-77802908D01*
X91317954Y-77827250D01*
X91333535Y-77853245D01*
X91346492Y-77880642D01*
X91356702Y-77909176D01*
X91364066Y-77938575D01*
X91368513Y-77968553D01*
X91370000Y-77998823D01*
X91370000Y-79481177D01*
X91368513Y-79511447D01*
X91364066Y-79541425D01*
X91356702Y-79570824D01*
X91346492Y-79599358D01*
X91333535Y-79626755D01*
X91317954Y-79652750D01*
X91299900Y-79677092D01*
X91279548Y-79699548D01*
X91257092Y-79719900D01*
X91232750Y-79737954D01*
X91206755Y-79753535D01*
X91179358Y-79766492D01*
X91150824Y-79776702D01*
X91121425Y-79784066D01*
X91091447Y-79788513D01*
X91061177Y-79790000D01*
X89278823Y-79790000D01*
X89248553Y-79788513D01*
X89218575Y-79784066D01*
X89189176Y-79776702D01*
X89160642Y-79766492D01*
X89133245Y-79753535D01*
X89107250Y-79737954D01*
X89082908Y-79719900D01*
X89060452Y-79699548D01*
X89040100Y-79677092D01*
X89022046Y-79652750D01*
X89006465Y-79626755D01*
X88993508Y-79599358D01*
X88983298Y-79570824D01*
X88975934Y-79541425D01*
X88971487Y-79511447D01*
X88970000Y-79481177D01*
X88970000Y-77998823D01*
X88971487Y-77968553D01*
X88975934Y-77938575D01*
X88983298Y-77909176D01*
X88993508Y-77880642D01*
X89006465Y-77853245D01*
X89022046Y-77827250D01*
X89040100Y-77802908D01*
X89060452Y-77780452D01*
X89082908Y-77760100D01*
X89107250Y-77742046D01*
X89133245Y-77726465D01*
X89160642Y-77713508D01*
X89189176Y-77703298D01*
X89218575Y-77695934D01*
X89248553Y-77691487D01*
X89278823Y-77690000D01*
X91061177Y-77690000D01*
X91091447Y-77691487D01*
X91091447Y-77691487D01*
G37*
D16*
X90170000Y-78740000D03*
D27*
X90170000Y-81240000D03*
G04 #@! TD*
D13*
G04 #@! TO.C,J2*
G36*
X91066447Y-100551487D02*
X91096425Y-100555934D01*
X91125824Y-100563298D01*
X91154358Y-100573508D01*
X91181755Y-100586465D01*
X91207750Y-100602046D01*
X91232092Y-100620100D01*
X91254548Y-100640452D01*
X91274900Y-100662908D01*
X91292954Y-100687250D01*
X91308535Y-100713245D01*
X91321492Y-100740642D01*
X91331702Y-100769176D01*
X91339066Y-100798575D01*
X91343513Y-100828553D01*
X91345000Y-100858823D01*
X91345000Y-102341177D01*
X91343513Y-102371447D01*
X91339066Y-102401425D01*
X91331702Y-102430824D01*
X91321492Y-102459358D01*
X91308535Y-102486755D01*
X91292954Y-102512750D01*
X91274900Y-102537092D01*
X91254548Y-102559548D01*
X91232092Y-102579900D01*
X91207750Y-102597954D01*
X91181755Y-102613535D01*
X91154358Y-102626492D01*
X91125824Y-102636702D01*
X91096425Y-102644066D01*
X91066447Y-102648513D01*
X91036177Y-102650000D01*
X89303823Y-102650000D01*
X89273553Y-102648513D01*
X89243575Y-102644066D01*
X89214176Y-102636702D01*
X89185642Y-102626492D01*
X89158245Y-102613535D01*
X89132250Y-102597954D01*
X89107908Y-102579900D01*
X89085452Y-102559548D01*
X89065100Y-102537092D01*
X89047046Y-102512750D01*
X89031465Y-102486755D01*
X89018508Y-102459358D01*
X89008298Y-102430824D01*
X89000934Y-102401425D01*
X88996487Y-102371447D01*
X88995000Y-102341177D01*
X88995000Y-100858823D01*
X88996487Y-100828553D01*
X89000934Y-100798575D01*
X89008298Y-100769176D01*
X89018508Y-100740642D01*
X89031465Y-100713245D01*
X89047046Y-100687250D01*
X89065100Y-100662908D01*
X89085452Y-100640452D01*
X89107908Y-100620100D01*
X89132250Y-100602046D01*
X89158245Y-100586465D01*
X89185642Y-100573508D01*
X89214176Y-100563298D01*
X89243575Y-100555934D01*
X89273553Y-100551487D01*
X89303823Y-100550000D01*
X91036177Y-100550000D01*
X91066447Y-100551487D01*
X91066447Y-100551487D01*
G37*
D16*
X90170000Y-101600000D03*
D17*
X90170000Y-104100000D03*
X90170000Y-106600000D03*
G04 #@! TD*
D13*
G04 #@! TO.C,J3*
G36*
X91091447Y-89121487D02*
X91121425Y-89125934D01*
X91150824Y-89133298D01*
X91179358Y-89143508D01*
X91206755Y-89156465D01*
X91232750Y-89172046D01*
X91257092Y-89190100D01*
X91279548Y-89210452D01*
X91299900Y-89232908D01*
X91317954Y-89257250D01*
X91333535Y-89283245D01*
X91346492Y-89310642D01*
X91356702Y-89339176D01*
X91364066Y-89368575D01*
X91368513Y-89398553D01*
X91370000Y-89428823D01*
X91370000Y-90911177D01*
X91368513Y-90941447D01*
X91364066Y-90971425D01*
X91356702Y-91000824D01*
X91346492Y-91029358D01*
X91333535Y-91056755D01*
X91317954Y-91082750D01*
X91299900Y-91107092D01*
X91279548Y-91129548D01*
X91257092Y-91149900D01*
X91232750Y-91167954D01*
X91206755Y-91183535D01*
X91179358Y-91196492D01*
X91150824Y-91206702D01*
X91121425Y-91214066D01*
X91091447Y-91218513D01*
X91061177Y-91220000D01*
X89278823Y-91220000D01*
X89248553Y-91218513D01*
X89218575Y-91214066D01*
X89189176Y-91206702D01*
X89160642Y-91196492D01*
X89133245Y-91183535D01*
X89107250Y-91167954D01*
X89082908Y-91149900D01*
X89060452Y-91129548D01*
X89040100Y-91107092D01*
X89022046Y-91082750D01*
X89006465Y-91056755D01*
X88993508Y-91029358D01*
X88983298Y-91000824D01*
X88975934Y-90971425D01*
X88971487Y-90941447D01*
X88970000Y-90911177D01*
X88970000Y-89428823D01*
X88971487Y-89398553D01*
X88975934Y-89368575D01*
X88983298Y-89339176D01*
X88993508Y-89310642D01*
X89006465Y-89283245D01*
X89022046Y-89257250D01*
X89040100Y-89232908D01*
X89060452Y-89210452D01*
X89082908Y-89190100D01*
X89107250Y-89172046D01*
X89133245Y-89156465D01*
X89160642Y-89143508D01*
X89189176Y-89133298D01*
X89218575Y-89125934D01*
X89248553Y-89121487D01*
X89278823Y-89120000D01*
X91061177Y-89120000D01*
X91091447Y-89121487D01*
X91091447Y-89121487D01*
G37*
D16*
X90170000Y-90170000D03*
D27*
X90170000Y-92670000D03*
G04 #@! TD*
D13*
G04 #@! TO.C,J4*
G36*
X169921447Y-90951487D02*
X169951425Y-90955934D01*
X169980824Y-90963298D01*
X170009358Y-90973508D01*
X170036755Y-90986465D01*
X170062750Y-91002046D01*
X170087092Y-91020100D01*
X170109548Y-91040452D01*
X170129900Y-91062908D01*
X170147954Y-91087250D01*
X170163535Y-91113245D01*
X170176492Y-91140642D01*
X170186702Y-91169176D01*
X170194066Y-91198575D01*
X170198513Y-91228553D01*
X170200000Y-91258823D01*
X170200000Y-92741177D01*
X170198513Y-92771447D01*
X170194066Y-92801425D01*
X170186702Y-92830824D01*
X170176492Y-92859358D01*
X170163535Y-92886755D01*
X170147954Y-92912750D01*
X170129900Y-92937092D01*
X170109548Y-92959548D01*
X170087092Y-92979900D01*
X170062750Y-92997954D01*
X170036755Y-93013535D01*
X170009358Y-93026492D01*
X169980824Y-93036702D01*
X169951425Y-93044066D01*
X169921447Y-93048513D01*
X169891177Y-93050000D01*
X168108823Y-93050000D01*
X168078553Y-93048513D01*
X168048575Y-93044066D01*
X168019176Y-93036702D01*
X167990642Y-93026492D01*
X167963245Y-93013535D01*
X167937250Y-92997954D01*
X167912908Y-92979900D01*
X167890452Y-92959548D01*
X167870100Y-92937092D01*
X167852046Y-92912750D01*
X167836465Y-92886755D01*
X167823508Y-92859358D01*
X167813298Y-92830824D01*
X167805934Y-92801425D01*
X167801487Y-92771447D01*
X167800000Y-92741177D01*
X167800000Y-91258823D01*
X167801487Y-91228553D01*
X167805934Y-91198575D01*
X167813298Y-91169176D01*
X167823508Y-91140642D01*
X167836465Y-91113245D01*
X167852046Y-91087250D01*
X167870100Y-91062908D01*
X167890452Y-91040452D01*
X167912908Y-91020100D01*
X167937250Y-91002046D01*
X167963245Y-90986465D01*
X167990642Y-90973508D01*
X168019176Y-90963298D01*
X168048575Y-90955934D01*
X168078553Y-90951487D01*
X168108823Y-90950000D01*
X169891177Y-90950000D01*
X169921447Y-90951487D01*
X169921447Y-90951487D01*
G37*
D16*
X169000000Y-92000000D03*
D27*
X169000000Y-89500000D03*
G04 #@! TD*
D28*
G04 #@! TO.C,Q1*
X162950000Y-88500000D03*
X161050000Y-88500000D03*
X162000000Y-91500000D03*
G04 #@! TD*
D13*
G04 #@! TO.C,R13*
G36*
X163295581Y-84326625D02*
X163328343Y-84331485D01*
X163360471Y-84339533D01*
X163391656Y-84350691D01*
X163421596Y-84364852D01*
X163450005Y-84381879D01*
X163476608Y-84401609D01*
X163501149Y-84423851D01*
X163523391Y-84448392D01*
X163543121Y-84474995D01*
X163560148Y-84503404D01*
X163574309Y-84533344D01*
X163585467Y-84564529D01*
X163593515Y-84596657D01*
X163598375Y-84629419D01*
X163600000Y-84662500D01*
X163600000Y-85337500D01*
X163598375Y-85370581D01*
X163593515Y-85403343D01*
X163585467Y-85435471D01*
X163574309Y-85466656D01*
X163560148Y-85496596D01*
X163543121Y-85525005D01*
X163523391Y-85551608D01*
X163501149Y-85576149D01*
X163476608Y-85598391D01*
X163450005Y-85618121D01*
X163421596Y-85635148D01*
X163391656Y-85649309D01*
X163360471Y-85660467D01*
X163328343Y-85668515D01*
X163295581Y-85673375D01*
X163262500Y-85675000D01*
X162487500Y-85675000D01*
X162454419Y-85673375D01*
X162421657Y-85668515D01*
X162389529Y-85660467D01*
X162358344Y-85649309D01*
X162328404Y-85635148D01*
X162299995Y-85618121D01*
X162273392Y-85598391D01*
X162248851Y-85576149D01*
X162226609Y-85551608D01*
X162206879Y-85525005D01*
X162189852Y-85496596D01*
X162175691Y-85466656D01*
X162164533Y-85435471D01*
X162156485Y-85403343D01*
X162151625Y-85370581D01*
X162150000Y-85337500D01*
X162150000Y-84662500D01*
X162151625Y-84629419D01*
X162156485Y-84596657D01*
X162164533Y-84564529D01*
X162175691Y-84533344D01*
X162189852Y-84503404D01*
X162206879Y-84474995D01*
X162226609Y-84448392D01*
X162248851Y-84423851D01*
X162273392Y-84401609D01*
X162299995Y-84381879D01*
X162328404Y-84364852D01*
X162358344Y-84350691D01*
X162389529Y-84339533D01*
X162421657Y-84331485D01*
X162454419Y-84326625D01*
X162487500Y-84325000D01*
X163262500Y-84325000D01*
X163295581Y-84326625D01*
X163295581Y-84326625D01*
G37*
D18*
X162875000Y-85000000D03*
D13*
G36*
X161545581Y-84326625D02*
X161578343Y-84331485D01*
X161610471Y-84339533D01*
X161641656Y-84350691D01*
X161671596Y-84364852D01*
X161700005Y-84381879D01*
X161726608Y-84401609D01*
X161751149Y-84423851D01*
X161773391Y-84448392D01*
X161793121Y-84474995D01*
X161810148Y-84503404D01*
X161824309Y-84533344D01*
X161835467Y-84564529D01*
X161843515Y-84596657D01*
X161848375Y-84629419D01*
X161850000Y-84662500D01*
X161850000Y-85337500D01*
X161848375Y-85370581D01*
X161843515Y-85403343D01*
X161835467Y-85435471D01*
X161824309Y-85466656D01*
X161810148Y-85496596D01*
X161793121Y-85525005D01*
X161773391Y-85551608D01*
X161751149Y-85576149D01*
X161726608Y-85598391D01*
X161700005Y-85618121D01*
X161671596Y-85635148D01*
X161641656Y-85649309D01*
X161610471Y-85660467D01*
X161578343Y-85668515D01*
X161545581Y-85673375D01*
X161512500Y-85675000D01*
X160737500Y-85675000D01*
X160704419Y-85673375D01*
X160671657Y-85668515D01*
X160639529Y-85660467D01*
X160608344Y-85649309D01*
X160578404Y-85635148D01*
X160549995Y-85618121D01*
X160523392Y-85598391D01*
X160498851Y-85576149D01*
X160476609Y-85551608D01*
X160456879Y-85525005D01*
X160439852Y-85496596D01*
X160425691Y-85466656D01*
X160414533Y-85435471D01*
X160406485Y-85403343D01*
X160401625Y-85370581D01*
X160400000Y-85337500D01*
X160400000Y-84662500D01*
X160401625Y-84629419D01*
X160406485Y-84596657D01*
X160414533Y-84564529D01*
X160425691Y-84533344D01*
X160439852Y-84503404D01*
X160456879Y-84474995D01*
X160476609Y-84448392D01*
X160498851Y-84423851D01*
X160523392Y-84401609D01*
X160549995Y-84381879D01*
X160578404Y-84364852D01*
X160608344Y-84350691D01*
X160639529Y-84339533D01*
X160671657Y-84331485D01*
X160704419Y-84326625D01*
X160737500Y-84325000D01*
X161512500Y-84325000D01*
X161545581Y-84326625D01*
X161545581Y-84326625D01*
G37*
D18*
X161125000Y-85000000D03*
G04 #@! TD*
D13*
G04 #@! TO.C,R16*
G36*
X163496071Y-81101623D02*
X163528781Y-81106475D01*
X163560857Y-81114509D01*
X163591991Y-81125649D01*
X163621884Y-81139787D01*
X163650247Y-81156787D01*
X163676807Y-81176485D01*
X163701308Y-81198692D01*
X163723515Y-81223193D01*
X163743213Y-81249753D01*
X163760213Y-81278116D01*
X163774351Y-81308009D01*
X163785491Y-81339143D01*
X163793525Y-81371219D01*
X163798377Y-81403929D01*
X163800000Y-81436956D01*
X163800000Y-82563044D01*
X163798377Y-82596071D01*
X163793525Y-82628781D01*
X163785491Y-82660857D01*
X163774351Y-82691991D01*
X163760213Y-82721884D01*
X163743213Y-82750247D01*
X163723515Y-82776807D01*
X163701308Y-82801308D01*
X163676807Y-82823515D01*
X163650247Y-82843213D01*
X163621884Y-82860213D01*
X163591991Y-82874351D01*
X163560857Y-82885491D01*
X163528781Y-82893525D01*
X163496071Y-82898377D01*
X163463044Y-82900000D01*
X162586956Y-82900000D01*
X162553929Y-82898377D01*
X162521219Y-82893525D01*
X162489143Y-82885491D01*
X162458009Y-82874351D01*
X162428116Y-82860213D01*
X162399753Y-82843213D01*
X162373193Y-82823515D01*
X162348692Y-82801308D01*
X162326485Y-82776807D01*
X162306787Y-82750247D01*
X162289787Y-82721884D01*
X162275649Y-82691991D01*
X162264509Y-82660857D01*
X162256475Y-82628781D01*
X162251623Y-82596071D01*
X162250000Y-82563044D01*
X162250000Y-81436956D01*
X162251623Y-81403929D01*
X162256475Y-81371219D01*
X162264509Y-81339143D01*
X162275649Y-81308009D01*
X162289787Y-81278116D01*
X162306787Y-81249753D01*
X162326485Y-81223193D01*
X162348692Y-81198692D01*
X162373193Y-81176485D01*
X162399753Y-81156787D01*
X162428116Y-81139787D01*
X162458009Y-81125649D01*
X162489143Y-81114509D01*
X162521219Y-81106475D01*
X162553929Y-81101623D01*
X162586956Y-81100000D01*
X163463044Y-81100000D01*
X163496071Y-81101623D01*
X163496071Y-81101623D01*
G37*
D29*
X163025000Y-82000000D03*
D13*
G36*
X161446071Y-81101623D02*
X161478781Y-81106475D01*
X161510857Y-81114509D01*
X161541991Y-81125649D01*
X161571884Y-81139787D01*
X161600247Y-81156787D01*
X161626807Y-81176485D01*
X161651308Y-81198692D01*
X161673515Y-81223193D01*
X161693213Y-81249753D01*
X161710213Y-81278116D01*
X161724351Y-81308009D01*
X161735491Y-81339143D01*
X161743525Y-81371219D01*
X161748377Y-81403929D01*
X161750000Y-81436956D01*
X161750000Y-82563044D01*
X161748377Y-82596071D01*
X161743525Y-82628781D01*
X161735491Y-82660857D01*
X161724351Y-82691991D01*
X161710213Y-82721884D01*
X161693213Y-82750247D01*
X161673515Y-82776807D01*
X161651308Y-82801308D01*
X161626807Y-82823515D01*
X161600247Y-82843213D01*
X161571884Y-82860213D01*
X161541991Y-82874351D01*
X161510857Y-82885491D01*
X161478781Y-82893525D01*
X161446071Y-82898377D01*
X161413044Y-82900000D01*
X160536956Y-82900000D01*
X160503929Y-82898377D01*
X160471219Y-82893525D01*
X160439143Y-82885491D01*
X160408009Y-82874351D01*
X160378116Y-82860213D01*
X160349753Y-82843213D01*
X160323193Y-82823515D01*
X160298692Y-82801308D01*
X160276485Y-82776807D01*
X160256787Y-82750247D01*
X160239787Y-82721884D01*
X160225649Y-82691991D01*
X160214509Y-82660857D01*
X160206475Y-82628781D01*
X160201623Y-82596071D01*
X160200000Y-82563044D01*
X160200000Y-81436956D01*
X160201623Y-81403929D01*
X160206475Y-81371219D01*
X160214509Y-81339143D01*
X160225649Y-81308009D01*
X160239787Y-81278116D01*
X160256787Y-81249753D01*
X160276485Y-81223193D01*
X160298692Y-81198692D01*
X160323193Y-81176485D01*
X160349753Y-81156787D01*
X160378116Y-81139787D01*
X160408009Y-81125649D01*
X160439143Y-81114509D01*
X160471219Y-81106475D01*
X160503929Y-81101623D01*
X160536956Y-81100000D01*
X161413044Y-81100000D01*
X161446071Y-81101623D01*
X161446071Y-81101623D01*
G37*
D29*
X160975000Y-82000000D03*
G04 #@! TD*
D13*
G04 #@! TO.C,R17*
G36*
X161421071Y-78101623D02*
X161453781Y-78106475D01*
X161485857Y-78114509D01*
X161516991Y-78125649D01*
X161546884Y-78139787D01*
X161575247Y-78156787D01*
X161601807Y-78176485D01*
X161626308Y-78198692D01*
X161648515Y-78223193D01*
X161668213Y-78249753D01*
X161685213Y-78278116D01*
X161699351Y-78308009D01*
X161710491Y-78339143D01*
X161718525Y-78371219D01*
X161723377Y-78403929D01*
X161725000Y-78436956D01*
X161725000Y-79563044D01*
X161723377Y-79596071D01*
X161718525Y-79628781D01*
X161710491Y-79660857D01*
X161699351Y-79691991D01*
X161685213Y-79721884D01*
X161668213Y-79750247D01*
X161648515Y-79776807D01*
X161626308Y-79801308D01*
X161601807Y-79823515D01*
X161575247Y-79843213D01*
X161546884Y-79860213D01*
X161516991Y-79874351D01*
X161485857Y-79885491D01*
X161453781Y-79893525D01*
X161421071Y-79898377D01*
X161388044Y-79900000D01*
X160511956Y-79900000D01*
X160478929Y-79898377D01*
X160446219Y-79893525D01*
X160414143Y-79885491D01*
X160383009Y-79874351D01*
X160353116Y-79860213D01*
X160324753Y-79843213D01*
X160298193Y-79823515D01*
X160273692Y-79801308D01*
X160251485Y-79776807D01*
X160231787Y-79750247D01*
X160214787Y-79721884D01*
X160200649Y-79691991D01*
X160189509Y-79660857D01*
X160181475Y-79628781D01*
X160176623Y-79596071D01*
X160175000Y-79563044D01*
X160175000Y-78436956D01*
X160176623Y-78403929D01*
X160181475Y-78371219D01*
X160189509Y-78339143D01*
X160200649Y-78308009D01*
X160214787Y-78278116D01*
X160231787Y-78249753D01*
X160251485Y-78223193D01*
X160273692Y-78198692D01*
X160298193Y-78176485D01*
X160324753Y-78156787D01*
X160353116Y-78139787D01*
X160383009Y-78125649D01*
X160414143Y-78114509D01*
X160446219Y-78106475D01*
X160478929Y-78101623D01*
X160511956Y-78100000D01*
X161388044Y-78100000D01*
X161421071Y-78101623D01*
X161421071Y-78101623D01*
G37*
D29*
X160950000Y-79000000D03*
D13*
G36*
X163471071Y-78101623D02*
X163503781Y-78106475D01*
X163535857Y-78114509D01*
X163566991Y-78125649D01*
X163596884Y-78139787D01*
X163625247Y-78156787D01*
X163651807Y-78176485D01*
X163676308Y-78198692D01*
X163698515Y-78223193D01*
X163718213Y-78249753D01*
X163735213Y-78278116D01*
X163749351Y-78308009D01*
X163760491Y-78339143D01*
X163768525Y-78371219D01*
X163773377Y-78403929D01*
X163775000Y-78436956D01*
X163775000Y-79563044D01*
X163773377Y-79596071D01*
X163768525Y-79628781D01*
X163760491Y-79660857D01*
X163749351Y-79691991D01*
X163735213Y-79721884D01*
X163718213Y-79750247D01*
X163698515Y-79776807D01*
X163676308Y-79801308D01*
X163651807Y-79823515D01*
X163625247Y-79843213D01*
X163596884Y-79860213D01*
X163566991Y-79874351D01*
X163535857Y-79885491D01*
X163503781Y-79893525D01*
X163471071Y-79898377D01*
X163438044Y-79900000D01*
X162561956Y-79900000D01*
X162528929Y-79898377D01*
X162496219Y-79893525D01*
X162464143Y-79885491D01*
X162433009Y-79874351D01*
X162403116Y-79860213D01*
X162374753Y-79843213D01*
X162348193Y-79823515D01*
X162323692Y-79801308D01*
X162301485Y-79776807D01*
X162281787Y-79750247D01*
X162264787Y-79721884D01*
X162250649Y-79691991D01*
X162239509Y-79660857D01*
X162231475Y-79628781D01*
X162226623Y-79596071D01*
X162225000Y-79563044D01*
X162225000Y-78436956D01*
X162226623Y-78403929D01*
X162231475Y-78371219D01*
X162239509Y-78339143D01*
X162250649Y-78308009D01*
X162264787Y-78278116D01*
X162281787Y-78249753D01*
X162301485Y-78223193D01*
X162323692Y-78198692D01*
X162348193Y-78176485D01*
X162374753Y-78156787D01*
X162403116Y-78139787D01*
X162433009Y-78125649D01*
X162464143Y-78114509D01*
X162496219Y-78106475D01*
X162528929Y-78101623D01*
X162561956Y-78100000D01*
X163438044Y-78100000D01*
X163471071Y-78101623D01*
X163471071Y-78101623D01*
G37*
D29*
X163000000Y-79000000D03*
G04 #@! TD*
D13*
G04 #@! TO.C,R18*
G36*
X161446071Y-75101623D02*
X161478781Y-75106475D01*
X161510857Y-75114509D01*
X161541991Y-75125649D01*
X161571884Y-75139787D01*
X161600247Y-75156787D01*
X161626807Y-75176485D01*
X161651308Y-75198692D01*
X161673515Y-75223193D01*
X161693213Y-75249753D01*
X161710213Y-75278116D01*
X161724351Y-75308009D01*
X161735491Y-75339143D01*
X161743525Y-75371219D01*
X161748377Y-75403929D01*
X161750000Y-75436956D01*
X161750000Y-76563044D01*
X161748377Y-76596071D01*
X161743525Y-76628781D01*
X161735491Y-76660857D01*
X161724351Y-76691991D01*
X161710213Y-76721884D01*
X161693213Y-76750247D01*
X161673515Y-76776807D01*
X161651308Y-76801308D01*
X161626807Y-76823515D01*
X161600247Y-76843213D01*
X161571884Y-76860213D01*
X161541991Y-76874351D01*
X161510857Y-76885491D01*
X161478781Y-76893525D01*
X161446071Y-76898377D01*
X161413044Y-76900000D01*
X160536956Y-76900000D01*
X160503929Y-76898377D01*
X160471219Y-76893525D01*
X160439143Y-76885491D01*
X160408009Y-76874351D01*
X160378116Y-76860213D01*
X160349753Y-76843213D01*
X160323193Y-76823515D01*
X160298692Y-76801308D01*
X160276485Y-76776807D01*
X160256787Y-76750247D01*
X160239787Y-76721884D01*
X160225649Y-76691991D01*
X160214509Y-76660857D01*
X160206475Y-76628781D01*
X160201623Y-76596071D01*
X160200000Y-76563044D01*
X160200000Y-75436956D01*
X160201623Y-75403929D01*
X160206475Y-75371219D01*
X160214509Y-75339143D01*
X160225649Y-75308009D01*
X160239787Y-75278116D01*
X160256787Y-75249753D01*
X160276485Y-75223193D01*
X160298692Y-75198692D01*
X160323193Y-75176485D01*
X160349753Y-75156787D01*
X160378116Y-75139787D01*
X160408009Y-75125649D01*
X160439143Y-75114509D01*
X160471219Y-75106475D01*
X160503929Y-75101623D01*
X160536956Y-75100000D01*
X161413044Y-75100000D01*
X161446071Y-75101623D01*
X161446071Y-75101623D01*
G37*
D29*
X160975000Y-76000000D03*
D13*
G36*
X163496071Y-75101623D02*
X163528781Y-75106475D01*
X163560857Y-75114509D01*
X163591991Y-75125649D01*
X163621884Y-75139787D01*
X163650247Y-75156787D01*
X163676807Y-75176485D01*
X163701308Y-75198692D01*
X163723515Y-75223193D01*
X163743213Y-75249753D01*
X163760213Y-75278116D01*
X163774351Y-75308009D01*
X163785491Y-75339143D01*
X163793525Y-75371219D01*
X163798377Y-75403929D01*
X163800000Y-75436956D01*
X163800000Y-76563044D01*
X163798377Y-76596071D01*
X163793525Y-76628781D01*
X163785491Y-76660857D01*
X163774351Y-76691991D01*
X163760213Y-76721884D01*
X163743213Y-76750247D01*
X163723515Y-76776807D01*
X163701308Y-76801308D01*
X163676807Y-76823515D01*
X163650247Y-76843213D01*
X163621884Y-76860213D01*
X163591991Y-76874351D01*
X163560857Y-76885491D01*
X163528781Y-76893525D01*
X163496071Y-76898377D01*
X163463044Y-76900000D01*
X162586956Y-76900000D01*
X162553929Y-76898377D01*
X162521219Y-76893525D01*
X162489143Y-76885491D01*
X162458009Y-76874351D01*
X162428116Y-76860213D01*
X162399753Y-76843213D01*
X162373193Y-76823515D01*
X162348692Y-76801308D01*
X162326485Y-76776807D01*
X162306787Y-76750247D01*
X162289787Y-76721884D01*
X162275649Y-76691991D01*
X162264509Y-76660857D01*
X162256475Y-76628781D01*
X162251623Y-76596071D01*
X162250000Y-76563044D01*
X162250000Y-75436956D01*
X162251623Y-75403929D01*
X162256475Y-75371219D01*
X162264509Y-75339143D01*
X162275649Y-75308009D01*
X162289787Y-75278116D01*
X162306787Y-75249753D01*
X162326485Y-75223193D01*
X162348692Y-75198692D01*
X162373193Y-75176485D01*
X162399753Y-75156787D01*
X162428116Y-75139787D01*
X162458009Y-75125649D01*
X162489143Y-75114509D01*
X162521219Y-75106475D01*
X162553929Y-75101623D01*
X162586956Y-75100000D01*
X163463044Y-75100000D01*
X163496071Y-75101623D01*
X163496071Y-75101623D01*
G37*
D29*
X163025000Y-76000000D03*
G04 #@! TD*
D27*
G04 #@! TO.C,TH1*
X90170000Y-69810000D03*
D13*
G36*
X91091447Y-66261487D02*
X91121425Y-66265934D01*
X91150824Y-66273298D01*
X91179358Y-66283508D01*
X91206755Y-66296465D01*
X91232750Y-66312046D01*
X91257092Y-66330100D01*
X91279548Y-66350452D01*
X91299900Y-66372908D01*
X91317954Y-66397250D01*
X91333535Y-66423245D01*
X91346492Y-66450642D01*
X91356702Y-66479176D01*
X91364066Y-66508575D01*
X91368513Y-66538553D01*
X91370000Y-66568823D01*
X91370000Y-68051177D01*
X91368513Y-68081447D01*
X91364066Y-68111425D01*
X91356702Y-68140824D01*
X91346492Y-68169358D01*
X91333535Y-68196755D01*
X91317954Y-68222750D01*
X91299900Y-68247092D01*
X91279548Y-68269548D01*
X91257092Y-68289900D01*
X91232750Y-68307954D01*
X91206755Y-68323535D01*
X91179358Y-68336492D01*
X91150824Y-68346702D01*
X91121425Y-68354066D01*
X91091447Y-68358513D01*
X91061177Y-68360000D01*
X89278823Y-68360000D01*
X89248553Y-68358513D01*
X89218575Y-68354066D01*
X89189176Y-68346702D01*
X89160642Y-68336492D01*
X89133245Y-68323535D01*
X89107250Y-68307954D01*
X89082908Y-68289900D01*
X89060452Y-68269548D01*
X89040100Y-68247092D01*
X89022046Y-68222750D01*
X89006465Y-68196755D01*
X88993508Y-68169358D01*
X88983298Y-68140824D01*
X88975934Y-68111425D01*
X88971487Y-68081447D01*
X88970000Y-68051177D01*
X88970000Y-66568823D01*
X88971487Y-66538553D01*
X88975934Y-66508575D01*
X88983298Y-66479176D01*
X88993508Y-66450642D01*
X89006465Y-66423245D01*
X89022046Y-66397250D01*
X89040100Y-66372908D01*
X89060452Y-66350452D01*
X89082908Y-66330100D01*
X89107250Y-66312046D01*
X89133245Y-66296465D01*
X89160642Y-66283508D01*
X89189176Y-66273298D01*
X89218575Y-66265934D01*
X89248553Y-66261487D01*
X89278823Y-66260000D01*
X91061177Y-66260000D01*
X91091447Y-66261487D01*
X91091447Y-66261487D01*
G37*
D16*
X90170000Y-67310000D03*
G04 #@! TD*
D13*
G04 #@! TO.C,R1*
G36*
X163196071Y-113501623D02*
X163228781Y-113506475D01*
X163260857Y-113514509D01*
X163291991Y-113525649D01*
X163321884Y-113539787D01*
X163350247Y-113556787D01*
X163376807Y-113576485D01*
X163401308Y-113598692D01*
X163423515Y-113623193D01*
X163443213Y-113649753D01*
X163460213Y-113678116D01*
X163474351Y-113708009D01*
X163485491Y-113739143D01*
X163493525Y-113771219D01*
X163498377Y-113803929D01*
X163500000Y-113836956D01*
X163500000Y-114963044D01*
X163498377Y-114996071D01*
X163493525Y-115028781D01*
X163485491Y-115060857D01*
X163474351Y-115091991D01*
X163460213Y-115121884D01*
X163443213Y-115150247D01*
X163423515Y-115176807D01*
X163401308Y-115201308D01*
X163376807Y-115223515D01*
X163350247Y-115243213D01*
X163321884Y-115260213D01*
X163291991Y-115274351D01*
X163260857Y-115285491D01*
X163228781Y-115293525D01*
X163196071Y-115298377D01*
X163163044Y-115300000D01*
X162286956Y-115300000D01*
X162253929Y-115298377D01*
X162221219Y-115293525D01*
X162189143Y-115285491D01*
X162158009Y-115274351D01*
X162128116Y-115260213D01*
X162099753Y-115243213D01*
X162073193Y-115223515D01*
X162048692Y-115201308D01*
X162026485Y-115176807D01*
X162006787Y-115150247D01*
X161989787Y-115121884D01*
X161975649Y-115091991D01*
X161964509Y-115060857D01*
X161956475Y-115028781D01*
X161951623Y-114996071D01*
X161950000Y-114963044D01*
X161950000Y-113836956D01*
X161951623Y-113803929D01*
X161956475Y-113771219D01*
X161964509Y-113739143D01*
X161975649Y-113708009D01*
X161989787Y-113678116D01*
X162006787Y-113649753D01*
X162026485Y-113623193D01*
X162048692Y-113598692D01*
X162073193Y-113576485D01*
X162099753Y-113556787D01*
X162128116Y-113539787D01*
X162158009Y-113525649D01*
X162189143Y-113514509D01*
X162221219Y-113506475D01*
X162253929Y-113501623D01*
X162286956Y-113500000D01*
X163163044Y-113500000D01*
X163196071Y-113501623D01*
X163196071Y-113501623D01*
G37*
D29*
X162725000Y-114400000D03*
D13*
G36*
X161146071Y-113501623D02*
X161178781Y-113506475D01*
X161210857Y-113514509D01*
X161241991Y-113525649D01*
X161271884Y-113539787D01*
X161300247Y-113556787D01*
X161326807Y-113576485D01*
X161351308Y-113598692D01*
X161373515Y-113623193D01*
X161393213Y-113649753D01*
X161410213Y-113678116D01*
X161424351Y-113708009D01*
X161435491Y-113739143D01*
X161443525Y-113771219D01*
X161448377Y-113803929D01*
X161450000Y-113836956D01*
X161450000Y-114963044D01*
X161448377Y-114996071D01*
X161443525Y-115028781D01*
X161435491Y-115060857D01*
X161424351Y-115091991D01*
X161410213Y-115121884D01*
X161393213Y-115150247D01*
X161373515Y-115176807D01*
X161351308Y-115201308D01*
X161326807Y-115223515D01*
X161300247Y-115243213D01*
X161271884Y-115260213D01*
X161241991Y-115274351D01*
X161210857Y-115285491D01*
X161178781Y-115293525D01*
X161146071Y-115298377D01*
X161113044Y-115300000D01*
X160236956Y-115300000D01*
X160203929Y-115298377D01*
X160171219Y-115293525D01*
X160139143Y-115285491D01*
X160108009Y-115274351D01*
X160078116Y-115260213D01*
X160049753Y-115243213D01*
X160023193Y-115223515D01*
X159998692Y-115201308D01*
X159976485Y-115176807D01*
X159956787Y-115150247D01*
X159939787Y-115121884D01*
X159925649Y-115091991D01*
X159914509Y-115060857D01*
X159906475Y-115028781D01*
X159901623Y-114996071D01*
X159900000Y-114963044D01*
X159900000Y-113836956D01*
X159901623Y-113803929D01*
X159906475Y-113771219D01*
X159914509Y-113739143D01*
X159925649Y-113708009D01*
X159939787Y-113678116D01*
X159956787Y-113649753D01*
X159976485Y-113623193D01*
X159998692Y-113598692D01*
X160023193Y-113576485D01*
X160049753Y-113556787D01*
X160078116Y-113539787D01*
X160108009Y-113525649D01*
X160139143Y-113514509D01*
X160171219Y-113506475D01*
X160203929Y-113501623D01*
X160236956Y-113500000D01*
X161113044Y-113500000D01*
X161146071Y-113501623D01*
X161146071Y-113501623D01*
G37*
D29*
X160675000Y-114400000D03*
G04 #@! TD*
D13*
G04 #@! TO.C,R5*
G36*
X108161447Y-55831487D02*
X108191425Y-55835934D01*
X108220824Y-55843298D01*
X108249358Y-55853508D01*
X108276755Y-55866465D01*
X108302750Y-55882046D01*
X108327092Y-55900100D01*
X108349548Y-55920452D01*
X108369900Y-55942908D01*
X108387954Y-55967250D01*
X108403535Y-55993245D01*
X108416492Y-56020642D01*
X108426702Y-56049176D01*
X108434066Y-56078575D01*
X108438513Y-56108553D01*
X108440000Y-56138823D01*
X108440000Y-57921177D01*
X108438513Y-57951447D01*
X108434066Y-57981425D01*
X108426702Y-58010824D01*
X108416492Y-58039358D01*
X108403535Y-58066755D01*
X108387954Y-58092750D01*
X108369900Y-58117092D01*
X108349548Y-58139548D01*
X108327092Y-58159900D01*
X108302750Y-58177954D01*
X108276755Y-58193535D01*
X108249358Y-58206492D01*
X108220824Y-58216702D01*
X108191425Y-58224066D01*
X108161447Y-58228513D01*
X108131177Y-58230000D01*
X106648823Y-58230000D01*
X106618553Y-58228513D01*
X106588575Y-58224066D01*
X106559176Y-58216702D01*
X106530642Y-58206492D01*
X106503245Y-58193535D01*
X106477250Y-58177954D01*
X106452908Y-58159900D01*
X106430452Y-58139548D01*
X106410100Y-58117092D01*
X106392046Y-58092750D01*
X106376465Y-58066755D01*
X106363508Y-58039358D01*
X106353298Y-58010824D01*
X106345934Y-57981425D01*
X106341487Y-57951447D01*
X106340000Y-57921177D01*
X106340000Y-56138823D01*
X106341487Y-56108553D01*
X106345934Y-56078575D01*
X106353298Y-56049176D01*
X106363508Y-56020642D01*
X106376465Y-55993245D01*
X106392046Y-55967250D01*
X106410100Y-55942908D01*
X106430452Y-55920452D01*
X106452908Y-55900100D01*
X106477250Y-55882046D01*
X106503245Y-55866465D01*
X106530642Y-55853508D01*
X106559176Y-55843298D01*
X106588575Y-55835934D01*
X106618553Y-55831487D01*
X106648823Y-55830000D01*
X108131177Y-55830000D01*
X108161447Y-55831487D01*
X108161447Y-55831487D01*
G37*
D16*
X107390000Y-57030000D03*
D30*
X109890000Y-57030000D03*
G04 #@! TD*
D31*
G04 #@! TO.C,H1*
X90000000Y-57500000D03*
G04 #@! TD*
G04 #@! TO.C,H2*
X90000000Y-117500000D03*
G04 #@! TD*
G04 #@! TO.C,H3*
X170000000Y-57500000D03*
G04 #@! TD*
G04 #@! TO.C,H4*
X170000000Y-117500000D03*
G04 #@! TD*
D13*
G04 #@! TO.C,C1*
G36*
X155246071Y-73301623D02*
X155278781Y-73306475D01*
X155310857Y-73314509D01*
X155341991Y-73325649D01*
X155371884Y-73339787D01*
X155400247Y-73356787D01*
X155426807Y-73376485D01*
X155451308Y-73398692D01*
X155473515Y-73423193D01*
X155493213Y-73449753D01*
X155510213Y-73478116D01*
X155524351Y-73508009D01*
X155535491Y-73539143D01*
X155543525Y-73571219D01*
X155548377Y-73603929D01*
X155550000Y-73636956D01*
X155550000Y-74763044D01*
X155548377Y-74796071D01*
X155543525Y-74828781D01*
X155535491Y-74860857D01*
X155524351Y-74891991D01*
X155510213Y-74921884D01*
X155493213Y-74950247D01*
X155473515Y-74976807D01*
X155451308Y-75001308D01*
X155426807Y-75023515D01*
X155400247Y-75043213D01*
X155371884Y-75060213D01*
X155341991Y-75074351D01*
X155310857Y-75085491D01*
X155278781Y-75093525D01*
X155246071Y-75098377D01*
X155213044Y-75100000D01*
X154336956Y-75100000D01*
X154303929Y-75098377D01*
X154271219Y-75093525D01*
X154239143Y-75085491D01*
X154208009Y-75074351D01*
X154178116Y-75060213D01*
X154149753Y-75043213D01*
X154123193Y-75023515D01*
X154098692Y-75001308D01*
X154076485Y-74976807D01*
X154056787Y-74950247D01*
X154039787Y-74921884D01*
X154025649Y-74891991D01*
X154014509Y-74860857D01*
X154006475Y-74828781D01*
X154001623Y-74796071D01*
X154000000Y-74763044D01*
X154000000Y-73636956D01*
X154001623Y-73603929D01*
X154006475Y-73571219D01*
X154014509Y-73539143D01*
X154025649Y-73508009D01*
X154039787Y-73478116D01*
X154056787Y-73449753D01*
X154076485Y-73423193D01*
X154098692Y-73398692D01*
X154123193Y-73376485D01*
X154149753Y-73356787D01*
X154178116Y-73339787D01*
X154208009Y-73325649D01*
X154239143Y-73314509D01*
X154271219Y-73306475D01*
X154303929Y-73301623D01*
X154336956Y-73300000D01*
X155213044Y-73300000D01*
X155246071Y-73301623D01*
X155246071Y-73301623D01*
G37*
D29*
X154775000Y-74200000D03*
D13*
G36*
X157296071Y-73301623D02*
X157328781Y-73306475D01*
X157360857Y-73314509D01*
X157391991Y-73325649D01*
X157421884Y-73339787D01*
X157450247Y-73356787D01*
X157476807Y-73376485D01*
X157501308Y-73398692D01*
X157523515Y-73423193D01*
X157543213Y-73449753D01*
X157560213Y-73478116D01*
X157574351Y-73508009D01*
X157585491Y-73539143D01*
X157593525Y-73571219D01*
X157598377Y-73603929D01*
X157600000Y-73636956D01*
X157600000Y-74763044D01*
X157598377Y-74796071D01*
X157593525Y-74828781D01*
X157585491Y-74860857D01*
X157574351Y-74891991D01*
X157560213Y-74921884D01*
X157543213Y-74950247D01*
X157523515Y-74976807D01*
X157501308Y-75001308D01*
X157476807Y-75023515D01*
X157450247Y-75043213D01*
X157421884Y-75060213D01*
X157391991Y-75074351D01*
X157360857Y-75085491D01*
X157328781Y-75093525D01*
X157296071Y-75098377D01*
X157263044Y-75100000D01*
X156386956Y-75100000D01*
X156353929Y-75098377D01*
X156321219Y-75093525D01*
X156289143Y-75085491D01*
X156258009Y-75074351D01*
X156228116Y-75060213D01*
X156199753Y-75043213D01*
X156173193Y-75023515D01*
X156148692Y-75001308D01*
X156126485Y-74976807D01*
X156106787Y-74950247D01*
X156089787Y-74921884D01*
X156075649Y-74891991D01*
X156064509Y-74860857D01*
X156056475Y-74828781D01*
X156051623Y-74796071D01*
X156050000Y-74763044D01*
X156050000Y-73636956D01*
X156051623Y-73603929D01*
X156056475Y-73571219D01*
X156064509Y-73539143D01*
X156075649Y-73508009D01*
X156089787Y-73478116D01*
X156106787Y-73449753D01*
X156126485Y-73423193D01*
X156148692Y-73398692D01*
X156173193Y-73376485D01*
X156199753Y-73356787D01*
X156228116Y-73339787D01*
X156258009Y-73325649D01*
X156289143Y-73314509D01*
X156321219Y-73306475D01*
X156353929Y-73301623D01*
X156386956Y-73300000D01*
X157263044Y-73300000D01*
X157296071Y-73301623D01*
X157296071Y-73301623D01*
G37*
D29*
X156825000Y-74200000D03*
G04 #@! TD*
D13*
G04 #@! TO.C,C2*
G36*
X143210071Y-82159623D02*
X143242781Y-82164475D01*
X143274857Y-82172509D01*
X143305991Y-82183649D01*
X143335884Y-82197787D01*
X143364247Y-82214787D01*
X143390807Y-82234485D01*
X143415308Y-82256692D01*
X143437515Y-82281193D01*
X143457213Y-82307753D01*
X143474213Y-82336116D01*
X143488351Y-82366009D01*
X143499491Y-82397143D01*
X143507525Y-82429219D01*
X143512377Y-82461929D01*
X143514000Y-82494956D01*
X143514000Y-83621044D01*
X143512377Y-83654071D01*
X143507525Y-83686781D01*
X143499491Y-83718857D01*
X143488351Y-83749991D01*
X143474213Y-83779884D01*
X143457213Y-83808247D01*
X143437515Y-83834807D01*
X143415308Y-83859308D01*
X143390807Y-83881515D01*
X143364247Y-83901213D01*
X143335884Y-83918213D01*
X143305991Y-83932351D01*
X143274857Y-83943491D01*
X143242781Y-83951525D01*
X143210071Y-83956377D01*
X143177044Y-83958000D01*
X142300956Y-83958000D01*
X142267929Y-83956377D01*
X142235219Y-83951525D01*
X142203143Y-83943491D01*
X142172009Y-83932351D01*
X142142116Y-83918213D01*
X142113753Y-83901213D01*
X142087193Y-83881515D01*
X142062692Y-83859308D01*
X142040485Y-83834807D01*
X142020787Y-83808247D01*
X142003787Y-83779884D01*
X141989649Y-83749991D01*
X141978509Y-83718857D01*
X141970475Y-83686781D01*
X141965623Y-83654071D01*
X141964000Y-83621044D01*
X141964000Y-82494956D01*
X141965623Y-82461929D01*
X141970475Y-82429219D01*
X141978509Y-82397143D01*
X141989649Y-82366009D01*
X142003787Y-82336116D01*
X142020787Y-82307753D01*
X142040485Y-82281193D01*
X142062692Y-82256692D01*
X142087193Y-82234485D01*
X142113753Y-82214787D01*
X142142116Y-82197787D01*
X142172009Y-82183649D01*
X142203143Y-82172509D01*
X142235219Y-82164475D01*
X142267929Y-82159623D01*
X142300956Y-82158000D01*
X143177044Y-82158000D01*
X143210071Y-82159623D01*
X143210071Y-82159623D01*
G37*
D29*
X142739000Y-83058000D03*
D13*
G36*
X145260071Y-82159623D02*
X145292781Y-82164475D01*
X145324857Y-82172509D01*
X145355991Y-82183649D01*
X145385884Y-82197787D01*
X145414247Y-82214787D01*
X145440807Y-82234485D01*
X145465308Y-82256692D01*
X145487515Y-82281193D01*
X145507213Y-82307753D01*
X145524213Y-82336116D01*
X145538351Y-82366009D01*
X145549491Y-82397143D01*
X145557525Y-82429219D01*
X145562377Y-82461929D01*
X145564000Y-82494956D01*
X145564000Y-83621044D01*
X145562377Y-83654071D01*
X145557525Y-83686781D01*
X145549491Y-83718857D01*
X145538351Y-83749991D01*
X145524213Y-83779884D01*
X145507213Y-83808247D01*
X145487515Y-83834807D01*
X145465308Y-83859308D01*
X145440807Y-83881515D01*
X145414247Y-83901213D01*
X145385884Y-83918213D01*
X145355991Y-83932351D01*
X145324857Y-83943491D01*
X145292781Y-83951525D01*
X145260071Y-83956377D01*
X145227044Y-83958000D01*
X144350956Y-83958000D01*
X144317929Y-83956377D01*
X144285219Y-83951525D01*
X144253143Y-83943491D01*
X144222009Y-83932351D01*
X144192116Y-83918213D01*
X144163753Y-83901213D01*
X144137193Y-83881515D01*
X144112692Y-83859308D01*
X144090485Y-83834807D01*
X144070787Y-83808247D01*
X144053787Y-83779884D01*
X144039649Y-83749991D01*
X144028509Y-83718857D01*
X144020475Y-83686781D01*
X144015623Y-83654071D01*
X144014000Y-83621044D01*
X144014000Y-82494956D01*
X144015623Y-82461929D01*
X144020475Y-82429219D01*
X144028509Y-82397143D01*
X144039649Y-82366009D01*
X144053787Y-82336116D01*
X144070787Y-82307753D01*
X144090485Y-82281193D01*
X144112692Y-82256692D01*
X144137193Y-82234485D01*
X144163753Y-82214787D01*
X144192116Y-82197787D01*
X144222009Y-82183649D01*
X144253143Y-82172509D01*
X144285219Y-82164475D01*
X144317929Y-82159623D01*
X144350956Y-82158000D01*
X145227044Y-82158000D01*
X145260071Y-82159623D01*
X145260071Y-82159623D01*
G37*
D29*
X144789000Y-83058000D03*
G04 #@! TD*
D13*
G04 #@! TO.C,C3*
G36*
X151696071Y-84776623D02*
X151728781Y-84781475D01*
X151760857Y-84789509D01*
X151791991Y-84800649D01*
X151821884Y-84814787D01*
X151850247Y-84831787D01*
X151876807Y-84851485D01*
X151901308Y-84873692D01*
X151923515Y-84898193D01*
X151943213Y-84924753D01*
X151960213Y-84953116D01*
X151974351Y-84983009D01*
X151985491Y-85014143D01*
X151993525Y-85046219D01*
X151998377Y-85078929D01*
X152000000Y-85111956D01*
X152000000Y-85988044D01*
X151998377Y-86021071D01*
X151993525Y-86053781D01*
X151985491Y-86085857D01*
X151974351Y-86116991D01*
X151960213Y-86146884D01*
X151943213Y-86175247D01*
X151923515Y-86201807D01*
X151901308Y-86226308D01*
X151876807Y-86248515D01*
X151850247Y-86268213D01*
X151821884Y-86285213D01*
X151791991Y-86299351D01*
X151760857Y-86310491D01*
X151728781Y-86318525D01*
X151696071Y-86323377D01*
X151663044Y-86325000D01*
X150536956Y-86325000D01*
X150503929Y-86323377D01*
X150471219Y-86318525D01*
X150439143Y-86310491D01*
X150408009Y-86299351D01*
X150378116Y-86285213D01*
X150349753Y-86268213D01*
X150323193Y-86248515D01*
X150298692Y-86226308D01*
X150276485Y-86201807D01*
X150256787Y-86175247D01*
X150239787Y-86146884D01*
X150225649Y-86116991D01*
X150214509Y-86085857D01*
X150206475Y-86053781D01*
X150201623Y-86021071D01*
X150200000Y-85988044D01*
X150200000Y-85111956D01*
X150201623Y-85078929D01*
X150206475Y-85046219D01*
X150214509Y-85014143D01*
X150225649Y-84983009D01*
X150239787Y-84953116D01*
X150256787Y-84924753D01*
X150276485Y-84898193D01*
X150298692Y-84873692D01*
X150323193Y-84851485D01*
X150349753Y-84831787D01*
X150378116Y-84814787D01*
X150408009Y-84800649D01*
X150439143Y-84789509D01*
X150471219Y-84781475D01*
X150503929Y-84776623D01*
X150536956Y-84775000D01*
X151663044Y-84775000D01*
X151696071Y-84776623D01*
X151696071Y-84776623D01*
G37*
D29*
X151100000Y-85550000D03*
D13*
G36*
X151696071Y-86826623D02*
X151728781Y-86831475D01*
X151760857Y-86839509D01*
X151791991Y-86850649D01*
X151821884Y-86864787D01*
X151850247Y-86881787D01*
X151876807Y-86901485D01*
X151901308Y-86923692D01*
X151923515Y-86948193D01*
X151943213Y-86974753D01*
X151960213Y-87003116D01*
X151974351Y-87033009D01*
X151985491Y-87064143D01*
X151993525Y-87096219D01*
X151998377Y-87128929D01*
X152000000Y-87161956D01*
X152000000Y-88038044D01*
X151998377Y-88071071D01*
X151993525Y-88103781D01*
X151985491Y-88135857D01*
X151974351Y-88166991D01*
X151960213Y-88196884D01*
X151943213Y-88225247D01*
X151923515Y-88251807D01*
X151901308Y-88276308D01*
X151876807Y-88298515D01*
X151850247Y-88318213D01*
X151821884Y-88335213D01*
X151791991Y-88349351D01*
X151760857Y-88360491D01*
X151728781Y-88368525D01*
X151696071Y-88373377D01*
X151663044Y-88375000D01*
X150536956Y-88375000D01*
X150503929Y-88373377D01*
X150471219Y-88368525D01*
X150439143Y-88360491D01*
X150408009Y-88349351D01*
X150378116Y-88335213D01*
X150349753Y-88318213D01*
X150323193Y-88298515D01*
X150298692Y-88276308D01*
X150276485Y-88251807D01*
X150256787Y-88225247D01*
X150239787Y-88196884D01*
X150225649Y-88166991D01*
X150214509Y-88135857D01*
X150206475Y-88103781D01*
X150201623Y-88071071D01*
X150200000Y-88038044D01*
X150200000Y-87161956D01*
X150201623Y-87128929D01*
X150206475Y-87096219D01*
X150214509Y-87064143D01*
X150225649Y-87033009D01*
X150239787Y-87003116D01*
X150256787Y-86974753D01*
X150276485Y-86948193D01*
X150298692Y-86923692D01*
X150323193Y-86901485D01*
X150349753Y-86881787D01*
X150378116Y-86864787D01*
X150408009Y-86850649D01*
X150439143Y-86839509D01*
X150471219Y-86831475D01*
X150503929Y-86826623D01*
X150536956Y-86825000D01*
X151663044Y-86825000D01*
X151696071Y-86826623D01*
X151696071Y-86826623D01*
G37*
D29*
X151100000Y-87600000D03*
G04 #@! TD*
D13*
G04 #@! TO.C,C4*
G36*
X122446071Y-80601623D02*
X122478781Y-80606475D01*
X122510857Y-80614509D01*
X122541991Y-80625649D01*
X122571884Y-80639787D01*
X122600247Y-80656787D01*
X122626807Y-80676485D01*
X122651308Y-80698692D01*
X122673515Y-80723193D01*
X122693213Y-80749753D01*
X122710213Y-80778116D01*
X122724351Y-80808009D01*
X122735491Y-80839143D01*
X122743525Y-80871219D01*
X122748377Y-80903929D01*
X122750000Y-80936956D01*
X122750000Y-82063044D01*
X122748377Y-82096071D01*
X122743525Y-82128781D01*
X122735491Y-82160857D01*
X122724351Y-82191991D01*
X122710213Y-82221884D01*
X122693213Y-82250247D01*
X122673515Y-82276807D01*
X122651308Y-82301308D01*
X122626807Y-82323515D01*
X122600247Y-82343213D01*
X122571884Y-82360213D01*
X122541991Y-82374351D01*
X122510857Y-82385491D01*
X122478781Y-82393525D01*
X122446071Y-82398377D01*
X122413044Y-82400000D01*
X121536956Y-82400000D01*
X121503929Y-82398377D01*
X121471219Y-82393525D01*
X121439143Y-82385491D01*
X121408009Y-82374351D01*
X121378116Y-82360213D01*
X121349753Y-82343213D01*
X121323193Y-82323515D01*
X121298692Y-82301308D01*
X121276485Y-82276807D01*
X121256787Y-82250247D01*
X121239787Y-82221884D01*
X121225649Y-82191991D01*
X121214509Y-82160857D01*
X121206475Y-82128781D01*
X121201623Y-82096071D01*
X121200000Y-82063044D01*
X121200000Y-80936956D01*
X121201623Y-80903929D01*
X121206475Y-80871219D01*
X121214509Y-80839143D01*
X121225649Y-80808009D01*
X121239787Y-80778116D01*
X121256787Y-80749753D01*
X121276485Y-80723193D01*
X121298692Y-80698692D01*
X121323193Y-80676485D01*
X121349753Y-80656787D01*
X121378116Y-80639787D01*
X121408009Y-80625649D01*
X121439143Y-80614509D01*
X121471219Y-80606475D01*
X121503929Y-80601623D01*
X121536956Y-80600000D01*
X122413044Y-80600000D01*
X122446071Y-80601623D01*
X122446071Y-80601623D01*
G37*
D29*
X121975000Y-81500000D03*
D13*
G36*
X124496071Y-80601623D02*
X124528781Y-80606475D01*
X124560857Y-80614509D01*
X124591991Y-80625649D01*
X124621884Y-80639787D01*
X124650247Y-80656787D01*
X124676807Y-80676485D01*
X124701308Y-80698692D01*
X124723515Y-80723193D01*
X124743213Y-80749753D01*
X124760213Y-80778116D01*
X124774351Y-80808009D01*
X124785491Y-80839143D01*
X124793525Y-80871219D01*
X124798377Y-80903929D01*
X124800000Y-80936956D01*
X124800000Y-82063044D01*
X124798377Y-82096071D01*
X124793525Y-82128781D01*
X124785491Y-82160857D01*
X124774351Y-82191991D01*
X124760213Y-82221884D01*
X124743213Y-82250247D01*
X124723515Y-82276807D01*
X124701308Y-82301308D01*
X124676807Y-82323515D01*
X124650247Y-82343213D01*
X124621884Y-82360213D01*
X124591991Y-82374351D01*
X124560857Y-82385491D01*
X124528781Y-82393525D01*
X124496071Y-82398377D01*
X124463044Y-82400000D01*
X123586956Y-82400000D01*
X123553929Y-82398377D01*
X123521219Y-82393525D01*
X123489143Y-82385491D01*
X123458009Y-82374351D01*
X123428116Y-82360213D01*
X123399753Y-82343213D01*
X123373193Y-82323515D01*
X123348692Y-82301308D01*
X123326485Y-82276807D01*
X123306787Y-82250247D01*
X123289787Y-82221884D01*
X123275649Y-82191991D01*
X123264509Y-82160857D01*
X123256475Y-82128781D01*
X123251623Y-82096071D01*
X123250000Y-82063044D01*
X123250000Y-80936956D01*
X123251623Y-80903929D01*
X123256475Y-80871219D01*
X123264509Y-80839143D01*
X123275649Y-80808009D01*
X123289787Y-80778116D01*
X123306787Y-80749753D01*
X123326485Y-80723193D01*
X123348692Y-80698692D01*
X123373193Y-80676485D01*
X123399753Y-80656787D01*
X123428116Y-80639787D01*
X123458009Y-80625649D01*
X123489143Y-80614509D01*
X123521219Y-80606475D01*
X123553929Y-80601623D01*
X123586956Y-80600000D01*
X124463044Y-80600000D01*
X124496071Y-80601623D01*
X124496071Y-80601623D01*
G37*
D29*
X124025000Y-81500000D03*
G04 #@! TD*
D13*
G04 #@! TO.C,C5*
G36*
X130396071Y-91551623D02*
X130428781Y-91556475D01*
X130460857Y-91564509D01*
X130491991Y-91575649D01*
X130521884Y-91589787D01*
X130550247Y-91606787D01*
X130576807Y-91626485D01*
X130601308Y-91648692D01*
X130623515Y-91673193D01*
X130643213Y-91699753D01*
X130660213Y-91728116D01*
X130674351Y-91758009D01*
X130685491Y-91789143D01*
X130693525Y-91821219D01*
X130698377Y-91853929D01*
X130700000Y-91886956D01*
X130700000Y-92763044D01*
X130698377Y-92796071D01*
X130693525Y-92828781D01*
X130685491Y-92860857D01*
X130674351Y-92891991D01*
X130660213Y-92921884D01*
X130643213Y-92950247D01*
X130623515Y-92976807D01*
X130601308Y-93001308D01*
X130576807Y-93023515D01*
X130550247Y-93043213D01*
X130521884Y-93060213D01*
X130491991Y-93074351D01*
X130460857Y-93085491D01*
X130428781Y-93093525D01*
X130396071Y-93098377D01*
X130363044Y-93100000D01*
X129236956Y-93100000D01*
X129203929Y-93098377D01*
X129171219Y-93093525D01*
X129139143Y-93085491D01*
X129108009Y-93074351D01*
X129078116Y-93060213D01*
X129049753Y-93043213D01*
X129023193Y-93023515D01*
X128998692Y-93001308D01*
X128976485Y-92976807D01*
X128956787Y-92950247D01*
X128939787Y-92921884D01*
X128925649Y-92891991D01*
X128914509Y-92860857D01*
X128906475Y-92828781D01*
X128901623Y-92796071D01*
X128900000Y-92763044D01*
X128900000Y-91886956D01*
X128901623Y-91853929D01*
X128906475Y-91821219D01*
X128914509Y-91789143D01*
X128925649Y-91758009D01*
X128939787Y-91728116D01*
X128956787Y-91699753D01*
X128976485Y-91673193D01*
X128998692Y-91648692D01*
X129023193Y-91626485D01*
X129049753Y-91606787D01*
X129078116Y-91589787D01*
X129108009Y-91575649D01*
X129139143Y-91564509D01*
X129171219Y-91556475D01*
X129203929Y-91551623D01*
X129236956Y-91550000D01*
X130363044Y-91550000D01*
X130396071Y-91551623D01*
X130396071Y-91551623D01*
G37*
D29*
X129800000Y-92325000D03*
D13*
G36*
X130396071Y-89501623D02*
X130428781Y-89506475D01*
X130460857Y-89514509D01*
X130491991Y-89525649D01*
X130521884Y-89539787D01*
X130550247Y-89556787D01*
X130576807Y-89576485D01*
X130601308Y-89598692D01*
X130623515Y-89623193D01*
X130643213Y-89649753D01*
X130660213Y-89678116D01*
X130674351Y-89708009D01*
X130685491Y-89739143D01*
X130693525Y-89771219D01*
X130698377Y-89803929D01*
X130700000Y-89836956D01*
X130700000Y-90713044D01*
X130698377Y-90746071D01*
X130693525Y-90778781D01*
X130685491Y-90810857D01*
X130674351Y-90841991D01*
X130660213Y-90871884D01*
X130643213Y-90900247D01*
X130623515Y-90926807D01*
X130601308Y-90951308D01*
X130576807Y-90973515D01*
X130550247Y-90993213D01*
X130521884Y-91010213D01*
X130491991Y-91024351D01*
X130460857Y-91035491D01*
X130428781Y-91043525D01*
X130396071Y-91048377D01*
X130363044Y-91050000D01*
X129236956Y-91050000D01*
X129203929Y-91048377D01*
X129171219Y-91043525D01*
X129139143Y-91035491D01*
X129108009Y-91024351D01*
X129078116Y-91010213D01*
X129049753Y-90993213D01*
X129023193Y-90973515D01*
X128998692Y-90951308D01*
X128976485Y-90926807D01*
X128956787Y-90900247D01*
X128939787Y-90871884D01*
X128925649Y-90841991D01*
X128914509Y-90810857D01*
X128906475Y-90778781D01*
X128901623Y-90746071D01*
X128900000Y-90713044D01*
X128900000Y-89836956D01*
X128901623Y-89803929D01*
X128906475Y-89771219D01*
X128914509Y-89739143D01*
X128925649Y-89708009D01*
X128939787Y-89678116D01*
X128956787Y-89649753D01*
X128976485Y-89623193D01*
X128998692Y-89598692D01*
X129023193Y-89576485D01*
X129049753Y-89556787D01*
X129078116Y-89539787D01*
X129108009Y-89525649D01*
X129139143Y-89514509D01*
X129171219Y-89506475D01*
X129203929Y-89501623D01*
X129236956Y-89500000D01*
X130363044Y-89500000D01*
X130396071Y-89501623D01*
X130396071Y-89501623D01*
G37*
D29*
X129800000Y-90275000D03*
G04 #@! TD*
D13*
G04 #@! TO.C,C6*
G36*
X124496071Y-87601623D02*
X124528781Y-87606475D01*
X124560857Y-87614509D01*
X124591991Y-87625649D01*
X124621884Y-87639787D01*
X124650247Y-87656787D01*
X124676807Y-87676485D01*
X124701308Y-87698692D01*
X124723515Y-87723193D01*
X124743213Y-87749753D01*
X124760213Y-87778116D01*
X124774351Y-87808009D01*
X124785491Y-87839143D01*
X124793525Y-87871219D01*
X124798377Y-87903929D01*
X124800000Y-87936956D01*
X124800000Y-89063044D01*
X124798377Y-89096071D01*
X124793525Y-89128781D01*
X124785491Y-89160857D01*
X124774351Y-89191991D01*
X124760213Y-89221884D01*
X124743213Y-89250247D01*
X124723515Y-89276807D01*
X124701308Y-89301308D01*
X124676807Y-89323515D01*
X124650247Y-89343213D01*
X124621884Y-89360213D01*
X124591991Y-89374351D01*
X124560857Y-89385491D01*
X124528781Y-89393525D01*
X124496071Y-89398377D01*
X124463044Y-89400000D01*
X123586956Y-89400000D01*
X123553929Y-89398377D01*
X123521219Y-89393525D01*
X123489143Y-89385491D01*
X123458009Y-89374351D01*
X123428116Y-89360213D01*
X123399753Y-89343213D01*
X123373193Y-89323515D01*
X123348692Y-89301308D01*
X123326485Y-89276807D01*
X123306787Y-89250247D01*
X123289787Y-89221884D01*
X123275649Y-89191991D01*
X123264509Y-89160857D01*
X123256475Y-89128781D01*
X123251623Y-89096071D01*
X123250000Y-89063044D01*
X123250000Y-87936956D01*
X123251623Y-87903929D01*
X123256475Y-87871219D01*
X123264509Y-87839143D01*
X123275649Y-87808009D01*
X123289787Y-87778116D01*
X123306787Y-87749753D01*
X123326485Y-87723193D01*
X123348692Y-87698692D01*
X123373193Y-87676485D01*
X123399753Y-87656787D01*
X123428116Y-87639787D01*
X123458009Y-87625649D01*
X123489143Y-87614509D01*
X123521219Y-87606475D01*
X123553929Y-87601623D01*
X123586956Y-87600000D01*
X124463044Y-87600000D01*
X124496071Y-87601623D01*
X124496071Y-87601623D01*
G37*
D29*
X124025000Y-88500000D03*
D13*
G36*
X122446071Y-87601623D02*
X122478781Y-87606475D01*
X122510857Y-87614509D01*
X122541991Y-87625649D01*
X122571884Y-87639787D01*
X122600247Y-87656787D01*
X122626807Y-87676485D01*
X122651308Y-87698692D01*
X122673515Y-87723193D01*
X122693213Y-87749753D01*
X122710213Y-87778116D01*
X122724351Y-87808009D01*
X122735491Y-87839143D01*
X122743525Y-87871219D01*
X122748377Y-87903929D01*
X122750000Y-87936956D01*
X122750000Y-89063044D01*
X122748377Y-89096071D01*
X122743525Y-89128781D01*
X122735491Y-89160857D01*
X122724351Y-89191991D01*
X122710213Y-89221884D01*
X122693213Y-89250247D01*
X122673515Y-89276807D01*
X122651308Y-89301308D01*
X122626807Y-89323515D01*
X122600247Y-89343213D01*
X122571884Y-89360213D01*
X122541991Y-89374351D01*
X122510857Y-89385491D01*
X122478781Y-89393525D01*
X122446071Y-89398377D01*
X122413044Y-89400000D01*
X121536956Y-89400000D01*
X121503929Y-89398377D01*
X121471219Y-89393525D01*
X121439143Y-89385491D01*
X121408009Y-89374351D01*
X121378116Y-89360213D01*
X121349753Y-89343213D01*
X121323193Y-89323515D01*
X121298692Y-89301308D01*
X121276485Y-89276807D01*
X121256787Y-89250247D01*
X121239787Y-89221884D01*
X121225649Y-89191991D01*
X121214509Y-89160857D01*
X121206475Y-89128781D01*
X121201623Y-89096071D01*
X121200000Y-89063044D01*
X121200000Y-87936956D01*
X121201623Y-87903929D01*
X121206475Y-87871219D01*
X121214509Y-87839143D01*
X121225649Y-87808009D01*
X121239787Y-87778116D01*
X121256787Y-87749753D01*
X121276485Y-87723193D01*
X121298692Y-87698692D01*
X121323193Y-87676485D01*
X121349753Y-87656787D01*
X121378116Y-87639787D01*
X121408009Y-87625649D01*
X121439143Y-87614509D01*
X121471219Y-87606475D01*
X121503929Y-87601623D01*
X121536956Y-87600000D01*
X122413044Y-87600000D01*
X122446071Y-87601623D01*
X122446071Y-87601623D01*
G37*
D29*
X121975000Y-88500000D03*
G04 #@! TD*
D13*
G04 #@! TO.C,C8*
G36*
X134596071Y-62751623D02*
X134628781Y-62756475D01*
X134660857Y-62764509D01*
X134691991Y-62775649D01*
X134721884Y-62789787D01*
X134750247Y-62806787D01*
X134776807Y-62826485D01*
X134801308Y-62848692D01*
X134823515Y-62873193D01*
X134843213Y-62899753D01*
X134860213Y-62928116D01*
X134874351Y-62958009D01*
X134885491Y-62989143D01*
X134893525Y-63021219D01*
X134898377Y-63053929D01*
X134900000Y-63086956D01*
X134900000Y-63963044D01*
X134898377Y-63996071D01*
X134893525Y-64028781D01*
X134885491Y-64060857D01*
X134874351Y-64091991D01*
X134860213Y-64121884D01*
X134843213Y-64150247D01*
X134823515Y-64176807D01*
X134801308Y-64201308D01*
X134776807Y-64223515D01*
X134750247Y-64243213D01*
X134721884Y-64260213D01*
X134691991Y-64274351D01*
X134660857Y-64285491D01*
X134628781Y-64293525D01*
X134596071Y-64298377D01*
X134563044Y-64300000D01*
X133436956Y-64300000D01*
X133403929Y-64298377D01*
X133371219Y-64293525D01*
X133339143Y-64285491D01*
X133308009Y-64274351D01*
X133278116Y-64260213D01*
X133249753Y-64243213D01*
X133223193Y-64223515D01*
X133198692Y-64201308D01*
X133176485Y-64176807D01*
X133156787Y-64150247D01*
X133139787Y-64121884D01*
X133125649Y-64091991D01*
X133114509Y-64060857D01*
X133106475Y-64028781D01*
X133101623Y-63996071D01*
X133100000Y-63963044D01*
X133100000Y-63086956D01*
X133101623Y-63053929D01*
X133106475Y-63021219D01*
X133114509Y-62989143D01*
X133125649Y-62958009D01*
X133139787Y-62928116D01*
X133156787Y-62899753D01*
X133176485Y-62873193D01*
X133198692Y-62848692D01*
X133223193Y-62826485D01*
X133249753Y-62806787D01*
X133278116Y-62789787D01*
X133308009Y-62775649D01*
X133339143Y-62764509D01*
X133371219Y-62756475D01*
X133403929Y-62751623D01*
X133436956Y-62750000D01*
X134563044Y-62750000D01*
X134596071Y-62751623D01*
X134596071Y-62751623D01*
G37*
D29*
X134000000Y-63525000D03*
D13*
G36*
X134596071Y-60701623D02*
X134628781Y-60706475D01*
X134660857Y-60714509D01*
X134691991Y-60725649D01*
X134721884Y-60739787D01*
X134750247Y-60756787D01*
X134776807Y-60776485D01*
X134801308Y-60798692D01*
X134823515Y-60823193D01*
X134843213Y-60849753D01*
X134860213Y-60878116D01*
X134874351Y-60908009D01*
X134885491Y-60939143D01*
X134893525Y-60971219D01*
X134898377Y-61003929D01*
X134900000Y-61036956D01*
X134900000Y-61913044D01*
X134898377Y-61946071D01*
X134893525Y-61978781D01*
X134885491Y-62010857D01*
X134874351Y-62041991D01*
X134860213Y-62071884D01*
X134843213Y-62100247D01*
X134823515Y-62126807D01*
X134801308Y-62151308D01*
X134776807Y-62173515D01*
X134750247Y-62193213D01*
X134721884Y-62210213D01*
X134691991Y-62224351D01*
X134660857Y-62235491D01*
X134628781Y-62243525D01*
X134596071Y-62248377D01*
X134563044Y-62250000D01*
X133436956Y-62250000D01*
X133403929Y-62248377D01*
X133371219Y-62243525D01*
X133339143Y-62235491D01*
X133308009Y-62224351D01*
X133278116Y-62210213D01*
X133249753Y-62193213D01*
X133223193Y-62173515D01*
X133198692Y-62151308D01*
X133176485Y-62126807D01*
X133156787Y-62100247D01*
X133139787Y-62071884D01*
X133125649Y-62041991D01*
X133114509Y-62010857D01*
X133106475Y-61978781D01*
X133101623Y-61946071D01*
X133100000Y-61913044D01*
X133100000Y-61036956D01*
X133101623Y-61003929D01*
X133106475Y-60971219D01*
X133114509Y-60939143D01*
X133125649Y-60908009D01*
X133139787Y-60878116D01*
X133156787Y-60849753D01*
X133176485Y-60823193D01*
X133198692Y-60798692D01*
X133223193Y-60776485D01*
X133249753Y-60756787D01*
X133278116Y-60739787D01*
X133308009Y-60725649D01*
X133339143Y-60714509D01*
X133371219Y-60706475D01*
X133403929Y-60701623D01*
X133436956Y-60700000D01*
X134563044Y-60700000D01*
X134596071Y-60701623D01*
X134596071Y-60701623D01*
G37*
D29*
X134000000Y-61475000D03*
G04 #@! TD*
D13*
G04 #@! TO.C,C10*
G36*
X130596071Y-79251623D02*
X130628781Y-79256475D01*
X130660857Y-79264509D01*
X130691991Y-79275649D01*
X130721884Y-79289787D01*
X130750247Y-79306787D01*
X130776807Y-79326485D01*
X130801308Y-79348692D01*
X130823515Y-79373193D01*
X130843213Y-79399753D01*
X130860213Y-79428116D01*
X130874351Y-79458009D01*
X130885491Y-79489143D01*
X130893525Y-79521219D01*
X130898377Y-79553929D01*
X130900000Y-79586956D01*
X130900000Y-80463044D01*
X130898377Y-80496071D01*
X130893525Y-80528781D01*
X130885491Y-80560857D01*
X130874351Y-80591991D01*
X130860213Y-80621884D01*
X130843213Y-80650247D01*
X130823515Y-80676807D01*
X130801308Y-80701308D01*
X130776807Y-80723515D01*
X130750247Y-80743213D01*
X130721884Y-80760213D01*
X130691991Y-80774351D01*
X130660857Y-80785491D01*
X130628781Y-80793525D01*
X130596071Y-80798377D01*
X130563044Y-80800000D01*
X129436956Y-80800000D01*
X129403929Y-80798377D01*
X129371219Y-80793525D01*
X129339143Y-80785491D01*
X129308009Y-80774351D01*
X129278116Y-80760213D01*
X129249753Y-80743213D01*
X129223193Y-80723515D01*
X129198692Y-80701308D01*
X129176485Y-80676807D01*
X129156787Y-80650247D01*
X129139787Y-80621884D01*
X129125649Y-80591991D01*
X129114509Y-80560857D01*
X129106475Y-80528781D01*
X129101623Y-80496071D01*
X129100000Y-80463044D01*
X129100000Y-79586956D01*
X129101623Y-79553929D01*
X129106475Y-79521219D01*
X129114509Y-79489143D01*
X129125649Y-79458009D01*
X129139787Y-79428116D01*
X129156787Y-79399753D01*
X129176485Y-79373193D01*
X129198692Y-79348692D01*
X129223193Y-79326485D01*
X129249753Y-79306787D01*
X129278116Y-79289787D01*
X129308009Y-79275649D01*
X129339143Y-79264509D01*
X129371219Y-79256475D01*
X129403929Y-79251623D01*
X129436956Y-79250000D01*
X130563044Y-79250000D01*
X130596071Y-79251623D01*
X130596071Y-79251623D01*
G37*
D29*
X130000000Y-80025000D03*
D13*
G36*
X130596071Y-77201623D02*
X130628781Y-77206475D01*
X130660857Y-77214509D01*
X130691991Y-77225649D01*
X130721884Y-77239787D01*
X130750247Y-77256787D01*
X130776807Y-77276485D01*
X130801308Y-77298692D01*
X130823515Y-77323193D01*
X130843213Y-77349753D01*
X130860213Y-77378116D01*
X130874351Y-77408009D01*
X130885491Y-77439143D01*
X130893525Y-77471219D01*
X130898377Y-77503929D01*
X130900000Y-77536956D01*
X130900000Y-78413044D01*
X130898377Y-78446071D01*
X130893525Y-78478781D01*
X130885491Y-78510857D01*
X130874351Y-78541991D01*
X130860213Y-78571884D01*
X130843213Y-78600247D01*
X130823515Y-78626807D01*
X130801308Y-78651308D01*
X130776807Y-78673515D01*
X130750247Y-78693213D01*
X130721884Y-78710213D01*
X130691991Y-78724351D01*
X130660857Y-78735491D01*
X130628781Y-78743525D01*
X130596071Y-78748377D01*
X130563044Y-78750000D01*
X129436956Y-78750000D01*
X129403929Y-78748377D01*
X129371219Y-78743525D01*
X129339143Y-78735491D01*
X129308009Y-78724351D01*
X129278116Y-78710213D01*
X129249753Y-78693213D01*
X129223193Y-78673515D01*
X129198692Y-78651308D01*
X129176485Y-78626807D01*
X129156787Y-78600247D01*
X129139787Y-78571884D01*
X129125649Y-78541991D01*
X129114509Y-78510857D01*
X129106475Y-78478781D01*
X129101623Y-78446071D01*
X129100000Y-78413044D01*
X129100000Y-77536956D01*
X129101623Y-77503929D01*
X129106475Y-77471219D01*
X129114509Y-77439143D01*
X129125649Y-77408009D01*
X129139787Y-77378116D01*
X129156787Y-77349753D01*
X129176485Y-77323193D01*
X129198692Y-77298692D01*
X129223193Y-77276485D01*
X129249753Y-77256787D01*
X129278116Y-77239787D01*
X129308009Y-77225649D01*
X129339143Y-77214509D01*
X129371219Y-77206475D01*
X129403929Y-77201623D01*
X129436956Y-77200000D01*
X130563044Y-77200000D01*
X130596071Y-77201623D01*
X130596071Y-77201623D01*
G37*
D29*
X130000000Y-77975000D03*
G04 #@! TD*
D13*
G04 #@! TO.C,C11*
G36*
X133596071Y-79251623D02*
X133628781Y-79256475D01*
X133660857Y-79264509D01*
X133691991Y-79275649D01*
X133721884Y-79289787D01*
X133750247Y-79306787D01*
X133776807Y-79326485D01*
X133801308Y-79348692D01*
X133823515Y-79373193D01*
X133843213Y-79399753D01*
X133860213Y-79428116D01*
X133874351Y-79458009D01*
X133885491Y-79489143D01*
X133893525Y-79521219D01*
X133898377Y-79553929D01*
X133900000Y-79586956D01*
X133900000Y-80463044D01*
X133898377Y-80496071D01*
X133893525Y-80528781D01*
X133885491Y-80560857D01*
X133874351Y-80591991D01*
X133860213Y-80621884D01*
X133843213Y-80650247D01*
X133823515Y-80676807D01*
X133801308Y-80701308D01*
X133776807Y-80723515D01*
X133750247Y-80743213D01*
X133721884Y-80760213D01*
X133691991Y-80774351D01*
X133660857Y-80785491D01*
X133628781Y-80793525D01*
X133596071Y-80798377D01*
X133563044Y-80800000D01*
X132436956Y-80800000D01*
X132403929Y-80798377D01*
X132371219Y-80793525D01*
X132339143Y-80785491D01*
X132308009Y-80774351D01*
X132278116Y-80760213D01*
X132249753Y-80743213D01*
X132223193Y-80723515D01*
X132198692Y-80701308D01*
X132176485Y-80676807D01*
X132156787Y-80650247D01*
X132139787Y-80621884D01*
X132125649Y-80591991D01*
X132114509Y-80560857D01*
X132106475Y-80528781D01*
X132101623Y-80496071D01*
X132100000Y-80463044D01*
X132100000Y-79586956D01*
X132101623Y-79553929D01*
X132106475Y-79521219D01*
X132114509Y-79489143D01*
X132125649Y-79458009D01*
X132139787Y-79428116D01*
X132156787Y-79399753D01*
X132176485Y-79373193D01*
X132198692Y-79348692D01*
X132223193Y-79326485D01*
X132249753Y-79306787D01*
X132278116Y-79289787D01*
X132308009Y-79275649D01*
X132339143Y-79264509D01*
X132371219Y-79256475D01*
X132403929Y-79251623D01*
X132436956Y-79250000D01*
X133563044Y-79250000D01*
X133596071Y-79251623D01*
X133596071Y-79251623D01*
G37*
D29*
X133000000Y-80025000D03*
D13*
G36*
X133596071Y-77201623D02*
X133628781Y-77206475D01*
X133660857Y-77214509D01*
X133691991Y-77225649D01*
X133721884Y-77239787D01*
X133750247Y-77256787D01*
X133776807Y-77276485D01*
X133801308Y-77298692D01*
X133823515Y-77323193D01*
X133843213Y-77349753D01*
X133860213Y-77378116D01*
X133874351Y-77408009D01*
X133885491Y-77439143D01*
X133893525Y-77471219D01*
X133898377Y-77503929D01*
X133900000Y-77536956D01*
X133900000Y-78413044D01*
X133898377Y-78446071D01*
X133893525Y-78478781D01*
X133885491Y-78510857D01*
X133874351Y-78541991D01*
X133860213Y-78571884D01*
X133843213Y-78600247D01*
X133823515Y-78626807D01*
X133801308Y-78651308D01*
X133776807Y-78673515D01*
X133750247Y-78693213D01*
X133721884Y-78710213D01*
X133691991Y-78724351D01*
X133660857Y-78735491D01*
X133628781Y-78743525D01*
X133596071Y-78748377D01*
X133563044Y-78750000D01*
X132436956Y-78750000D01*
X132403929Y-78748377D01*
X132371219Y-78743525D01*
X132339143Y-78735491D01*
X132308009Y-78724351D01*
X132278116Y-78710213D01*
X132249753Y-78693213D01*
X132223193Y-78673515D01*
X132198692Y-78651308D01*
X132176485Y-78626807D01*
X132156787Y-78600247D01*
X132139787Y-78571884D01*
X132125649Y-78541991D01*
X132114509Y-78510857D01*
X132106475Y-78478781D01*
X132101623Y-78446071D01*
X132100000Y-78413044D01*
X132100000Y-77536956D01*
X132101623Y-77503929D01*
X132106475Y-77471219D01*
X132114509Y-77439143D01*
X132125649Y-77408009D01*
X132139787Y-77378116D01*
X132156787Y-77349753D01*
X132176485Y-77323193D01*
X132198692Y-77298692D01*
X132223193Y-77276485D01*
X132249753Y-77256787D01*
X132278116Y-77239787D01*
X132308009Y-77225649D01*
X132339143Y-77214509D01*
X132371219Y-77206475D01*
X132403929Y-77201623D01*
X132436956Y-77200000D01*
X133563044Y-77200000D01*
X133596071Y-77201623D01*
X133596071Y-77201623D01*
G37*
D29*
X133000000Y-77975000D03*
G04 #@! TD*
D32*
G04 #@! TO.C,J7*
X118000000Y-116800000D03*
D33*
X123080000Y-116800000D03*
G04 #@! TD*
D34*
G04 #@! TO.C,C12*
X116200000Y-106600000D03*
D35*
X112700000Y-106600000D03*
G04 #@! TD*
D13*
G04 #@! TO.C,J6*
G36*
X169921447Y-104951487D02*
X169951425Y-104955934D01*
X169980824Y-104963298D01*
X170009358Y-104973508D01*
X170036755Y-104986465D01*
X170062750Y-105002046D01*
X170087092Y-105020100D01*
X170109548Y-105040452D01*
X170129900Y-105062908D01*
X170147954Y-105087250D01*
X170163535Y-105113245D01*
X170176492Y-105140642D01*
X170186702Y-105169176D01*
X170194066Y-105198575D01*
X170198513Y-105228553D01*
X170200000Y-105258823D01*
X170200000Y-106741177D01*
X170198513Y-106771447D01*
X170194066Y-106801425D01*
X170186702Y-106830824D01*
X170176492Y-106859358D01*
X170163535Y-106886755D01*
X170147954Y-106912750D01*
X170129900Y-106937092D01*
X170109548Y-106959548D01*
X170087092Y-106979900D01*
X170062750Y-106997954D01*
X170036755Y-107013535D01*
X170009358Y-107026492D01*
X169980824Y-107036702D01*
X169951425Y-107044066D01*
X169921447Y-107048513D01*
X169891177Y-107050000D01*
X168108823Y-107050000D01*
X168078553Y-107048513D01*
X168048575Y-107044066D01*
X168019176Y-107036702D01*
X167990642Y-107026492D01*
X167963245Y-107013535D01*
X167937250Y-106997954D01*
X167912908Y-106979900D01*
X167890452Y-106959548D01*
X167870100Y-106937092D01*
X167852046Y-106912750D01*
X167836465Y-106886755D01*
X167823508Y-106859358D01*
X167813298Y-106830824D01*
X167805934Y-106801425D01*
X167801487Y-106771447D01*
X167800000Y-106741177D01*
X167800000Y-105258823D01*
X167801487Y-105228553D01*
X167805934Y-105198575D01*
X167813298Y-105169176D01*
X167823508Y-105140642D01*
X167836465Y-105113245D01*
X167852046Y-105087250D01*
X167870100Y-105062908D01*
X167890452Y-105040452D01*
X167912908Y-105020100D01*
X167937250Y-105002046D01*
X167963245Y-104986465D01*
X167990642Y-104973508D01*
X168019176Y-104963298D01*
X168048575Y-104955934D01*
X168078553Y-104951487D01*
X168108823Y-104950000D01*
X169891177Y-104950000D01*
X169921447Y-104951487D01*
X169921447Y-104951487D01*
G37*
D16*
X169000000Y-106000000D03*
D27*
X169000000Y-103500000D03*
G04 #@! TD*
D36*
G04 #@! TO.C,D3*
X108500000Y-112500000D03*
D37*
X103420000Y-112500000D03*
G04 #@! TD*
D35*
G04 #@! TO.C,RV1*
X108500000Y-119000000D03*
X103500000Y-116200000D03*
G04 #@! TD*
D13*
G04 #@! TO.C,C9*
G36*
X95096071Y-100751623D02*
X95128781Y-100756475D01*
X95160857Y-100764509D01*
X95191991Y-100775649D01*
X95221884Y-100789787D01*
X95250247Y-100806787D01*
X95276807Y-100826485D01*
X95301308Y-100848692D01*
X95323515Y-100873193D01*
X95343213Y-100899753D01*
X95360213Y-100928116D01*
X95374351Y-100958009D01*
X95385491Y-100989143D01*
X95393525Y-101021219D01*
X95398377Y-101053929D01*
X95400000Y-101086956D01*
X95400000Y-101963044D01*
X95398377Y-101996071D01*
X95393525Y-102028781D01*
X95385491Y-102060857D01*
X95374351Y-102091991D01*
X95360213Y-102121884D01*
X95343213Y-102150247D01*
X95323515Y-102176807D01*
X95301308Y-102201308D01*
X95276807Y-102223515D01*
X95250247Y-102243213D01*
X95221884Y-102260213D01*
X95191991Y-102274351D01*
X95160857Y-102285491D01*
X95128781Y-102293525D01*
X95096071Y-102298377D01*
X95063044Y-102300000D01*
X93936956Y-102300000D01*
X93903929Y-102298377D01*
X93871219Y-102293525D01*
X93839143Y-102285491D01*
X93808009Y-102274351D01*
X93778116Y-102260213D01*
X93749753Y-102243213D01*
X93723193Y-102223515D01*
X93698692Y-102201308D01*
X93676485Y-102176807D01*
X93656787Y-102150247D01*
X93639787Y-102121884D01*
X93625649Y-102091991D01*
X93614509Y-102060857D01*
X93606475Y-102028781D01*
X93601623Y-101996071D01*
X93600000Y-101963044D01*
X93600000Y-101086956D01*
X93601623Y-101053929D01*
X93606475Y-101021219D01*
X93614509Y-100989143D01*
X93625649Y-100958009D01*
X93639787Y-100928116D01*
X93656787Y-100899753D01*
X93676485Y-100873193D01*
X93698692Y-100848692D01*
X93723193Y-100826485D01*
X93749753Y-100806787D01*
X93778116Y-100789787D01*
X93808009Y-100775649D01*
X93839143Y-100764509D01*
X93871219Y-100756475D01*
X93903929Y-100751623D01*
X93936956Y-100750000D01*
X95063044Y-100750000D01*
X95096071Y-100751623D01*
X95096071Y-100751623D01*
G37*
D29*
X94500000Y-101525000D03*
D13*
G36*
X95096071Y-98701623D02*
X95128781Y-98706475D01*
X95160857Y-98714509D01*
X95191991Y-98725649D01*
X95221884Y-98739787D01*
X95250247Y-98756787D01*
X95276807Y-98776485D01*
X95301308Y-98798692D01*
X95323515Y-98823193D01*
X95343213Y-98849753D01*
X95360213Y-98878116D01*
X95374351Y-98908009D01*
X95385491Y-98939143D01*
X95393525Y-98971219D01*
X95398377Y-99003929D01*
X95400000Y-99036956D01*
X95400000Y-99913044D01*
X95398377Y-99946071D01*
X95393525Y-99978781D01*
X95385491Y-100010857D01*
X95374351Y-100041991D01*
X95360213Y-100071884D01*
X95343213Y-100100247D01*
X95323515Y-100126807D01*
X95301308Y-100151308D01*
X95276807Y-100173515D01*
X95250247Y-100193213D01*
X95221884Y-100210213D01*
X95191991Y-100224351D01*
X95160857Y-100235491D01*
X95128781Y-100243525D01*
X95096071Y-100248377D01*
X95063044Y-100250000D01*
X93936956Y-100250000D01*
X93903929Y-100248377D01*
X93871219Y-100243525D01*
X93839143Y-100235491D01*
X93808009Y-100224351D01*
X93778116Y-100210213D01*
X93749753Y-100193213D01*
X93723193Y-100173515D01*
X93698692Y-100151308D01*
X93676485Y-100126807D01*
X93656787Y-100100247D01*
X93639787Y-100071884D01*
X93625649Y-100041991D01*
X93614509Y-100010857D01*
X93606475Y-99978781D01*
X93601623Y-99946071D01*
X93600000Y-99913044D01*
X93600000Y-99036956D01*
X93601623Y-99003929D01*
X93606475Y-98971219D01*
X93614509Y-98939143D01*
X93625649Y-98908009D01*
X93639787Y-98878116D01*
X93656787Y-98849753D01*
X93676485Y-98823193D01*
X93698692Y-98798692D01*
X93723193Y-98776485D01*
X93749753Y-98756787D01*
X93778116Y-98739787D01*
X93808009Y-98725649D01*
X93839143Y-98714509D01*
X93871219Y-98706475D01*
X93903929Y-98701623D01*
X93936956Y-98700000D01*
X95063044Y-98700000D01*
X95096071Y-98701623D01*
X95096071Y-98701623D01*
G37*
D29*
X94500000Y-99475000D03*
G04 #@! TD*
D21*
G04 #@! TO.C,SW1*
X135000000Y-117500000D03*
D22*
X132460000Y-117500000D03*
X129920000Y-117500000D03*
G04 #@! TD*
D38*
G04 #@! TO.C,U7*
X126800000Y-85600000D03*
D39*
X124260000Y-85600000D03*
X121720000Y-85600000D03*
G04 #@! TD*
D14*
G04 #@! TO.C,U6*
X124460000Y-71880000D03*
D15*
X124460000Y-78080000D03*
X126760000Y-78080000D03*
X122160000Y-78080000D03*
G04 #@! TD*
M02*
