G04 #@! TF.GenerationSoftware,KiCad,Pcbnew,5.0.2-bee76a0~70~ubuntu16.04.1*
G04 #@! TF.CreationDate,2019-01-03T19:03:09+00:00*
G04 #@! TF.ProjectId,stm32l053c,73746d33-326c-4303-9533-632e6b696361,rev?*
G04 #@! TF.SameCoordinates,Original*
G04 #@! TF.FileFunction,Copper,L2,Bot*
G04 #@! TF.FilePolarity,Positive*
%FSLAX46Y46*%
G04 Gerber Fmt 4.6, Leading zero omitted, Abs format (unit mm)*
G04 Created by KiCad (PCBNEW 5.0.2-bee76a0~70~ubuntu16.04.1) date Thu 03 Jan 2019 19:03:09 GMT*
%MOMM*%
%LPD*%
G01*
G04 APERTURE LIST*
G04 #@! TA.AperFunction,SMDPad,CuDef*
%ADD10R,10.000000X5.000000*%
G04 #@! TD*
G04 #@! TA.AperFunction,Conductor*
%ADD11C,0.101600*%
G04 #@! TD*
G04 #@! TA.AperFunction,ComponentPad*
%ADD12C,1.700000*%
G04 #@! TD*
G04 #@! TA.AperFunction,ComponentPad*
%ADD13O,1.950000X1.700000*%
G04 #@! TD*
G04 #@! TA.AperFunction,SMDPad,CuDef*
%ADD14C,1.300000*%
G04 #@! TD*
G04 #@! TA.AperFunction,SMDPad,CuDef*
%ADD15R,0.800000X1.900000*%
G04 #@! TD*
G04 #@! TA.AperFunction,ComponentPad*
%ADD16R,1.700000X1.700000*%
G04 #@! TD*
G04 #@! TA.AperFunction,ComponentPad*
%ADD17O,1.700000X1.700000*%
G04 #@! TD*
G04 #@! TA.AperFunction,ComponentPad*
%ADD18O,2.000000X1.700000*%
G04 #@! TD*
G04 #@! TA.AperFunction,SMDPad,CuDef*
%ADD19C,0.950000*%
G04 #@! TD*
G04 #@! TA.AperFunction,SMDPad,CuDef*
%ADD20C,1.150000*%
G04 #@! TD*
G04 #@! TA.AperFunction,ComponentPad*
%ADD21O,1.700000X2.000000*%
G04 #@! TD*
G04 #@! TA.AperFunction,ComponentPad*
%ADD22C,6.400000*%
G04 #@! TD*
G04 #@! TA.AperFunction,ComponentPad*
%ADD23R,3.000000X3.000000*%
G04 #@! TD*
G04 #@! TA.AperFunction,ComponentPad*
%ADD24C,3.000000*%
G04 #@! TD*
G04 #@! TA.AperFunction,ComponentPad*
%ADD25R,1.600000X1.600000*%
G04 #@! TD*
G04 #@! TA.AperFunction,ComponentPad*
%ADD26C,1.600000*%
G04 #@! TD*
G04 #@! TA.AperFunction,ComponentPad*
%ADD27R,2.000000X2.000000*%
G04 #@! TD*
G04 #@! TA.AperFunction,ComponentPad*
%ADD28O,2.000000X2.000000*%
G04 #@! TD*
G04 #@! TA.AperFunction,SMDPad,CuDef*
%ADD29R,1.100000X0.250000*%
G04 #@! TD*
G04 #@! TA.AperFunction,ComponentPad*
%ADD30R,1.905000X2.000000*%
G04 #@! TD*
G04 #@! TA.AperFunction,ComponentPad*
%ADD31O,1.905000X2.000000*%
G04 #@! TD*
G04 #@! TA.AperFunction,ViaPad*
%ADD32C,0.762000*%
G04 #@! TD*
G04 #@! TA.AperFunction,Conductor*
%ADD33C,0.254000*%
G04 #@! TD*
G04 #@! TA.AperFunction,Conductor*
%ADD34C,2.000000*%
G04 #@! TD*
G04 #@! TA.AperFunction,Conductor*
%ADD35C,0.500000*%
G04 #@! TD*
G04 #@! TA.AperFunction,Conductor*
%ADD36C,1.500000*%
G04 #@! TD*
G04 #@! TA.AperFunction,Conductor*
%ADD37C,0.355600*%
G04 #@! TD*
G04 APERTURE END LIST*
D10*
G04 #@! TO.P,U1,2*
G04 #@! TO.N,Earth*
X124460000Y-98570000D03*
G04 #@! TD*
D11*
G04 #@! TO.N,Earth*
G04 #@! TO.C,D2*
G36*
X169749504Y-77151204D02*
X169773773Y-77154804D01*
X169797571Y-77160765D01*
X169820671Y-77169030D01*
X169842849Y-77179520D01*
X169863893Y-77192133D01*
X169883598Y-77206747D01*
X169901777Y-77223223D01*
X169918253Y-77241402D01*
X169932867Y-77261107D01*
X169945480Y-77282151D01*
X169955970Y-77304329D01*
X169964235Y-77327429D01*
X169970196Y-77351227D01*
X169973796Y-77375496D01*
X169975000Y-77400000D01*
X169975000Y-78600000D01*
X169973796Y-78624504D01*
X169970196Y-78648773D01*
X169964235Y-78672571D01*
X169955970Y-78695671D01*
X169945480Y-78717849D01*
X169932867Y-78738893D01*
X169918253Y-78758598D01*
X169901777Y-78776777D01*
X169883598Y-78793253D01*
X169863893Y-78807867D01*
X169842849Y-78820480D01*
X169820671Y-78830970D01*
X169797571Y-78839235D01*
X169773773Y-78845196D01*
X169749504Y-78848796D01*
X169725000Y-78850000D01*
X168275000Y-78850000D01*
X168250496Y-78848796D01*
X168226227Y-78845196D01*
X168202429Y-78839235D01*
X168179329Y-78830970D01*
X168157151Y-78820480D01*
X168136107Y-78807867D01*
X168116402Y-78793253D01*
X168098223Y-78776777D01*
X168081747Y-78758598D01*
X168067133Y-78738893D01*
X168054520Y-78717849D01*
X168044030Y-78695671D01*
X168035765Y-78672571D01*
X168029804Y-78648773D01*
X168026204Y-78624504D01*
X168025000Y-78600000D01*
X168025000Y-77400000D01*
X168026204Y-77375496D01*
X168029804Y-77351227D01*
X168035765Y-77327429D01*
X168044030Y-77304329D01*
X168054520Y-77282151D01*
X168067133Y-77261107D01*
X168081747Y-77241402D01*
X168098223Y-77223223D01*
X168116402Y-77206747D01*
X168136107Y-77192133D01*
X168157151Y-77179520D01*
X168179329Y-77169030D01*
X168202429Y-77160765D01*
X168226227Y-77154804D01*
X168250496Y-77151204D01*
X168275000Y-77150000D01*
X169725000Y-77150000D01*
X169749504Y-77151204D01*
X169749504Y-77151204D01*
G37*
D12*
G04 #@! TD*
G04 #@! TO.P,D2,1*
G04 #@! TO.N,Earth*
X169000000Y-78000000D03*
D13*
G04 #@! TO.P,D2,2*
G04 #@! TO.N,Net-(D2-Pad2)*
X169000000Y-75500000D03*
G04 #@! TO.P,D2,3*
G04 #@! TO.N,Net-(D2-Pad3)*
X169000000Y-73000000D03*
G04 #@! TO.P,D2,4*
G04 #@! TO.N,Net-(D2-Pad4)*
X169000000Y-70500000D03*
G04 #@! TD*
D11*
G04 #@! TO.N,Net-(F1-Pad1)*
G04 #@! TO.C,F1*
G36*
X135149504Y-110801204D02*
X135173773Y-110804804D01*
X135197571Y-110810765D01*
X135220671Y-110819030D01*
X135242849Y-110829520D01*
X135263893Y-110842133D01*
X135283598Y-110856747D01*
X135301777Y-110873223D01*
X135318253Y-110891402D01*
X135332867Y-110911107D01*
X135345480Y-110932151D01*
X135355970Y-110954329D01*
X135364235Y-110977429D01*
X135370196Y-111001227D01*
X135373796Y-111025496D01*
X135375000Y-111050000D01*
X135375000Y-113950000D01*
X135373796Y-113974504D01*
X135370196Y-113998773D01*
X135364235Y-114022571D01*
X135355970Y-114045671D01*
X135345480Y-114067849D01*
X135332867Y-114088893D01*
X135318253Y-114108598D01*
X135301777Y-114126777D01*
X135283598Y-114143253D01*
X135263893Y-114157867D01*
X135242849Y-114170480D01*
X135220671Y-114180970D01*
X135197571Y-114189235D01*
X135173773Y-114195196D01*
X135149504Y-114198796D01*
X135125000Y-114200000D01*
X134325000Y-114200000D01*
X134300496Y-114198796D01*
X134276227Y-114195196D01*
X134252429Y-114189235D01*
X134229329Y-114180970D01*
X134207151Y-114170480D01*
X134186107Y-114157867D01*
X134166402Y-114143253D01*
X134148223Y-114126777D01*
X134131747Y-114108598D01*
X134117133Y-114088893D01*
X134104520Y-114067849D01*
X134094030Y-114045671D01*
X134085765Y-114022571D01*
X134079804Y-113998773D01*
X134076204Y-113974504D01*
X134075000Y-113950000D01*
X134075000Y-111050000D01*
X134076204Y-111025496D01*
X134079804Y-111001227D01*
X134085765Y-110977429D01*
X134094030Y-110954329D01*
X134104520Y-110932151D01*
X134117133Y-110911107D01*
X134131747Y-110891402D01*
X134148223Y-110873223D01*
X134166402Y-110856747D01*
X134186107Y-110842133D01*
X134207151Y-110829520D01*
X134229329Y-110819030D01*
X134252429Y-110810765D01*
X134276227Y-110804804D01*
X134300496Y-110801204D01*
X134325000Y-110800000D01*
X135125000Y-110800000D01*
X135149504Y-110801204D01*
X135149504Y-110801204D01*
G37*
D14*
G04 #@! TD*
G04 #@! TO.P,F1,1*
G04 #@! TO.N,Net-(F1-Pad1)*
X134725000Y-112500000D03*
D11*
G04 #@! TO.N,+BATT*
G04 #@! TO.C,F1*
G36*
X130699504Y-110801204D02*
X130723773Y-110804804D01*
X130747571Y-110810765D01*
X130770671Y-110819030D01*
X130792849Y-110829520D01*
X130813893Y-110842133D01*
X130833598Y-110856747D01*
X130851777Y-110873223D01*
X130868253Y-110891402D01*
X130882867Y-110911107D01*
X130895480Y-110932151D01*
X130905970Y-110954329D01*
X130914235Y-110977429D01*
X130920196Y-111001227D01*
X130923796Y-111025496D01*
X130925000Y-111050000D01*
X130925000Y-113950000D01*
X130923796Y-113974504D01*
X130920196Y-113998773D01*
X130914235Y-114022571D01*
X130905970Y-114045671D01*
X130895480Y-114067849D01*
X130882867Y-114088893D01*
X130868253Y-114108598D01*
X130851777Y-114126777D01*
X130833598Y-114143253D01*
X130813893Y-114157867D01*
X130792849Y-114170480D01*
X130770671Y-114180970D01*
X130747571Y-114189235D01*
X130723773Y-114195196D01*
X130699504Y-114198796D01*
X130675000Y-114200000D01*
X129875000Y-114200000D01*
X129850496Y-114198796D01*
X129826227Y-114195196D01*
X129802429Y-114189235D01*
X129779329Y-114180970D01*
X129757151Y-114170480D01*
X129736107Y-114157867D01*
X129716402Y-114143253D01*
X129698223Y-114126777D01*
X129681747Y-114108598D01*
X129667133Y-114088893D01*
X129654520Y-114067849D01*
X129644030Y-114045671D01*
X129635765Y-114022571D01*
X129629804Y-113998773D01*
X129626204Y-113974504D01*
X129625000Y-113950000D01*
X129625000Y-111050000D01*
X129626204Y-111025496D01*
X129629804Y-111001227D01*
X129635765Y-110977429D01*
X129644030Y-110954329D01*
X129654520Y-110932151D01*
X129667133Y-110911107D01*
X129681747Y-110891402D01*
X129698223Y-110873223D01*
X129716402Y-110856747D01*
X129736107Y-110842133D01*
X129757151Y-110829520D01*
X129779329Y-110819030D01*
X129802429Y-110810765D01*
X129826227Y-110804804D01*
X129850496Y-110801204D01*
X129875000Y-110800000D01*
X130675000Y-110800000D01*
X130699504Y-110801204D01*
X130699504Y-110801204D01*
G37*
D14*
G04 #@! TD*
G04 #@! TO.P,F1,2*
G04 #@! TO.N,+BATT*
X130275000Y-112500000D03*
D15*
G04 #@! TO.P,Q2,1*
G04 #@! TO.N,Earth*
X113450000Y-117500000D03*
G04 #@! TO.P,Q2,2*
G04 #@! TO.N,/BATT*
X111550000Y-117500000D03*
G04 #@! TO.P,Q2,3*
G04 #@! TO.N,Net-(Q2-Pad3)*
X112500000Y-114500000D03*
G04 #@! TD*
D16*
G04 #@! TO.P,P1,1*
G04 #@! TO.N,+3V3*
X142240000Y-118980000D03*
D17*
G04 #@! TO.P,P1,2*
G04 #@! TO.N,SWCLK*
X144780000Y-118980000D03*
G04 #@! TO.P,P1,3*
G04 #@! TO.N,Earth*
X147320000Y-118980000D03*
G04 #@! TO.P,P1,4*
G04 #@! TO.N,SWDIO*
X149860000Y-118980000D03*
G04 #@! TO.P,P1,5*
G04 #@! TO.N,NRST*
X152400000Y-118980000D03*
G04 #@! TO.P,P1,6*
G04 #@! TO.N,USART2_TX*
X154940000Y-118980000D03*
G04 #@! TD*
D11*
G04 #@! TO.N,SENSOR_PWR*
G04 #@! TO.C,J1*
G36*
X90944504Y-77891204D02*
X90968773Y-77894804D01*
X90992571Y-77900765D01*
X91015671Y-77909030D01*
X91037849Y-77919520D01*
X91058893Y-77932133D01*
X91078598Y-77946747D01*
X91096777Y-77963223D01*
X91113253Y-77981402D01*
X91127867Y-78001107D01*
X91140480Y-78022151D01*
X91150970Y-78044329D01*
X91159235Y-78067429D01*
X91165196Y-78091227D01*
X91168796Y-78115496D01*
X91170000Y-78140000D01*
X91170000Y-79340000D01*
X91168796Y-79364504D01*
X91165196Y-79388773D01*
X91159235Y-79412571D01*
X91150970Y-79435671D01*
X91140480Y-79457849D01*
X91127867Y-79478893D01*
X91113253Y-79498598D01*
X91096777Y-79516777D01*
X91078598Y-79533253D01*
X91058893Y-79547867D01*
X91037849Y-79560480D01*
X91015671Y-79570970D01*
X90992571Y-79579235D01*
X90968773Y-79585196D01*
X90944504Y-79588796D01*
X90920000Y-79590000D01*
X89420000Y-79590000D01*
X89395496Y-79588796D01*
X89371227Y-79585196D01*
X89347429Y-79579235D01*
X89324329Y-79570970D01*
X89302151Y-79560480D01*
X89281107Y-79547867D01*
X89261402Y-79533253D01*
X89243223Y-79516777D01*
X89226747Y-79498598D01*
X89212133Y-79478893D01*
X89199520Y-79457849D01*
X89189030Y-79435671D01*
X89180765Y-79412571D01*
X89174804Y-79388773D01*
X89171204Y-79364504D01*
X89170000Y-79340000D01*
X89170000Y-78140000D01*
X89171204Y-78115496D01*
X89174804Y-78091227D01*
X89180765Y-78067429D01*
X89189030Y-78044329D01*
X89199520Y-78022151D01*
X89212133Y-78001107D01*
X89226747Y-77981402D01*
X89243223Y-77963223D01*
X89261402Y-77946747D01*
X89281107Y-77932133D01*
X89302151Y-77919520D01*
X89324329Y-77909030D01*
X89347429Y-77900765D01*
X89371227Y-77894804D01*
X89395496Y-77891204D01*
X89420000Y-77890000D01*
X90920000Y-77890000D01*
X90944504Y-77891204D01*
X90944504Y-77891204D01*
G37*
D12*
G04 #@! TD*
G04 #@! TO.P,J1,1*
G04 #@! TO.N,SENSOR_PWR*
X90170000Y-78740000D03*
D18*
G04 #@! TO.P,J1,2*
G04 #@! TO.N,WATER_LEVEL*
X90170000Y-81240000D03*
G04 #@! TD*
D11*
G04 #@! TO.N,+5V*
G04 #@! TO.C,J2*
G36*
X90919504Y-100751204D02*
X90943773Y-100754804D01*
X90967571Y-100760765D01*
X90990671Y-100769030D01*
X91012849Y-100779520D01*
X91033893Y-100792133D01*
X91053598Y-100806747D01*
X91071777Y-100823223D01*
X91088253Y-100841402D01*
X91102867Y-100861107D01*
X91115480Y-100882151D01*
X91125970Y-100904329D01*
X91134235Y-100927429D01*
X91140196Y-100951227D01*
X91143796Y-100975496D01*
X91145000Y-101000000D01*
X91145000Y-102200000D01*
X91143796Y-102224504D01*
X91140196Y-102248773D01*
X91134235Y-102272571D01*
X91125970Y-102295671D01*
X91115480Y-102317849D01*
X91102867Y-102338893D01*
X91088253Y-102358598D01*
X91071777Y-102376777D01*
X91053598Y-102393253D01*
X91033893Y-102407867D01*
X91012849Y-102420480D01*
X90990671Y-102430970D01*
X90967571Y-102439235D01*
X90943773Y-102445196D01*
X90919504Y-102448796D01*
X90895000Y-102450000D01*
X89445000Y-102450000D01*
X89420496Y-102448796D01*
X89396227Y-102445196D01*
X89372429Y-102439235D01*
X89349329Y-102430970D01*
X89327151Y-102420480D01*
X89306107Y-102407867D01*
X89286402Y-102393253D01*
X89268223Y-102376777D01*
X89251747Y-102358598D01*
X89237133Y-102338893D01*
X89224520Y-102317849D01*
X89214030Y-102295671D01*
X89205765Y-102272571D01*
X89199804Y-102248773D01*
X89196204Y-102224504D01*
X89195000Y-102200000D01*
X89195000Y-101000000D01*
X89196204Y-100975496D01*
X89199804Y-100951227D01*
X89205765Y-100927429D01*
X89214030Y-100904329D01*
X89224520Y-100882151D01*
X89237133Y-100861107D01*
X89251747Y-100841402D01*
X89268223Y-100823223D01*
X89286402Y-100806747D01*
X89306107Y-100792133D01*
X89327151Y-100779520D01*
X89349329Y-100769030D01*
X89372429Y-100760765D01*
X89396227Y-100754804D01*
X89420496Y-100751204D01*
X89445000Y-100750000D01*
X90895000Y-100750000D01*
X90919504Y-100751204D01*
X90919504Y-100751204D01*
G37*
D12*
G04 #@! TD*
G04 #@! TO.P,J2,1*
G04 #@! TO.N,+5V*
X90170000Y-101600000D03*
D13*
G04 #@! TO.P,J2,2*
G04 #@! TO.N,MOTION*
X90170000Y-104100000D03*
G04 #@! TO.P,J2,3*
G04 #@! TO.N,Earth*
X90170000Y-106600000D03*
G04 #@! TD*
D11*
G04 #@! TO.N,+3V3*
G04 #@! TO.C,J3*
G36*
X90944504Y-89321204D02*
X90968773Y-89324804D01*
X90992571Y-89330765D01*
X91015671Y-89339030D01*
X91037849Y-89349520D01*
X91058893Y-89362133D01*
X91078598Y-89376747D01*
X91096777Y-89393223D01*
X91113253Y-89411402D01*
X91127867Y-89431107D01*
X91140480Y-89452151D01*
X91150970Y-89474329D01*
X91159235Y-89497429D01*
X91165196Y-89521227D01*
X91168796Y-89545496D01*
X91170000Y-89570000D01*
X91170000Y-90770000D01*
X91168796Y-90794504D01*
X91165196Y-90818773D01*
X91159235Y-90842571D01*
X91150970Y-90865671D01*
X91140480Y-90887849D01*
X91127867Y-90908893D01*
X91113253Y-90928598D01*
X91096777Y-90946777D01*
X91078598Y-90963253D01*
X91058893Y-90977867D01*
X91037849Y-90990480D01*
X91015671Y-91000970D01*
X90992571Y-91009235D01*
X90968773Y-91015196D01*
X90944504Y-91018796D01*
X90920000Y-91020000D01*
X89420000Y-91020000D01*
X89395496Y-91018796D01*
X89371227Y-91015196D01*
X89347429Y-91009235D01*
X89324329Y-91000970D01*
X89302151Y-90990480D01*
X89281107Y-90977867D01*
X89261402Y-90963253D01*
X89243223Y-90946777D01*
X89226747Y-90928598D01*
X89212133Y-90908893D01*
X89199520Y-90887849D01*
X89189030Y-90865671D01*
X89180765Y-90842571D01*
X89174804Y-90818773D01*
X89171204Y-90794504D01*
X89170000Y-90770000D01*
X89170000Y-89570000D01*
X89171204Y-89545496D01*
X89174804Y-89521227D01*
X89180765Y-89497429D01*
X89189030Y-89474329D01*
X89199520Y-89452151D01*
X89212133Y-89431107D01*
X89226747Y-89411402D01*
X89243223Y-89393223D01*
X89261402Y-89376747D01*
X89281107Y-89362133D01*
X89302151Y-89349520D01*
X89324329Y-89339030D01*
X89347429Y-89330765D01*
X89371227Y-89324804D01*
X89395496Y-89321204D01*
X89420000Y-89320000D01*
X90920000Y-89320000D01*
X90944504Y-89321204D01*
X90944504Y-89321204D01*
G37*
D12*
G04 #@! TD*
G04 #@! TO.P,J3,1*
G04 #@! TO.N,+3V3*
X90170000Y-90170000D03*
D18*
G04 #@! TO.P,J3,2*
G04 #@! TO.N,DOOR*
X90170000Y-92670000D03*
G04 #@! TD*
D11*
G04 #@! TO.N,+5V*
G04 #@! TO.C,J4*
G36*
X169774504Y-91151204D02*
X169798773Y-91154804D01*
X169822571Y-91160765D01*
X169845671Y-91169030D01*
X169867849Y-91179520D01*
X169888893Y-91192133D01*
X169908598Y-91206747D01*
X169926777Y-91223223D01*
X169943253Y-91241402D01*
X169957867Y-91261107D01*
X169970480Y-91282151D01*
X169980970Y-91304329D01*
X169989235Y-91327429D01*
X169995196Y-91351227D01*
X169998796Y-91375496D01*
X170000000Y-91400000D01*
X170000000Y-92600000D01*
X169998796Y-92624504D01*
X169995196Y-92648773D01*
X169989235Y-92672571D01*
X169980970Y-92695671D01*
X169970480Y-92717849D01*
X169957867Y-92738893D01*
X169943253Y-92758598D01*
X169926777Y-92776777D01*
X169908598Y-92793253D01*
X169888893Y-92807867D01*
X169867849Y-92820480D01*
X169845671Y-92830970D01*
X169822571Y-92839235D01*
X169798773Y-92845196D01*
X169774504Y-92848796D01*
X169750000Y-92850000D01*
X168250000Y-92850000D01*
X168225496Y-92848796D01*
X168201227Y-92845196D01*
X168177429Y-92839235D01*
X168154329Y-92830970D01*
X168132151Y-92820480D01*
X168111107Y-92807867D01*
X168091402Y-92793253D01*
X168073223Y-92776777D01*
X168056747Y-92758598D01*
X168042133Y-92738893D01*
X168029520Y-92717849D01*
X168019030Y-92695671D01*
X168010765Y-92672571D01*
X168004804Y-92648773D01*
X168001204Y-92624504D01*
X168000000Y-92600000D01*
X168000000Y-91400000D01*
X168001204Y-91375496D01*
X168004804Y-91351227D01*
X168010765Y-91327429D01*
X168019030Y-91304329D01*
X168029520Y-91282151D01*
X168042133Y-91261107D01*
X168056747Y-91241402D01*
X168073223Y-91223223D01*
X168091402Y-91206747D01*
X168111107Y-91192133D01*
X168132151Y-91179520D01*
X168154329Y-91169030D01*
X168177429Y-91160765D01*
X168201227Y-91154804D01*
X168225496Y-91151204D01*
X168250000Y-91150000D01*
X169750000Y-91150000D01*
X169774504Y-91151204D01*
X169774504Y-91151204D01*
G37*
D12*
G04 #@! TD*
G04 #@! TO.P,J4,1*
G04 #@! TO.N,+5V*
X169000000Y-92000000D03*
D18*
G04 #@! TO.P,J4,2*
G04 #@! TO.N,Net-(J4-Pad2)*
X169000000Y-89500000D03*
G04 #@! TD*
D11*
G04 #@! TO.N,+3V3*
G04 #@! TO.C,R2*
G36*
X112435779Y-70776144D02*
X112458834Y-70779563D01*
X112481443Y-70785227D01*
X112503387Y-70793079D01*
X112524457Y-70803044D01*
X112544448Y-70815026D01*
X112563168Y-70828910D01*
X112580438Y-70844562D01*
X112596090Y-70861832D01*
X112609974Y-70880552D01*
X112621956Y-70900543D01*
X112631921Y-70921613D01*
X112639773Y-70943557D01*
X112645437Y-70966166D01*
X112648856Y-70989221D01*
X112650000Y-71012500D01*
X112650000Y-71487500D01*
X112648856Y-71510779D01*
X112645437Y-71533834D01*
X112639773Y-71556443D01*
X112631921Y-71578387D01*
X112621956Y-71599457D01*
X112609974Y-71619448D01*
X112596090Y-71638168D01*
X112580438Y-71655438D01*
X112563168Y-71671090D01*
X112544448Y-71684974D01*
X112524457Y-71696956D01*
X112503387Y-71706921D01*
X112481443Y-71714773D01*
X112458834Y-71720437D01*
X112435779Y-71723856D01*
X112412500Y-71725000D01*
X111837500Y-71725000D01*
X111814221Y-71723856D01*
X111791166Y-71720437D01*
X111768557Y-71714773D01*
X111746613Y-71706921D01*
X111725543Y-71696956D01*
X111705552Y-71684974D01*
X111686832Y-71671090D01*
X111669562Y-71655438D01*
X111653910Y-71638168D01*
X111640026Y-71619448D01*
X111628044Y-71599457D01*
X111618079Y-71578387D01*
X111610227Y-71556443D01*
X111604563Y-71533834D01*
X111601144Y-71510779D01*
X111600000Y-71487500D01*
X111600000Y-71012500D01*
X111601144Y-70989221D01*
X111604563Y-70966166D01*
X111610227Y-70943557D01*
X111618079Y-70921613D01*
X111628044Y-70900543D01*
X111640026Y-70880552D01*
X111653910Y-70861832D01*
X111669562Y-70844562D01*
X111686832Y-70828910D01*
X111705552Y-70815026D01*
X111725543Y-70803044D01*
X111746613Y-70793079D01*
X111768557Y-70785227D01*
X111791166Y-70779563D01*
X111814221Y-70776144D01*
X111837500Y-70775000D01*
X112412500Y-70775000D01*
X112435779Y-70776144D01*
X112435779Y-70776144D01*
G37*
D19*
G04 #@! TD*
G04 #@! TO.P,R2,1*
G04 #@! TO.N,+3V3*
X112125000Y-71250000D03*
D11*
G04 #@! TO.N,I2C1_SDA*
G04 #@! TO.C,R2*
G36*
X114185779Y-70776144D02*
X114208834Y-70779563D01*
X114231443Y-70785227D01*
X114253387Y-70793079D01*
X114274457Y-70803044D01*
X114294448Y-70815026D01*
X114313168Y-70828910D01*
X114330438Y-70844562D01*
X114346090Y-70861832D01*
X114359974Y-70880552D01*
X114371956Y-70900543D01*
X114381921Y-70921613D01*
X114389773Y-70943557D01*
X114395437Y-70966166D01*
X114398856Y-70989221D01*
X114400000Y-71012500D01*
X114400000Y-71487500D01*
X114398856Y-71510779D01*
X114395437Y-71533834D01*
X114389773Y-71556443D01*
X114381921Y-71578387D01*
X114371956Y-71599457D01*
X114359974Y-71619448D01*
X114346090Y-71638168D01*
X114330438Y-71655438D01*
X114313168Y-71671090D01*
X114294448Y-71684974D01*
X114274457Y-71696956D01*
X114253387Y-71706921D01*
X114231443Y-71714773D01*
X114208834Y-71720437D01*
X114185779Y-71723856D01*
X114162500Y-71725000D01*
X113587500Y-71725000D01*
X113564221Y-71723856D01*
X113541166Y-71720437D01*
X113518557Y-71714773D01*
X113496613Y-71706921D01*
X113475543Y-71696956D01*
X113455552Y-71684974D01*
X113436832Y-71671090D01*
X113419562Y-71655438D01*
X113403910Y-71638168D01*
X113390026Y-71619448D01*
X113378044Y-71599457D01*
X113368079Y-71578387D01*
X113360227Y-71556443D01*
X113354563Y-71533834D01*
X113351144Y-71510779D01*
X113350000Y-71487500D01*
X113350000Y-71012500D01*
X113351144Y-70989221D01*
X113354563Y-70966166D01*
X113360227Y-70943557D01*
X113368079Y-70921613D01*
X113378044Y-70900543D01*
X113390026Y-70880552D01*
X113403910Y-70861832D01*
X113419562Y-70844562D01*
X113436832Y-70828910D01*
X113455552Y-70815026D01*
X113475543Y-70803044D01*
X113496613Y-70793079D01*
X113518557Y-70785227D01*
X113541166Y-70779563D01*
X113564221Y-70776144D01*
X113587500Y-70775000D01*
X114162500Y-70775000D01*
X114185779Y-70776144D01*
X114185779Y-70776144D01*
G37*
D19*
G04 #@! TD*
G04 #@! TO.P,R2,2*
G04 #@! TO.N,I2C1_SDA*
X113875000Y-71250000D03*
D11*
G04 #@! TO.N,I2C1_SCL*
G04 #@! TO.C,R3*
G36*
X116510779Y-69101144D02*
X116533834Y-69104563D01*
X116556443Y-69110227D01*
X116578387Y-69118079D01*
X116599457Y-69128044D01*
X116619448Y-69140026D01*
X116638168Y-69153910D01*
X116655438Y-69169562D01*
X116671090Y-69186832D01*
X116684974Y-69205552D01*
X116696956Y-69225543D01*
X116706921Y-69246613D01*
X116714773Y-69268557D01*
X116720437Y-69291166D01*
X116723856Y-69314221D01*
X116725000Y-69337500D01*
X116725000Y-69912500D01*
X116723856Y-69935779D01*
X116720437Y-69958834D01*
X116714773Y-69981443D01*
X116706921Y-70003387D01*
X116696956Y-70024457D01*
X116684974Y-70044448D01*
X116671090Y-70063168D01*
X116655438Y-70080438D01*
X116638168Y-70096090D01*
X116619448Y-70109974D01*
X116599457Y-70121956D01*
X116578387Y-70131921D01*
X116556443Y-70139773D01*
X116533834Y-70145437D01*
X116510779Y-70148856D01*
X116487500Y-70150000D01*
X116012500Y-70150000D01*
X115989221Y-70148856D01*
X115966166Y-70145437D01*
X115943557Y-70139773D01*
X115921613Y-70131921D01*
X115900543Y-70121956D01*
X115880552Y-70109974D01*
X115861832Y-70096090D01*
X115844562Y-70080438D01*
X115828910Y-70063168D01*
X115815026Y-70044448D01*
X115803044Y-70024457D01*
X115793079Y-70003387D01*
X115785227Y-69981443D01*
X115779563Y-69958834D01*
X115776144Y-69935779D01*
X115775000Y-69912500D01*
X115775000Y-69337500D01*
X115776144Y-69314221D01*
X115779563Y-69291166D01*
X115785227Y-69268557D01*
X115793079Y-69246613D01*
X115803044Y-69225543D01*
X115815026Y-69205552D01*
X115828910Y-69186832D01*
X115844562Y-69169562D01*
X115861832Y-69153910D01*
X115880552Y-69140026D01*
X115900543Y-69128044D01*
X115921613Y-69118079D01*
X115943557Y-69110227D01*
X115966166Y-69104563D01*
X115989221Y-69101144D01*
X116012500Y-69100000D01*
X116487500Y-69100000D01*
X116510779Y-69101144D01*
X116510779Y-69101144D01*
G37*
D19*
G04 #@! TD*
G04 #@! TO.P,R3,2*
G04 #@! TO.N,I2C1_SCL*
X116250000Y-69625000D03*
D11*
G04 #@! TO.N,+3V3*
G04 #@! TO.C,R3*
G36*
X116510779Y-67351144D02*
X116533834Y-67354563D01*
X116556443Y-67360227D01*
X116578387Y-67368079D01*
X116599457Y-67378044D01*
X116619448Y-67390026D01*
X116638168Y-67403910D01*
X116655438Y-67419562D01*
X116671090Y-67436832D01*
X116684974Y-67455552D01*
X116696956Y-67475543D01*
X116706921Y-67496613D01*
X116714773Y-67518557D01*
X116720437Y-67541166D01*
X116723856Y-67564221D01*
X116725000Y-67587500D01*
X116725000Y-68162500D01*
X116723856Y-68185779D01*
X116720437Y-68208834D01*
X116714773Y-68231443D01*
X116706921Y-68253387D01*
X116696956Y-68274457D01*
X116684974Y-68294448D01*
X116671090Y-68313168D01*
X116655438Y-68330438D01*
X116638168Y-68346090D01*
X116619448Y-68359974D01*
X116599457Y-68371956D01*
X116578387Y-68381921D01*
X116556443Y-68389773D01*
X116533834Y-68395437D01*
X116510779Y-68398856D01*
X116487500Y-68400000D01*
X116012500Y-68400000D01*
X115989221Y-68398856D01*
X115966166Y-68395437D01*
X115943557Y-68389773D01*
X115921613Y-68381921D01*
X115900543Y-68371956D01*
X115880552Y-68359974D01*
X115861832Y-68346090D01*
X115844562Y-68330438D01*
X115828910Y-68313168D01*
X115815026Y-68294448D01*
X115803044Y-68274457D01*
X115793079Y-68253387D01*
X115785227Y-68231443D01*
X115779563Y-68208834D01*
X115776144Y-68185779D01*
X115775000Y-68162500D01*
X115775000Y-67587500D01*
X115776144Y-67564221D01*
X115779563Y-67541166D01*
X115785227Y-67518557D01*
X115793079Y-67496613D01*
X115803044Y-67475543D01*
X115815026Y-67455552D01*
X115828910Y-67436832D01*
X115844562Y-67419562D01*
X115861832Y-67403910D01*
X115880552Y-67390026D01*
X115900543Y-67378044D01*
X115921613Y-67368079D01*
X115943557Y-67360227D01*
X115966166Y-67354563D01*
X115989221Y-67351144D01*
X116012500Y-67350000D01*
X116487500Y-67350000D01*
X116510779Y-67351144D01*
X116510779Y-67351144D01*
G37*
D19*
G04 #@! TD*
G04 #@! TO.P,R3,1*
G04 #@! TO.N,+3V3*
X116250000Y-67875000D03*
D11*
G04 #@! TO.N,SENSOR_PWR*
G04 #@! TO.C,R6*
G36*
X94760779Y-68601144D02*
X94783834Y-68604563D01*
X94806443Y-68610227D01*
X94828387Y-68618079D01*
X94849457Y-68628044D01*
X94869448Y-68640026D01*
X94888168Y-68653910D01*
X94905438Y-68669562D01*
X94921090Y-68686832D01*
X94934974Y-68705552D01*
X94946956Y-68725543D01*
X94956921Y-68746613D01*
X94964773Y-68768557D01*
X94970437Y-68791166D01*
X94973856Y-68814221D01*
X94975000Y-68837500D01*
X94975000Y-69412500D01*
X94973856Y-69435779D01*
X94970437Y-69458834D01*
X94964773Y-69481443D01*
X94956921Y-69503387D01*
X94946956Y-69524457D01*
X94934974Y-69544448D01*
X94921090Y-69563168D01*
X94905438Y-69580438D01*
X94888168Y-69596090D01*
X94869448Y-69609974D01*
X94849457Y-69621956D01*
X94828387Y-69631921D01*
X94806443Y-69639773D01*
X94783834Y-69645437D01*
X94760779Y-69648856D01*
X94737500Y-69650000D01*
X94262500Y-69650000D01*
X94239221Y-69648856D01*
X94216166Y-69645437D01*
X94193557Y-69639773D01*
X94171613Y-69631921D01*
X94150543Y-69621956D01*
X94130552Y-69609974D01*
X94111832Y-69596090D01*
X94094562Y-69580438D01*
X94078910Y-69563168D01*
X94065026Y-69544448D01*
X94053044Y-69524457D01*
X94043079Y-69503387D01*
X94035227Y-69481443D01*
X94029563Y-69458834D01*
X94026144Y-69435779D01*
X94025000Y-69412500D01*
X94025000Y-68837500D01*
X94026144Y-68814221D01*
X94029563Y-68791166D01*
X94035227Y-68768557D01*
X94043079Y-68746613D01*
X94053044Y-68725543D01*
X94065026Y-68705552D01*
X94078910Y-68686832D01*
X94094562Y-68669562D01*
X94111832Y-68653910D01*
X94130552Y-68640026D01*
X94150543Y-68628044D01*
X94171613Y-68618079D01*
X94193557Y-68610227D01*
X94216166Y-68604563D01*
X94239221Y-68601144D01*
X94262500Y-68600000D01*
X94737500Y-68600000D01*
X94760779Y-68601144D01*
X94760779Y-68601144D01*
G37*
D19*
G04 #@! TD*
G04 #@! TO.P,R6,1*
G04 #@! TO.N,SENSOR_PWR*
X94500000Y-69125000D03*
D11*
G04 #@! TO.N,WATER_TEMP*
G04 #@! TO.C,R6*
G36*
X94760779Y-66851144D02*
X94783834Y-66854563D01*
X94806443Y-66860227D01*
X94828387Y-66868079D01*
X94849457Y-66878044D01*
X94869448Y-66890026D01*
X94888168Y-66903910D01*
X94905438Y-66919562D01*
X94921090Y-66936832D01*
X94934974Y-66955552D01*
X94946956Y-66975543D01*
X94956921Y-66996613D01*
X94964773Y-67018557D01*
X94970437Y-67041166D01*
X94973856Y-67064221D01*
X94975000Y-67087500D01*
X94975000Y-67662500D01*
X94973856Y-67685779D01*
X94970437Y-67708834D01*
X94964773Y-67731443D01*
X94956921Y-67753387D01*
X94946956Y-67774457D01*
X94934974Y-67794448D01*
X94921090Y-67813168D01*
X94905438Y-67830438D01*
X94888168Y-67846090D01*
X94869448Y-67859974D01*
X94849457Y-67871956D01*
X94828387Y-67881921D01*
X94806443Y-67889773D01*
X94783834Y-67895437D01*
X94760779Y-67898856D01*
X94737500Y-67900000D01*
X94262500Y-67900000D01*
X94239221Y-67898856D01*
X94216166Y-67895437D01*
X94193557Y-67889773D01*
X94171613Y-67881921D01*
X94150543Y-67871956D01*
X94130552Y-67859974D01*
X94111832Y-67846090D01*
X94094562Y-67830438D01*
X94078910Y-67813168D01*
X94065026Y-67794448D01*
X94053044Y-67774457D01*
X94043079Y-67753387D01*
X94035227Y-67731443D01*
X94029563Y-67708834D01*
X94026144Y-67685779D01*
X94025000Y-67662500D01*
X94025000Y-67087500D01*
X94026144Y-67064221D01*
X94029563Y-67041166D01*
X94035227Y-67018557D01*
X94043079Y-66996613D01*
X94053044Y-66975543D01*
X94065026Y-66955552D01*
X94078910Y-66936832D01*
X94094562Y-66919562D01*
X94111832Y-66903910D01*
X94130552Y-66890026D01*
X94150543Y-66878044D01*
X94171613Y-66868079D01*
X94193557Y-66860227D01*
X94216166Y-66854563D01*
X94239221Y-66851144D01*
X94262500Y-66850000D01*
X94737500Y-66850000D01*
X94760779Y-66851144D01*
X94760779Y-66851144D01*
G37*
D19*
G04 #@! TD*
G04 #@! TO.P,R6,2*
G04 #@! TO.N,WATER_TEMP*
X94500000Y-67375000D03*
D11*
G04 #@! TO.N,Earth*
G04 #@! TO.C,R7*
G36*
X94224505Y-78376204D02*
X94248773Y-78379804D01*
X94272572Y-78385765D01*
X94295671Y-78394030D01*
X94317850Y-78404520D01*
X94338893Y-78417132D01*
X94358599Y-78431747D01*
X94376777Y-78448223D01*
X94393253Y-78466401D01*
X94407868Y-78486107D01*
X94420480Y-78507150D01*
X94430970Y-78529329D01*
X94439235Y-78552428D01*
X94445196Y-78576227D01*
X94448796Y-78600495D01*
X94450000Y-78624999D01*
X94450000Y-79275001D01*
X94448796Y-79299505D01*
X94445196Y-79323773D01*
X94439235Y-79347572D01*
X94430970Y-79370671D01*
X94420480Y-79392850D01*
X94407868Y-79413893D01*
X94393253Y-79433599D01*
X94376777Y-79451777D01*
X94358599Y-79468253D01*
X94338893Y-79482868D01*
X94317850Y-79495480D01*
X94295671Y-79505970D01*
X94272572Y-79514235D01*
X94248773Y-79520196D01*
X94224505Y-79523796D01*
X94200001Y-79525000D01*
X93299999Y-79525000D01*
X93275495Y-79523796D01*
X93251227Y-79520196D01*
X93227428Y-79514235D01*
X93204329Y-79505970D01*
X93182150Y-79495480D01*
X93161107Y-79482868D01*
X93141401Y-79468253D01*
X93123223Y-79451777D01*
X93106747Y-79433599D01*
X93092132Y-79413893D01*
X93079520Y-79392850D01*
X93069030Y-79370671D01*
X93060765Y-79347572D01*
X93054804Y-79323773D01*
X93051204Y-79299505D01*
X93050000Y-79275001D01*
X93050000Y-78624999D01*
X93051204Y-78600495D01*
X93054804Y-78576227D01*
X93060765Y-78552428D01*
X93069030Y-78529329D01*
X93079520Y-78507150D01*
X93092132Y-78486107D01*
X93106747Y-78466401D01*
X93123223Y-78448223D01*
X93141401Y-78431747D01*
X93161107Y-78417132D01*
X93182150Y-78404520D01*
X93204329Y-78394030D01*
X93227428Y-78385765D01*
X93251227Y-78379804D01*
X93275495Y-78376204D01*
X93299999Y-78375000D01*
X94200001Y-78375000D01*
X94224505Y-78376204D01*
X94224505Y-78376204D01*
G37*
D20*
G04 #@! TD*
G04 #@! TO.P,R7,2*
G04 #@! TO.N,Earth*
X93750000Y-78950000D03*
D11*
G04 #@! TO.N,WATER_LEVEL*
G04 #@! TO.C,R7*
G36*
X94224505Y-80426204D02*
X94248773Y-80429804D01*
X94272572Y-80435765D01*
X94295671Y-80444030D01*
X94317850Y-80454520D01*
X94338893Y-80467132D01*
X94358599Y-80481747D01*
X94376777Y-80498223D01*
X94393253Y-80516401D01*
X94407868Y-80536107D01*
X94420480Y-80557150D01*
X94430970Y-80579329D01*
X94439235Y-80602428D01*
X94445196Y-80626227D01*
X94448796Y-80650495D01*
X94450000Y-80674999D01*
X94450000Y-81325001D01*
X94448796Y-81349505D01*
X94445196Y-81373773D01*
X94439235Y-81397572D01*
X94430970Y-81420671D01*
X94420480Y-81442850D01*
X94407868Y-81463893D01*
X94393253Y-81483599D01*
X94376777Y-81501777D01*
X94358599Y-81518253D01*
X94338893Y-81532868D01*
X94317850Y-81545480D01*
X94295671Y-81555970D01*
X94272572Y-81564235D01*
X94248773Y-81570196D01*
X94224505Y-81573796D01*
X94200001Y-81575000D01*
X93299999Y-81575000D01*
X93275495Y-81573796D01*
X93251227Y-81570196D01*
X93227428Y-81564235D01*
X93204329Y-81555970D01*
X93182150Y-81545480D01*
X93161107Y-81532868D01*
X93141401Y-81518253D01*
X93123223Y-81501777D01*
X93106747Y-81483599D01*
X93092132Y-81463893D01*
X93079520Y-81442850D01*
X93069030Y-81420671D01*
X93060765Y-81397572D01*
X93054804Y-81373773D01*
X93051204Y-81349505D01*
X93050000Y-81325001D01*
X93050000Y-80674999D01*
X93051204Y-80650495D01*
X93054804Y-80626227D01*
X93060765Y-80602428D01*
X93069030Y-80579329D01*
X93079520Y-80557150D01*
X93092132Y-80536107D01*
X93106747Y-80516401D01*
X93123223Y-80498223D01*
X93141401Y-80481747D01*
X93161107Y-80467132D01*
X93182150Y-80454520D01*
X93204329Y-80444030D01*
X93227428Y-80435765D01*
X93251227Y-80429804D01*
X93275495Y-80426204D01*
X93299999Y-80425000D01*
X94200001Y-80425000D01*
X94224505Y-80426204D01*
X94224505Y-80426204D01*
G37*
D20*
G04 #@! TD*
G04 #@! TO.P,R7,1*
G04 #@! TO.N,WATER_LEVEL*
X93750000Y-81000000D03*
D11*
G04 #@! TO.N,/BATT_V*
G04 #@! TO.C,R9*
G36*
X105574505Y-102551204D02*
X105598773Y-102554804D01*
X105622572Y-102560765D01*
X105645671Y-102569030D01*
X105667850Y-102579520D01*
X105688893Y-102592132D01*
X105708599Y-102606747D01*
X105726777Y-102623223D01*
X105743253Y-102641401D01*
X105757868Y-102661107D01*
X105770480Y-102682150D01*
X105780970Y-102704329D01*
X105789235Y-102727428D01*
X105795196Y-102751227D01*
X105798796Y-102775495D01*
X105800000Y-102799999D01*
X105800000Y-103700001D01*
X105798796Y-103724505D01*
X105795196Y-103748773D01*
X105789235Y-103772572D01*
X105780970Y-103795671D01*
X105770480Y-103817850D01*
X105757868Y-103838893D01*
X105743253Y-103858599D01*
X105726777Y-103876777D01*
X105708599Y-103893253D01*
X105688893Y-103907868D01*
X105667850Y-103920480D01*
X105645671Y-103930970D01*
X105622572Y-103939235D01*
X105598773Y-103945196D01*
X105574505Y-103948796D01*
X105550001Y-103950000D01*
X104899999Y-103950000D01*
X104875495Y-103948796D01*
X104851227Y-103945196D01*
X104827428Y-103939235D01*
X104804329Y-103930970D01*
X104782150Y-103920480D01*
X104761107Y-103907868D01*
X104741401Y-103893253D01*
X104723223Y-103876777D01*
X104706747Y-103858599D01*
X104692132Y-103838893D01*
X104679520Y-103817850D01*
X104669030Y-103795671D01*
X104660765Y-103772572D01*
X104654804Y-103748773D01*
X104651204Y-103724505D01*
X104650000Y-103700001D01*
X104650000Y-102799999D01*
X104651204Y-102775495D01*
X104654804Y-102751227D01*
X104660765Y-102727428D01*
X104669030Y-102704329D01*
X104679520Y-102682150D01*
X104692132Y-102661107D01*
X104706747Y-102641401D01*
X104723223Y-102623223D01*
X104741401Y-102606747D01*
X104761107Y-102592132D01*
X104782150Y-102579520D01*
X104804329Y-102569030D01*
X104827428Y-102560765D01*
X104851227Y-102554804D01*
X104875495Y-102551204D01*
X104899999Y-102550000D01*
X105550001Y-102550000D01*
X105574505Y-102551204D01*
X105574505Y-102551204D01*
G37*
D20*
G04 #@! TD*
G04 #@! TO.P,R9,1*
G04 #@! TO.N,/BATT_V*
X105225000Y-103250000D03*
D11*
G04 #@! TO.N,Earth*
G04 #@! TO.C,R9*
G36*
X107624505Y-102551204D02*
X107648773Y-102554804D01*
X107672572Y-102560765D01*
X107695671Y-102569030D01*
X107717850Y-102579520D01*
X107738893Y-102592132D01*
X107758599Y-102606747D01*
X107776777Y-102623223D01*
X107793253Y-102641401D01*
X107807868Y-102661107D01*
X107820480Y-102682150D01*
X107830970Y-102704329D01*
X107839235Y-102727428D01*
X107845196Y-102751227D01*
X107848796Y-102775495D01*
X107850000Y-102799999D01*
X107850000Y-103700001D01*
X107848796Y-103724505D01*
X107845196Y-103748773D01*
X107839235Y-103772572D01*
X107830970Y-103795671D01*
X107820480Y-103817850D01*
X107807868Y-103838893D01*
X107793253Y-103858599D01*
X107776777Y-103876777D01*
X107758599Y-103893253D01*
X107738893Y-103907868D01*
X107717850Y-103920480D01*
X107695671Y-103930970D01*
X107672572Y-103939235D01*
X107648773Y-103945196D01*
X107624505Y-103948796D01*
X107600001Y-103950000D01*
X106949999Y-103950000D01*
X106925495Y-103948796D01*
X106901227Y-103945196D01*
X106877428Y-103939235D01*
X106854329Y-103930970D01*
X106832150Y-103920480D01*
X106811107Y-103907868D01*
X106791401Y-103893253D01*
X106773223Y-103876777D01*
X106756747Y-103858599D01*
X106742132Y-103838893D01*
X106729520Y-103817850D01*
X106719030Y-103795671D01*
X106710765Y-103772572D01*
X106704804Y-103748773D01*
X106701204Y-103724505D01*
X106700000Y-103700001D01*
X106700000Y-102799999D01*
X106701204Y-102775495D01*
X106704804Y-102751227D01*
X106710765Y-102727428D01*
X106719030Y-102704329D01*
X106729520Y-102682150D01*
X106742132Y-102661107D01*
X106756747Y-102641401D01*
X106773223Y-102623223D01*
X106791401Y-102606747D01*
X106811107Y-102592132D01*
X106832150Y-102579520D01*
X106854329Y-102569030D01*
X106877428Y-102560765D01*
X106901227Y-102554804D01*
X106925495Y-102551204D01*
X106949999Y-102550000D01*
X107600001Y-102550000D01*
X107624505Y-102551204D01*
X107624505Y-102551204D01*
G37*
D20*
G04 #@! TD*
G04 #@! TO.P,R9,2*
G04 #@! TO.N,Earth*
X107275000Y-103250000D03*
D11*
G04 #@! TO.N,+3V3*
G04 #@! TO.C,R10*
G36*
X104685779Y-72526144D02*
X104708834Y-72529563D01*
X104731443Y-72535227D01*
X104753387Y-72543079D01*
X104774457Y-72553044D01*
X104794448Y-72565026D01*
X104813168Y-72578910D01*
X104830438Y-72594562D01*
X104846090Y-72611832D01*
X104859974Y-72630552D01*
X104871956Y-72650543D01*
X104881921Y-72671613D01*
X104889773Y-72693557D01*
X104895437Y-72716166D01*
X104898856Y-72739221D01*
X104900000Y-72762500D01*
X104900000Y-73237500D01*
X104898856Y-73260779D01*
X104895437Y-73283834D01*
X104889773Y-73306443D01*
X104881921Y-73328387D01*
X104871956Y-73349457D01*
X104859974Y-73369448D01*
X104846090Y-73388168D01*
X104830438Y-73405438D01*
X104813168Y-73421090D01*
X104794448Y-73434974D01*
X104774457Y-73446956D01*
X104753387Y-73456921D01*
X104731443Y-73464773D01*
X104708834Y-73470437D01*
X104685779Y-73473856D01*
X104662500Y-73475000D01*
X104087500Y-73475000D01*
X104064221Y-73473856D01*
X104041166Y-73470437D01*
X104018557Y-73464773D01*
X103996613Y-73456921D01*
X103975543Y-73446956D01*
X103955552Y-73434974D01*
X103936832Y-73421090D01*
X103919562Y-73405438D01*
X103903910Y-73388168D01*
X103890026Y-73369448D01*
X103878044Y-73349457D01*
X103868079Y-73328387D01*
X103860227Y-73306443D01*
X103854563Y-73283834D01*
X103851144Y-73260779D01*
X103850000Y-73237500D01*
X103850000Y-72762500D01*
X103851144Y-72739221D01*
X103854563Y-72716166D01*
X103860227Y-72693557D01*
X103868079Y-72671613D01*
X103878044Y-72650543D01*
X103890026Y-72630552D01*
X103903910Y-72611832D01*
X103919562Y-72594562D01*
X103936832Y-72578910D01*
X103955552Y-72565026D01*
X103975543Y-72553044D01*
X103996613Y-72543079D01*
X104018557Y-72535227D01*
X104041166Y-72529563D01*
X104064221Y-72526144D01*
X104087500Y-72525000D01*
X104662500Y-72525000D01*
X104685779Y-72526144D01*
X104685779Y-72526144D01*
G37*
D19*
G04 #@! TD*
G04 #@! TO.P,R10,1*
G04 #@! TO.N,+3V3*
X104375000Y-73000000D03*
D11*
G04 #@! TO.N,ADC_RDY*
G04 #@! TO.C,R10*
G36*
X102935779Y-72526144D02*
X102958834Y-72529563D01*
X102981443Y-72535227D01*
X103003387Y-72543079D01*
X103024457Y-72553044D01*
X103044448Y-72565026D01*
X103063168Y-72578910D01*
X103080438Y-72594562D01*
X103096090Y-72611832D01*
X103109974Y-72630552D01*
X103121956Y-72650543D01*
X103131921Y-72671613D01*
X103139773Y-72693557D01*
X103145437Y-72716166D01*
X103148856Y-72739221D01*
X103150000Y-72762500D01*
X103150000Y-73237500D01*
X103148856Y-73260779D01*
X103145437Y-73283834D01*
X103139773Y-73306443D01*
X103131921Y-73328387D01*
X103121956Y-73349457D01*
X103109974Y-73369448D01*
X103096090Y-73388168D01*
X103080438Y-73405438D01*
X103063168Y-73421090D01*
X103044448Y-73434974D01*
X103024457Y-73446956D01*
X103003387Y-73456921D01*
X102981443Y-73464773D01*
X102958834Y-73470437D01*
X102935779Y-73473856D01*
X102912500Y-73475000D01*
X102337500Y-73475000D01*
X102314221Y-73473856D01*
X102291166Y-73470437D01*
X102268557Y-73464773D01*
X102246613Y-73456921D01*
X102225543Y-73446956D01*
X102205552Y-73434974D01*
X102186832Y-73421090D01*
X102169562Y-73405438D01*
X102153910Y-73388168D01*
X102140026Y-73369448D01*
X102128044Y-73349457D01*
X102118079Y-73328387D01*
X102110227Y-73306443D01*
X102104563Y-73283834D01*
X102101144Y-73260779D01*
X102100000Y-73237500D01*
X102100000Y-72762500D01*
X102101144Y-72739221D01*
X102104563Y-72716166D01*
X102110227Y-72693557D01*
X102118079Y-72671613D01*
X102128044Y-72650543D01*
X102140026Y-72630552D01*
X102153910Y-72611832D01*
X102169562Y-72594562D01*
X102186832Y-72578910D01*
X102205552Y-72565026D01*
X102225543Y-72553044D01*
X102246613Y-72543079D01*
X102268557Y-72535227D01*
X102291166Y-72529563D01*
X102314221Y-72526144D01*
X102337500Y-72525000D01*
X102912500Y-72525000D01*
X102935779Y-72526144D01*
X102935779Y-72526144D01*
G37*
D19*
G04 #@! TD*
G04 #@! TO.P,R10,2*
G04 #@! TO.N,ADC_RDY*
X102625000Y-73000000D03*
D11*
G04 #@! TO.N,Earth*
G04 #@! TO.C,R11*
G36*
X95174505Y-105851204D02*
X95198773Y-105854804D01*
X95222572Y-105860765D01*
X95245671Y-105869030D01*
X95267850Y-105879520D01*
X95288893Y-105892132D01*
X95308599Y-105906747D01*
X95326777Y-105923223D01*
X95343253Y-105941401D01*
X95357868Y-105961107D01*
X95370480Y-105982150D01*
X95380970Y-106004329D01*
X95389235Y-106027428D01*
X95395196Y-106051227D01*
X95398796Y-106075495D01*
X95400000Y-106099999D01*
X95400000Y-106750001D01*
X95398796Y-106774505D01*
X95395196Y-106798773D01*
X95389235Y-106822572D01*
X95380970Y-106845671D01*
X95370480Y-106867850D01*
X95357868Y-106888893D01*
X95343253Y-106908599D01*
X95326777Y-106926777D01*
X95308599Y-106943253D01*
X95288893Y-106957868D01*
X95267850Y-106970480D01*
X95245671Y-106980970D01*
X95222572Y-106989235D01*
X95198773Y-106995196D01*
X95174505Y-106998796D01*
X95150001Y-107000000D01*
X94249999Y-107000000D01*
X94225495Y-106998796D01*
X94201227Y-106995196D01*
X94177428Y-106989235D01*
X94154329Y-106980970D01*
X94132150Y-106970480D01*
X94111107Y-106957868D01*
X94091401Y-106943253D01*
X94073223Y-106926777D01*
X94056747Y-106908599D01*
X94042132Y-106888893D01*
X94029520Y-106867850D01*
X94019030Y-106845671D01*
X94010765Y-106822572D01*
X94004804Y-106798773D01*
X94001204Y-106774505D01*
X94000000Y-106750001D01*
X94000000Y-106099999D01*
X94001204Y-106075495D01*
X94004804Y-106051227D01*
X94010765Y-106027428D01*
X94019030Y-106004329D01*
X94029520Y-105982150D01*
X94042132Y-105961107D01*
X94056747Y-105941401D01*
X94073223Y-105923223D01*
X94091401Y-105906747D01*
X94111107Y-105892132D01*
X94132150Y-105879520D01*
X94154329Y-105869030D01*
X94177428Y-105860765D01*
X94201227Y-105854804D01*
X94225495Y-105851204D01*
X94249999Y-105850000D01*
X95150001Y-105850000D01*
X95174505Y-105851204D01*
X95174505Y-105851204D01*
G37*
D20*
G04 #@! TD*
G04 #@! TO.P,R11,2*
G04 #@! TO.N,Earth*
X94700000Y-106425000D03*
D11*
G04 #@! TO.N,MOTION*
G04 #@! TO.C,R11*
G36*
X95174505Y-103801204D02*
X95198773Y-103804804D01*
X95222572Y-103810765D01*
X95245671Y-103819030D01*
X95267850Y-103829520D01*
X95288893Y-103842132D01*
X95308599Y-103856747D01*
X95326777Y-103873223D01*
X95343253Y-103891401D01*
X95357868Y-103911107D01*
X95370480Y-103932150D01*
X95380970Y-103954329D01*
X95389235Y-103977428D01*
X95395196Y-104001227D01*
X95398796Y-104025495D01*
X95400000Y-104049999D01*
X95400000Y-104700001D01*
X95398796Y-104724505D01*
X95395196Y-104748773D01*
X95389235Y-104772572D01*
X95380970Y-104795671D01*
X95370480Y-104817850D01*
X95357868Y-104838893D01*
X95343253Y-104858599D01*
X95326777Y-104876777D01*
X95308599Y-104893253D01*
X95288893Y-104907868D01*
X95267850Y-104920480D01*
X95245671Y-104930970D01*
X95222572Y-104939235D01*
X95198773Y-104945196D01*
X95174505Y-104948796D01*
X95150001Y-104950000D01*
X94249999Y-104950000D01*
X94225495Y-104948796D01*
X94201227Y-104945196D01*
X94177428Y-104939235D01*
X94154329Y-104930970D01*
X94132150Y-104920480D01*
X94111107Y-104907868D01*
X94091401Y-104893253D01*
X94073223Y-104876777D01*
X94056747Y-104858599D01*
X94042132Y-104838893D01*
X94029520Y-104817850D01*
X94019030Y-104795671D01*
X94010765Y-104772572D01*
X94004804Y-104748773D01*
X94001204Y-104724505D01*
X94000000Y-104700001D01*
X94000000Y-104049999D01*
X94001204Y-104025495D01*
X94004804Y-104001227D01*
X94010765Y-103977428D01*
X94019030Y-103954329D01*
X94029520Y-103932150D01*
X94042132Y-103911107D01*
X94056747Y-103891401D01*
X94073223Y-103873223D01*
X94091401Y-103856747D01*
X94111107Y-103842132D01*
X94132150Y-103829520D01*
X94154329Y-103819030D01*
X94177428Y-103810765D01*
X94201227Y-103804804D01*
X94225495Y-103801204D01*
X94249999Y-103800000D01*
X95150001Y-103800000D01*
X95174505Y-103801204D01*
X95174505Y-103801204D01*
G37*
D20*
G04 #@! TD*
G04 #@! TO.P,R11,1*
G04 #@! TO.N,MOTION*
X94700000Y-104375000D03*
D11*
G04 #@! TO.N,DOOR*
G04 #@! TO.C,R12*
G36*
X94224505Y-92151204D02*
X94248773Y-92154804D01*
X94272572Y-92160765D01*
X94295671Y-92169030D01*
X94317850Y-92179520D01*
X94338893Y-92192132D01*
X94358599Y-92206747D01*
X94376777Y-92223223D01*
X94393253Y-92241401D01*
X94407868Y-92261107D01*
X94420480Y-92282150D01*
X94430970Y-92304329D01*
X94439235Y-92327428D01*
X94445196Y-92351227D01*
X94448796Y-92375495D01*
X94450000Y-92399999D01*
X94450000Y-93050001D01*
X94448796Y-93074505D01*
X94445196Y-93098773D01*
X94439235Y-93122572D01*
X94430970Y-93145671D01*
X94420480Y-93167850D01*
X94407868Y-93188893D01*
X94393253Y-93208599D01*
X94376777Y-93226777D01*
X94358599Y-93243253D01*
X94338893Y-93257868D01*
X94317850Y-93270480D01*
X94295671Y-93280970D01*
X94272572Y-93289235D01*
X94248773Y-93295196D01*
X94224505Y-93298796D01*
X94200001Y-93300000D01*
X93299999Y-93300000D01*
X93275495Y-93298796D01*
X93251227Y-93295196D01*
X93227428Y-93289235D01*
X93204329Y-93280970D01*
X93182150Y-93270480D01*
X93161107Y-93257868D01*
X93141401Y-93243253D01*
X93123223Y-93226777D01*
X93106747Y-93208599D01*
X93092132Y-93188893D01*
X93079520Y-93167850D01*
X93069030Y-93145671D01*
X93060765Y-93122572D01*
X93054804Y-93098773D01*
X93051204Y-93074505D01*
X93050000Y-93050001D01*
X93050000Y-92399999D01*
X93051204Y-92375495D01*
X93054804Y-92351227D01*
X93060765Y-92327428D01*
X93069030Y-92304329D01*
X93079520Y-92282150D01*
X93092132Y-92261107D01*
X93106747Y-92241401D01*
X93123223Y-92223223D01*
X93141401Y-92206747D01*
X93161107Y-92192132D01*
X93182150Y-92179520D01*
X93204329Y-92169030D01*
X93227428Y-92160765D01*
X93251227Y-92154804D01*
X93275495Y-92151204D01*
X93299999Y-92150000D01*
X94200001Y-92150000D01*
X94224505Y-92151204D01*
X94224505Y-92151204D01*
G37*
D20*
G04 #@! TD*
G04 #@! TO.P,R12,1*
G04 #@! TO.N,DOOR*
X93750000Y-92725000D03*
D11*
G04 #@! TO.N,Earth*
G04 #@! TO.C,R12*
G36*
X94224505Y-94201204D02*
X94248773Y-94204804D01*
X94272572Y-94210765D01*
X94295671Y-94219030D01*
X94317850Y-94229520D01*
X94338893Y-94242132D01*
X94358599Y-94256747D01*
X94376777Y-94273223D01*
X94393253Y-94291401D01*
X94407868Y-94311107D01*
X94420480Y-94332150D01*
X94430970Y-94354329D01*
X94439235Y-94377428D01*
X94445196Y-94401227D01*
X94448796Y-94425495D01*
X94450000Y-94449999D01*
X94450000Y-95100001D01*
X94448796Y-95124505D01*
X94445196Y-95148773D01*
X94439235Y-95172572D01*
X94430970Y-95195671D01*
X94420480Y-95217850D01*
X94407868Y-95238893D01*
X94393253Y-95258599D01*
X94376777Y-95276777D01*
X94358599Y-95293253D01*
X94338893Y-95307868D01*
X94317850Y-95320480D01*
X94295671Y-95330970D01*
X94272572Y-95339235D01*
X94248773Y-95345196D01*
X94224505Y-95348796D01*
X94200001Y-95350000D01*
X93299999Y-95350000D01*
X93275495Y-95348796D01*
X93251227Y-95345196D01*
X93227428Y-95339235D01*
X93204329Y-95330970D01*
X93182150Y-95320480D01*
X93161107Y-95307868D01*
X93141401Y-95293253D01*
X93123223Y-95276777D01*
X93106747Y-95258599D01*
X93092132Y-95238893D01*
X93079520Y-95217850D01*
X93069030Y-95195671D01*
X93060765Y-95172572D01*
X93054804Y-95148773D01*
X93051204Y-95124505D01*
X93050000Y-95100001D01*
X93050000Y-94449999D01*
X93051204Y-94425495D01*
X93054804Y-94401227D01*
X93060765Y-94377428D01*
X93069030Y-94354329D01*
X93079520Y-94332150D01*
X93092132Y-94311107D01*
X93106747Y-94291401D01*
X93123223Y-94273223D01*
X93141401Y-94256747D01*
X93161107Y-94242132D01*
X93182150Y-94229520D01*
X93204329Y-94219030D01*
X93227428Y-94210765D01*
X93251227Y-94204804D01*
X93275495Y-94201204D01*
X93299999Y-94200000D01*
X94200001Y-94200000D01*
X94224505Y-94201204D01*
X94224505Y-94201204D01*
G37*
D20*
G04 #@! TD*
G04 #@! TO.P,R12,2*
G04 #@! TO.N,Earth*
X93750000Y-94775000D03*
D18*
G04 #@! TO.P,TH1,2*
G04 #@! TO.N,Earth*
X90170000Y-69810000D03*
D11*
G04 #@! TD*
G04 #@! TO.N,WATER_TEMP*
G04 #@! TO.C,TH1*
G36*
X90944504Y-66461204D02*
X90968773Y-66464804D01*
X90992571Y-66470765D01*
X91015671Y-66479030D01*
X91037849Y-66489520D01*
X91058893Y-66502133D01*
X91078598Y-66516747D01*
X91096777Y-66533223D01*
X91113253Y-66551402D01*
X91127867Y-66571107D01*
X91140480Y-66592151D01*
X91150970Y-66614329D01*
X91159235Y-66637429D01*
X91165196Y-66661227D01*
X91168796Y-66685496D01*
X91170000Y-66710000D01*
X91170000Y-67910000D01*
X91168796Y-67934504D01*
X91165196Y-67958773D01*
X91159235Y-67982571D01*
X91150970Y-68005671D01*
X91140480Y-68027849D01*
X91127867Y-68048893D01*
X91113253Y-68068598D01*
X91096777Y-68086777D01*
X91078598Y-68103253D01*
X91058893Y-68117867D01*
X91037849Y-68130480D01*
X91015671Y-68140970D01*
X90992571Y-68149235D01*
X90968773Y-68155196D01*
X90944504Y-68158796D01*
X90920000Y-68160000D01*
X89420000Y-68160000D01*
X89395496Y-68158796D01*
X89371227Y-68155196D01*
X89347429Y-68149235D01*
X89324329Y-68140970D01*
X89302151Y-68130480D01*
X89281107Y-68117867D01*
X89261402Y-68103253D01*
X89243223Y-68086777D01*
X89226747Y-68068598D01*
X89212133Y-68048893D01*
X89199520Y-68027849D01*
X89189030Y-68005671D01*
X89180765Y-67982571D01*
X89174804Y-67958773D01*
X89171204Y-67934504D01*
X89170000Y-67910000D01*
X89170000Y-66710000D01*
X89171204Y-66685496D01*
X89174804Y-66661227D01*
X89180765Y-66637429D01*
X89189030Y-66614329D01*
X89199520Y-66592151D01*
X89212133Y-66571107D01*
X89226747Y-66551402D01*
X89243223Y-66533223D01*
X89261402Y-66516747D01*
X89281107Y-66502133D01*
X89302151Y-66489520D01*
X89324329Y-66479030D01*
X89347429Y-66470765D01*
X89371227Y-66464804D01*
X89395496Y-66461204D01*
X89420000Y-66460000D01*
X90920000Y-66460000D01*
X90944504Y-66461204D01*
X90944504Y-66461204D01*
G37*
D12*
G04 #@! TO.P,TH1,1*
G04 #@! TO.N,WATER_TEMP*
X90170000Y-67310000D03*
G04 #@! TD*
D11*
G04 #@! TO.N,/BATT*
G04 #@! TO.C,R8*
G36*
X107624505Y-106051204D02*
X107648773Y-106054804D01*
X107672572Y-106060765D01*
X107695671Y-106069030D01*
X107717850Y-106079520D01*
X107738893Y-106092132D01*
X107758599Y-106106747D01*
X107776777Y-106123223D01*
X107793253Y-106141401D01*
X107807868Y-106161107D01*
X107820480Y-106182150D01*
X107830970Y-106204329D01*
X107839235Y-106227428D01*
X107845196Y-106251227D01*
X107848796Y-106275495D01*
X107850000Y-106299999D01*
X107850000Y-107200001D01*
X107848796Y-107224505D01*
X107845196Y-107248773D01*
X107839235Y-107272572D01*
X107830970Y-107295671D01*
X107820480Y-107317850D01*
X107807868Y-107338893D01*
X107793253Y-107358599D01*
X107776777Y-107376777D01*
X107758599Y-107393253D01*
X107738893Y-107407868D01*
X107717850Y-107420480D01*
X107695671Y-107430970D01*
X107672572Y-107439235D01*
X107648773Y-107445196D01*
X107624505Y-107448796D01*
X107600001Y-107450000D01*
X106949999Y-107450000D01*
X106925495Y-107448796D01*
X106901227Y-107445196D01*
X106877428Y-107439235D01*
X106854329Y-107430970D01*
X106832150Y-107420480D01*
X106811107Y-107407868D01*
X106791401Y-107393253D01*
X106773223Y-107376777D01*
X106756747Y-107358599D01*
X106742132Y-107338893D01*
X106729520Y-107317850D01*
X106719030Y-107295671D01*
X106710765Y-107272572D01*
X106704804Y-107248773D01*
X106701204Y-107224505D01*
X106700000Y-107200001D01*
X106700000Y-106299999D01*
X106701204Y-106275495D01*
X106704804Y-106251227D01*
X106710765Y-106227428D01*
X106719030Y-106204329D01*
X106729520Y-106182150D01*
X106742132Y-106161107D01*
X106756747Y-106141401D01*
X106773223Y-106123223D01*
X106791401Y-106106747D01*
X106811107Y-106092132D01*
X106832150Y-106079520D01*
X106854329Y-106069030D01*
X106877428Y-106060765D01*
X106901227Y-106054804D01*
X106925495Y-106051204D01*
X106949999Y-106050000D01*
X107600001Y-106050000D01*
X107624505Y-106051204D01*
X107624505Y-106051204D01*
G37*
D20*
G04 #@! TD*
G04 #@! TO.P,R8,2*
G04 #@! TO.N,/BATT*
X107275000Y-106750000D03*
D11*
G04 #@! TO.N,/BATT_V*
G04 #@! TO.C,R8*
G36*
X105574505Y-106051204D02*
X105598773Y-106054804D01*
X105622572Y-106060765D01*
X105645671Y-106069030D01*
X105667850Y-106079520D01*
X105688893Y-106092132D01*
X105708599Y-106106747D01*
X105726777Y-106123223D01*
X105743253Y-106141401D01*
X105757868Y-106161107D01*
X105770480Y-106182150D01*
X105780970Y-106204329D01*
X105789235Y-106227428D01*
X105795196Y-106251227D01*
X105798796Y-106275495D01*
X105800000Y-106299999D01*
X105800000Y-107200001D01*
X105798796Y-107224505D01*
X105795196Y-107248773D01*
X105789235Y-107272572D01*
X105780970Y-107295671D01*
X105770480Y-107317850D01*
X105757868Y-107338893D01*
X105743253Y-107358599D01*
X105726777Y-107376777D01*
X105708599Y-107393253D01*
X105688893Y-107407868D01*
X105667850Y-107420480D01*
X105645671Y-107430970D01*
X105622572Y-107439235D01*
X105598773Y-107445196D01*
X105574505Y-107448796D01*
X105550001Y-107450000D01*
X104899999Y-107450000D01*
X104875495Y-107448796D01*
X104851227Y-107445196D01*
X104827428Y-107439235D01*
X104804329Y-107430970D01*
X104782150Y-107420480D01*
X104761107Y-107407868D01*
X104741401Y-107393253D01*
X104723223Y-107376777D01*
X104706747Y-107358599D01*
X104692132Y-107338893D01*
X104679520Y-107317850D01*
X104669030Y-107295671D01*
X104660765Y-107272572D01*
X104654804Y-107248773D01*
X104651204Y-107224505D01*
X104650000Y-107200001D01*
X104650000Y-106299999D01*
X104651204Y-106275495D01*
X104654804Y-106251227D01*
X104660765Y-106227428D01*
X104669030Y-106204329D01*
X104679520Y-106182150D01*
X104692132Y-106161107D01*
X104706747Y-106141401D01*
X104723223Y-106123223D01*
X104741401Y-106106747D01*
X104761107Y-106092132D01*
X104782150Y-106079520D01*
X104804329Y-106069030D01*
X104827428Y-106060765D01*
X104851227Y-106054804D01*
X104875495Y-106051204D01*
X104899999Y-106050000D01*
X105550001Y-106050000D01*
X105574505Y-106051204D01*
X105574505Y-106051204D01*
G37*
D20*
G04 #@! TD*
G04 #@! TO.P,R8,1*
G04 #@! TO.N,/BATT_V*
X105225000Y-106750000D03*
D11*
G04 #@! TO.N,Net-(R20-Pad2)*
G04 #@! TO.C,R5*
G36*
X108014504Y-56031204D02*
X108038773Y-56034804D01*
X108062571Y-56040765D01*
X108085671Y-56049030D01*
X108107849Y-56059520D01*
X108128893Y-56072133D01*
X108148598Y-56086747D01*
X108166777Y-56103223D01*
X108183253Y-56121402D01*
X108197867Y-56141107D01*
X108210480Y-56162151D01*
X108220970Y-56184329D01*
X108229235Y-56207429D01*
X108235196Y-56231227D01*
X108238796Y-56255496D01*
X108240000Y-56280000D01*
X108240000Y-57780000D01*
X108238796Y-57804504D01*
X108235196Y-57828773D01*
X108229235Y-57852571D01*
X108220970Y-57875671D01*
X108210480Y-57897849D01*
X108197867Y-57918893D01*
X108183253Y-57938598D01*
X108166777Y-57956777D01*
X108148598Y-57973253D01*
X108128893Y-57987867D01*
X108107849Y-58000480D01*
X108085671Y-58010970D01*
X108062571Y-58019235D01*
X108038773Y-58025196D01*
X108014504Y-58028796D01*
X107990000Y-58030000D01*
X106790000Y-58030000D01*
X106765496Y-58028796D01*
X106741227Y-58025196D01*
X106717429Y-58019235D01*
X106694329Y-58010970D01*
X106672151Y-58000480D01*
X106651107Y-57987867D01*
X106631402Y-57973253D01*
X106613223Y-57956777D01*
X106596747Y-57938598D01*
X106582133Y-57918893D01*
X106569520Y-57897849D01*
X106559030Y-57875671D01*
X106550765Y-57852571D01*
X106544804Y-57828773D01*
X106541204Y-57804504D01*
X106540000Y-57780000D01*
X106540000Y-56280000D01*
X106541204Y-56255496D01*
X106544804Y-56231227D01*
X106550765Y-56207429D01*
X106559030Y-56184329D01*
X106569520Y-56162151D01*
X106582133Y-56141107D01*
X106596747Y-56121402D01*
X106613223Y-56103223D01*
X106631402Y-56086747D01*
X106651107Y-56072133D01*
X106672151Y-56059520D01*
X106694329Y-56049030D01*
X106717429Y-56040765D01*
X106741227Y-56034804D01*
X106765496Y-56031204D01*
X106790000Y-56030000D01*
X107990000Y-56030000D01*
X108014504Y-56031204D01*
X108014504Y-56031204D01*
G37*
D12*
G04 #@! TD*
G04 #@! TO.P,R5,1*
G04 #@! TO.N,Net-(R20-Pad2)*
X107390000Y-57030000D03*
D21*
G04 #@! TO.P,R5,2*
G04 #@! TO.N,Net-(R19-Pad2)*
X109890000Y-57030000D03*
G04 #@! TD*
D22*
G04 #@! TO.P,H1,1*
G04 #@! TO.N,Earth*
X90000000Y-57500000D03*
G04 #@! TD*
G04 #@! TO.P,H2,1*
G04 #@! TO.N,Earth*
X90000000Y-117500000D03*
G04 #@! TD*
G04 #@! TO.P,H3,1*
G04 #@! TO.N,Earth*
X170000000Y-57500000D03*
G04 #@! TD*
G04 #@! TO.P,H4,1*
G04 #@! TO.N,Earth*
X170000000Y-117500000D03*
G04 #@! TD*
D11*
G04 #@! TO.N,+3V3*
G04 #@! TO.C,C7*
G36*
X113474505Y-67201204D02*
X113498773Y-67204804D01*
X113522572Y-67210765D01*
X113545671Y-67219030D01*
X113567850Y-67229520D01*
X113588893Y-67242132D01*
X113608599Y-67256747D01*
X113626777Y-67273223D01*
X113643253Y-67291401D01*
X113657868Y-67311107D01*
X113670480Y-67332150D01*
X113680970Y-67354329D01*
X113689235Y-67377428D01*
X113695196Y-67401227D01*
X113698796Y-67425495D01*
X113700000Y-67449999D01*
X113700000Y-68100001D01*
X113698796Y-68124505D01*
X113695196Y-68148773D01*
X113689235Y-68172572D01*
X113680970Y-68195671D01*
X113670480Y-68217850D01*
X113657868Y-68238893D01*
X113643253Y-68258599D01*
X113626777Y-68276777D01*
X113608599Y-68293253D01*
X113588893Y-68307868D01*
X113567850Y-68320480D01*
X113545671Y-68330970D01*
X113522572Y-68339235D01*
X113498773Y-68345196D01*
X113474505Y-68348796D01*
X113450001Y-68350000D01*
X112549999Y-68350000D01*
X112525495Y-68348796D01*
X112501227Y-68345196D01*
X112477428Y-68339235D01*
X112454329Y-68330970D01*
X112432150Y-68320480D01*
X112411107Y-68307868D01*
X112391401Y-68293253D01*
X112373223Y-68276777D01*
X112356747Y-68258599D01*
X112342132Y-68238893D01*
X112329520Y-68217850D01*
X112319030Y-68195671D01*
X112310765Y-68172572D01*
X112304804Y-68148773D01*
X112301204Y-68124505D01*
X112300000Y-68100001D01*
X112300000Y-67449999D01*
X112301204Y-67425495D01*
X112304804Y-67401227D01*
X112310765Y-67377428D01*
X112319030Y-67354329D01*
X112329520Y-67332150D01*
X112342132Y-67311107D01*
X112356747Y-67291401D01*
X112373223Y-67273223D01*
X112391401Y-67256747D01*
X112411107Y-67242132D01*
X112432150Y-67229520D01*
X112454329Y-67219030D01*
X112477428Y-67210765D01*
X112501227Y-67204804D01*
X112525495Y-67201204D01*
X112549999Y-67200000D01*
X113450001Y-67200000D01*
X113474505Y-67201204D01*
X113474505Y-67201204D01*
G37*
D20*
G04 #@! TD*
G04 #@! TO.P,C7,1*
G04 #@! TO.N,+3V3*
X113000000Y-67775000D03*
D11*
G04 #@! TO.N,Earth*
G04 #@! TO.C,C7*
G36*
X113474505Y-65151204D02*
X113498773Y-65154804D01*
X113522572Y-65160765D01*
X113545671Y-65169030D01*
X113567850Y-65179520D01*
X113588893Y-65192132D01*
X113608599Y-65206747D01*
X113626777Y-65223223D01*
X113643253Y-65241401D01*
X113657868Y-65261107D01*
X113670480Y-65282150D01*
X113680970Y-65304329D01*
X113689235Y-65327428D01*
X113695196Y-65351227D01*
X113698796Y-65375495D01*
X113700000Y-65399999D01*
X113700000Y-66050001D01*
X113698796Y-66074505D01*
X113695196Y-66098773D01*
X113689235Y-66122572D01*
X113680970Y-66145671D01*
X113670480Y-66167850D01*
X113657868Y-66188893D01*
X113643253Y-66208599D01*
X113626777Y-66226777D01*
X113608599Y-66243253D01*
X113588893Y-66257868D01*
X113567850Y-66270480D01*
X113545671Y-66280970D01*
X113522572Y-66289235D01*
X113498773Y-66295196D01*
X113474505Y-66298796D01*
X113450001Y-66300000D01*
X112549999Y-66300000D01*
X112525495Y-66298796D01*
X112501227Y-66295196D01*
X112477428Y-66289235D01*
X112454329Y-66280970D01*
X112432150Y-66270480D01*
X112411107Y-66257868D01*
X112391401Y-66243253D01*
X112373223Y-66226777D01*
X112356747Y-66208599D01*
X112342132Y-66188893D01*
X112329520Y-66167850D01*
X112319030Y-66145671D01*
X112310765Y-66122572D01*
X112304804Y-66098773D01*
X112301204Y-66074505D01*
X112300000Y-66050001D01*
X112300000Y-65399999D01*
X112301204Y-65375495D01*
X112304804Y-65351227D01*
X112310765Y-65327428D01*
X112319030Y-65304329D01*
X112329520Y-65282150D01*
X112342132Y-65261107D01*
X112356747Y-65241401D01*
X112373223Y-65223223D01*
X112391401Y-65206747D01*
X112411107Y-65192132D01*
X112432150Y-65179520D01*
X112454329Y-65169030D01*
X112477428Y-65160765D01*
X112501227Y-65154804D01*
X112525495Y-65151204D01*
X112549999Y-65150000D01*
X113450001Y-65150000D01*
X113474505Y-65151204D01*
X113474505Y-65151204D01*
G37*
D20*
G04 #@! TD*
G04 #@! TO.P,C7,2*
G04 #@! TO.N,Earth*
X113000000Y-65725000D03*
D23*
G04 #@! TO.P,J7,1*
G04 #@! TO.N,Earth*
X118000000Y-116800000D03*
D24*
G04 #@! TO.P,J7,2*
G04 #@! TO.N,+BATT*
X123080000Y-116800000D03*
G04 #@! TD*
D25*
G04 #@! TO.P,C12,1*
G04 #@! TO.N,/BATT*
X116200000Y-106600000D03*
D26*
G04 #@! TO.P,C12,2*
G04 #@! TO.N,Earth*
X112700000Y-106600000D03*
G04 #@! TD*
D11*
G04 #@! TO.N,PUMP*
G04 #@! TO.C,J6*
G36*
X169774504Y-105151204D02*
X169798773Y-105154804D01*
X169822571Y-105160765D01*
X169845671Y-105169030D01*
X169867849Y-105179520D01*
X169888893Y-105192133D01*
X169908598Y-105206747D01*
X169926777Y-105223223D01*
X169943253Y-105241402D01*
X169957867Y-105261107D01*
X169970480Y-105282151D01*
X169980970Y-105304329D01*
X169989235Y-105327429D01*
X169995196Y-105351227D01*
X169998796Y-105375496D01*
X170000000Y-105400000D01*
X170000000Y-106600000D01*
X169998796Y-106624504D01*
X169995196Y-106648773D01*
X169989235Y-106672571D01*
X169980970Y-106695671D01*
X169970480Y-106717849D01*
X169957867Y-106738893D01*
X169943253Y-106758598D01*
X169926777Y-106776777D01*
X169908598Y-106793253D01*
X169888893Y-106807867D01*
X169867849Y-106820480D01*
X169845671Y-106830970D01*
X169822571Y-106839235D01*
X169798773Y-106845196D01*
X169774504Y-106848796D01*
X169750000Y-106850000D01*
X168250000Y-106850000D01*
X168225496Y-106848796D01*
X168201227Y-106845196D01*
X168177429Y-106839235D01*
X168154329Y-106830970D01*
X168132151Y-106820480D01*
X168111107Y-106807867D01*
X168091402Y-106793253D01*
X168073223Y-106776777D01*
X168056747Y-106758598D01*
X168042133Y-106738893D01*
X168029520Y-106717849D01*
X168019030Y-106695671D01*
X168010765Y-106672571D01*
X168004804Y-106648773D01*
X168001204Y-106624504D01*
X168000000Y-106600000D01*
X168000000Y-105400000D01*
X168001204Y-105375496D01*
X168004804Y-105351227D01*
X168010765Y-105327429D01*
X168019030Y-105304329D01*
X168029520Y-105282151D01*
X168042133Y-105261107D01*
X168056747Y-105241402D01*
X168073223Y-105223223D01*
X168091402Y-105206747D01*
X168111107Y-105192133D01*
X168132151Y-105179520D01*
X168154329Y-105169030D01*
X168177429Y-105160765D01*
X168201227Y-105154804D01*
X168225496Y-105151204D01*
X168250000Y-105150000D01*
X169750000Y-105150000D01*
X169774504Y-105151204D01*
X169774504Y-105151204D01*
G37*
D12*
G04 #@! TD*
G04 #@! TO.P,J6,1*
G04 #@! TO.N,PUMP*
X169000000Y-106000000D03*
D18*
G04 #@! TO.P,J6,2*
G04 #@! TO.N,PUMP*
X169000000Y-103500000D03*
G04 #@! TD*
D27*
G04 #@! TO.P,D3,1*
G04 #@! TO.N,/BATT*
X108500000Y-112500000D03*
D28*
G04 #@! TO.P,D3,2*
G04 #@! TO.N,Earth*
X103420000Y-112500000D03*
G04 #@! TD*
D11*
G04 #@! TO.N,Net-(R19-Pad2)*
G04 #@! TO.C,R19*
G36*
X110060779Y-59951144D02*
X110083834Y-59954563D01*
X110106443Y-59960227D01*
X110128387Y-59968079D01*
X110149457Y-59978044D01*
X110169448Y-59990026D01*
X110188168Y-60003910D01*
X110205438Y-60019562D01*
X110221090Y-60036832D01*
X110234974Y-60055552D01*
X110246956Y-60075543D01*
X110256921Y-60096613D01*
X110264773Y-60118557D01*
X110270437Y-60141166D01*
X110273856Y-60164221D01*
X110275000Y-60187500D01*
X110275000Y-60762500D01*
X110273856Y-60785779D01*
X110270437Y-60808834D01*
X110264773Y-60831443D01*
X110256921Y-60853387D01*
X110246956Y-60874457D01*
X110234974Y-60894448D01*
X110221090Y-60913168D01*
X110205438Y-60930438D01*
X110188168Y-60946090D01*
X110169448Y-60959974D01*
X110149457Y-60971956D01*
X110128387Y-60981921D01*
X110106443Y-60989773D01*
X110083834Y-60995437D01*
X110060779Y-60998856D01*
X110037500Y-61000000D01*
X109562500Y-61000000D01*
X109539221Y-60998856D01*
X109516166Y-60995437D01*
X109493557Y-60989773D01*
X109471613Y-60981921D01*
X109450543Y-60971956D01*
X109430552Y-60959974D01*
X109411832Y-60946090D01*
X109394562Y-60930438D01*
X109378910Y-60913168D01*
X109365026Y-60894448D01*
X109353044Y-60874457D01*
X109343079Y-60853387D01*
X109335227Y-60831443D01*
X109329563Y-60808834D01*
X109326144Y-60785779D01*
X109325000Y-60762500D01*
X109325000Y-60187500D01*
X109326144Y-60164221D01*
X109329563Y-60141166D01*
X109335227Y-60118557D01*
X109343079Y-60096613D01*
X109353044Y-60075543D01*
X109365026Y-60055552D01*
X109378910Y-60036832D01*
X109394562Y-60019562D01*
X109411832Y-60003910D01*
X109430552Y-59990026D01*
X109450543Y-59978044D01*
X109471613Y-59968079D01*
X109493557Y-59960227D01*
X109516166Y-59954563D01*
X109539221Y-59951144D01*
X109562500Y-59950000D01*
X110037500Y-59950000D01*
X110060779Y-59951144D01*
X110060779Y-59951144D01*
G37*
D19*
G04 #@! TD*
G04 #@! TO.P,R19,2*
G04 #@! TO.N,Net-(R19-Pad2)*
X109800000Y-60475000D03*
D11*
G04 #@! TO.N,/AIN2*
G04 #@! TO.C,R19*
G36*
X110060779Y-61701144D02*
X110083834Y-61704563D01*
X110106443Y-61710227D01*
X110128387Y-61718079D01*
X110149457Y-61728044D01*
X110169448Y-61740026D01*
X110188168Y-61753910D01*
X110205438Y-61769562D01*
X110221090Y-61786832D01*
X110234974Y-61805552D01*
X110246956Y-61825543D01*
X110256921Y-61846613D01*
X110264773Y-61868557D01*
X110270437Y-61891166D01*
X110273856Y-61914221D01*
X110275000Y-61937500D01*
X110275000Y-62512500D01*
X110273856Y-62535779D01*
X110270437Y-62558834D01*
X110264773Y-62581443D01*
X110256921Y-62603387D01*
X110246956Y-62624457D01*
X110234974Y-62644448D01*
X110221090Y-62663168D01*
X110205438Y-62680438D01*
X110188168Y-62696090D01*
X110169448Y-62709974D01*
X110149457Y-62721956D01*
X110128387Y-62731921D01*
X110106443Y-62739773D01*
X110083834Y-62745437D01*
X110060779Y-62748856D01*
X110037500Y-62750000D01*
X109562500Y-62750000D01*
X109539221Y-62748856D01*
X109516166Y-62745437D01*
X109493557Y-62739773D01*
X109471613Y-62731921D01*
X109450543Y-62721956D01*
X109430552Y-62709974D01*
X109411832Y-62696090D01*
X109394562Y-62680438D01*
X109378910Y-62663168D01*
X109365026Y-62644448D01*
X109353044Y-62624457D01*
X109343079Y-62603387D01*
X109335227Y-62581443D01*
X109329563Y-62558834D01*
X109326144Y-62535779D01*
X109325000Y-62512500D01*
X109325000Y-61937500D01*
X109326144Y-61914221D01*
X109329563Y-61891166D01*
X109335227Y-61868557D01*
X109343079Y-61846613D01*
X109353044Y-61825543D01*
X109365026Y-61805552D01*
X109378910Y-61786832D01*
X109394562Y-61769562D01*
X109411832Y-61753910D01*
X109430552Y-61740026D01*
X109450543Y-61728044D01*
X109471613Y-61718079D01*
X109493557Y-61710227D01*
X109516166Y-61704563D01*
X109539221Y-61701144D01*
X109562500Y-61700000D01*
X110037500Y-61700000D01*
X110060779Y-61701144D01*
X110060779Y-61701144D01*
G37*
D19*
G04 #@! TD*
G04 #@! TO.P,R19,1*
G04 #@! TO.N,/AIN2*
X109800000Y-62225000D03*
D11*
G04 #@! TO.N,/AIN3*
G04 #@! TO.C,R20*
G36*
X107560779Y-61751144D02*
X107583834Y-61754563D01*
X107606443Y-61760227D01*
X107628387Y-61768079D01*
X107649457Y-61778044D01*
X107669448Y-61790026D01*
X107688168Y-61803910D01*
X107705438Y-61819562D01*
X107721090Y-61836832D01*
X107734974Y-61855552D01*
X107746956Y-61875543D01*
X107756921Y-61896613D01*
X107764773Y-61918557D01*
X107770437Y-61941166D01*
X107773856Y-61964221D01*
X107775000Y-61987500D01*
X107775000Y-62562500D01*
X107773856Y-62585779D01*
X107770437Y-62608834D01*
X107764773Y-62631443D01*
X107756921Y-62653387D01*
X107746956Y-62674457D01*
X107734974Y-62694448D01*
X107721090Y-62713168D01*
X107705438Y-62730438D01*
X107688168Y-62746090D01*
X107669448Y-62759974D01*
X107649457Y-62771956D01*
X107628387Y-62781921D01*
X107606443Y-62789773D01*
X107583834Y-62795437D01*
X107560779Y-62798856D01*
X107537500Y-62800000D01*
X107062500Y-62800000D01*
X107039221Y-62798856D01*
X107016166Y-62795437D01*
X106993557Y-62789773D01*
X106971613Y-62781921D01*
X106950543Y-62771956D01*
X106930552Y-62759974D01*
X106911832Y-62746090D01*
X106894562Y-62730438D01*
X106878910Y-62713168D01*
X106865026Y-62694448D01*
X106853044Y-62674457D01*
X106843079Y-62653387D01*
X106835227Y-62631443D01*
X106829563Y-62608834D01*
X106826144Y-62585779D01*
X106825000Y-62562500D01*
X106825000Y-61987500D01*
X106826144Y-61964221D01*
X106829563Y-61941166D01*
X106835227Y-61918557D01*
X106843079Y-61896613D01*
X106853044Y-61875543D01*
X106865026Y-61855552D01*
X106878910Y-61836832D01*
X106894562Y-61819562D01*
X106911832Y-61803910D01*
X106930552Y-61790026D01*
X106950543Y-61778044D01*
X106971613Y-61768079D01*
X106993557Y-61760227D01*
X107016166Y-61754563D01*
X107039221Y-61751144D01*
X107062500Y-61750000D01*
X107537500Y-61750000D01*
X107560779Y-61751144D01*
X107560779Y-61751144D01*
G37*
D19*
G04 #@! TD*
G04 #@! TO.P,R20,1*
G04 #@! TO.N,/AIN3*
X107300000Y-62275000D03*
D11*
G04 #@! TO.N,Net-(R20-Pad2)*
G04 #@! TO.C,R20*
G36*
X107560779Y-60001144D02*
X107583834Y-60004563D01*
X107606443Y-60010227D01*
X107628387Y-60018079D01*
X107649457Y-60028044D01*
X107669448Y-60040026D01*
X107688168Y-60053910D01*
X107705438Y-60069562D01*
X107721090Y-60086832D01*
X107734974Y-60105552D01*
X107746956Y-60125543D01*
X107756921Y-60146613D01*
X107764773Y-60168557D01*
X107770437Y-60191166D01*
X107773856Y-60214221D01*
X107775000Y-60237500D01*
X107775000Y-60812500D01*
X107773856Y-60835779D01*
X107770437Y-60858834D01*
X107764773Y-60881443D01*
X107756921Y-60903387D01*
X107746956Y-60924457D01*
X107734974Y-60944448D01*
X107721090Y-60963168D01*
X107705438Y-60980438D01*
X107688168Y-60996090D01*
X107669448Y-61009974D01*
X107649457Y-61021956D01*
X107628387Y-61031921D01*
X107606443Y-61039773D01*
X107583834Y-61045437D01*
X107560779Y-61048856D01*
X107537500Y-61050000D01*
X107062500Y-61050000D01*
X107039221Y-61048856D01*
X107016166Y-61045437D01*
X106993557Y-61039773D01*
X106971613Y-61031921D01*
X106950543Y-61021956D01*
X106930552Y-61009974D01*
X106911832Y-60996090D01*
X106894562Y-60980438D01*
X106878910Y-60963168D01*
X106865026Y-60944448D01*
X106853044Y-60924457D01*
X106843079Y-60903387D01*
X106835227Y-60881443D01*
X106829563Y-60858834D01*
X106826144Y-60835779D01*
X106825000Y-60812500D01*
X106825000Y-60237500D01*
X106826144Y-60214221D01*
X106829563Y-60191166D01*
X106835227Y-60168557D01*
X106843079Y-60146613D01*
X106853044Y-60125543D01*
X106865026Y-60105552D01*
X106878910Y-60086832D01*
X106894562Y-60069562D01*
X106911832Y-60053910D01*
X106930552Y-60040026D01*
X106950543Y-60028044D01*
X106971613Y-60018079D01*
X106993557Y-60010227D01*
X107016166Y-60004563D01*
X107039221Y-60001144D01*
X107062500Y-60000000D01*
X107537500Y-60000000D01*
X107560779Y-60001144D01*
X107560779Y-60001144D01*
G37*
D19*
G04 #@! TD*
G04 #@! TO.P,R20,2*
G04 #@! TO.N,Net-(R20-Pad2)*
X107300000Y-60525000D03*
D29*
G04 #@! TO.P,U3,1*
G04 #@! TO.N,Earth*
X105850000Y-69000000D03*
G04 #@! TO.P,U3,2*
G04 #@! TO.N,ADC_RDY*
X105850000Y-68500000D03*
G04 #@! TO.P,U3,3*
G04 #@! TO.N,Earth*
X105850000Y-68000000D03*
G04 #@! TO.P,U3,4*
G04 #@! TO.N,/BATT_V*
X105850000Y-67500000D03*
G04 #@! TO.P,U3,5*
G04 #@! TO.N,WATER_TEMP*
X105850000Y-67000000D03*
G04 #@! TO.P,U3,6*
G04 #@! TO.N,/AIN2*
X110150000Y-67000000D03*
G04 #@! TO.P,U3,7*
G04 #@! TO.N,/AIN3*
X110150000Y-67500000D03*
G04 #@! TO.P,U3,8*
G04 #@! TO.N,+3V3*
X110150000Y-68000000D03*
G04 #@! TO.P,U3,9*
G04 #@! TO.N,I2C1_SDA*
X110150000Y-68500000D03*
G04 #@! TO.P,U3,10*
G04 #@! TO.N,I2C1_SCL*
X110150000Y-69000000D03*
G04 #@! TD*
D26*
G04 #@! TO.P,RV1,1*
G04 #@! TO.N,/BATT*
X108500000Y-119000000D03*
G04 #@! TO.P,RV1,2*
G04 #@! TO.N,Earth*
X103500000Y-116200000D03*
G04 #@! TD*
D16*
G04 #@! TO.P,SW1,1*
G04 #@! TO.N,Net-(Q2-Pad3)*
X135000000Y-117500000D03*
D17*
G04 #@! TO.P,SW1,2*
G04 #@! TO.N,Net-(F1-Pad1)*
X132460000Y-117500000D03*
G04 #@! TO.P,SW1,3*
G04 #@! TO.N,Net-(SW1-Pad3)*
X129920000Y-117500000D03*
G04 #@! TD*
D30*
G04 #@! TO.P,U7,1*
G04 #@! TO.N,/BATT*
X126800000Y-85600000D03*
D31*
G04 #@! TO.P,U7,2*
G04 #@! TO.N,Earth*
X124260000Y-85600000D03*
G04 #@! TO.P,U7,3*
G04 #@! TO.N,+5V*
X121720000Y-85600000D03*
G04 #@! TD*
D10*
G04 #@! TO.P,U6,2*
G04 #@! TO.N,Earth*
X124460000Y-71880000D03*
G04 #@! TD*
D32*
G04 #@! TO.N,Earth*
X124500000Y-70000000D03*
X129000000Y-72000000D03*
X127000000Y-72000000D03*
X122000000Y-72000000D03*
X120000000Y-72000000D03*
X127000000Y-70000000D03*
X129000000Y-70000000D03*
X122000000Y-70000000D03*
X120000000Y-70000000D03*
X124500000Y-100000000D03*
X120000000Y-100000000D03*
X122000000Y-100000000D03*
X127000000Y-100000000D03*
X129000000Y-100000000D03*
X127000000Y-98000000D03*
X129000000Y-98000000D03*
X122000000Y-98000000D03*
X120000000Y-98000000D03*
X157099994Y-72500000D03*
X156049996Y-69849992D03*
X150500000Y-63119003D03*
X146749994Y-90250000D03*
X142400000Y-88100002D03*
X122000000Y-57250000D03*
X124250000Y-60500000D03*
X113000000Y-62000000D03*
X93750000Y-74250000D03*
X107499992Y-68000000D03*
X112700000Y-81000000D03*
X115750000Y-76250000D03*
X132000000Y-95500000D03*
X117000000Y-95500000D03*
X132000000Y-101500000D03*
X117000000Y-101500000D03*
X146500000Y-85000000D03*
X146500000Y-85000000D03*
X146500000Y-85000000D03*
X120000000Y-70000000D03*
X120000000Y-70000000D03*
G04 #@! TO.N,SWCLK*
X148058156Y-91400004D03*
X147499986Y-76500008D03*
G04 #@! TO.N,SWDIO*
X149000000Y-90100000D03*
X149000000Y-78000004D03*
G04 #@! TO.N,NRST*
X149775000Y-81225000D03*
X150200000Y-91399996D03*
G04 #@! TO.N,+3V3*
X155500000Y-72400000D03*
X147000000Y-68250000D03*
X107340000Y-73000000D03*
X116002902Y-60002902D03*
G04 #@! TO.N,I2C1_SDA*
X141250000Y-80000000D03*
G04 #@! TO.N,I2C1_SCL*
X142499998Y-78500000D03*
G04 #@! TO.N,ADC_RDY*
X137000000Y-77000000D03*
G04 #@! TO.N,DIO0*
X145000000Y-68250000D03*
X159000000Y-76000000D03*
G04 #@! TO.N,SENSOR_PWR*
X139749998Y-77000002D03*
G04 #@! TO.N,WATER_LEVEL*
X139750010Y-75250000D03*
G04 #@! TO.N,MOTION*
X151000000Y-78000000D03*
G04 #@! TO.N,DOOR*
X150000000Y-76500000D03*
G04 #@! TO.N,+5V*
X109500000Y-105000000D03*
X118000000Y-88500000D03*
X97249998Y-88500000D03*
G04 #@! TO.N,/BATT_V*
X101000000Y-77500000D03*
X105250001Y-100700000D03*
G04 #@! TD*
D33*
G04 #@! TO.N,Earth*
X117010000Y-117790000D02*
X118000000Y-116800000D01*
X156049996Y-71450002D02*
X157099994Y-72500000D01*
X156049996Y-69849992D02*
X156049996Y-71450002D01*
X117300000Y-117500000D02*
X118000000Y-116800000D01*
X113450000Y-117500000D02*
X117300000Y-117500000D01*
X118000000Y-116800000D02*
X118000000Y-118554000D01*
X105000000Y-117700000D02*
X103500000Y-116200000D01*
X105000000Y-120000000D02*
X105000000Y-117700000D01*
X106000000Y-121000000D02*
X105000000Y-120000000D01*
X118000000Y-118554000D02*
X115554000Y-121000000D01*
X115554000Y-121000000D02*
X106000000Y-121000000D01*
X103500000Y-112580000D02*
X103420000Y-112500000D01*
X103500000Y-116200000D02*
X103500000Y-112580000D01*
X103210000Y-112290000D02*
X103420000Y-112500000D01*
X94525000Y-106600000D02*
X94700000Y-106425000D01*
X90170000Y-106600000D02*
X94525000Y-106600000D01*
X156049996Y-69849992D02*
X150500000Y-64299996D01*
X150500000Y-64299996D02*
X150500000Y-63657818D01*
X150500000Y-63657818D02*
X150500000Y-63119003D01*
X146749994Y-90250000D02*
X144599996Y-88100002D01*
X142938815Y-88100002D02*
X142400000Y-88100002D01*
X144599996Y-88100002D02*
X142938815Y-88100002D01*
X170000000Y-62025483D02*
X170000000Y-57500000D01*
X159500000Y-72500000D02*
X169974517Y-62025483D01*
X169974517Y-62025483D02*
X170000000Y-62025483D01*
X157099994Y-72500000D02*
X159500000Y-72500000D01*
X146470001Y-119829999D02*
X147320000Y-118980000D01*
X145300000Y-121000000D02*
X146470001Y-119829999D01*
X120446000Y-121000000D02*
X145300000Y-121000000D01*
X118000000Y-118554000D02*
X120446000Y-121000000D01*
X122000000Y-57250000D02*
X122000000Y-58250000D01*
X123869001Y-60119001D02*
X124250000Y-60500000D01*
X122000000Y-58250000D02*
X123869001Y-60119001D01*
X113000000Y-62000000D02*
X113000000Y-65725000D01*
X93750000Y-78950000D02*
X93750000Y-74250000D01*
X105850000Y-68000000D02*
X107499992Y-68000000D01*
X107499992Y-68154008D02*
X107499992Y-68000000D01*
X106654000Y-69000000D02*
X107499992Y-68154008D01*
X105850000Y-69000000D02*
X106654000Y-69000000D01*
X112161185Y-81000000D02*
X112700000Y-81000000D01*
X95800000Y-81000000D02*
X112161185Y-81000000D01*
X93750000Y-78950000D02*
X95800000Y-81000000D01*
X122070000Y-98570000D02*
X124460000Y-98570000D01*
D34*
X119000000Y-95500000D02*
X122070000Y-98570000D01*
D33*
X117000000Y-95500000D02*
X119000000Y-95500000D01*
X126930000Y-98570000D02*
X124460000Y-98570000D01*
D34*
X130000000Y-95500000D02*
X126930000Y-98570000D01*
D33*
X132000000Y-95500000D02*
X130000000Y-95500000D01*
X124460000Y-98960000D02*
X124460000Y-98570000D01*
X132000000Y-101500000D02*
X129890000Y-101500000D01*
X127890000Y-99500000D02*
X125000000Y-99500000D01*
X125000000Y-99500000D02*
X124460000Y-98960000D01*
X124460000Y-98570000D02*
X121960000Y-98570000D01*
D35*
X119000000Y-101500000D02*
X117000000Y-101500000D01*
D34*
X119530000Y-101000000D02*
X119400000Y-101000000D01*
X121960000Y-98570000D02*
X119530000Y-101000000D01*
X129390000Y-101000000D02*
X127890000Y-99500000D01*
X129400000Y-101000000D02*
X129390000Y-101000000D01*
D33*
X122750000Y-73750000D02*
X120000000Y-73750000D01*
D36*
X120000000Y-73750000D02*
X118500000Y-75250000D01*
D33*
X124460000Y-72040000D02*
X122750000Y-73750000D01*
X124460000Y-71880000D02*
X124460000Y-72040000D01*
X124460000Y-71880000D02*
X127120000Y-71880000D01*
D36*
X127120000Y-71880000D02*
X130250000Y-68750000D01*
D33*
G04 #@! TO.N,SWCLK*
X148058156Y-91400004D02*
X148058156Y-77058178D01*
X148058156Y-77058178D02*
X147880985Y-76881007D01*
X147880985Y-76881007D02*
X147499986Y-76500008D01*
G04 #@! TO.N,SWDIO*
X149860000Y-118980000D02*
X149800000Y-118920000D01*
X149000000Y-90100000D02*
X149000000Y-78000004D01*
G04 #@! TO.N,NRST*
X149775000Y-81225000D02*
X150200000Y-81650000D01*
X150200000Y-81650000D02*
X150200000Y-90861181D01*
X150200000Y-90861181D02*
X150200000Y-91399996D01*
G04 #@! TO.N,+3V3*
X112775000Y-68000000D02*
X113000000Y-67775000D01*
X110150000Y-68000000D02*
X112775000Y-68000000D01*
X147380999Y-68630999D02*
X147000000Y-68250000D01*
X151150000Y-72400000D02*
X147380999Y-68630999D01*
X155500000Y-72400000D02*
X151150000Y-72400000D01*
X113000000Y-67775000D02*
X115000000Y-65775000D01*
X116250000Y-67025000D02*
X115000000Y-65775000D01*
X116250000Y-67875000D02*
X116250000Y-67025000D01*
X111625000Y-73000000D02*
X107340000Y-73000000D01*
X107340000Y-73000000D02*
X104375000Y-73000000D01*
X115000000Y-61005804D02*
X115621903Y-60383901D01*
X115621903Y-60383901D02*
X116002902Y-60002902D01*
X115000000Y-65775000D02*
X115000000Y-61005804D01*
X112125000Y-72500000D02*
X111625000Y-73000000D01*
X112125000Y-71250000D02*
X112125000Y-72500000D01*
G04 #@! TO.N,I2C1_SDA*
X113375928Y-70750928D02*
X113875000Y-71250000D01*
X109250000Y-70250000D02*
X112875000Y-70250000D01*
X112875000Y-70250000D02*
X113375928Y-70750928D01*
X110150000Y-68500000D02*
X109346000Y-68500000D01*
X109346000Y-68500000D02*
X109000000Y-68846000D01*
X109000000Y-68846000D02*
X109000000Y-70000000D01*
X109000000Y-70000000D02*
X109250000Y-70250000D01*
X136250000Y-66250000D02*
X121350000Y-66250000D01*
X116350000Y-71250000D02*
X113875000Y-71250000D01*
X141250000Y-71250000D02*
X136250000Y-66250000D01*
X121350000Y-66250000D02*
X116350000Y-71250000D01*
X141250000Y-80000000D02*
X141250000Y-71250000D01*
G04 #@! TO.N,I2C1_SCL*
X115625000Y-69000000D02*
X116250000Y-69625000D01*
X110150000Y-69000000D02*
X115625000Y-69000000D01*
X142499998Y-70999998D02*
X142499998Y-78500000D01*
X136750000Y-65250000D02*
X142499998Y-70999998D01*
X120750000Y-65250000D02*
X136750000Y-65250000D01*
X116375000Y-69625000D02*
X120750000Y-65250000D01*
X116250000Y-69625000D02*
X116375000Y-69625000D01*
G04 #@! TO.N,ADC_RDY*
X105046000Y-68500000D02*
X105850000Y-68500000D01*
X102625000Y-70921000D02*
X105046000Y-68500000D01*
X102625000Y-73000000D02*
X102625000Y-70921000D01*
X137000000Y-77000000D02*
X134250000Y-79750000D01*
X109375000Y-79750000D02*
X102625000Y-73000000D01*
X134250000Y-79750000D02*
X109375000Y-79750000D01*
G04 #@! TO.N,DIO0*
X152750000Y-76000000D02*
X158461185Y-76000000D01*
X145000000Y-68250000D02*
X152750000Y-76000000D01*
X158461185Y-76000000D02*
X159000000Y-76000000D01*
G04 #@! TO.N,/AIN3*
X110000000Y-67500000D02*
X110150000Y-67500000D01*
X109380638Y-67500000D02*
X110000000Y-67500000D01*
X107300000Y-62275000D02*
X107300000Y-62300000D01*
X107300000Y-62300000D02*
X109000000Y-64000000D01*
X109000000Y-67119362D02*
X109380638Y-67500000D01*
X109000000Y-64000000D02*
X109000000Y-67119362D01*
G04 #@! TO.N,SENSOR_PWR*
X90170000Y-73455000D02*
X94500000Y-69125000D01*
X90170000Y-78740000D02*
X90170000Y-73455000D01*
X88000000Y-79000000D02*
X88260000Y-78740000D01*
X89750000Y-84500000D02*
X88000000Y-82750000D01*
X139749998Y-77000002D02*
X133000000Y-83750000D01*
X88000000Y-82750000D02*
X88000000Y-79000000D01*
X133000000Y-83750000D02*
X95650000Y-83750000D01*
X88260000Y-78740000D02*
X90170000Y-78740000D01*
X95650000Y-83750000D02*
X94900000Y-84500000D01*
X94900000Y-84500000D02*
X89750000Y-84500000D01*
G04 #@! TO.N,WATER_LEVEL*
X90410000Y-81000000D02*
X90170000Y-81240000D01*
X93750000Y-81000000D02*
X90410000Y-81000000D01*
X95550000Y-82800000D02*
X93750000Y-81000000D01*
X139750010Y-75749990D02*
X132700000Y-82800000D01*
X132700000Y-82800000D02*
X95550000Y-82800000D01*
X139750010Y-75250000D02*
X139750010Y-75749990D01*
G04 #@! TO.N,MOTION*
X94425000Y-104100000D02*
X94700000Y-104375000D01*
X90170000Y-104100000D02*
X94425000Y-104100000D01*
X151380999Y-78380999D02*
X151000000Y-78000000D01*
X151880999Y-78880999D02*
X151380999Y-78380999D01*
X151880999Y-94519001D02*
X151880999Y-78880999D01*
X143269790Y-103130210D02*
X151880999Y-94519001D01*
X94700000Y-104375000D02*
X99675000Y-99400000D01*
X111830210Y-103130210D02*
X143269790Y-103130210D01*
X99675000Y-99400000D02*
X108100000Y-99400000D01*
X108100000Y-99400000D02*
X111830210Y-103130210D01*
G04 #@! TO.N,DOOR*
X93695000Y-92670000D02*
X93750000Y-92725000D01*
X90170000Y-92670000D02*
X93695000Y-92670000D01*
X150000000Y-77038815D02*
X150000000Y-76500000D01*
X151380999Y-79433579D02*
X150000000Y-78052580D01*
X150000000Y-78052580D02*
X150000000Y-77038815D01*
X151380999Y-92419001D02*
X151380999Y-79433579D01*
X151075000Y-92725000D02*
X151380999Y-92419001D01*
X93750000Y-92725000D02*
X151075000Y-92725000D01*
G04 #@! TO.N,WATER_TEMP*
X90235000Y-67375000D02*
X90170000Y-67310000D01*
X94500000Y-67375000D02*
X90235000Y-67375000D01*
X94500000Y-67375000D02*
X94500000Y-67500000D01*
X94500000Y-67500000D02*
X94674000Y-67326000D01*
X94875000Y-67000000D02*
X94500000Y-67375000D01*
X105850000Y-67000000D02*
X94875000Y-67000000D01*
D37*
G04 #@! TO.N,+BATT*
X123000000Y-116720000D02*
X123080000Y-116800000D01*
X127380000Y-112500000D02*
X123080000Y-116800000D01*
X130275000Y-112500000D02*
X127380000Y-112500000D01*
G04 #@! TO.N,+5V*
X101500000Y-88500000D02*
X97249998Y-88500000D01*
X118000000Y-88500000D02*
X101500000Y-88500000D01*
X156500000Y-104500000D02*
X169000000Y-92000000D01*
X110000000Y-104500000D02*
X156500000Y-104500000D01*
X109500000Y-105000000D02*
X110000000Y-104500000D01*
G04 #@! TO.N,/BATT*
X108500000Y-119000000D02*
X108500000Y-112500000D01*
X109000000Y-119500000D02*
X108500000Y-119000000D01*
X111000000Y-119500000D02*
X109000000Y-119500000D01*
X111550000Y-117500000D02*
X111550000Y-118950000D01*
X111550000Y-118950000D02*
X111000000Y-119500000D01*
X116200000Y-107755600D02*
X116200000Y-106600000D01*
X111455600Y-112500000D02*
X116200000Y-107755600D01*
X108500000Y-112500000D02*
X111455600Y-112500000D01*
X107275000Y-111275000D02*
X108500000Y-112500000D01*
X107275000Y-106750000D02*
X107275000Y-111275000D01*
D33*
G04 #@! TO.N,Net-(R20-Pad2)*
X107300000Y-57120000D02*
X107390000Y-57030000D01*
X107300000Y-60525000D02*
X107300000Y-57120000D01*
G04 #@! TO.N,Net-(R19-Pad2)*
X109800000Y-57120000D02*
X109890000Y-57030000D01*
X109800000Y-60475000D02*
X109800000Y-57120000D01*
G04 #@! TO.N,Net-(F1-Pad1)*
X132460000Y-116790000D02*
X132460000Y-117500000D01*
D37*
X134725000Y-114525000D02*
X132460000Y-116790000D01*
X134725000Y-112500000D02*
X134725000Y-114525000D01*
D33*
G04 #@! TO.N,/AIN2*
X111500000Y-66500000D02*
X111000000Y-67000000D01*
X111500000Y-63925000D02*
X111500000Y-66500000D01*
X111000000Y-67000000D02*
X110150000Y-67000000D01*
X109800000Y-62225000D02*
X111500000Y-63925000D01*
G04 #@! TO.N,/BATT_V*
X105225000Y-103250000D02*
X105225000Y-106750000D01*
X105850000Y-67500000D02*
X105046000Y-67500000D01*
X101000000Y-76961185D02*
X101000000Y-77500000D01*
X101000000Y-71546000D02*
X101000000Y-76961185D01*
X105046000Y-67500000D02*
X101000000Y-71546000D01*
X105225000Y-100725001D02*
X105250001Y-100700000D01*
X105225000Y-103250000D02*
X105225000Y-100725001D01*
G04 #@! TO.N,Net-(Q2-Pad3)*
X112500000Y-113950000D02*
X112500000Y-114500000D01*
D37*
X135000000Y-116396000D02*
X135000000Y-117500000D01*
X137500000Y-113896000D02*
X135000000Y-116396000D01*
X112500000Y-113950000D02*
X117200000Y-109250000D01*
X117200000Y-109250000D02*
X136750000Y-109250000D01*
X136750000Y-109250000D02*
X137500000Y-110000000D01*
X137500000Y-110000000D02*
X137500000Y-113896000D01*
G04 #@! TD*
D33*
G04 #@! TO.N,Earth*
G36*
X170759192Y-53280578D02*
X171494389Y-53481705D01*
X172182351Y-53809846D01*
X172801331Y-54254628D01*
X173331761Y-54801988D01*
X173756884Y-55434639D01*
X174063251Y-56132561D01*
X174242499Y-56879183D01*
X174290001Y-57526044D01*
X174290000Y-117318727D01*
X174280271Y-117350951D01*
X174267910Y-117434663D01*
X174194719Y-118254748D01*
X173994769Y-118985643D01*
X173668550Y-119669575D01*
X173226374Y-120284928D01*
X172682211Y-120812259D01*
X172053274Y-121234886D01*
X171359429Y-121539464D01*
X170616961Y-121717714D01*
X169946170Y-121766974D01*
X169817214Y-121788091D01*
X169811823Y-121790000D01*
X90336169Y-121790000D01*
X90277409Y-121784303D01*
X89452460Y-121752070D01*
X88708138Y-121587907D01*
X88004649Y-121294531D01*
X87364227Y-120881212D01*
X86807128Y-120361025D01*
X86717394Y-120240910D01*
X87438695Y-120240910D01*
X87805640Y-120736343D01*
X89211171Y-121329736D01*
X90736793Y-121340087D01*
X92150246Y-120765819D01*
X92194360Y-120736343D01*
X92561305Y-120240910D01*
X90000000Y-117679605D01*
X87438695Y-120240910D01*
X86717394Y-120240910D01*
X86350944Y-119750397D01*
X86010104Y-119068639D01*
X85795380Y-118337298D01*
X85784529Y-118236793D01*
X86159913Y-118236793D01*
X86734181Y-119650246D01*
X86763657Y-119694360D01*
X87259090Y-120061305D01*
X89820395Y-117500000D01*
X90179605Y-117500000D01*
X92740910Y-120061305D01*
X93236343Y-119694360D01*
X93829736Y-118288829D01*
X93837070Y-117207745D01*
X102671861Y-117207745D01*
X102745995Y-117453864D01*
X103283223Y-117646965D01*
X103853454Y-117619778D01*
X104254005Y-117453864D01*
X104328139Y-117207745D01*
X103500000Y-116379605D01*
X102671861Y-117207745D01*
X93837070Y-117207745D01*
X93840087Y-116763207D01*
X93523190Y-115983223D01*
X102053035Y-115983223D01*
X102080222Y-116553454D01*
X102246136Y-116954005D01*
X102492255Y-117028139D01*
X103320395Y-116200000D01*
X103679605Y-116200000D01*
X104507745Y-117028139D01*
X104753864Y-116954005D01*
X104946965Y-116416777D01*
X104919778Y-115846546D01*
X104753864Y-115445995D01*
X104507745Y-115371861D01*
X103679605Y-116200000D01*
X103320395Y-116200000D01*
X102492255Y-115371861D01*
X102246136Y-115445995D01*
X102053035Y-115983223D01*
X93523190Y-115983223D01*
X93265819Y-115349754D01*
X93236343Y-115305640D01*
X93083256Y-115192255D01*
X102671861Y-115192255D01*
X103500000Y-116020395D01*
X104328139Y-115192255D01*
X104254005Y-114946136D01*
X103716777Y-114753035D01*
X103146546Y-114780222D01*
X102745995Y-114946136D01*
X102671861Y-115192255D01*
X93083256Y-115192255D01*
X92740910Y-114938695D01*
X90179605Y-117500000D01*
X89820395Y-117500000D01*
X87259090Y-114938695D01*
X86763657Y-115305640D01*
X86170264Y-116711171D01*
X86159913Y-118236793D01*
X85784529Y-118236793D01*
X85710506Y-117551217D01*
X85710000Y-117496660D01*
X85710000Y-114759090D01*
X87438695Y-114759090D01*
X90000000Y-117320395D01*
X92561305Y-114759090D01*
X92194360Y-114263657D01*
X90788829Y-113670264D01*
X89263207Y-113659913D01*
X87849754Y-114234181D01*
X87805640Y-114263657D01*
X87438695Y-114759090D01*
X85710000Y-114759090D01*
X85710000Y-112880434D01*
X101829876Y-112880434D01*
X102026598Y-113355385D01*
X102460006Y-113823505D01*
X103039565Y-114090133D01*
X103293000Y-113971319D01*
X103293000Y-112627000D01*
X103547000Y-112627000D01*
X103547000Y-113971319D01*
X103800435Y-114090133D01*
X104379994Y-113823505D01*
X104813402Y-113355385D01*
X105010124Y-112880434D01*
X104890777Y-112627000D01*
X103547000Y-112627000D01*
X103293000Y-112627000D01*
X101949223Y-112627000D01*
X101829876Y-112880434D01*
X85710000Y-112880434D01*
X85710000Y-112119566D01*
X101829876Y-112119566D01*
X101949223Y-112373000D01*
X103293000Y-112373000D01*
X103293000Y-111028681D01*
X103547000Y-111028681D01*
X103547000Y-112373000D01*
X104890777Y-112373000D01*
X105010124Y-112119566D01*
X104813402Y-111644615D01*
X104379994Y-111176495D01*
X103800435Y-110909867D01*
X103547000Y-111028681D01*
X103293000Y-111028681D01*
X103039565Y-110909867D01*
X102460006Y-111176495D01*
X102026598Y-111644615D01*
X101829876Y-112119566D01*
X85710000Y-112119566D01*
X85710000Y-106956890D01*
X88603524Y-106956890D01*
X88842503Y-107471193D01*
X89267429Y-107865053D01*
X89810733Y-108066320D01*
X90043000Y-107926165D01*
X90043000Y-106727000D01*
X90297000Y-106727000D01*
X90297000Y-107926165D01*
X90529267Y-108066320D01*
X91072571Y-107865053D01*
X91497497Y-107471193D01*
X91736476Y-106956890D01*
X91615155Y-106727000D01*
X90297000Y-106727000D01*
X90043000Y-106727000D01*
X88724845Y-106727000D01*
X88603524Y-106956890D01*
X85710000Y-106956890D01*
X85710000Y-106710750D01*
X93365000Y-106710750D01*
X93365000Y-107126309D01*
X93461673Y-107359698D01*
X93640301Y-107538327D01*
X93873690Y-107635000D01*
X94414250Y-107635000D01*
X94573000Y-107476250D01*
X94573000Y-106552000D01*
X94827000Y-106552000D01*
X94827000Y-107476250D01*
X94985750Y-107635000D01*
X95526310Y-107635000D01*
X95759699Y-107538327D01*
X95938327Y-107359698D01*
X96035000Y-107126309D01*
X96035000Y-106710750D01*
X95876250Y-106552000D01*
X94827000Y-106552000D01*
X94573000Y-106552000D01*
X93523750Y-106552000D01*
X93365000Y-106710750D01*
X85710000Y-106710750D01*
X85710000Y-95060750D01*
X92415000Y-95060750D01*
X92415000Y-95476309D01*
X92511673Y-95709698D01*
X92690301Y-95888327D01*
X92923690Y-95985000D01*
X93464250Y-95985000D01*
X93623000Y-95826250D01*
X93623000Y-94902000D01*
X93877000Y-94902000D01*
X93877000Y-95826250D01*
X94035750Y-95985000D01*
X94576310Y-95985000D01*
X94676038Y-95943691D01*
X118825000Y-95943691D01*
X118825000Y-98284250D01*
X118983750Y-98443000D01*
X124333000Y-98443000D01*
X124333000Y-95593750D01*
X124587000Y-95593750D01*
X124587000Y-98443000D01*
X129936250Y-98443000D01*
X130095000Y-98284250D01*
X130095000Y-95943691D01*
X129998327Y-95710302D01*
X129819699Y-95531673D01*
X129586310Y-95435000D01*
X124745750Y-95435000D01*
X124587000Y-95593750D01*
X124333000Y-95593750D01*
X124174250Y-95435000D01*
X119333690Y-95435000D01*
X119100301Y-95531673D01*
X118921673Y-95710302D01*
X118825000Y-95943691D01*
X94676038Y-95943691D01*
X94809699Y-95888327D01*
X94988327Y-95709698D01*
X95085000Y-95476309D01*
X95085000Y-95060750D01*
X94926250Y-94902000D01*
X93877000Y-94902000D01*
X93623000Y-94902000D01*
X92573750Y-94902000D01*
X92415000Y-95060750D01*
X85710000Y-95060750D01*
X85710000Y-92670000D01*
X88505908Y-92670000D01*
X88621161Y-93249418D01*
X88949375Y-93740625D01*
X89440582Y-94068839D01*
X89873744Y-94155000D01*
X90466256Y-94155000D01*
X90899418Y-94068839D01*
X91390625Y-93740625D01*
X91596842Y-93432000D01*
X92496641Y-93432000D01*
X92665414Y-93684586D01*
X92666597Y-93685377D01*
X92511673Y-93840302D01*
X92415000Y-94073691D01*
X92415000Y-94489250D01*
X92573750Y-94648000D01*
X93623000Y-94648000D01*
X93623000Y-94628000D01*
X93877000Y-94628000D01*
X93877000Y-94648000D01*
X94926250Y-94648000D01*
X95085000Y-94489250D01*
X95085000Y-94073691D01*
X94988327Y-93840302D01*
X94833403Y-93685377D01*
X94834586Y-93684586D01*
X94966609Y-93487000D01*
X150999957Y-93487000D01*
X151075000Y-93501927D01*
X151118999Y-93493175D01*
X151118999Y-94203370D01*
X142954160Y-102368210D01*
X112145841Y-102368210D01*
X108691883Y-98914253D01*
X108652793Y-98855750D01*
X118825000Y-98855750D01*
X118825000Y-101196309D01*
X118921673Y-101429698D01*
X119100301Y-101608327D01*
X119333690Y-101705000D01*
X124174250Y-101705000D01*
X124333000Y-101546250D01*
X124333000Y-98697000D01*
X124587000Y-98697000D01*
X124587000Y-101546250D01*
X124745750Y-101705000D01*
X129586310Y-101705000D01*
X129819699Y-101608327D01*
X129998327Y-101429698D01*
X130095000Y-101196309D01*
X130095000Y-98855750D01*
X129936250Y-98697000D01*
X124587000Y-98697000D01*
X124333000Y-98697000D01*
X118983750Y-98697000D01*
X118825000Y-98855750D01*
X108652793Y-98855750D01*
X108649371Y-98850629D01*
X108397317Y-98682212D01*
X108175048Y-98638000D01*
X108175043Y-98638000D01*
X108100000Y-98623073D01*
X108024957Y-98638000D01*
X99750042Y-98638000D01*
X99674999Y-98623073D01*
X99599956Y-98638000D01*
X99599952Y-98638000D01*
X99377683Y-98682212D01*
X99377682Y-98682213D01*
X99377681Y-98682213D01*
X99355551Y-98697000D01*
X99125629Y-98850629D01*
X99083116Y-98914254D01*
X94844810Y-103152560D01*
X94249999Y-103152560D01*
X93906564Y-103220873D01*
X93731272Y-103338000D01*
X91571842Y-103338000D01*
X91365625Y-103029375D01*
X91301844Y-102986758D01*
X91529586Y-102834586D01*
X91724126Y-102543435D01*
X91792440Y-102200000D01*
X91792440Y-101000000D01*
X91724126Y-100656565D01*
X91529586Y-100365414D01*
X91238435Y-100170874D01*
X90895000Y-100102560D01*
X89445000Y-100102560D01*
X89101565Y-100170874D01*
X88810414Y-100365414D01*
X88615874Y-100656565D01*
X88547560Y-101000000D01*
X88547560Y-102200000D01*
X88615874Y-102543435D01*
X88810414Y-102834586D01*
X89038156Y-102986758D01*
X88974375Y-103029375D01*
X88646161Y-103520582D01*
X88530908Y-104100000D01*
X88646161Y-104679418D01*
X88974375Y-105170625D01*
X89247687Y-105353246D01*
X88842503Y-105728807D01*
X88603524Y-106243110D01*
X88724845Y-106473000D01*
X90043000Y-106473000D01*
X90043000Y-106453000D01*
X90297000Y-106453000D01*
X90297000Y-106473000D01*
X91615155Y-106473000D01*
X91736476Y-106243110D01*
X91497497Y-105728807D01*
X91092313Y-105353246D01*
X91365625Y-105170625D01*
X91571842Y-104862000D01*
X93384783Y-104862000D01*
X93420873Y-105043436D01*
X93615414Y-105334586D01*
X93616597Y-105335377D01*
X93461673Y-105490302D01*
X93365000Y-105723691D01*
X93365000Y-106139250D01*
X93523750Y-106298000D01*
X94573000Y-106298000D01*
X94573000Y-106278000D01*
X94827000Y-106278000D01*
X94827000Y-106298000D01*
X95876250Y-106298000D01*
X96035000Y-106139250D01*
X96035000Y-105723691D01*
X95938327Y-105490302D01*
X95783403Y-105335377D01*
X95784586Y-105334586D01*
X95979127Y-105043436D01*
X96047440Y-104700001D01*
X96047440Y-104105190D01*
X99990630Y-100162000D01*
X104373137Y-100162000D01*
X104234001Y-100497905D01*
X104234001Y-100902095D01*
X104388677Y-101275518D01*
X104463001Y-101349842D01*
X104463000Y-102033390D01*
X104265414Y-102165414D01*
X104070873Y-102456564D01*
X104002560Y-102799999D01*
X104002560Y-103700001D01*
X104070873Y-104043436D01*
X104265414Y-104334586D01*
X104463000Y-104466610D01*
X104463001Y-105533390D01*
X104265414Y-105665414D01*
X104070873Y-105956564D01*
X104002560Y-106299999D01*
X104002560Y-107200001D01*
X104070873Y-107543436D01*
X104265414Y-107834586D01*
X104556564Y-108029127D01*
X104899999Y-108097440D01*
X105550001Y-108097440D01*
X105893436Y-108029127D01*
X106184586Y-107834586D01*
X106250000Y-107736687D01*
X106315414Y-107834586D01*
X106462200Y-107932666D01*
X106462201Y-111194945D01*
X106446277Y-111275000D01*
X106509360Y-111592138D01*
X106602264Y-111731179D01*
X106689005Y-111860996D01*
X106756869Y-111906341D01*
X106852560Y-112002032D01*
X106852560Y-113500000D01*
X106901843Y-113747765D01*
X107042191Y-113957809D01*
X107252235Y-114098157D01*
X107500000Y-114147440D01*
X107687201Y-114147440D01*
X107687200Y-117783440D01*
X107687138Y-117783466D01*
X107283466Y-118187138D01*
X107065000Y-118714561D01*
X107065000Y-119285439D01*
X107283466Y-119812862D01*
X107687138Y-120216534D01*
X108214561Y-120435000D01*
X108785439Y-120435000D01*
X109080456Y-120312800D01*
X110919950Y-120312800D01*
X111000000Y-120328723D01*
X111080050Y-120312800D01*
X111317139Y-120265640D01*
X111585996Y-120085996D01*
X111631343Y-120018129D01*
X112068129Y-119581343D01*
X112135996Y-119535996D01*
X112315640Y-119267139D01*
X112342558Y-119131814D01*
X112378723Y-118950001D01*
X112374727Y-118929914D01*
X112407809Y-118907809D01*
X112497013Y-118774306D01*
X112511673Y-118809698D01*
X112690301Y-118988327D01*
X112923690Y-119085000D01*
X113164250Y-119085000D01*
X113323000Y-118926250D01*
X113323000Y-117627000D01*
X113577000Y-117627000D01*
X113577000Y-118926250D01*
X113735750Y-119085000D01*
X113976310Y-119085000D01*
X114209699Y-118988327D01*
X114388327Y-118809698D01*
X114485000Y-118576309D01*
X114485000Y-117785750D01*
X114326250Y-117627000D01*
X113577000Y-117627000D01*
X113323000Y-117627000D01*
X113303000Y-117627000D01*
X113303000Y-117373000D01*
X113323000Y-117373000D01*
X113323000Y-116073750D01*
X113577000Y-116073750D01*
X113577000Y-117373000D01*
X114326250Y-117373000D01*
X114485000Y-117214250D01*
X114485000Y-117085750D01*
X115865000Y-117085750D01*
X115865000Y-118426310D01*
X115961673Y-118659699D01*
X116140302Y-118838327D01*
X116373691Y-118935000D01*
X117714250Y-118935000D01*
X117873000Y-118776250D01*
X117873000Y-116927000D01*
X118127000Y-116927000D01*
X118127000Y-118776250D01*
X118285750Y-118935000D01*
X119626309Y-118935000D01*
X119859698Y-118838327D01*
X120038327Y-118659699D01*
X120135000Y-118426310D01*
X120135000Y-117085750D01*
X119976250Y-116927000D01*
X118127000Y-116927000D01*
X117873000Y-116927000D01*
X116023750Y-116927000D01*
X115865000Y-117085750D01*
X114485000Y-117085750D01*
X114485000Y-116423691D01*
X114388327Y-116190302D01*
X114209699Y-116011673D01*
X113976310Y-115915000D01*
X113735750Y-115915000D01*
X113577000Y-116073750D01*
X113323000Y-116073750D01*
X113237469Y-115988219D01*
X113357809Y-115907809D01*
X113498157Y-115697765D01*
X113547440Y-115450000D01*
X113547440Y-115173690D01*
X115865000Y-115173690D01*
X115865000Y-116514250D01*
X116023750Y-116673000D01*
X117873000Y-116673000D01*
X117873000Y-114823750D01*
X118127000Y-114823750D01*
X118127000Y-116673000D01*
X119976250Y-116673000D01*
X120135000Y-116514250D01*
X120135000Y-116375322D01*
X120945000Y-116375322D01*
X120945000Y-117224678D01*
X121270034Y-118009380D01*
X121870620Y-118609966D01*
X122655322Y-118935000D01*
X123504678Y-118935000D01*
X124289380Y-118609966D01*
X124889966Y-118009380D01*
X125215000Y-117224678D01*
X125215000Y-116375322D01*
X125050731Y-115978741D01*
X127716673Y-113312800D01*
X128977560Y-113312800D01*
X128977560Y-113950000D01*
X129045874Y-114293435D01*
X129240414Y-114584586D01*
X129531565Y-114779126D01*
X129875000Y-114847440D01*
X130675000Y-114847440D01*
X131018435Y-114779126D01*
X131309586Y-114584586D01*
X131504126Y-114293435D01*
X131572440Y-113950000D01*
X131572440Y-111050000D01*
X131504126Y-110706565D01*
X131309586Y-110415414D01*
X131018435Y-110220874D01*
X130675000Y-110152560D01*
X129875000Y-110152560D01*
X129531565Y-110220874D01*
X129240414Y-110415414D01*
X129045874Y-110706565D01*
X128977560Y-111050000D01*
X128977560Y-111687200D01*
X127460049Y-111687200D01*
X127379999Y-111671277D01*
X127062861Y-111734360D01*
X126794004Y-111914004D01*
X126748660Y-111981867D01*
X123901259Y-114829269D01*
X123504678Y-114665000D01*
X122655322Y-114665000D01*
X121870620Y-114990034D01*
X121270034Y-115590620D01*
X120945000Y-116375322D01*
X120135000Y-116375322D01*
X120135000Y-115173690D01*
X120038327Y-114940301D01*
X119859698Y-114761673D01*
X119626309Y-114665000D01*
X118285750Y-114665000D01*
X118127000Y-114823750D01*
X117873000Y-114823750D01*
X117714250Y-114665000D01*
X116373691Y-114665000D01*
X116140302Y-114761673D01*
X115961673Y-114940301D01*
X115865000Y-115173690D01*
X113547440Y-115173690D01*
X113547440Y-114052032D01*
X117536673Y-110062800D01*
X136413328Y-110062800D01*
X136687200Y-110336673D01*
X136687201Y-113559326D01*
X135954383Y-114292145D01*
X136022440Y-113950000D01*
X136022440Y-111050000D01*
X135954126Y-110706565D01*
X135759586Y-110415414D01*
X135468435Y-110220874D01*
X135125000Y-110152560D01*
X134325000Y-110152560D01*
X133981565Y-110220874D01*
X133690414Y-110415414D01*
X133495874Y-110706565D01*
X133427560Y-111050000D01*
X133427560Y-113950000D01*
X133495874Y-114293435D01*
X133620530Y-114479997D01*
X132028861Y-116071666D01*
X131880582Y-116101161D01*
X131389375Y-116429375D01*
X131190000Y-116727761D01*
X130990625Y-116429375D01*
X130499418Y-116101161D01*
X130066256Y-116015000D01*
X129773744Y-116015000D01*
X129340582Y-116101161D01*
X128849375Y-116429375D01*
X128521161Y-116920582D01*
X128405908Y-117500000D01*
X128521161Y-118079418D01*
X128849375Y-118570625D01*
X129340582Y-118898839D01*
X129773744Y-118985000D01*
X130066256Y-118985000D01*
X130499418Y-118898839D01*
X130990625Y-118570625D01*
X131190000Y-118272239D01*
X131389375Y-118570625D01*
X131880582Y-118898839D01*
X132313744Y-118985000D01*
X132606256Y-118985000D01*
X133039418Y-118898839D01*
X133530625Y-118570625D01*
X133542816Y-118552381D01*
X133551843Y-118597765D01*
X133692191Y-118807809D01*
X133902235Y-118948157D01*
X134150000Y-118997440D01*
X135850000Y-118997440D01*
X136097765Y-118948157D01*
X136307809Y-118807809D01*
X136448157Y-118597765D01*
X136497440Y-118350000D01*
X136497440Y-118130000D01*
X140742560Y-118130000D01*
X140742560Y-119830000D01*
X140791843Y-120077765D01*
X140932191Y-120287809D01*
X141142235Y-120428157D01*
X141390000Y-120477440D01*
X143090000Y-120477440D01*
X143337765Y-120428157D01*
X143547809Y-120287809D01*
X143688157Y-120077765D01*
X143697184Y-120032381D01*
X143709375Y-120050625D01*
X144200582Y-120378839D01*
X144633744Y-120465000D01*
X144926256Y-120465000D01*
X145359418Y-120378839D01*
X145850625Y-120050625D01*
X146063843Y-119731522D01*
X146124817Y-119861358D01*
X146553076Y-120251645D01*
X146963110Y-120421476D01*
X147193000Y-120300155D01*
X147193000Y-119107000D01*
X147173000Y-119107000D01*
X147173000Y-118853000D01*
X147193000Y-118853000D01*
X147193000Y-117659845D01*
X147447000Y-117659845D01*
X147447000Y-118853000D01*
X147467000Y-118853000D01*
X147467000Y-119107000D01*
X147447000Y-119107000D01*
X147447000Y-120300155D01*
X147676890Y-120421476D01*
X148086924Y-120251645D01*
X148515183Y-119861358D01*
X148576157Y-119731522D01*
X148789375Y-120050625D01*
X149280582Y-120378839D01*
X149713744Y-120465000D01*
X150006256Y-120465000D01*
X150439418Y-120378839D01*
X150930625Y-120050625D01*
X151130000Y-119752239D01*
X151329375Y-120050625D01*
X151820582Y-120378839D01*
X152253744Y-120465000D01*
X152546256Y-120465000D01*
X152979418Y-120378839D01*
X153470625Y-120050625D01*
X153670000Y-119752239D01*
X153869375Y-120050625D01*
X154360582Y-120378839D01*
X154793744Y-120465000D01*
X155086256Y-120465000D01*
X155519418Y-120378839D01*
X155725843Y-120240910D01*
X167438695Y-120240910D01*
X167805640Y-120736343D01*
X169211171Y-121329736D01*
X170736793Y-121340087D01*
X172150246Y-120765819D01*
X172194360Y-120736343D01*
X172561305Y-120240910D01*
X170000000Y-117679605D01*
X167438695Y-120240910D01*
X155725843Y-120240910D01*
X156010625Y-120050625D01*
X156338839Y-119559418D01*
X156454092Y-118980000D01*
X156338839Y-118400582D01*
X156229399Y-118236793D01*
X166159913Y-118236793D01*
X166734181Y-119650246D01*
X166763657Y-119694360D01*
X167259090Y-120061305D01*
X169820395Y-117500000D01*
X170179605Y-117500000D01*
X172740910Y-120061305D01*
X173236343Y-119694360D01*
X173829736Y-118288829D01*
X173840087Y-116763207D01*
X173265819Y-115349754D01*
X173236343Y-115305640D01*
X172740910Y-114938695D01*
X170179605Y-117500000D01*
X169820395Y-117500000D01*
X167259090Y-114938695D01*
X166763657Y-115305640D01*
X166170264Y-116711171D01*
X166159913Y-118236793D01*
X156229399Y-118236793D01*
X156010625Y-117909375D01*
X155519418Y-117581161D01*
X155086256Y-117495000D01*
X154793744Y-117495000D01*
X154360582Y-117581161D01*
X153869375Y-117909375D01*
X153670000Y-118207761D01*
X153470625Y-117909375D01*
X152979418Y-117581161D01*
X152546256Y-117495000D01*
X152253744Y-117495000D01*
X151820582Y-117581161D01*
X151329375Y-117909375D01*
X151130000Y-118207761D01*
X150930625Y-117909375D01*
X150439418Y-117581161D01*
X150006256Y-117495000D01*
X149713744Y-117495000D01*
X149280582Y-117581161D01*
X148789375Y-117909375D01*
X148576157Y-118228478D01*
X148515183Y-118098642D01*
X148086924Y-117708355D01*
X147676890Y-117538524D01*
X147447000Y-117659845D01*
X147193000Y-117659845D01*
X146963110Y-117538524D01*
X146553076Y-117708355D01*
X146124817Y-118098642D01*
X146063843Y-118228478D01*
X145850625Y-117909375D01*
X145359418Y-117581161D01*
X144926256Y-117495000D01*
X144633744Y-117495000D01*
X144200582Y-117581161D01*
X143709375Y-117909375D01*
X143697184Y-117927619D01*
X143688157Y-117882235D01*
X143547809Y-117672191D01*
X143337765Y-117531843D01*
X143090000Y-117482560D01*
X141390000Y-117482560D01*
X141142235Y-117531843D01*
X140932191Y-117672191D01*
X140791843Y-117882235D01*
X140742560Y-118130000D01*
X136497440Y-118130000D01*
X136497440Y-116650000D01*
X136448157Y-116402235D01*
X136326023Y-116219450D01*
X137786383Y-114759090D01*
X167438695Y-114759090D01*
X170000000Y-117320395D01*
X172561305Y-114759090D01*
X172194360Y-114263657D01*
X170788829Y-113670264D01*
X169263207Y-113659913D01*
X167849754Y-114234181D01*
X167805640Y-114263657D01*
X167438695Y-114759090D01*
X137786383Y-114759090D01*
X138018131Y-114527342D01*
X138085996Y-114481996D01*
X138265640Y-114213139D01*
X138312800Y-113976050D01*
X138328723Y-113896000D01*
X138312800Y-113815950D01*
X138312800Y-110080049D01*
X138328723Y-109999999D01*
X138265640Y-109682861D01*
X138188317Y-109567139D01*
X138085996Y-109414004D01*
X138018132Y-109368659D01*
X137381343Y-108731871D01*
X137335996Y-108664004D01*
X137067139Y-108484360D01*
X136830050Y-108437200D01*
X136750000Y-108421277D01*
X136669950Y-108437200D01*
X117280050Y-108437200D01*
X117200000Y-108421277D01*
X117119950Y-108437200D01*
X116882861Y-108484360D01*
X116614004Y-108664004D01*
X116568659Y-108731869D01*
X112397968Y-112902560D01*
X112202512Y-112902560D01*
X116718132Y-108386941D01*
X116785996Y-108341596D01*
X116965640Y-108072739D01*
X116970672Y-108047440D01*
X117000000Y-108047440D01*
X117247765Y-107998157D01*
X117457809Y-107857809D01*
X117598157Y-107647765D01*
X117647440Y-107400000D01*
X117647440Y-105800000D01*
X117598157Y-105552235D01*
X117457809Y-105342191D01*
X117413823Y-105312800D01*
X156419950Y-105312800D01*
X156500000Y-105328723D01*
X156580050Y-105312800D01*
X156817139Y-105265640D01*
X157085996Y-105085996D01*
X157131343Y-105018129D01*
X158649472Y-103500000D01*
X167335908Y-103500000D01*
X167451161Y-104079418D01*
X167779375Y-104570625D01*
X167843156Y-104613242D01*
X167615414Y-104765414D01*
X167420874Y-105056565D01*
X167352560Y-105400000D01*
X167352560Y-106600000D01*
X167420874Y-106943435D01*
X167615414Y-107234586D01*
X167906565Y-107429126D01*
X168250000Y-107497440D01*
X169750000Y-107497440D01*
X170093435Y-107429126D01*
X170384586Y-107234586D01*
X170579126Y-106943435D01*
X170647440Y-106600000D01*
X170647440Y-105400000D01*
X170579126Y-105056565D01*
X170384586Y-104765414D01*
X170156844Y-104613242D01*
X170220625Y-104570625D01*
X170548839Y-104079418D01*
X170664092Y-103500000D01*
X170548839Y-102920582D01*
X170220625Y-102429375D01*
X169729418Y-102101161D01*
X169296256Y-102015000D01*
X168703744Y-102015000D01*
X168270582Y-102101161D01*
X167779375Y-102429375D01*
X167451161Y-102920582D01*
X167335908Y-103500000D01*
X158649472Y-103500000D01*
X168652033Y-93497440D01*
X169750000Y-93497440D01*
X170093435Y-93429126D01*
X170384586Y-93234586D01*
X170579126Y-92943435D01*
X170647440Y-92600000D01*
X170647440Y-91400000D01*
X170579126Y-91056565D01*
X170384586Y-90765414D01*
X170156844Y-90613242D01*
X170220625Y-90570625D01*
X170548839Y-90079418D01*
X170664092Y-89500000D01*
X170548839Y-88920582D01*
X170220625Y-88429375D01*
X169729418Y-88101161D01*
X169296256Y-88015000D01*
X168703744Y-88015000D01*
X168270582Y-88101161D01*
X167779375Y-88429375D01*
X167451161Y-88920582D01*
X167335908Y-89500000D01*
X167451161Y-90079418D01*
X167779375Y-90570625D01*
X167843156Y-90613242D01*
X167615414Y-90765414D01*
X167420874Y-91056565D01*
X167352560Y-91400000D01*
X167352560Y-92497967D01*
X156163328Y-103687200D01*
X143807758Y-103687200D01*
X143819161Y-103679581D01*
X143861673Y-103615957D01*
X152366749Y-95110882D01*
X152430370Y-95068372D01*
X152598787Y-94816318D01*
X152642999Y-94594049D01*
X152642999Y-94594048D01*
X152657927Y-94519001D01*
X152642999Y-94443954D01*
X152642999Y-78956046D01*
X152657927Y-78880999D01*
X152642999Y-78805951D01*
X152598787Y-78583682D01*
X152430370Y-78331628D01*
X152366748Y-78289117D01*
X152363381Y-78285750D01*
X167390000Y-78285750D01*
X167390000Y-78976309D01*
X167486673Y-79209698D01*
X167665301Y-79388327D01*
X167898690Y-79485000D01*
X168714250Y-79485000D01*
X168873000Y-79326250D01*
X168873000Y-78127000D01*
X169127000Y-78127000D01*
X169127000Y-79326250D01*
X169285750Y-79485000D01*
X170101310Y-79485000D01*
X170334699Y-79388327D01*
X170513327Y-79209698D01*
X170610000Y-78976309D01*
X170610000Y-78285750D01*
X170451250Y-78127000D01*
X169127000Y-78127000D01*
X168873000Y-78127000D01*
X167548750Y-78127000D01*
X167390000Y-78285750D01*
X152363381Y-78285750D01*
X152016000Y-77938370D01*
X152016000Y-77797905D01*
X151861324Y-77424482D01*
X151575518Y-77138676D01*
X151202095Y-76984000D01*
X150899232Y-76984000D01*
X151016000Y-76702095D01*
X151016000Y-76297905D01*
X150861324Y-75924482D01*
X150575518Y-75638676D01*
X150202095Y-75484000D01*
X149797905Y-75484000D01*
X149424482Y-75638676D01*
X149138676Y-75924482D01*
X148984000Y-76297905D01*
X148984000Y-76702095D01*
X149100770Y-76984004D01*
X148820330Y-76984004D01*
X148800863Y-76886138D01*
X148775944Y-76760861D01*
X148607527Y-76508807D01*
X148543902Y-76466294D01*
X148515986Y-76438378D01*
X148515986Y-76297913D01*
X148361310Y-75924490D01*
X148075504Y-75638684D01*
X147702081Y-75484008D01*
X147297891Y-75484008D01*
X146924468Y-75638684D01*
X146638662Y-75924490D01*
X146483986Y-76297913D01*
X146483986Y-76702103D01*
X146638662Y-77075526D01*
X146924468Y-77361332D01*
X147296157Y-77515290D01*
X147296156Y-90725162D01*
X147196832Y-90824486D01*
X147042156Y-91197909D01*
X147042156Y-91602099D01*
X147191645Y-91963000D01*
X94966609Y-91963000D01*
X94834586Y-91765414D01*
X94543436Y-91570873D01*
X94200001Y-91502560D01*
X93299999Y-91502560D01*
X92956564Y-91570873D01*
X92665414Y-91765414D01*
X92570141Y-91908000D01*
X91596842Y-91908000D01*
X91390625Y-91599375D01*
X91326844Y-91556758D01*
X91554586Y-91404586D01*
X91749126Y-91113435D01*
X91817440Y-90770000D01*
X91817440Y-89570000D01*
X91749126Y-89226565D01*
X91554586Y-88935414D01*
X91263435Y-88740874D01*
X90920000Y-88672560D01*
X89420000Y-88672560D01*
X89076565Y-88740874D01*
X88785414Y-88935414D01*
X88590874Y-89226565D01*
X88522560Y-89570000D01*
X88522560Y-90770000D01*
X88590874Y-91113435D01*
X88785414Y-91404586D01*
X89013156Y-91556758D01*
X88949375Y-91599375D01*
X88621161Y-92090582D01*
X88505908Y-92670000D01*
X85710000Y-92670000D01*
X85710000Y-88297905D01*
X96233998Y-88297905D01*
X96233998Y-88702095D01*
X96388674Y-89075518D01*
X96674480Y-89361324D01*
X97047903Y-89516000D01*
X97452093Y-89516000D01*
X97825516Y-89361324D01*
X97874040Y-89312800D01*
X117375958Y-89312800D01*
X117424482Y-89361324D01*
X117797905Y-89516000D01*
X118202095Y-89516000D01*
X118575518Y-89361324D01*
X118861324Y-89075518D01*
X119016000Y-88702095D01*
X119016000Y-88297905D01*
X118861324Y-87924482D01*
X118575518Y-87638676D01*
X118202095Y-87484000D01*
X117797905Y-87484000D01*
X117424482Y-87638676D01*
X117375958Y-87687200D01*
X97874040Y-87687200D01*
X97825516Y-87638676D01*
X97452093Y-87484000D01*
X97047903Y-87484000D01*
X96674480Y-87638676D01*
X96388674Y-87924482D01*
X96233998Y-88297905D01*
X85710000Y-88297905D01*
X85710000Y-79000000D01*
X87223073Y-79000000D01*
X87238001Y-79075048D01*
X87238000Y-82674957D01*
X87223073Y-82750000D01*
X87238000Y-82825043D01*
X87238000Y-82825047D01*
X87282212Y-83047316D01*
X87450629Y-83299371D01*
X87514253Y-83341883D01*
X89158118Y-84985749D01*
X89200629Y-85049371D01*
X89452683Y-85217788D01*
X89674952Y-85262000D01*
X89674953Y-85262000D01*
X89750000Y-85276928D01*
X89825047Y-85262000D01*
X94824957Y-85262000D01*
X94900000Y-85276927D01*
X94975043Y-85262000D01*
X94975048Y-85262000D01*
X95197317Y-85217788D01*
X95449371Y-85049371D01*
X95491883Y-84985747D01*
X95965631Y-84512000D01*
X120505971Y-84512000D01*
X120224609Y-84933089D01*
X120132500Y-85396150D01*
X120132500Y-85803849D01*
X120224609Y-86266910D01*
X120575477Y-86792023D01*
X121100589Y-87142891D01*
X121720000Y-87266100D01*
X122339410Y-87142891D01*
X122864523Y-86792023D01*
X122999159Y-86590526D01*
X123393076Y-86975973D01*
X123887020Y-87190563D01*
X124133000Y-87070594D01*
X124133000Y-85727000D01*
X124113000Y-85727000D01*
X124113000Y-85473000D01*
X124133000Y-85473000D01*
X124133000Y-85453000D01*
X124387000Y-85453000D01*
X124387000Y-85473000D01*
X124407000Y-85473000D01*
X124407000Y-85727000D01*
X124387000Y-85727000D01*
X124387000Y-87070594D01*
X124632980Y-87190563D01*
X125126924Y-86975973D01*
X125252745Y-86852857D01*
X125389691Y-87057809D01*
X125599735Y-87198157D01*
X125847500Y-87247440D01*
X127752500Y-87247440D01*
X128000265Y-87198157D01*
X128210309Y-87057809D01*
X128350657Y-86847765D01*
X128399940Y-86600000D01*
X128399940Y-84600000D01*
X128382436Y-84512000D01*
X132924957Y-84512000D01*
X133000000Y-84526927D01*
X133075043Y-84512000D01*
X133075048Y-84512000D01*
X133297317Y-84467788D01*
X133549371Y-84299371D01*
X133591883Y-84235747D01*
X139811629Y-78016002D01*
X139952093Y-78016002D01*
X140325516Y-77861326D01*
X140488000Y-77698842D01*
X140488000Y-79325158D01*
X140388676Y-79424482D01*
X140234000Y-79797905D01*
X140234000Y-80202095D01*
X140388676Y-80575518D01*
X140674482Y-80861324D01*
X141047905Y-81016000D01*
X141452095Y-81016000D01*
X141825518Y-80861324D01*
X142111324Y-80575518D01*
X142266000Y-80202095D01*
X142266000Y-79797905D01*
X142118441Y-79441665D01*
X142297903Y-79516000D01*
X142702093Y-79516000D01*
X143075516Y-79361324D01*
X143361322Y-79075518D01*
X143515998Y-78702095D01*
X143515998Y-78297905D01*
X143361322Y-77924482D01*
X143261998Y-77825158D01*
X143261998Y-71075040D01*
X143276925Y-70999997D01*
X143261998Y-70924954D01*
X143261998Y-70924950D01*
X143217786Y-70702681D01*
X143198521Y-70673848D01*
X143091880Y-70514249D01*
X143049369Y-70450627D01*
X142985748Y-70408117D01*
X140625536Y-68047905D01*
X143984000Y-68047905D01*
X143984000Y-68452095D01*
X144138676Y-68825518D01*
X144424482Y-69111324D01*
X144797905Y-69266000D01*
X144938370Y-69266000D01*
X152158118Y-76485749D01*
X152200629Y-76549371D01*
X152264251Y-76591882D01*
X152326459Y-76633448D01*
X152452683Y-76717788D01*
X152674952Y-76762000D01*
X152674956Y-76762000D01*
X152749999Y-76776927D01*
X152825042Y-76762000D01*
X158325158Y-76762000D01*
X158424482Y-76861324D01*
X158797905Y-77016000D01*
X159202095Y-77016000D01*
X159575518Y-76861324D01*
X159861324Y-76575518D01*
X160016000Y-76202095D01*
X160016000Y-75797905D01*
X159861324Y-75424482D01*
X159575518Y-75138676D01*
X159202095Y-74984000D01*
X158797905Y-74984000D01*
X158424482Y-75138676D01*
X158325158Y-75238000D01*
X153065631Y-75238000D01*
X150968445Y-73140815D01*
X151074952Y-73162000D01*
X151074956Y-73162000D01*
X151149999Y-73176927D01*
X151225042Y-73162000D01*
X154825158Y-73162000D01*
X154924482Y-73261324D01*
X155297905Y-73416000D01*
X155702095Y-73416000D01*
X156075518Y-73261324D01*
X156361324Y-72975518D01*
X156516000Y-72602095D01*
X156516000Y-72197905D01*
X156361324Y-71824482D01*
X156075518Y-71538676D01*
X155702095Y-71384000D01*
X155297905Y-71384000D01*
X154924482Y-71538676D01*
X154825158Y-71638000D01*
X151465631Y-71638000D01*
X150327631Y-70500000D01*
X167360908Y-70500000D01*
X167476161Y-71079418D01*
X167804375Y-71570625D01*
X168072829Y-71750000D01*
X167804375Y-71929375D01*
X167476161Y-72420582D01*
X167360908Y-73000000D01*
X167476161Y-73579418D01*
X167804375Y-74070625D01*
X168072829Y-74250000D01*
X167804375Y-74429375D01*
X167476161Y-74920582D01*
X167360908Y-75500000D01*
X167476161Y-76079418D01*
X167795709Y-76557656D01*
X167665301Y-76611673D01*
X167486673Y-76790302D01*
X167390000Y-77023691D01*
X167390000Y-77714250D01*
X167548750Y-77873000D01*
X168873000Y-77873000D01*
X168873000Y-77853000D01*
X169127000Y-77853000D01*
X169127000Y-77873000D01*
X170451250Y-77873000D01*
X170610000Y-77714250D01*
X170610000Y-77023691D01*
X170513327Y-76790302D01*
X170334699Y-76611673D01*
X170204291Y-76557656D01*
X170523839Y-76079418D01*
X170639092Y-75500000D01*
X170523839Y-74920582D01*
X170195625Y-74429375D01*
X169927171Y-74250000D01*
X170195625Y-74070625D01*
X170523839Y-73579418D01*
X170639092Y-73000000D01*
X170523839Y-72420582D01*
X170195625Y-71929375D01*
X169927171Y-71750000D01*
X170195625Y-71570625D01*
X170523839Y-71079418D01*
X170639092Y-70500000D01*
X170523839Y-69920582D01*
X170195625Y-69429375D01*
X169704418Y-69101161D01*
X169271256Y-69015000D01*
X168728744Y-69015000D01*
X168295582Y-69101161D01*
X167804375Y-69429375D01*
X167476161Y-69920582D01*
X167360908Y-70500000D01*
X150327631Y-70500000D01*
X148016000Y-68188370D01*
X148016000Y-68047905D01*
X147861324Y-67674482D01*
X147575518Y-67388676D01*
X147202095Y-67234000D01*
X146797905Y-67234000D01*
X146424482Y-67388676D01*
X146138676Y-67674482D01*
X146000000Y-68009277D01*
X145861324Y-67674482D01*
X145575518Y-67388676D01*
X145202095Y-67234000D01*
X144797905Y-67234000D01*
X144424482Y-67388676D01*
X144138676Y-67674482D01*
X143984000Y-68047905D01*
X140625536Y-68047905D01*
X137341883Y-64764253D01*
X137299371Y-64700629D01*
X137047317Y-64532212D01*
X136825048Y-64488000D01*
X136825043Y-64488000D01*
X136750000Y-64473073D01*
X136674957Y-64488000D01*
X120825042Y-64488000D01*
X120749999Y-64473073D01*
X120674956Y-64488000D01*
X120674952Y-64488000D01*
X120452683Y-64532212D01*
X120452682Y-64532213D01*
X120452681Y-64532213D01*
X120264251Y-64658118D01*
X120200629Y-64700629D01*
X120158118Y-64764251D01*
X117366207Y-67556163D01*
X117305078Y-67248848D01*
X117113247Y-66961753D01*
X116999188Y-66885541D01*
X116967788Y-66727683D01*
X116847272Y-66547318D01*
X116841882Y-66539251D01*
X116799371Y-66475629D01*
X116735749Y-66433118D01*
X115762000Y-65459370D01*
X115762000Y-61321434D01*
X116064533Y-61018902D01*
X116204997Y-61018902D01*
X116578420Y-60864226D01*
X116864226Y-60578420D01*
X117004026Y-60240910D01*
X167438695Y-60240910D01*
X167805640Y-60736343D01*
X169211171Y-61329736D01*
X170736793Y-61340087D01*
X172150246Y-60765819D01*
X172194360Y-60736343D01*
X172561305Y-60240910D01*
X170000000Y-57679605D01*
X167438695Y-60240910D01*
X117004026Y-60240910D01*
X117018902Y-60204997D01*
X117018902Y-59800807D01*
X116864226Y-59427384D01*
X116578420Y-59141578D01*
X116204997Y-58986902D01*
X115800807Y-58986902D01*
X115427384Y-59141578D01*
X115141578Y-59427384D01*
X114986902Y-59800807D01*
X114986902Y-59941271D01*
X114514251Y-60413923D01*
X114450630Y-60456433D01*
X114408119Y-60520055D01*
X114408118Y-60520056D01*
X114282213Y-60708487D01*
X114223073Y-61005804D01*
X114238001Y-61080852D01*
X114238000Y-64789975D01*
X114059699Y-64611673D01*
X113826310Y-64515000D01*
X113285750Y-64515000D01*
X113127000Y-64673750D01*
X113127000Y-65598000D01*
X113147000Y-65598000D01*
X113147000Y-65852000D01*
X113127000Y-65852000D01*
X113127000Y-65872000D01*
X112873000Y-65872000D01*
X112873000Y-65852000D01*
X112853000Y-65852000D01*
X112853000Y-65598000D01*
X112873000Y-65598000D01*
X112873000Y-64673750D01*
X112714250Y-64515000D01*
X112262000Y-64515000D01*
X112262000Y-64000042D01*
X112276927Y-63924999D01*
X112262000Y-63849956D01*
X112262000Y-63849952D01*
X112217788Y-63627683D01*
X112133448Y-63501459D01*
X112091882Y-63439251D01*
X112049371Y-63375629D01*
X111985750Y-63333119D01*
X110922440Y-62269810D01*
X110922440Y-61937500D01*
X110855078Y-61598848D01*
X110688803Y-61350000D01*
X110855078Y-61101152D01*
X110922440Y-60762500D01*
X110922440Y-60187500D01*
X110855078Y-59848848D01*
X110663247Y-59561753D01*
X110562000Y-59494102D01*
X110562000Y-58516978D01*
X110960625Y-58250625D01*
X110969867Y-58236793D01*
X166159913Y-58236793D01*
X166734181Y-59650246D01*
X166763657Y-59694360D01*
X167259090Y-60061305D01*
X169820395Y-57500000D01*
X170179605Y-57500000D01*
X172740910Y-60061305D01*
X173236343Y-59694360D01*
X173829736Y-58288829D01*
X173840087Y-56763207D01*
X173265819Y-55349754D01*
X173236343Y-55305640D01*
X172740910Y-54938695D01*
X170179605Y-57500000D01*
X169820395Y-57500000D01*
X167259090Y-54938695D01*
X166763657Y-55305640D01*
X166170264Y-56711171D01*
X166159913Y-58236793D01*
X110969867Y-58236793D01*
X111288839Y-57759417D01*
X111375000Y-57326255D01*
X111375000Y-56733744D01*
X111288839Y-56300582D01*
X110960625Y-55809375D01*
X110469417Y-55481161D01*
X109890000Y-55365908D01*
X109310582Y-55481161D01*
X108819375Y-55809375D01*
X108776758Y-55873156D01*
X108624586Y-55645414D01*
X108333435Y-55450874D01*
X107990000Y-55382560D01*
X106790000Y-55382560D01*
X106446565Y-55450874D01*
X106155414Y-55645414D01*
X105960874Y-55936565D01*
X105892560Y-56280000D01*
X105892560Y-57780000D01*
X105960874Y-58123435D01*
X106155414Y-58414586D01*
X106446565Y-58609126D01*
X106538001Y-58627314D01*
X106538000Y-59544102D01*
X106436753Y-59611753D01*
X106244922Y-59898848D01*
X106177560Y-60237500D01*
X106177560Y-60812500D01*
X106244922Y-61151152D01*
X106411197Y-61400000D01*
X106244922Y-61648848D01*
X106177560Y-61987500D01*
X106177560Y-62562500D01*
X106244922Y-62901152D01*
X106436753Y-63188247D01*
X106723848Y-63380078D01*
X107062500Y-63447440D01*
X107369810Y-63447440D01*
X108238000Y-64315631D01*
X108238001Y-67044314D01*
X108223073Y-67119362D01*
X108282213Y-67416679D01*
X108399280Y-67591882D01*
X108450630Y-67668733D01*
X108514252Y-67711244D01*
X108779409Y-67976401D01*
X108754116Y-68014254D01*
X108514254Y-68254116D01*
X108450629Y-68296629D01*
X108282212Y-68548684D01*
X108238000Y-68770953D01*
X108238000Y-68770957D01*
X108223073Y-68846000D01*
X108238000Y-68921044D01*
X108238001Y-69924952D01*
X108223073Y-70000000D01*
X108282213Y-70297317D01*
X108399649Y-70473072D01*
X108450630Y-70549371D01*
X108514252Y-70591882D01*
X108658116Y-70735746D01*
X108700629Y-70799371D01*
X108952683Y-70967788D01*
X109174952Y-71012000D01*
X109174956Y-71012000D01*
X109249999Y-71026927D01*
X109325042Y-71012000D01*
X110952659Y-71012000D01*
X110952560Y-71012500D01*
X110952560Y-71487500D01*
X111019922Y-71826152D01*
X111211753Y-72113247D01*
X111345054Y-72202316D01*
X111309370Y-72238000D01*
X108014842Y-72238000D01*
X107915518Y-72138676D01*
X107542095Y-71984000D01*
X107137905Y-71984000D01*
X106764482Y-72138676D01*
X106665158Y-72238000D01*
X105355898Y-72238000D01*
X105288247Y-72136753D01*
X105001152Y-71944922D01*
X104662500Y-71877560D01*
X104087500Y-71877560D01*
X103748848Y-71944922D01*
X103500000Y-72111197D01*
X103387000Y-72035693D01*
X103387000Y-71236630D01*
X104954445Y-69669185D01*
X105173691Y-69760000D01*
X105564250Y-69760000D01*
X105723000Y-69601250D01*
X105723000Y-69272440D01*
X105977000Y-69272440D01*
X105977000Y-69601250D01*
X106135750Y-69760000D01*
X106526309Y-69760000D01*
X106759698Y-69663327D01*
X106938327Y-69484699D01*
X107035000Y-69251310D01*
X107035000Y-69221250D01*
X106876250Y-69062500D01*
X106871379Y-69062500D01*
X106998157Y-68872765D01*
X107012353Y-68801397D01*
X107035000Y-68778750D01*
X107035000Y-68748690D01*
X107026783Y-68728852D01*
X107047440Y-68625000D01*
X107047440Y-68375000D01*
X107026783Y-68271148D01*
X107035000Y-68251310D01*
X107035000Y-68221250D01*
X107012353Y-68198603D01*
X106998157Y-68127235D01*
X106913141Y-68000000D01*
X106998157Y-67872765D01*
X107012353Y-67801397D01*
X107035000Y-67778750D01*
X107035000Y-67748690D01*
X107026783Y-67728852D01*
X107047440Y-67625000D01*
X107047440Y-67375000D01*
X107022576Y-67250000D01*
X107047440Y-67125000D01*
X107047440Y-66875000D01*
X106998157Y-66627235D01*
X106857809Y-66417191D01*
X106647765Y-66276843D01*
X106400000Y-66227560D01*
X105300000Y-66227560D01*
X105247514Y-66238000D01*
X94950042Y-66238000D01*
X94874999Y-66223073D01*
X94857812Y-66226492D01*
X94737500Y-66202560D01*
X94262500Y-66202560D01*
X93923848Y-66269922D01*
X93636753Y-66461753D01*
X93535693Y-66613000D01*
X91798145Y-66613000D01*
X91749126Y-66366565D01*
X91554586Y-66075414D01*
X91263435Y-65880874D01*
X90920000Y-65812560D01*
X89420000Y-65812560D01*
X89076565Y-65880874D01*
X88785414Y-66075414D01*
X88590874Y-66366565D01*
X88522560Y-66710000D01*
X88522560Y-67910000D01*
X88590874Y-68253435D01*
X88785414Y-68544586D01*
X89050407Y-68721648D01*
X88831336Y-68917955D01*
X88580447Y-69440740D01*
X88578524Y-69453110D01*
X88699845Y-69683000D01*
X90043000Y-69683000D01*
X90043000Y-69663000D01*
X90297000Y-69663000D01*
X90297000Y-69683000D01*
X91640155Y-69683000D01*
X91761476Y-69453110D01*
X91759553Y-69440740D01*
X91508664Y-68917955D01*
X91289593Y-68721648D01*
X91554586Y-68544586D01*
X91749126Y-68253435D01*
X91772287Y-68137000D01*
X93535693Y-68137000D01*
X93611197Y-68250000D01*
X93444922Y-68498848D01*
X93377560Y-68837500D01*
X93377560Y-69169809D01*
X89684251Y-72863119D01*
X89620630Y-72905629D01*
X89578119Y-72969251D01*
X89578118Y-72969252D01*
X89452213Y-73157683D01*
X89393073Y-73455000D01*
X89408001Y-73530048D01*
X89408000Y-77244947D01*
X89076565Y-77310874D01*
X88785414Y-77505414D01*
X88590874Y-77796565D01*
X88554784Y-77978000D01*
X88335047Y-77978000D01*
X88260000Y-77963072D01*
X88184953Y-77978000D01*
X88184952Y-77978000D01*
X87962683Y-78022212D01*
X87710629Y-78190629D01*
X87668116Y-78254254D01*
X87514252Y-78408118D01*
X87450630Y-78450629D01*
X87408119Y-78514251D01*
X87408118Y-78514252D01*
X87282213Y-78702683D01*
X87223073Y-79000000D01*
X85710000Y-79000000D01*
X85710000Y-70166890D01*
X88578524Y-70166890D01*
X88580447Y-70179260D01*
X88831336Y-70702045D01*
X89263188Y-71089024D01*
X89810258Y-71281284D01*
X90043000Y-71137231D01*
X90043000Y-69937000D01*
X90297000Y-69937000D01*
X90297000Y-71137231D01*
X90529742Y-71281284D01*
X91076812Y-71089024D01*
X91508664Y-70702045D01*
X91759553Y-70179260D01*
X91761476Y-70166890D01*
X91640155Y-69937000D01*
X90297000Y-69937000D01*
X90043000Y-69937000D01*
X88699845Y-69937000D01*
X88578524Y-70166890D01*
X85710000Y-70166890D01*
X85710000Y-60240910D01*
X87438695Y-60240910D01*
X87805640Y-60736343D01*
X89211171Y-61329736D01*
X90736793Y-61340087D01*
X92150246Y-60765819D01*
X92194360Y-60736343D01*
X92561305Y-60240910D01*
X90000000Y-57679605D01*
X87438695Y-60240910D01*
X85710000Y-60240910D01*
X85710000Y-58236793D01*
X86159913Y-58236793D01*
X86734181Y-59650246D01*
X86763657Y-59694360D01*
X87259090Y-60061305D01*
X89820395Y-57500000D01*
X90179605Y-57500000D01*
X92740910Y-60061305D01*
X93236343Y-59694360D01*
X93829736Y-58288829D01*
X93840087Y-56763207D01*
X93265819Y-55349754D01*
X93236343Y-55305640D01*
X92740910Y-54938695D01*
X90179605Y-57500000D01*
X89820395Y-57500000D01*
X87259090Y-54938695D01*
X86763657Y-55305640D01*
X86170264Y-56711171D01*
X86159913Y-58236793D01*
X85710000Y-58236793D01*
X85710000Y-57531619D01*
X85780578Y-56740809D01*
X85981706Y-56005609D01*
X86309846Y-55317648D01*
X86711210Y-54759090D01*
X87438695Y-54759090D01*
X90000000Y-57320395D01*
X92561305Y-54759090D01*
X167438695Y-54759090D01*
X170000000Y-57320395D01*
X172561305Y-54759090D01*
X172194360Y-54263657D01*
X170788829Y-53670264D01*
X169263207Y-53659913D01*
X167849754Y-54234181D01*
X167805640Y-54263657D01*
X167438695Y-54759090D01*
X92561305Y-54759090D01*
X92194360Y-54263657D01*
X90788829Y-53670264D01*
X89263207Y-53659913D01*
X87849754Y-54234181D01*
X87805640Y-54263657D01*
X87438695Y-54759090D01*
X86711210Y-54759090D01*
X86754627Y-54698670D01*
X87301987Y-54168240D01*
X87934635Y-53743118D01*
X88632560Y-53436750D01*
X89379176Y-53257502D01*
X90026030Y-53210000D01*
X169968382Y-53210000D01*
X170759192Y-53280578D01*
X170759192Y-53280578D01*
G37*
X170759192Y-53280578D02*
X171494389Y-53481705D01*
X172182351Y-53809846D01*
X172801331Y-54254628D01*
X173331761Y-54801988D01*
X173756884Y-55434639D01*
X174063251Y-56132561D01*
X174242499Y-56879183D01*
X174290001Y-57526044D01*
X174290000Y-117318727D01*
X174280271Y-117350951D01*
X174267910Y-117434663D01*
X174194719Y-118254748D01*
X173994769Y-118985643D01*
X173668550Y-119669575D01*
X173226374Y-120284928D01*
X172682211Y-120812259D01*
X172053274Y-121234886D01*
X171359429Y-121539464D01*
X170616961Y-121717714D01*
X169946170Y-121766974D01*
X169817214Y-121788091D01*
X169811823Y-121790000D01*
X90336169Y-121790000D01*
X90277409Y-121784303D01*
X89452460Y-121752070D01*
X88708138Y-121587907D01*
X88004649Y-121294531D01*
X87364227Y-120881212D01*
X86807128Y-120361025D01*
X86717394Y-120240910D01*
X87438695Y-120240910D01*
X87805640Y-120736343D01*
X89211171Y-121329736D01*
X90736793Y-121340087D01*
X92150246Y-120765819D01*
X92194360Y-120736343D01*
X92561305Y-120240910D01*
X90000000Y-117679605D01*
X87438695Y-120240910D01*
X86717394Y-120240910D01*
X86350944Y-119750397D01*
X86010104Y-119068639D01*
X85795380Y-118337298D01*
X85784529Y-118236793D01*
X86159913Y-118236793D01*
X86734181Y-119650246D01*
X86763657Y-119694360D01*
X87259090Y-120061305D01*
X89820395Y-117500000D01*
X90179605Y-117500000D01*
X92740910Y-120061305D01*
X93236343Y-119694360D01*
X93829736Y-118288829D01*
X93837070Y-117207745D01*
X102671861Y-117207745D01*
X102745995Y-117453864D01*
X103283223Y-117646965D01*
X103853454Y-117619778D01*
X104254005Y-117453864D01*
X104328139Y-117207745D01*
X103500000Y-116379605D01*
X102671861Y-117207745D01*
X93837070Y-117207745D01*
X93840087Y-116763207D01*
X93523190Y-115983223D01*
X102053035Y-115983223D01*
X102080222Y-116553454D01*
X102246136Y-116954005D01*
X102492255Y-117028139D01*
X103320395Y-116200000D01*
X103679605Y-116200000D01*
X104507745Y-117028139D01*
X104753864Y-116954005D01*
X104946965Y-116416777D01*
X104919778Y-115846546D01*
X104753864Y-115445995D01*
X104507745Y-115371861D01*
X103679605Y-116200000D01*
X103320395Y-116200000D01*
X102492255Y-115371861D01*
X102246136Y-115445995D01*
X102053035Y-115983223D01*
X93523190Y-115983223D01*
X93265819Y-115349754D01*
X93236343Y-115305640D01*
X93083256Y-115192255D01*
X102671861Y-115192255D01*
X103500000Y-116020395D01*
X104328139Y-115192255D01*
X104254005Y-114946136D01*
X103716777Y-114753035D01*
X103146546Y-114780222D01*
X102745995Y-114946136D01*
X102671861Y-115192255D01*
X93083256Y-115192255D01*
X92740910Y-114938695D01*
X90179605Y-117500000D01*
X89820395Y-117500000D01*
X87259090Y-114938695D01*
X86763657Y-115305640D01*
X86170264Y-116711171D01*
X86159913Y-118236793D01*
X85784529Y-118236793D01*
X85710506Y-117551217D01*
X85710000Y-117496660D01*
X85710000Y-114759090D01*
X87438695Y-114759090D01*
X90000000Y-117320395D01*
X92561305Y-114759090D01*
X92194360Y-114263657D01*
X90788829Y-113670264D01*
X89263207Y-113659913D01*
X87849754Y-114234181D01*
X87805640Y-114263657D01*
X87438695Y-114759090D01*
X85710000Y-114759090D01*
X85710000Y-112880434D01*
X101829876Y-112880434D01*
X102026598Y-113355385D01*
X102460006Y-113823505D01*
X103039565Y-114090133D01*
X103293000Y-113971319D01*
X103293000Y-112627000D01*
X103547000Y-112627000D01*
X103547000Y-113971319D01*
X103800435Y-114090133D01*
X104379994Y-113823505D01*
X104813402Y-113355385D01*
X105010124Y-112880434D01*
X104890777Y-112627000D01*
X103547000Y-112627000D01*
X103293000Y-112627000D01*
X101949223Y-112627000D01*
X101829876Y-112880434D01*
X85710000Y-112880434D01*
X85710000Y-112119566D01*
X101829876Y-112119566D01*
X101949223Y-112373000D01*
X103293000Y-112373000D01*
X103293000Y-111028681D01*
X103547000Y-111028681D01*
X103547000Y-112373000D01*
X104890777Y-112373000D01*
X105010124Y-112119566D01*
X104813402Y-111644615D01*
X104379994Y-111176495D01*
X103800435Y-110909867D01*
X103547000Y-111028681D01*
X103293000Y-111028681D01*
X103039565Y-110909867D01*
X102460006Y-111176495D01*
X102026598Y-111644615D01*
X101829876Y-112119566D01*
X85710000Y-112119566D01*
X85710000Y-106956890D01*
X88603524Y-106956890D01*
X88842503Y-107471193D01*
X89267429Y-107865053D01*
X89810733Y-108066320D01*
X90043000Y-107926165D01*
X90043000Y-106727000D01*
X90297000Y-106727000D01*
X90297000Y-107926165D01*
X90529267Y-108066320D01*
X91072571Y-107865053D01*
X91497497Y-107471193D01*
X91736476Y-106956890D01*
X91615155Y-106727000D01*
X90297000Y-106727000D01*
X90043000Y-106727000D01*
X88724845Y-106727000D01*
X88603524Y-106956890D01*
X85710000Y-106956890D01*
X85710000Y-106710750D01*
X93365000Y-106710750D01*
X93365000Y-107126309D01*
X93461673Y-107359698D01*
X93640301Y-107538327D01*
X93873690Y-107635000D01*
X94414250Y-107635000D01*
X94573000Y-107476250D01*
X94573000Y-106552000D01*
X94827000Y-106552000D01*
X94827000Y-107476250D01*
X94985750Y-107635000D01*
X95526310Y-107635000D01*
X95759699Y-107538327D01*
X95938327Y-107359698D01*
X96035000Y-107126309D01*
X96035000Y-106710750D01*
X95876250Y-106552000D01*
X94827000Y-106552000D01*
X94573000Y-106552000D01*
X93523750Y-106552000D01*
X93365000Y-106710750D01*
X85710000Y-106710750D01*
X85710000Y-95060750D01*
X92415000Y-95060750D01*
X92415000Y-95476309D01*
X92511673Y-95709698D01*
X92690301Y-95888327D01*
X92923690Y-95985000D01*
X93464250Y-95985000D01*
X93623000Y-95826250D01*
X93623000Y-94902000D01*
X93877000Y-94902000D01*
X93877000Y-95826250D01*
X94035750Y-95985000D01*
X94576310Y-95985000D01*
X94676038Y-95943691D01*
X118825000Y-95943691D01*
X118825000Y-98284250D01*
X118983750Y-98443000D01*
X124333000Y-98443000D01*
X124333000Y-95593750D01*
X124587000Y-95593750D01*
X124587000Y-98443000D01*
X129936250Y-98443000D01*
X130095000Y-98284250D01*
X130095000Y-95943691D01*
X129998327Y-95710302D01*
X129819699Y-95531673D01*
X129586310Y-95435000D01*
X124745750Y-95435000D01*
X124587000Y-95593750D01*
X124333000Y-95593750D01*
X124174250Y-95435000D01*
X119333690Y-95435000D01*
X119100301Y-95531673D01*
X118921673Y-95710302D01*
X118825000Y-95943691D01*
X94676038Y-95943691D01*
X94809699Y-95888327D01*
X94988327Y-95709698D01*
X95085000Y-95476309D01*
X95085000Y-95060750D01*
X94926250Y-94902000D01*
X93877000Y-94902000D01*
X93623000Y-94902000D01*
X92573750Y-94902000D01*
X92415000Y-95060750D01*
X85710000Y-95060750D01*
X85710000Y-92670000D01*
X88505908Y-92670000D01*
X88621161Y-93249418D01*
X88949375Y-93740625D01*
X89440582Y-94068839D01*
X89873744Y-94155000D01*
X90466256Y-94155000D01*
X90899418Y-94068839D01*
X91390625Y-93740625D01*
X91596842Y-93432000D01*
X92496641Y-93432000D01*
X92665414Y-93684586D01*
X92666597Y-93685377D01*
X92511673Y-93840302D01*
X92415000Y-94073691D01*
X92415000Y-94489250D01*
X92573750Y-94648000D01*
X93623000Y-94648000D01*
X93623000Y-94628000D01*
X93877000Y-94628000D01*
X93877000Y-94648000D01*
X94926250Y-94648000D01*
X95085000Y-94489250D01*
X95085000Y-94073691D01*
X94988327Y-93840302D01*
X94833403Y-93685377D01*
X94834586Y-93684586D01*
X94966609Y-93487000D01*
X150999957Y-93487000D01*
X151075000Y-93501927D01*
X151118999Y-93493175D01*
X151118999Y-94203370D01*
X142954160Y-102368210D01*
X112145841Y-102368210D01*
X108691883Y-98914253D01*
X108652793Y-98855750D01*
X118825000Y-98855750D01*
X118825000Y-101196309D01*
X118921673Y-101429698D01*
X119100301Y-101608327D01*
X119333690Y-101705000D01*
X124174250Y-101705000D01*
X124333000Y-101546250D01*
X124333000Y-98697000D01*
X124587000Y-98697000D01*
X124587000Y-101546250D01*
X124745750Y-101705000D01*
X129586310Y-101705000D01*
X129819699Y-101608327D01*
X129998327Y-101429698D01*
X130095000Y-101196309D01*
X130095000Y-98855750D01*
X129936250Y-98697000D01*
X124587000Y-98697000D01*
X124333000Y-98697000D01*
X118983750Y-98697000D01*
X118825000Y-98855750D01*
X108652793Y-98855750D01*
X108649371Y-98850629D01*
X108397317Y-98682212D01*
X108175048Y-98638000D01*
X108175043Y-98638000D01*
X108100000Y-98623073D01*
X108024957Y-98638000D01*
X99750042Y-98638000D01*
X99674999Y-98623073D01*
X99599956Y-98638000D01*
X99599952Y-98638000D01*
X99377683Y-98682212D01*
X99377682Y-98682213D01*
X99377681Y-98682213D01*
X99355551Y-98697000D01*
X99125629Y-98850629D01*
X99083116Y-98914254D01*
X94844810Y-103152560D01*
X94249999Y-103152560D01*
X93906564Y-103220873D01*
X93731272Y-103338000D01*
X91571842Y-103338000D01*
X91365625Y-103029375D01*
X91301844Y-102986758D01*
X91529586Y-102834586D01*
X91724126Y-102543435D01*
X91792440Y-102200000D01*
X91792440Y-101000000D01*
X91724126Y-100656565D01*
X91529586Y-100365414D01*
X91238435Y-100170874D01*
X90895000Y-100102560D01*
X89445000Y-100102560D01*
X89101565Y-100170874D01*
X88810414Y-100365414D01*
X88615874Y-100656565D01*
X88547560Y-101000000D01*
X88547560Y-102200000D01*
X88615874Y-102543435D01*
X88810414Y-102834586D01*
X89038156Y-102986758D01*
X88974375Y-103029375D01*
X88646161Y-103520582D01*
X88530908Y-104100000D01*
X88646161Y-104679418D01*
X88974375Y-105170625D01*
X89247687Y-105353246D01*
X88842503Y-105728807D01*
X88603524Y-106243110D01*
X88724845Y-106473000D01*
X90043000Y-106473000D01*
X90043000Y-106453000D01*
X90297000Y-106453000D01*
X90297000Y-106473000D01*
X91615155Y-106473000D01*
X91736476Y-106243110D01*
X91497497Y-105728807D01*
X91092313Y-105353246D01*
X91365625Y-105170625D01*
X91571842Y-104862000D01*
X93384783Y-104862000D01*
X93420873Y-105043436D01*
X93615414Y-105334586D01*
X93616597Y-105335377D01*
X93461673Y-105490302D01*
X93365000Y-105723691D01*
X93365000Y-106139250D01*
X93523750Y-106298000D01*
X94573000Y-106298000D01*
X94573000Y-106278000D01*
X94827000Y-106278000D01*
X94827000Y-106298000D01*
X95876250Y-106298000D01*
X96035000Y-106139250D01*
X96035000Y-105723691D01*
X95938327Y-105490302D01*
X95783403Y-105335377D01*
X95784586Y-105334586D01*
X95979127Y-105043436D01*
X96047440Y-104700001D01*
X96047440Y-104105190D01*
X99990630Y-100162000D01*
X104373137Y-100162000D01*
X104234001Y-100497905D01*
X104234001Y-100902095D01*
X104388677Y-101275518D01*
X104463001Y-101349842D01*
X104463000Y-102033390D01*
X104265414Y-102165414D01*
X104070873Y-102456564D01*
X104002560Y-102799999D01*
X104002560Y-103700001D01*
X104070873Y-104043436D01*
X104265414Y-104334586D01*
X104463000Y-104466610D01*
X104463001Y-105533390D01*
X104265414Y-105665414D01*
X104070873Y-105956564D01*
X104002560Y-106299999D01*
X104002560Y-107200001D01*
X104070873Y-107543436D01*
X104265414Y-107834586D01*
X104556564Y-108029127D01*
X104899999Y-108097440D01*
X105550001Y-108097440D01*
X105893436Y-108029127D01*
X106184586Y-107834586D01*
X106250000Y-107736687D01*
X106315414Y-107834586D01*
X106462200Y-107932666D01*
X106462201Y-111194945D01*
X106446277Y-111275000D01*
X106509360Y-111592138D01*
X106602264Y-111731179D01*
X106689005Y-111860996D01*
X106756869Y-111906341D01*
X106852560Y-112002032D01*
X106852560Y-113500000D01*
X106901843Y-113747765D01*
X107042191Y-113957809D01*
X107252235Y-114098157D01*
X107500000Y-114147440D01*
X107687201Y-114147440D01*
X107687200Y-117783440D01*
X107687138Y-117783466D01*
X107283466Y-118187138D01*
X107065000Y-118714561D01*
X107065000Y-119285439D01*
X107283466Y-119812862D01*
X107687138Y-120216534D01*
X108214561Y-120435000D01*
X108785439Y-120435000D01*
X109080456Y-120312800D01*
X110919950Y-120312800D01*
X111000000Y-120328723D01*
X111080050Y-120312800D01*
X111317139Y-120265640D01*
X111585996Y-120085996D01*
X111631343Y-120018129D01*
X112068129Y-119581343D01*
X112135996Y-119535996D01*
X112315640Y-119267139D01*
X112342558Y-119131814D01*
X112378723Y-118950001D01*
X112374727Y-118929914D01*
X112407809Y-118907809D01*
X112497013Y-118774306D01*
X112511673Y-118809698D01*
X112690301Y-118988327D01*
X112923690Y-119085000D01*
X113164250Y-119085000D01*
X113323000Y-118926250D01*
X113323000Y-117627000D01*
X113577000Y-117627000D01*
X113577000Y-118926250D01*
X113735750Y-119085000D01*
X113976310Y-119085000D01*
X114209699Y-118988327D01*
X114388327Y-118809698D01*
X114485000Y-118576309D01*
X114485000Y-117785750D01*
X114326250Y-117627000D01*
X113577000Y-117627000D01*
X113323000Y-117627000D01*
X113303000Y-117627000D01*
X113303000Y-117373000D01*
X113323000Y-117373000D01*
X113323000Y-116073750D01*
X113577000Y-116073750D01*
X113577000Y-117373000D01*
X114326250Y-117373000D01*
X114485000Y-117214250D01*
X114485000Y-117085750D01*
X115865000Y-117085750D01*
X115865000Y-118426310D01*
X115961673Y-118659699D01*
X116140302Y-118838327D01*
X116373691Y-118935000D01*
X117714250Y-118935000D01*
X117873000Y-118776250D01*
X117873000Y-116927000D01*
X118127000Y-116927000D01*
X118127000Y-118776250D01*
X118285750Y-118935000D01*
X119626309Y-118935000D01*
X119859698Y-118838327D01*
X120038327Y-118659699D01*
X120135000Y-118426310D01*
X120135000Y-117085750D01*
X119976250Y-116927000D01*
X118127000Y-116927000D01*
X117873000Y-116927000D01*
X116023750Y-116927000D01*
X115865000Y-117085750D01*
X114485000Y-117085750D01*
X114485000Y-116423691D01*
X114388327Y-116190302D01*
X114209699Y-116011673D01*
X113976310Y-115915000D01*
X113735750Y-115915000D01*
X113577000Y-116073750D01*
X113323000Y-116073750D01*
X113237469Y-115988219D01*
X113357809Y-115907809D01*
X113498157Y-115697765D01*
X113547440Y-115450000D01*
X113547440Y-115173690D01*
X115865000Y-115173690D01*
X115865000Y-116514250D01*
X116023750Y-116673000D01*
X117873000Y-116673000D01*
X117873000Y-114823750D01*
X118127000Y-114823750D01*
X118127000Y-116673000D01*
X119976250Y-116673000D01*
X120135000Y-116514250D01*
X120135000Y-116375322D01*
X120945000Y-116375322D01*
X120945000Y-117224678D01*
X121270034Y-118009380D01*
X121870620Y-118609966D01*
X122655322Y-118935000D01*
X123504678Y-118935000D01*
X124289380Y-118609966D01*
X124889966Y-118009380D01*
X125215000Y-117224678D01*
X125215000Y-116375322D01*
X125050731Y-115978741D01*
X127716673Y-113312800D01*
X128977560Y-113312800D01*
X128977560Y-113950000D01*
X129045874Y-114293435D01*
X129240414Y-114584586D01*
X129531565Y-114779126D01*
X129875000Y-114847440D01*
X130675000Y-114847440D01*
X131018435Y-114779126D01*
X131309586Y-114584586D01*
X131504126Y-114293435D01*
X131572440Y-113950000D01*
X131572440Y-111050000D01*
X131504126Y-110706565D01*
X131309586Y-110415414D01*
X131018435Y-110220874D01*
X130675000Y-110152560D01*
X129875000Y-110152560D01*
X129531565Y-110220874D01*
X129240414Y-110415414D01*
X129045874Y-110706565D01*
X128977560Y-111050000D01*
X128977560Y-111687200D01*
X127460049Y-111687200D01*
X127379999Y-111671277D01*
X127062861Y-111734360D01*
X126794004Y-111914004D01*
X126748660Y-111981867D01*
X123901259Y-114829269D01*
X123504678Y-114665000D01*
X122655322Y-114665000D01*
X121870620Y-114990034D01*
X121270034Y-115590620D01*
X120945000Y-116375322D01*
X120135000Y-116375322D01*
X120135000Y-115173690D01*
X120038327Y-114940301D01*
X119859698Y-114761673D01*
X119626309Y-114665000D01*
X118285750Y-114665000D01*
X118127000Y-114823750D01*
X117873000Y-114823750D01*
X117714250Y-114665000D01*
X116373691Y-114665000D01*
X116140302Y-114761673D01*
X115961673Y-114940301D01*
X115865000Y-115173690D01*
X113547440Y-115173690D01*
X113547440Y-114052032D01*
X117536673Y-110062800D01*
X136413328Y-110062800D01*
X136687200Y-110336673D01*
X136687201Y-113559326D01*
X135954383Y-114292145D01*
X136022440Y-113950000D01*
X136022440Y-111050000D01*
X135954126Y-110706565D01*
X135759586Y-110415414D01*
X135468435Y-110220874D01*
X135125000Y-110152560D01*
X134325000Y-110152560D01*
X133981565Y-110220874D01*
X133690414Y-110415414D01*
X133495874Y-110706565D01*
X133427560Y-111050000D01*
X133427560Y-113950000D01*
X133495874Y-114293435D01*
X133620530Y-114479997D01*
X132028861Y-116071666D01*
X131880582Y-116101161D01*
X131389375Y-116429375D01*
X131190000Y-116727761D01*
X130990625Y-116429375D01*
X130499418Y-116101161D01*
X130066256Y-116015000D01*
X129773744Y-116015000D01*
X129340582Y-116101161D01*
X128849375Y-116429375D01*
X128521161Y-116920582D01*
X128405908Y-117500000D01*
X128521161Y-118079418D01*
X128849375Y-118570625D01*
X129340582Y-118898839D01*
X129773744Y-118985000D01*
X130066256Y-118985000D01*
X130499418Y-118898839D01*
X130990625Y-118570625D01*
X131190000Y-118272239D01*
X131389375Y-118570625D01*
X131880582Y-118898839D01*
X132313744Y-118985000D01*
X132606256Y-118985000D01*
X133039418Y-118898839D01*
X133530625Y-118570625D01*
X133542816Y-118552381D01*
X133551843Y-118597765D01*
X133692191Y-118807809D01*
X133902235Y-118948157D01*
X134150000Y-118997440D01*
X135850000Y-118997440D01*
X136097765Y-118948157D01*
X136307809Y-118807809D01*
X136448157Y-118597765D01*
X136497440Y-118350000D01*
X136497440Y-118130000D01*
X140742560Y-118130000D01*
X140742560Y-119830000D01*
X140791843Y-120077765D01*
X140932191Y-120287809D01*
X141142235Y-120428157D01*
X141390000Y-120477440D01*
X143090000Y-120477440D01*
X143337765Y-120428157D01*
X143547809Y-120287809D01*
X143688157Y-120077765D01*
X143697184Y-120032381D01*
X143709375Y-120050625D01*
X144200582Y-120378839D01*
X144633744Y-120465000D01*
X144926256Y-120465000D01*
X145359418Y-120378839D01*
X145850625Y-120050625D01*
X146063843Y-119731522D01*
X146124817Y-119861358D01*
X146553076Y-120251645D01*
X146963110Y-120421476D01*
X147193000Y-120300155D01*
X147193000Y-119107000D01*
X147173000Y-119107000D01*
X147173000Y-118853000D01*
X147193000Y-118853000D01*
X147193000Y-117659845D01*
X147447000Y-117659845D01*
X147447000Y-118853000D01*
X147467000Y-118853000D01*
X147467000Y-119107000D01*
X147447000Y-119107000D01*
X147447000Y-120300155D01*
X147676890Y-120421476D01*
X148086924Y-120251645D01*
X148515183Y-119861358D01*
X148576157Y-119731522D01*
X148789375Y-120050625D01*
X149280582Y-120378839D01*
X149713744Y-120465000D01*
X150006256Y-120465000D01*
X150439418Y-120378839D01*
X150930625Y-120050625D01*
X151130000Y-119752239D01*
X151329375Y-120050625D01*
X151820582Y-120378839D01*
X152253744Y-120465000D01*
X152546256Y-120465000D01*
X152979418Y-120378839D01*
X153470625Y-120050625D01*
X153670000Y-119752239D01*
X153869375Y-120050625D01*
X154360582Y-120378839D01*
X154793744Y-120465000D01*
X155086256Y-120465000D01*
X155519418Y-120378839D01*
X155725843Y-120240910D01*
X167438695Y-120240910D01*
X167805640Y-120736343D01*
X169211171Y-121329736D01*
X170736793Y-121340087D01*
X172150246Y-120765819D01*
X172194360Y-120736343D01*
X172561305Y-120240910D01*
X170000000Y-117679605D01*
X167438695Y-120240910D01*
X155725843Y-120240910D01*
X156010625Y-120050625D01*
X156338839Y-119559418D01*
X156454092Y-118980000D01*
X156338839Y-118400582D01*
X156229399Y-118236793D01*
X166159913Y-118236793D01*
X166734181Y-119650246D01*
X166763657Y-119694360D01*
X167259090Y-120061305D01*
X169820395Y-117500000D01*
X170179605Y-117500000D01*
X172740910Y-120061305D01*
X173236343Y-119694360D01*
X173829736Y-118288829D01*
X173840087Y-116763207D01*
X173265819Y-115349754D01*
X173236343Y-115305640D01*
X172740910Y-114938695D01*
X170179605Y-117500000D01*
X169820395Y-117500000D01*
X167259090Y-114938695D01*
X166763657Y-115305640D01*
X166170264Y-116711171D01*
X166159913Y-118236793D01*
X156229399Y-118236793D01*
X156010625Y-117909375D01*
X155519418Y-117581161D01*
X155086256Y-117495000D01*
X154793744Y-117495000D01*
X154360582Y-117581161D01*
X153869375Y-117909375D01*
X153670000Y-118207761D01*
X153470625Y-117909375D01*
X152979418Y-117581161D01*
X152546256Y-117495000D01*
X152253744Y-117495000D01*
X151820582Y-117581161D01*
X151329375Y-117909375D01*
X151130000Y-118207761D01*
X150930625Y-117909375D01*
X150439418Y-117581161D01*
X150006256Y-117495000D01*
X149713744Y-117495000D01*
X149280582Y-117581161D01*
X148789375Y-117909375D01*
X148576157Y-118228478D01*
X148515183Y-118098642D01*
X148086924Y-117708355D01*
X147676890Y-117538524D01*
X147447000Y-117659845D01*
X147193000Y-117659845D01*
X146963110Y-117538524D01*
X146553076Y-117708355D01*
X146124817Y-118098642D01*
X146063843Y-118228478D01*
X145850625Y-117909375D01*
X145359418Y-117581161D01*
X144926256Y-117495000D01*
X144633744Y-117495000D01*
X144200582Y-117581161D01*
X143709375Y-117909375D01*
X143697184Y-117927619D01*
X143688157Y-117882235D01*
X143547809Y-117672191D01*
X143337765Y-117531843D01*
X143090000Y-117482560D01*
X141390000Y-117482560D01*
X141142235Y-117531843D01*
X140932191Y-117672191D01*
X140791843Y-117882235D01*
X140742560Y-118130000D01*
X136497440Y-118130000D01*
X136497440Y-116650000D01*
X136448157Y-116402235D01*
X136326023Y-116219450D01*
X137786383Y-114759090D01*
X167438695Y-114759090D01*
X170000000Y-117320395D01*
X172561305Y-114759090D01*
X172194360Y-114263657D01*
X170788829Y-113670264D01*
X169263207Y-113659913D01*
X167849754Y-114234181D01*
X167805640Y-114263657D01*
X167438695Y-114759090D01*
X137786383Y-114759090D01*
X138018131Y-114527342D01*
X138085996Y-114481996D01*
X138265640Y-114213139D01*
X138312800Y-113976050D01*
X138328723Y-113896000D01*
X138312800Y-113815950D01*
X138312800Y-110080049D01*
X138328723Y-109999999D01*
X138265640Y-109682861D01*
X138188317Y-109567139D01*
X138085996Y-109414004D01*
X138018132Y-109368659D01*
X137381343Y-108731871D01*
X137335996Y-108664004D01*
X137067139Y-108484360D01*
X136830050Y-108437200D01*
X136750000Y-108421277D01*
X136669950Y-108437200D01*
X117280050Y-108437200D01*
X117200000Y-108421277D01*
X117119950Y-108437200D01*
X116882861Y-108484360D01*
X116614004Y-108664004D01*
X116568659Y-108731869D01*
X112397968Y-112902560D01*
X112202512Y-112902560D01*
X116718132Y-108386941D01*
X116785996Y-108341596D01*
X116965640Y-108072739D01*
X116970672Y-108047440D01*
X117000000Y-108047440D01*
X117247765Y-107998157D01*
X117457809Y-107857809D01*
X117598157Y-107647765D01*
X117647440Y-107400000D01*
X117647440Y-105800000D01*
X117598157Y-105552235D01*
X117457809Y-105342191D01*
X117413823Y-105312800D01*
X156419950Y-105312800D01*
X156500000Y-105328723D01*
X156580050Y-105312800D01*
X156817139Y-105265640D01*
X157085996Y-105085996D01*
X157131343Y-105018129D01*
X158649472Y-103500000D01*
X167335908Y-103500000D01*
X167451161Y-104079418D01*
X167779375Y-104570625D01*
X167843156Y-104613242D01*
X167615414Y-104765414D01*
X167420874Y-105056565D01*
X167352560Y-105400000D01*
X167352560Y-106600000D01*
X167420874Y-106943435D01*
X167615414Y-107234586D01*
X167906565Y-107429126D01*
X168250000Y-107497440D01*
X169750000Y-107497440D01*
X170093435Y-107429126D01*
X170384586Y-107234586D01*
X170579126Y-106943435D01*
X170647440Y-106600000D01*
X170647440Y-105400000D01*
X170579126Y-105056565D01*
X170384586Y-104765414D01*
X170156844Y-104613242D01*
X170220625Y-104570625D01*
X170548839Y-104079418D01*
X170664092Y-103500000D01*
X170548839Y-102920582D01*
X170220625Y-102429375D01*
X169729418Y-102101161D01*
X169296256Y-102015000D01*
X168703744Y-102015000D01*
X168270582Y-102101161D01*
X167779375Y-102429375D01*
X167451161Y-102920582D01*
X167335908Y-103500000D01*
X158649472Y-103500000D01*
X168652033Y-93497440D01*
X169750000Y-93497440D01*
X170093435Y-93429126D01*
X170384586Y-93234586D01*
X170579126Y-92943435D01*
X170647440Y-92600000D01*
X170647440Y-91400000D01*
X170579126Y-91056565D01*
X170384586Y-90765414D01*
X170156844Y-90613242D01*
X170220625Y-90570625D01*
X170548839Y-90079418D01*
X170664092Y-89500000D01*
X170548839Y-88920582D01*
X170220625Y-88429375D01*
X169729418Y-88101161D01*
X169296256Y-88015000D01*
X168703744Y-88015000D01*
X168270582Y-88101161D01*
X167779375Y-88429375D01*
X167451161Y-88920582D01*
X167335908Y-89500000D01*
X167451161Y-90079418D01*
X167779375Y-90570625D01*
X167843156Y-90613242D01*
X167615414Y-90765414D01*
X167420874Y-91056565D01*
X167352560Y-91400000D01*
X167352560Y-92497967D01*
X156163328Y-103687200D01*
X143807758Y-103687200D01*
X143819161Y-103679581D01*
X143861673Y-103615957D01*
X152366749Y-95110882D01*
X152430370Y-95068372D01*
X152598787Y-94816318D01*
X152642999Y-94594049D01*
X152642999Y-94594048D01*
X152657927Y-94519001D01*
X152642999Y-94443954D01*
X152642999Y-78956046D01*
X152657927Y-78880999D01*
X152642999Y-78805951D01*
X152598787Y-78583682D01*
X152430370Y-78331628D01*
X152366748Y-78289117D01*
X152363381Y-78285750D01*
X167390000Y-78285750D01*
X167390000Y-78976309D01*
X167486673Y-79209698D01*
X167665301Y-79388327D01*
X167898690Y-79485000D01*
X168714250Y-79485000D01*
X168873000Y-79326250D01*
X168873000Y-78127000D01*
X169127000Y-78127000D01*
X169127000Y-79326250D01*
X169285750Y-79485000D01*
X170101310Y-79485000D01*
X170334699Y-79388327D01*
X170513327Y-79209698D01*
X170610000Y-78976309D01*
X170610000Y-78285750D01*
X170451250Y-78127000D01*
X169127000Y-78127000D01*
X168873000Y-78127000D01*
X167548750Y-78127000D01*
X167390000Y-78285750D01*
X152363381Y-78285750D01*
X152016000Y-77938370D01*
X152016000Y-77797905D01*
X151861324Y-77424482D01*
X151575518Y-77138676D01*
X151202095Y-76984000D01*
X150899232Y-76984000D01*
X151016000Y-76702095D01*
X151016000Y-76297905D01*
X150861324Y-75924482D01*
X150575518Y-75638676D01*
X150202095Y-75484000D01*
X149797905Y-75484000D01*
X149424482Y-75638676D01*
X149138676Y-75924482D01*
X148984000Y-76297905D01*
X148984000Y-76702095D01*
X149100770Y-76984004D01*
X148820330Y-76984004D01*
X148800863Y-76886138D01*
X148775944Y-76760861D01*
X148607527Y-76508807D01*
X148543902Y-76466294D01*
X148515986Y-76438378D01*
X148515986Y-76297913D01*
X148361310Y-75924490D01*
X148075504Y-75638684D01*
X147702081Y-75484008D01*
X147297891Y-75484008D01*
X146924468Y-75638684D01*
X146638662Y-75924490D01*
X146483986Y-76297913D01*
X146483986Y-76702103D01*
X146638662Y-77075526D01*
X146924468Y-77361332D01*
X147296157Y-77515290D01*
X147296156Y-90725162D01*
X147196832Y-90824486D01*
X147042156Y-91197909D01*
X147042156Y-91602099D01*
X147191645Y-91963000D01*
X94966609Y-91963000D01*
X94834586Y-91765414D01*
X94543436Y-91570873D01*
X94200001Y-91502560D01*
X93299999Y-91502560D01*
X92956564Y-91570873D01*
X92665414Y-91765414D01*
X92570141Y-91908000D01*
X91596842Y-91908000D01*
X91390625Y-91599375D01*
X91326844Y-91556758D01*
X91554586Y-91404586D01*
X91749126Y-91113435D01*
X91817440Y-90770000D01*
X91817440Y-89570000D01*
X91749126Y-89226565D01*
X91554586Y-88935414D01*
X91263435Y-88740874D01*
X90920000Y-88672560D01*
X89420000Y-88672560D01*
X89076565Y-88740874D01*
X88785414Y-88935414D01*
X88590874Y-89226565D01*
X88522560Y-89570000D01*
X88522560Y-90770000D01*
X88590874Y-91113435D01*
X88785414Y-91404586D01*
X89013156Y-91556758D01*
X88949375Y-91599375D01*
X88621161Y-92090582D01*
X88505908Y-92670000D01*
X85710000Y-92670000D01*
X85710000Y-88297905D01*
X96233998Y-88297905D01*
X96233998Y-88702095D01*
X96388674Y-89075518D01*
X96674480Y-89361324D01*
X97047903Y-89516000D01*
X97452093Y-89516000D01*
X97825516Y-89361324D01*
X97874040Y-89312800D01*
X117375958Y-89312800D01*
X117424482Y-89361324D01*
X117797905Y-89516000D01*
X118202095Y-89516000D01*
X118575518Y-89361324D01*
X118861324Y-89075518D01*
X119016000Y-88702095D01*
X119016000Y-88297905D01*
X118861324Y-87924482D01*
X118575518Y-87638676D01*
X118202095Y-87484000D01*
X117797905Y-87484000D01*
X117424482Y-87638676D01*
X117375958Y-87687200D01*
X97874040Y-87687200D01*
X97825516Y-87638676D01*
X97452093Y-87484000D01*
X97047903Y-87484000D01*
X96674480Y-87638676D01*
X96388674Y-87924482D01*
X96233998Y-88297905D01*
X85710000Y-88297905D01*
X85710000Y-79000000D01*
X87223073Y-79000000D01*
X87238001Y-79075048D01*
X87238000Y-82674957D01*
X87223073Y-82750000D01*
X87238000Y-82825043D01*
X87238000Y-82825047D01*
X87282212Y-83047316D01*
X87450629Y-83299371D01*
X87514253Y-83341883D01*
X89158118Y-84985749D01*
X89200629Y-85049371D01*
X89452683Y-85217788D01*
X89674952Y-85262000D01*
X89674953Y-85262000D01*
X89750000Y-85276928D01*
X89825047Y-85262000D01*
X94824957Y-85262000D01*
X94900000Y-85276927D01*
X94975043Y-85262000D01*
X94975048Y-85262000D01*
X95197317Y-85217788D01*
X95449371Y-85049371D01*
X95491883Y-84985747D01*
X95965631Y-84512000D01*
X120505971Y-84512000D01*
X120224609Y-84933089D01*
X120132500Y-85396150D01*
X120132500Y-85803849D01*
X120224609Y-86266910D01*
X120575477Y-86792023D01*
X121100589Y-87142891D01*
X121720000Y-87266100D01*
X122339410Y-87142891D01*
X122864523Y-86792023D01*
X122999159Y-86590526D01*
X123393076Y-86975973D01*
X123887020Y-87190563D01*
X124133000Y-87070594D01*
X124133000Y-85727000D01*
X124113000Y-85727000D01*
X124113000Y-85473000D01*
X124133000Y-85473000D01*
X124133000Y-85453000D01*
X124387000Y-85453000D01*
X124387000Y-85473000D01*
X124407000Y-85473000D01*
X124407000Y-85727000D01*
X124387000Y-85727000D01*
X124387000Y-87070594D01*
X124632980Y-87190563D01*
X125126924Y-86975973D01*
X125252745Y-86852857D01*
X125389691Y-87057809D01*
X125599735Y-87198157D01*
X125847500Y-87247440D01*
X127752500Y-87247440D01*
X128000265Y-87198157D01*
X128210309Y-87057809D01*
X128350657Y-86847765D01*
X128399940Y-86600000D01*
X128399940Y-84600000D01*
X128382436Y-84512000D01*
X132924957Y-84512000D01*
X133000000Y-84526927D01*
X133075043Y-84512000D01*
X133075048Y-84512000D01*
X133297317Y-84467788D01*
X133549371Y-84299371D01*
X133591883Y-84235747D01*
X139811629Y-78016002D01*
X139952093Y-78016002D01*
X140325516Y-77861326D01*
X140488000Y-77698842D01*
X140488000Y-79325158D01*
X140388676Y-79424482D01*
X140234000Y-79797905D01*
X140234000Y-80202095D01*
X140388676Y-80575518D01*
X140674482Y-80861324D01*
X141047905Y-81016000D01*
X141452095Y-81016000D01*
X141825518Y-80861324D01*
X142111324Y-80575518D01*
X142266000Y-80202095D01*
X142266000Y-79797905D01*
X142118441Y-79441665D01*
X142297903Y-79516000D01*
X142702093Y-79516000D01*
X143075516Y-79361324D01*
X143361322Y-79075518D01*
X143515998Y-78702095D01*
X143515998Y-78297905D01*
X143361322Y-77924482D01*
X143261998Y-77825158D01*
X143261998Y-71075040D01*
X143276925Y-70999997D01*
X143261998Y-70924954D01*
X143261998Y-70924950D01*
X143217786Y-70702681D01*
X143198521Y-70673848D01*
X143091880Y-70514249D01*
X143049369Y-70450627D01*
X142985748Y-70408117D01*
X140625536Y-68047905D01*
X143984000Y-68047905D01*
X143984000Y-68452095D01*
X144138676Y-68825518D01*
X144424482Y-69111324D01*
X144797905Y-69266000D01*
X144938370Y-69266000D01*
X152158118Y-76485749D01*
X152200629Y-76549371D01*
X152264251Y-76591882D01*
X152326459Y-76633448D01*
X152452683Y-76717788D01*
X152674952Y-76762000D01*
X152674956Y-76762000D01*
X152749999Y-76776927D01*
X152825042Y-76762000D01*
X158325158Y-76762000D01*
X158424482Y-76861324D01*
X158797905Y-77016000D01*
X159202095Y-77016000D01*
X159575518Y-76861324D01*
X159861324Y-76575518D01*
X160016000Y-76202095D01*
X160016000Y-75797905D01*
X159861324Y-75424482D01*
X159575518Y-75138676D01*
X159202095Y-74984000D01*
X158797905Y-74984000D01*
X158424482Y-75138676D01*
X158325158Y-75238000D01*
X153065631Y-75238000D01*
X150968445Y-73140815D01*
X151074952Y-73162000D01*
X151074956Y-73162000D01*
X151149999Y-73176927D01*
X151225042Y-73162000D01*
X154825158Y-73162000D01*
X154924482Y-73261324D01*
X155297905Y-73416000D01*
X155702095Y-73416000D01*
X156075518Y-73261324D01*
X156361324Y-72975518D01*
X156516000Y-72602095D01*
X156516000Y-72197905D01*
X156361324Y-71824482D01*
X156075518Y-71538676D01*
X155702095Y-71384000D01*
X155297905Y-71384000D01*
X154924482Y-71538676D01*
X154825158Y-71638000D01*
X151465631Y-71638000D01*
X150327631Y-70500000D01*
X167360908Y-70500000D01*
X167476161Y-71079418D01*
X167804375Y-71570625D01*
X168072829Y-71750000D01*
X167804375Y-71929375D01*
X167476161Y-72420582D01*
X167360908Y-73000000D01*
X167476161Y-73579418D01*
X167804375Y-74070625D01*
X168072829Y-74250000D01*
X167804375Y-74429375D01*
X167476161Y-74920582D01*
X167360908Y-75500000D01*
X167476161Y-76079418D01*
X167795709Y-76557656D01*
X167665301Y-76611673D01*
X167486673Y-76790302D01*
X167390000Y-77023691D01*
X167390000Y-77714250D01*
X167548750Y-77873000D01*
X168873000Y-77873000D01*
X168873000Y-77853000D01*
X169127000Y-77853000D01*
X169127000Y-77873000D01*
X170451250Y-77873000D01*
X170610000Y-77714250D01*
X170610000Y-77023691D01*
X170513327Y-76790302D01*
X170334699Y-76611673D01*
X170204291Y-76557656D01*
X170523839Y-76079418D01*
X170639092Y-75500000D01*
X170523839Y-74920582D01*
X170195625Y-74429375D01*
X169927171Y-74250000D01*
X170195625Y-74070625D01*
X170523839Y-73579418D01*
X170639092Y-73000000D01*
X170523839Y-72420582D01*
X170195625Y-71929375D01*
X169927171Y-71750000D01*
X170195625Y-71570625D01*
X170523839Y-71079418D01*
X170639092Y-70500000D01*
X170523839Y-69920582D01*
X170195625Y-69429375D01*
X169704418Y-69101161D01*
X169271256Y-69015000D01*
X168728744Y-69015000D01*
X168295582Y-69101161D01*
X167804375Y-69429375D01*
X167476161Y-69920582D01*
X167360908Y-70500000D01*
X150327631Y-70500000D01*
X148016000Y-68188370D01*
X148016000Y-68047905D01*
X147861324Y-67674482D01*
X147575518Y-67388676D01*
X147202095Y-67234000D01*
X146797905Y-67234000D01*
X146424482Y-67388676D01*
X146138676Y-67674482D01*
X146000000Y-68009277D01*
X145861324Y-67674482D01*
X145575518Y-67388676D01*
X145202095Y-67234000D01*
X144797905Y-67234000D01*
X144424482Y-67388676D01*
X144138676Y-67674482D01*
X143984000Y-68047905D01*
X140625536Y-68047905D01*
X137341883Y-64764253D01*
X137299371Y-64700629D01*
X137047317Y-64532212D01*
X136825048Y-64488000D01*
X136825043Y-64488000D01*
X136750000Y-64473073D01*
X136674957Y-64488000D01*
X120825042Y-64488000D01*
X120749999Y-64473073D01*
X120674956Y-64488000D01*
X120674952Y-64488000D01*
X120452683Y-64532212D01*
X120452682Y-64532213D01*
X120452681Y-64532213D01*
X120264251Y-64658118D01*
X120200629Y-64700629D01*
X120158118Y-64764251D01*
X117366207Y-67556163D01*
X117305078Y-67248848D01*
X117113247Y-66961753D01*
X116999188Y-66885541D01*
X116967788Y-66727683D01*
X116847272Y-66547318D01*
X116841882Y-66539251D01*
X116799371Y-66475629D01*
X116735749Y-66433118D01*
X115762000Y-65459370D01*
X115762000Y-61321434D01*
X116064533Y-61018902D01*
X116204997Y-61018902D01*
X116578420Y-60864226D01*
X116864226Y-60578420D01*
X117004026Y-60240910D01*
X167438695Y-60240910D01*
X167805640Y-60736343D01*
X169211171Y-61329736D01*
X170736793Y-61340087D01*
X172150246Y-60765819D01*
X172194360Y-60736343D01*
X172561305Y-60240910D01*
X170000000Y-57679605D01*
X167438695Y-60240910D01*
X117004026Y-60240910D01*
X117018902Y-60204997D01*
X117018902Y-59800807D01*
X116864226Y-59427384D01*
X116578420Y-59141578D01*
X116204997Y-58986902D01*
X115800807Y-58986902D01*
X115427384Y-59141578D01*
X115141578Y-59427384D01*
X114986902Y-59800807D01*
X114986902Y-59941271D01*
X114514251Y-60413923D01*
X114450630Y-60456433D01*
X114408119Y-60520055D01*
X114408118Y-60520056D01*
X114282213Y-60708487D01*
X114223073Y-61005804D01*
X114238001Y-61080852D01*
X114238000Y-64789975D01*
X114059699Y-64611673D01*
X113826310Y-64515000D01*
X113285750Y-64515000D01*
X113127000Y-64673750D01*
X113127000Y-65598000D01*
X113147000Y-65598000D01*
X113147000Y-65852000D01*
X113127000Y-65852000D01*
X113127000Y-65872000D01*
X112873000Y-65872000D01*
X112873000Y-65852000D01*
X112853000Y-65852000D01*
X112853000Y-65598000D01*
X112873000Y-65598000D01*
X112873000Y-64673750D01*
X112714250Y-64515000D01*
X112262000Y-64515000D01*
X112262000Y-64000042D01*
X112276927Y-63924999D01*
X112262000Y-63849956D01*
X112262000Y-63849952D01*
X112217788Y-63627683D01*
X112133448Y-63501459D01*
X112091882Y-63439251D01*
X112049371Y-63375629D01*
X111985750Y-63333119D01*
X110922440Y-62269810D01*
X110922440Y-61937500D01*
X110855078Y-61598848D01*
X110688803Y-61350000D01*
X110855078Y-61101152D01*
X110922440Y-60762500D01*
X110922440Y-60187500D01*
X110855078Y-59848848D01*
X110663247Y-59561753D01*
X110562000Y-59494102D01*
X110562000Y-58516978D01*
X110960625Y-58250625D01*
X110969867Y-58236793D01*
X166159913Y-58236793D01*
X166734181Y-59650246D01*
X166763657Y-59694360D01*
X167259090Y-60061305D01*
X169820395Y-57500000D01*
X170179605Y-57500000D01*
X172740910Y-60061305D01*
X173236343Y-59694360D01*
X173829736Y-58288829D01*
X173840087Y-56763207D01*
X173265819Y-55349754D01*
X173236343Y-55305640D01*
X172740910Y-54938695D01*
X170179605Y-57500000D01*
X169820395Y-57500000D01*
X167259090Y-54938695D01*
X166763657Y-55305640D01*
X166170264Y-56711171D01*
X166159913Y-58236793D01*
X110969867Y-58236793D01*
X111288839Y-57759417D01*
X111375000Y-57326255D01*
X111375000Y-56733744D01*
X111288839Y-56300582D01*
X110960625Y-55809375D01*
X110469417Y-55481161D01*
X109890000Y-55365908D01*
X109310582Y-55481161D01*
X108819375Y-55809375D01*
X108776758Y-55873156D01*
X108624586Y-55645414D01*
X108333435Y-55450874D01*
X107990000Y-55382560D01*
X106790000Y-55382560D01*
X106446565Y-55450874D01*
X106155414Y-55645414D01*
X105960874Y-55936565D01*
X105892560Y-56280000D01*
X105892560Y-57780000D01*
X105960874Y-58123435D01*
X106155414Y-58414586D01*
X106446565Y-58609126D01*
X106538001Y-58627314D01*
X106538000Y-59544102D01*
X106436753Y-59611753D01*
X106244922Y-59898848D01*
X106177560Y-60237500D01*
X106177560Y-60812500D01*
X106244922Y-61151152D01*
X106411197Y-61400000D01*
X106244922Y-61648848D01*
X106177560Y-61987500D01*
X106177560Y-62562500D01*
X106244922Y-62901152D01*
X106436753Y-63188247D01*
X106723848Y-63380078D01*
X107062500Y-63447440D01*
X107369810Y-63447440D01*
X108238000Y-64315631D01*
X108238001Y-67044314D01*
X108223073Y-67119362D01*
X108282213Y-67416679D01*
X108399280Y-67591882D01*
X108450630Y-67668733D01*
X108514252Y-67711244D01*
X108779409Y-67976401D01*
X108754116Y-68014254D01*
X108514254Y-68254116D01*
X108450629Y-68296629D01*
X108282212Y-68548684D01*
X108238000Y-68770953D01*
X108238000Y-68770957D01*
X108223073Y-68846000D01*
X108238000Y-68921044D01*
X108238001Y-69924952D01*
X108223073Y-70000000D01*
X108282213Y-70297317D01*
X108399649Y-70473072D01*
X108450630Y-70549371D01*
X108514252Y-70591882D01*
X108658116Y-70735746D01*
X108700629Y-70799371D01*
X108952683Y-70967788D01*
X109174952Y-71012000D01*
X109174956Y-71012000D01*
X109249999Y-71026927D01*
X109325042Y-71012000D01*
X110952659Y-71012000D01*
X110952560Y-71012500D01*
X110952560Y-71487500D01*
X111019922Y-71826152D01*
X111211753Y-72113247D01*
X111345054Y-72202316D01*
X111309370Y-72238000D01*
X108014842Y-72238000D01*
X107915518Y-72138676D01*
X107542095Y-71984000D01*
X107137905Y-71984000D01*
X106764482Y-72138676D01*
X106665158Y-72238000D01*
X105355898Y-72238000D01*
X105288247Y-72136753D01*
X105001152Y-71944922D01*
X104662500Y-71877560D01*
X104087500Y-71877560D01*
X103748848Y-71944922D01*
X103500000Y-72111197D01*
X103387000Y-72035693D01*
X103387000Y-71236630D01*
X104954445Y-69669185D01*
X105173691Y-69760000D01*
X105564250Y-69760000D01*
X105723000Y-69601250D01*
X105723000Y-69272440D01*
X105977000Y-69272440D01*
X105977000Y-69601250D01*
X106135750Y-69760000D01*
X106526309Y-69760000D01*
X106759698Y-69663327D01*
X106938327Y-69484699D01*
X107035000Y-69251310D01*
X107035000Y-69221250D01*
X106876250Y-69062500D01*
X106871379Y-69062500D01*
X106998157Y-68872765D01*
X107012353Y-68801397D01*
X107035000Y-68778750D01*
X107035000Y-68748690D01*
X107026783Y-68728852D01*
X107047440Y-68625000D01*
X107047440Y-68375000D01*
X107026783Y-68271148D01*
X107035000Y-68251310D01*
X107035000Y-68221250D01*
X107012353Y-68198603D01*
X106998157Y-68127235D01*
X106913141Y-68000000D01*
X106998157Y-67872765D01*
X107012353Y-67801397D01*
X107035000Y-67778750D01*
X107035000Y-67748690D01*
X107026783Y-67728852D01*
X107047440Y-67625000D01*
X107047440Y-67375000D01*
X107022576Y-67250000D01*
X107047440Y-67125000D01*
X107047440Y-66875000D01*
X106998157Y-66627235D01*
X106857809Y-66417191D01*
X106647765Y-66276843D01*
X106400000Y-66227560D01*
X105300000Y-66227560D01*
X105247514Y-66238000D01*
X94950042Y-66238000D01*
X94874999Y-66223073D01*
X94857812Y-66226492D01*
X94737500Y-66202560D01*
X94262500Y-66202560D01*
X93923848Y-66269922D01*
X93636753Y-66461753D01*
X93535693Y-66613000D01*
X91798145Y-66613000D01*
X91749126Y-66366565D01*
X91554586Y-66075414D01*
X91263435Y-65880874D01*
X90920000Y-65812560D01*
X89420000Y-65812560D01*
X89076565Y-65880874D01*
X88785414Y-66075414D01*
X88590874Y-66366565D01*
X88522560Y-66710000D01*
X88522560Y-67910000D01*
X88590874Y-68253435D01*
X88785414Y-68544586D01*
X89050407Y-68721648D01*
X88831336Y-68917955D01*
X88580447Y-69440740D01*
X88578524Y-69453110D01*
X88699845Y-69683000D01*
X90043000Y-69683000D01*
X90043000Y-69663000D01*
X90297000Y-69663000D01*
X90297000Y-69683000D01*
X91640155Y-69683000D01*
X91761476Y-69453110D01*
X91759553Y-69440740D01*
X91508664Y-68917955D01*
X91289593Y-68721648D01*
X91554586Y-68544586D01*
X91749126Y-68253435D01*
X91772287Y-68137000D01*
X93535693Y-68137000D01*
X93611197Y-68250000D01*
X93444922Y-68498848D01*
X93377560Y-68837500D01*
X93377560Y-69169809D01*
X89684251Y-72863119D01*
X89620630Y-72905629D01*
X89578119Y-72969251D01*
X89578118Y-72969252D01*
X89452213Y-73157683D01*
X89393073Y-73455000D01*
X89408001Y-73530048D01*
X89408000Y-77244947D01*
X89076565Y-77310874D01*
X88785414Y-77505414D01*
X88590874Y-77796565D01*
X88554784Y-77978000D01*
X88335047Y-77978000D01*
X88260000Y-77963072D01*
X88184953Y-77978000D01*
X88184952Y-77978000D01*
X87962683Y-78022212D01*
X87710629Y-78190629D01*
X87668116Y-78254254D01*
X87514252Y-78408118D01*
X87450630Y-78450629D01*
X87408119Y-78514251D01*
X87408118Y-78514252D01*
X87282213Y-78702683D01*
X87223073Y-79000000D01*
X85710000Y-79000000D01*
X85710000Y-70166890D01*
X88578524Y-70166890D01*
X88580447Y-70179260D01*
X88831336Y-70702045D01*
X89263188Y-71089024D01*
X89810258Y-71281284D01*
X90043000Y-71137231D01*
X90043000Y-69937000D01*
X90297000Y-69937000D01*
X90297000Y-71137231D01*
X90529742Y-71281284D01*
X91076812Y-71089024D01*
X91508664Y-70702045D01*
X91759553Y-70179260D01*
X91761476Y-70166890D01*
X91640155Y-69937000D01*
X90297000Y-69937000D01*
X90043000Y-69937000D01*
X88699845Y-69937000D01*
X88578524Y-70166890D01*
X85710000Y-70166890D01*
X85710000Y-60240910D01*
X87438695Y-60240910D01*
X87805640Y-60736343D01*
X89211171Y-61329736D01*
X90736793Y-61340087D01*
X92150246Y-60765819D01*
X92194360Y-60736343D01*
X92561305Y-60240910D01*
X90000000Y-57679605D01*
X87438695Y-60240910D01*
X85710000Y-60240910D01*
X85710000Y-58236793D01*
X86159913Y-58236793D01*
X86734181Y-59650246D01*
X86763657Y-59694360D01*
X87259090Y-60061305D01*
X89820395Y-57500000D01*
X90179605Y-57500000D01*
X92740910Y-60061305D01*
X93236343Y-59694360D01*
X93829736Y-58288829D01*
X93840087Y-56763207D01*
X93265819Y-55349754D01*
X93236343Y-55305640D01*
X92740910Y-54938695D01*
X90179605Y-57500000D01*
X89820395Y-57500000D01*
X87259090Y-54938695D01*
X86763657Y-55305640D01*
X86170264Y-56711171D01*
X86159913Y-58236793D01*
X85710000Y-58236793D01*
X85710000Y-57531619D01*
X85780578Y-56740809D01*
X85981706Y-56005609D01*
X86309846Y-55317648D01*
X86711210Y-54759090D01*
X87438695Y-54759090D01*
X90000000Y-57320395D01*
X92561305Y-54759090D01*
X167438695Y-54759090D01*
X170000000Y-57320395D01*
X172561305Y-54759090D01*
X172194360Y-54263657D01*
X170788829Y-53670264D01*
X169263207Y-53659913D01*
X167849754Y-54234181D01*
X167805640Y-54263657D01*
X167438695Y-54759090D01*
X92561305Y-54759090D01*
X92194360Y-54263657D01*
X90788829Y-53670264D01*
X89263207Y-53659913D01*
X87849754Y-54234181D01*
X87805640Y-54263657D01*
X87438695Y-54759090D01*
X86711210Y-54759090D01*
X86754627Y-54698670D01*
X87301987Y-54168240D01*
X87934635Y-53743118D01*
X88632560Y-53436750D01*
X89379176Y-53257502D01*
X90026030Y-53210000D01*
X169968382Y-53210000D01*
X170759192Y-53280578D01*
G36*
X111238328Y-103615959D02*
X111280839Y-103679581D01*
X111292242Y-103687200D01*
X110080050Y-103687200D01*
X110000000Y-103671277D01*
X109919950Y-103687200D01*
X109682861Y-103734360D01*
X109414004Y-103914004D01*
X109368657Y-103981871D01*
X109366528Y-103984000D01*
X109297905Y-103984000D01*
X108924482Y-104138676D01*
X108638676Y-104424482D01*
X108484000Y-104797905D01*
X108484000Y-105202095D01*
X108638676Y-105575518D01*
X108924482Y-105861324D01*
X109297905Y-106016000D01*
X109702095Y-106016000D01*
X110075518Y-105861324D01*
X110361324Y-105575518D01*
X110470145Y-105312800D01*
X112026475Y-105312800D01*
X111945995Y-105346136D01*
X111871861Y-105592255D01*
X112700000Y-106420395D01*
X113528139Y-105592255D01*
X113454005Y-105346136D01*
X113361261Y-105312800D01*
X114986177Y-105312800D01*
X114942191Y-105342191D01*
X114801843Y-105552235D01*
X114752560Y-105800000D01*
X114752560Y-107400000D01*
X114801843Y-107647765D01*
X114942191Y-107857809D01*
X114945864Y-107860263D01*
X111118928Y-111687200D01*
X110147440Y-111687200D01*
X110147440Y-111500000D01*
X110098157Y-111252235D01*
X109957809Y-111042191D01*
X109747765Y-110901843D01*
X109500000Y-110852560D01*
X108087800Y-110852560D01*
X108087800Y-107932666D01*
X108234586Y-107834586D01*
X108386156Y-107607745D01*
X111871861Y-107607745D01*
X111945995Y-107853864D01*
X112483223Y-108046965D01*
X113053454Y-108019778D01*
X113454005Y-107853864D01*
X113528139Y-107607745D01*
X112700000Y-106779605D01*
X111871861Y-107607745D01*
X108386156Y-107607745D01*
X108429127Y-107543436D01*
X108497440Y-107200001D01*
X108497440Y-106383223D01*
X111253035Y-106383223D01*
X111280222Y-106953454D01*
X111446136Y-107354005D01*
X111692255Y-107428139D01*
X112520395Y-106600000D01*
X112879605Y-106600000D01*
X113707745Y-107428139D01*
X113953864Y-107354005D01*
X114146965Y-106816777D01*
X114119778Y-106246546D01*
X113953864Y-105845995D01*
X113707745Y-105771861D01*
X112879605Y-106600000D01*
X112520395Y-106600000D01*
X111692255Y-105771861D01*
X111446136Y-105845995D01*
X111253035Y-106383223D01*
X108497440Y-106383223D01*
X108497440Y-106299999D01*
X108429127Y-105956564D01*
X108234586Y-105665414D01*
X107943436Y-105470873D01*
X107600001Y-105402560D01*
X106949999Y-105402560D01*
X106606564Y-105470873D01*
X106315414Y-105665414D01*
X106250000Y-105763313D01*
X106184586Y-105665414D01*
X105987000Y-105533391D01*
X105987000Y-104466609D01*
X106184586Y-104334586D01*
X106185377Y-104333403D01*
X106340302Y-104488327D01*
X106573691Y-104585000D01*
X106989250Y-104585000D01*
X107148000Y-104426250D01*
X107148000Y-103377000D01*
X107402000Y-103377000D01*
X107402000Y-104426250D01*
X107560750Y-104585000D01*
X107976309Y-104585000D01*
X108209698Y-104488327D01*
X108388327Y-104309699D01*
X108485000Y-104076310D01*
X108485000Y-103535750D01*
X108326250Y-103377000D01*
X107402000Y-103377000D01*
X107148000Y-103377000D01*
X107128000Y-103377000D01*
X107128000Y-103123000D01*
X107148000Y-103123000D01*
X107148000Y-102073750D01*
X107402000Y-102073750D01*
X107402000Y-103123000D01*
X108326250Y-103123000D01*
X108485000Y-102964250D01*
X108485000Y-102423690D01*
X108388327Y-102190301D01*
X108209698Y-102011673D01*
X107976309Y-101915000D01*
X107560750Y-101915000D01*
X107402000Y-102073750D01*
X107148000Y-102073750D01*
X106989250Y-101915000D01*
X106573691Y-101915000D01*
X106340302Y-102011673D01*
X106185377Y-102166597D01*
X106184586Y-102165414D01*
X105987000Y-102033391D01*
X105987000Y-101399843D01*
X106111325Y-101275518D01*
X106266001Y-100902095D01*
X106266001Y-100497905D01*
X106126865Y-100162000D01*
X107784370Y-100162000D01*
X111238328Y-103615959D01*
X111238328Y-103615959D01*
G37*
X111238328Y-103615959D02*
X111280839Y-103679581D01*
X111292242Y-103687200D01*
X110080050Y-103687200D01*
X110000000Y-103671277D01*
X109919950Y-103687200D01*
X109682861Y-103734360D01*
X109414004Y-103914004D01*
X109368657Y-103981871D01*
X109366528Y-103984000D01*
X109297905Y-103984000D01*
X108924482Y-104138676D01*
X108638676Y-104424482D01*
X108484000Y-104797905D01*
X108484000Y-105202095D01*
X108638676Y-105575518D01*
X108924482Y-105861324D01*
X109297905Y-106016000D01*
X109702095Y-106016000D01*
X110075518Y-105861324D01*
X110361324Y-105575518D01*
X110470145Y-105312800D01*
X112026475Y-105312800D01*
X111945995Y-105346136D01*
X111871861Y-105592255D01*
X112700000Y-106420395D01*
X113528139Y-105592255D01*
X113454005Y-105346136D01*
X113361261Y-105312800D01*
X114986177Y-105312800D01*
X114942191Y-105342191D01*
X114801843Y-105552235D01*
X114752560Y-105800000D01*
X114752560Y-107400000D01*
X114801843Y-107647765D01*
X114942191Y-107857809D01*
X114945864Y-107860263D01*
X111118928Y-111687200D01*
X110147440Y-111687200D01*
X110147440Y-111500000D01*
X110098157Y-111252235D01*
X109957809Y-111042191D01*
X109747765Y-110901843D01*
X109500000Y-110852560D01*
X108087800Y-110852560D01*
X108087800Y-107932666D01*
X108234586Y-107834586D01*
X108386156Y-107607745D01*
X111871861Y-107607745D01*
X111945995Y-107853864D01*
X112483223Y-108046965D01*
X113053454Y-108019778D01*
X113454005Y-107853864D01*
X113528139Y-107607745D01*
X112700000Y-106779605D01*
X111871861Y-107607745D01*
X108386156Y-107607745D01*
X108429127Y-107543436D01*
X108497440Y-107200001D01*
X108497440Y-106383223D01*
X111253035Y-106383223D01*
X111280222Y-106953454D01*
X111446136Y-107354005D01*
X111692255Y-107428139D01*
X112520395Y-106600000D01*
X112879605Y-106600000D01*
X113707745Y-107428139D01*
X113953864Y-107354005D01*
X114146965Y-106816777D01*
X114119778Y-106246546D01*
X113953864Y-105845995D01*
X113707745Y-105771861D01*
X112879605Y-106600000D01*
X112520395Y-106600000D01*
X111692255Y-105771861D01*
X111446136Y-105845995D01*
X111253035Y-106383223D01*
X108497440Y-106383223D01*
X108497440Y-106299999D01*
X108429127Y-105956564D01*
X108234586Y-105665414D01*
X107943436Y-105470873D01*
X107600001Y-105402560D01*
X106949999Y-105402560D01*
X106606564Y-105470873D01*
X106315414Y-105665414D01*
X106250000Y-105763313D01*
X106184586Y-105665414D01*
X105987000Y-105533391D01*
X105987000Y-104466609D01*
X106184586Y-104334586D01*
X106185377Y-104333403D01*
X106340302Y-104488327D01*
X106573691Y-104585000D01*
X106989250Y-104585000D01*
X107148000Y-104426250D01*
X107148000Y-103377000D01*
X107402000Y-103377000D01*
X107402000Y-104426250D01*
X107560750Y-104585000D01*
X107976309Y-104585000D01*
X108209698Y-104488327D01*
X108388327Y-104309699D01*
X108485000Y-104076310D01*
X108485000Y-103535750D01*
X108326250Y-103377000D01*
X107402000Y-103377000D01*
X107148000Y-103377000D01*
X107128000Y-103377000D01*
X107128000Y-103123000D01*
X107148000Y-103123000D01*
X107148000Y-102073750D01*
X107402000Y-102073750D01*
X107402000Y-103123000D01*
X108326250Y-103123000D01*
X108485000Y-102964250D01*
X108485000Y-102423690D01*
X108388327Y-102190301D01*
X108209698Y-102011673D01*
X107976309Y-101915000D01*
X107560750Y-101915000D01*
X107402000Y-102073750D01*
X107148000Y-102073750D01*
X106989250Y-101915000D01*
X106573691Y-101915000D01*
X106340302Y-102011673D01*
X106185377Y-102166597D01*
X106184586Y-102165414D01*
X105987000Y-102033391D01*
X105987000Y-101399843D01*
X106111325Y-101275518D01*
X106266001Y-100902095D01*
X106266001Y-100497905D01*
X106126865Y-100162000D01*
X107784370Y-100162000D01*
X111238328Y-103615959D01*
G36*
X100514253Y-70954117D02*
X100450629Y-70996629D01*
X100282212Y-71248684D01*
X100238000Y-71470953D01*
X100238000Y-71470957D01*
X100223073Y-71546000D01*
X100238000Y-71621043D01*
X100238001Y-76825157D01*
X100138676Y-76924482D01*
X99984000Y-77297905D01*
X99984000Y-77702095D01*
X100138676Y-78075518D01*
X100424482Y-78361324D01*
X100797905Y-78516000D01*
X101202095Y-78516000D01*
X101575518Y-78361324D01*
X101861324Y-78075518D01*
X102016000Y-77702095D01*
X102016000Y-77297905D01*
X101861324Y-76924482D01*
X101762000Y-76825158D01*
X101762000Y-73896821D01*
X101998848Y-74055078D01*
X102337500Y-74122440D01*
X102669810Y-74122440D01*
X108783118Y-80235749D01*
X108825629Y-80299371D01*
X109077683Y-80467788D01*
X109299952Y-80512000D01*
X109299953Y-80512000D01*
X109375000Y-80526928D01*
X109450047Y-80512000D01*
X133910370Y-80512000D01*
X132384370Y-82038000D01*
X95865631Y-82038000D01*
X95097440Y-81269810D01*
X95097440Y-80674999D01*
X95029127Y-80331564D01*
X94834586Y-80040414D01*
X94833403Y-80039623D01*
X94988327Y-79884698D01*
X95085000Y-79651309D01*
X95085000Y-79235750D01*
X94926250Y-79077000D01*
X93877000Y-79077000D01*
X93877000Y-79097000D01*
X93623000Y-79097000D01*
X93623000Y-79077000D01*
X92573750Y-79077000D01*
X92415000Y-79235750D01*
X92415000Y-79651309D01*
X92511673Y-79884698D01*
X92666597Y-80039623D01*
X92665414Y-80040414D01*
X92533391Y-80238000D01*
X91436479Y-80238000D01*
X91390625Y-80169375D01*
X91326844Y-80126758D01*
X91554586Y-79974586D01*
X91749126Y-79683435D01*
X91817440Y-79340000D01*
X91817440Y-78248691D01*
X92415000Y-78248691D01*
X92415000Y-78664250D01*
X92573750Y-78823000D01*
X93623000Y-78823000D01*
X93623000Y-77898750D01*
X93877000Y-77898750D01*
X93877000Y-78823000D01*
X94926250Y-78823000D01*
X95085000Y-78664250D01*
X95085000Y-78248691D01*
X94988327Y-78015302D01*
X94809699Y-77836673D01*
X94576310Y-77740000D01*
X94035750Y-77740000D01*
X93877000Y-77898750D01*
X93623000Y-77898750D01*
X93464250Y-77740000D01*
X92923690Y-77740000D01*
X92690301Y-77836673D01*
X92511673Y-78015302D01*
X92415000Y-78248691D01*
X91817440Y-78248691D01*
X91817440Y-78140000D01*
X91749126Y-77796565D01*
X91554586Y-77505414D01*
X91263435Y-77310874D01*
X90932000Y-77244947D01*
X90932000Y-73770630D01*
X94405191Y-70297440D01*
X94737500Y-70297440D01*
X95076152Y-70230078D01*
X95363247Y-70038247D01*
X95555078Y-69751152D01*
X95622440Y-69412500D01*
X95622440Y-68837500D01*
X95555078Y-68498848D01*
X95388803Y-68250000D01*
X95555078Y-68001152D01*
X95602648Y-67762000D01*
X103706369Y-67762000D01*
X100514253Y-70954117D01*
X100514253Y-70954117D01*
G37*
X100514253Y-70954117D02*
X100450629Y-70996629D01*
X100282212Y-71248684D01*
X100238000Y-71470953D01*
X100238000Y-71470957D01*
X100223073Y-71546000D01*
X100238000Y-71621043D01*
X100238001Y-76825157D01*
X100138676Y-76924482D01*
X99984000Y-77297905D01*
X99984000Y-77702095D01*
X100138676Y-78075518D01*
X100424482Y-78361324D01*
X100797905Y-78516000D01*
X101202095Y-78516000D01*
X101575518Y-78361324D01*
X101861324Y-78075518D01*
X102016000Y-77702095D01*
X102016000Y-77297905D01*
X101861324Y-76924482D01*
X101762000Y-76825158D01*
X101762000Y-73896821D01*
X101998848Y-74055078D01*
X102337500Y-74122440D01*
X102669810Y-74122440D01*
X108783118Y-80235749D01*
X108825629Y-80299371D01*
X109077683Y-80467788D01*
X109299952Y-80512000D01*
X109299953Y-80512000D01*
X109375000Y-80526928D01*
X109450047Y-80512000D01*
X133910370Y-80512000D01*
X132384370Y-82038000D01*
X95865631Y-82038000D01*
X95097440Y-81269810D01*
X95097440Y-80674999D01*
X95029127Y-80331564D01*
X94834586Y-80040414D01*
X94833403Y-80039623D01*
X94988327Y-79884698D01*
X95085000Y-79651309D01*
X95085000Y-79235750D01*
X94926250Y-79077000D01*
X93877000Y-79077000D01*
X93877000Y-79097000D01*
X93623000Y-79097000D01*
X93623000Y-79077000D01*
X92573750Y-79077000D01*
X92415000Y-79235750D01*
X92415000Y-79651309D01*
X92511673Y-79884698D01*
X92666597Y-80039623D01*
X92665414Y-80040414D01*
X92533391Y-80238000D01*
X91436479Y-80238000D01*
X91390625Y-80169375D01*
X91326844Y-80126758D01*
X91554586Y-79974586D01*
X91749126Y-79683435D01*
X91817440Y-79340000D01*
X91817440Y-78248691D01*
X92415000Y-78248691D01*
X92415000Y-78664250D01*
X92573750Y-78823000D01*
X93623000Y-78823000D01*
X93623000Y-77898750D01*
X93877000Y-77898750D01*
X93877000Y-78823000D01*
X94926250Y-78823000D01*
X95085000Y-78664250D01*
X95085000Y-78248691D01*
X94988327Y-78015302D01*
X94809699Y-77836673D01*
X94576310Y-77740000D01*
X94035750Y-77740000D01*
X93877000Y-77898750D01*
X93623000Y-77898750D01*
X93464250Y-77740000D01*
X92923690Y-77740000D01*
X92690301Y-77836673D01*
X92511673Y-78015302D01*
X92415000Y-78248691D01*
X91817440Y-78248691D01*
X91817440Y-78140000D01*
X91749126Y-77796565D01*
X91554586Y-77505414D01*
X91263435Y-77310874D01*
X90932000Y-77244947D01*
X90932000Y-73770630D01*
X94405191Y-70297440D01*
X94737500Y-70297440D01*
X95076152Y-70230078D01*
X95363247Y-70038247D01*
X95555078Y-69751152D01*
X95622440Y-69412500D01*
X95622440Y-68837500D01*
X95555078Y-68498848D01*
X95388803Y-68250000D01*
X95555078Y-68001152D01*
X95602648Y-67762000D01*
X103706369Y-67762000D01*
X100514253Y-70954117D01*
G36*
X140488001Y-71565632D02*
X140488001Y-74551149D01*
X140325528Y-74388676D01*
X139952105Y-74234000D01*
X139547915Y-74234000D01*
X139174492Y-74388676D01*
X138888686Y-74674482D01*
X138734010Y-75047905D01*
X138734010Y-75452095D01*
X138803210Y-75619159D01*
X137901322Y-76521047D01*
X137861324Y-76424482D01*
X137575518Y-76138676D01*
X137202095Y-75984000D01*
X136797905Y-75984000D01*
X136424482Y-76138676D01*
X136138676Y-76424482D01*
X135984000Y-76797905D01*
X135984000Y-76938369D01*
X133934370Y-78988000D01*
X109690631Y-78988000D01*
X104798098Y-74095468D01*
X105001152Y-74055078D01*
X105288247Y-73863247D01*
X105355898Y-73762000D01*
X106665158Y-73762000D01*
X106764482Y-73861324D01*
X107137905Y-74016000D01*
X107542095Y-74016000D01*
X107915518Y-73861324D01*
X108014842Y-73762000D01*
X111549957Y-73762000D01*
X111625000Y-73776927D01*
X111700043Y-73762000D01*
X111700048Y-73762000D01*
X111922317Y-73717788D01*
X112174371Y-73549371D01*
X112216883Y-73485747D01*
X112610749Y-73091882D01*
X112674371Y-73049371D01*
X112741190Y-72949370D01*
X112842787Y-72797318D01*
X112842788Y-72797317D01*
X112887000Y-72575048D01*
X112887000Y-72575047D01*
X112901928Y-72500000D01*
X112887000Y-72424953D01*
X112887000Y-72214307D01*
X113000000Y-72138803D01*
X113248848Y-72305078D01*
X113587500Y-72372440D01*
X114162500Y-72372440D01*
X114501152Y-72305078D01*
X114709670Y-72165750D01*
X118825000Y-72165750D01*
X118825000Y-74506309D01*
X118921673Y-74739698D01*
X119100301Y-74918327D01*
X119333690Y-75015000D01*
X124174250Y-75015000D01*
X124333000Y-74856250D01*
X124333000Y-72007000D01*
X124587000Y-72007000D01*
X124587000Y-74856250D01*
X124745750Y-75015000D01*
X129586310Y-75015000D01*
X129819699Y-74918327D01*
X129998327Y-74739698D01*
X130095000Y-74506309D01*
X130095000Y-72165750D01*
X129936250Y-72007000D01*
X124587000Y-72007000D01*
X124333000Y-72007000D01*
X118983750Y-72007000D01*
X118825000Y-72165750D01*
X114709670Y-72165750D01*
X114788247Y-72113247D01*
X114855898Y-72012000D01*
X116274957Y-72012000D01*
X116350000Y-72026927D01*
X116425043Y-72012000D01*
X116425048Y-72012000D01*
X116647317Y-71967788D01*
X116899371Y-71799371D01*
X116941883Y-71735747D01*
X118825000Y-69852630D01*
X118825000Y-71594250D01*
X118983750Y-71753000D01*
X124333000Y-71753000D01*
X124333000Y-68903750D01*
X124587000Y-68903750D01*
X124587000Y-71753000D01*
X129936250Y-71753000D01*
X130095000Y-71594250D01*
X130095000Y-69253691D01*
X129998327Y-69020302D01*
X129819699Y-68841673D01*
X129586310Y-68745000D01*
X124745750Y-68745000D01*
X124587000Y-68903750D01*
X124333000Y-68903750D01*
X124174250Y-68745000D01*
X119932631Y-68745000D01*
X121665631Y-67012000D01*
X135934370Y-67012000D01*
X140488001Y-71565632D01*
X140488001Y-71565632D01*
G37*
X140488001Y-71565632D02*
X140488001Y-74551149D01*
X140325528Y-74388676D01*
X139952105Y-74234000D01*
X139547915Y-74234000D01*
X139174492Y-74388676D01*
X138888686Y-74674482D01*
X138734010Y-75047905D01*
X138734010Y-75452095D01*
X138803210Y-75619159D01*
X137901322Y-76521047D01*
X137861324Y-76424482D01*
X137575518Y-76138676D01*
X137202095Y-75984000D01*
X136797905Y-75984000D01*
X136424482Y-76138676D01*
X136138676Y-76424482D01*
X135984000Y-76797905D01*
X135984000Y-76938369D01*
X133934370Y-78988000D01*
X109690631Y-78988000D01*
X104798098Y-74095468D01*
X105001152Y-74055078D01*
X105288247Y-73863247D01*
X105355898Y-73762000D01*
X106665158Y-73762000D01*
X106764482Y-73861324D01*
X107137905Y-74016000D01*
X107542095Y-74016000D01*
X107915518Y-73861324D01*
X108014842Y-73762000D01*
X111549957Y-73762000D01*
X111625000Y-73776927D01*
X111700043Y-73762000D01*
X111700048Y-73762000D01*
X111922317Y-73717788D01*
X112174371Y-73549371D01*
X112216883Y-73485747D01*
X112610749Y-73091882D01*
X112674371Y-73049371D01*
X112741190Y-72949370D01*
X112842787Y-72797318D01*
X112842788Y-72797317D01*
X112887000Y-72575048D01*
X112887000Y-72575047D01*
X112901928Y-72500000D01*
X112887000Y-72424953D01*
X112887000Y-72214307D01*
X113000000Y-72138803D01*
X113248848Y-72305078D01*
X113587500Y-72372440D01*
X114162500Y-72372440D01*
X114501152Y-72305078D01*
X114709670Y-72165750D01*
X118825000Y-72165750D01*
X118825000Y-74506309D01*
X118921673Y-74739698D01*
X119100301Y-74918327D01*
X119333690Y-75015000D01*
X124174250Y-75015000D01*
X124333000Y-74856250D01*
X124333000Y-72007000D01*
X124587000Y-72007000D01*
X124587000Y-74856250D01*
X124745750Y-75015000D01*
X129586310Y-75015000D01*
X129819699Y-74918327D01*
X129998327Y-74739698D01*
X130095000Y-74506309D01*
X130095000Y-72165750D01*
X129936250Y-72007000D01*
X124587000Y-72007000D01*
X124333000Y-72007000D01*
X118983750Y-72007000D01*
X118825000Y-72165750D01*
X114709670Y-72165750D01*
X114788247Y-72113247D01*
X114855898Y-72012000D01*
X116274957Y-72012000D01*
X116350000Y-72026927D01*
X116425043Y-72012000D01*
X116425048Y-72012000D01*
X116647317Y-71967788D01*
X116899371Y-71799371D01*
X116941883Y-71735747D01*
X118825000Y-69852630D01*
X118825000Y-71594250D01*
X118983750Y-71753000D01*
X124333000Y-71753000D01*
X124333000Y-68903750D01*
X124587000Y-68903750D01*
X124587000Y-71753000D01*
X129936250Y-71753000D01*
X130095000Y-71594250D01*
X130095000Y-69253691D01*
X129998327Y-69020302D01*
X129819699Y-68841673D01*
X129586310Y-68745000D01*
X124745750Y-68745000D01*
X124587000Y-68903750D01*
X124333000Y-68903750D01*
X124174250Y-68745000D01*
X119932631Y-68745000D01*
X121665631Y-67012000D01*
X135934370Y-67012000D01*
X140488001Y-71565632D01*
G04 #@! TD*
M02*
